<svg xmlns="http://www.w3.org/2000/svg" height="512" width="512"><g fill-rule="evenodd" stroke-width="1pt"><path fill="#0000bd" d="M0 0h171.52v511.983H0z"/><path fill="#cc1900" d="M340.48 0H512v511.983H340.48z"/><path fill="#fff600" d="M171.52 0h168.96v511.983H171.52z"/></g><g stroke-width="1pt"><path d="M398.54 290.22c47.823.818 44.515-29.149 61.974-32.126 17.458-2.977 33.928 12.489 33.302 29.972 1.873 20.814-29.714 20.963-31.637 38.298-1.923 17.336 15.378 22.628 33.302 19.982s30.646-20.363 39.804-28.689c-13.321 7.493-24.218 4.778-25.21-8.558.673-17.497 18.103-23.847 26.345-17.96 6.476-5.298 6.09-7.423 13.209-6.246 4.828 2.944 6.143 2.861 8.999 7.418 3.717-2.355 5.269-3.54 12.204-.597 4.306 1.767 7.181 4.961 9.841 9.808 3.146-2.486 8.086-3.413 13.762-.197 3.61 1.837 8.108 7.182 8.72 12.995 8.451 1.696 11.381 3.654 14.034 7.953 15.765 21.775-2.435 58.473-1.432 77.205 1.004 18.731 16.651 19.981 16.651 19.981-14.717-9.42-.201-15.9 6.745-16.55 22.252 2.292 18.508 35.135-5.18 29.366-18.978-5.18 38.921 3.281 37.525 62.637-1.396 61.021-32.815 49.01-32.815 49.01s26.838 10.109 21.646 30.09c-5.191 13.507-32.933 22.456-30.578-3.448-8.242 11.186-10.608 15.913-10.58 32.916-1.148 21.713.656 31.631 6.845 42.301 1.48-9.935 8.206-10.361 13.952-9.1 8.101.084 12.607 6.442 9.563 14.684 4.079-1.035 7.801 1.757 9.402 5.121 1.255 6.206 4.037 8.956-2.439 11.311 6.476 1.178 9.61 2.024 10.377 11.049.18 7.261-12.596 11.246-26.136 8.891 7.065 3.533 29.983 50.025 26.922 103.44-2.119 47.905-86.038 43.639-123.53 42.305-37.488-1.332-72.512.775-87.133 13.052 11.247 7.182-1.302 29.542-10.864 19.064 0 8.242-9.449 20.979-22.497 12.718.534 14.885-14.238 25.328-27.121 25.328s-27.655-10.443-27.121-25.328c-13.048 8.261-22.497-4.476-22.497-12.718-9.562 10.478-22.111-11.882-10.864-19.064-14.621-12.277-49.645-14.384-87.133-13.052-37.489 1.334-121.41 5.6-123.53-42.305-3.061-53.418 23.699-99.91 30.764-103.44-13.54 2.355-26.316-1.63-26.136-8.891.767-9.025 3.901-9.871 10.377-11.049-6.476-2.355-3.694-5.105-2.439-11.311 1.601-3.364 5.323-6.156 9.402-5.121-3.044-8.242 1.462-14.6 9.563-14.684 5.746-1.261 12.472-.835 13.952 9.1 6.189-10.67 7.993-20.588 6.845-42.301.028-17.003-2.338-21.73-10.58-32.916 2.355 25.904-25.387 16.955-30.578 3.448-5.192-19.981 21.646-30.09 21.646-30.09s-31.419 12.011-32.815-49.01c-1.396-59.356 56.503-67.817 37.525-62.637-23.688 5.769-27.432-27.074-5.18-29.366 6.946.65 21.462 7.13 6.745 16.55 0 0 15.647-1.25 16.651-19.981 1.003-18.732-17.197-55.43-1.432-77.205 2.653-4.299 5.583-6.257 14.034-7.953.612-5.813 5.11-11.158 8.72-12.995 5.676-3.216 10.616-2.289 13.762.197 2.66-4.847 5.535-8.041 9.841-9.808 6.935-2.943 8.487-1.758 12.204.597 2.856-4.557 4.171-4.474 8.999-7.418 7.119-1.177 6.733.948 13.209 6.246 8.242-5.887 25.672.463 26.345 17.96-.992 13.336-11.889 16.051-25.21 8.558 9.158 8.326 21.88 26.043 39.804 28.689s35.225-2.646 33.302-19.982c-1.923-17.335-33.51-17.484-31.637-38.298-.626-17.483 15.844-32.949 33.302-29.972 17.459 2.977 14.151 32.944 62.182 32.126z" fill-rule="evenodd" transform="matrix(.3926 0 0 .37087 101.104 51.638)" stroke="#000" fill="#cba323"/><path d="M356.44 346.62c-.575 17.961-31.258 14.828-51.514 13.859-26.326-1.231-77.59-46.08-44.263-69.888M164.84 449.52c-16.484 17.662 28.691 13.497 9.419-9.419-7.87-8.82-41.21 18.839-41.21 49.452s10.597 44.742 16.484 45.919c5.887 1.178 15.307-3.532 15.307-8.241 0-5.887-4.71-15.307-11.774-14.13-11.775 0-5.888 10.597-.001 10.597" transform="matrix(.3926 0 0 .37087 101.104 51.638)" stroke="#000" fill="none"/><path d="M163.39 451.39s-24.453 9.908-24.453 39.343c0 29.436 7.065 28.259 7.065 28.259" transform="matrix(.3926 0 0 .37087 101.104 51.638)" stroke="#000" fill="none"/><path d="M166.02 430.68s24.726-3.533 23.549 18.838c-1.178 22.371-9.42 23.549-22.371 22.371-12.952-1.177-5.887-16.483-5.887-16.483M156.6 543.71s18.839-1.178 17.661-21.194c-1.177-20.016-15.306-21.194-23.548-20.016-8.242 1.177-10.74 5.803-8.242 12.88M150.71 567.26s3.936-8.158 16.887-8.158c12.952 0 18.982 30.386 17.805 63.354-1.178 32.968-33.515 61.37-40.58 59.015-7.064-2.355-10.597-3.533-4.71-8.242M172.39 643.31l-22.859 38.166" transform="matrix(.3926 0 0 .37087 101.104 51.638)" stroke="#000" fill="none"/><path d="M141.29 667.34c0 .416 5.054-1.105 8.587 1.249 3.532 2.355 4.365 5.816 4.365 5.816" transform="matrix(.3926 0 0 .37087 100.7 51.747)" stroke="#000" fill="none"/><path d="M144.82 650.86s4.517-1.819 10.404.536 5.695 7.662 5.695 7.662" transform="matrix(.3579 0 0 .2656 107.438 120.498)" stroke="#000" fill="none"/><path d="M171.78 731.95c12.251 6.364 24.282-25.181.671-26.726-16.888-.69-29.085 23.268-26.73 35.041 6.431 40.061 10.444 66.861 50.568 72.045 30.613 2.355 78.451-5.101 108.3-1.523 29.44 3.433 61.94 14.272 73.714 26.047 11.774 11.774 19.112 11.892 19.112 23.667 0 11.774-16.815 17.816-23.476 10.74" transform="matrix(.3926 0 0 .37087 100.68 52.44)" stroke="#000" fill="none"/><path d="M369.84 876.92c4.305-2.914 14.556-20.425 4.722-30.815-15.194-15.401-26.165-21.479-33.658-23.977M347.55 863.28c5.828-3.532 6.684-15.298.594-24.274-6.091-8.975-21.941-16.165-53.073-18.799-23.583-1.982-87.844 8.444-111.39 1.379-33.059-12.721-53.845-34.149-48.773-87.391 1.521-20.621 11.917-34.465 32.278-37.105 22.858-.143 28.813 14.734 28.813 33.571 0 9.681-25.317 18.878-29.909 9.705-7.109-12.854-10.217-24.451 15.881-30.607" transform="matrix(.3926 0 0 .37087 100.68 52.44)" stroke="#000" fill="none"/><path d="M337.41 844.59s9.765 5.685 7.41 10.395c-2.354 4.709-8.658 2.7-4.496-2.296" transform="matrix(.3926 0 0 .37087 100.68 52.44)" stroke="#000" fill="none"/><path d="M238.95 291.4s-6.66 6.66-3.33 22.479 9.991 14.987 9.991 14.987M216.47 300.55c-.833 1.665-9.706 11.858-4.71 22.681 4.995 10.824 8.956 12.977 8.956 12.977M193.99 313.87s-7.195 10.622-8.567 29.555 7.789 45 7.533 54.698c-.581 20.609-24.012 30.839-24.012 30.839M159.85 543.66c1.665 0 34.135-29.972 34.135 76.597-2.498 61.61-38.298 67.438-38.298 67.438" transform="matrix(.3926 0 0 .37087 101.104 51.638)" stroke="#000" fill="none"/><path d="M162.49 689.71c13.148-3.336 40.425 10.99 30.613 35.324" transform="matrix(.3926 0 0 .37087 101.77 52.53)" stroke="#000" fill="none"/><path d="M167.78 681.47c8.439.785 15.319 6.904 18.458 15.343" transform="matrix(.3926 0 0 .37087 100.973 51.876)" stroke="#000" fill="none"/><path d="M148.2 477.06s9.991 14.154 24.977 14.154 19.982-15.819 19.982-15.819" transform="matrix(.3926 0 0 .37087 101.104 51.638)" stroke="#000" fill="none"/><path d="M146.53 484.55s9.158 16.652 24.977 17.484c15.819.833 21.647-10.823 21.647-10.823M179.84 509.52s11.657 4.996 11.657 19.15c0 14.153-10.824 10.823-10.824 10.823" transform="matrix(.3926 0 0 .37087 101.104 51.638)" stroke="#000" fill="none"/><path d="M356.44 346.62c-.575 17.961-31.258 14.828-51.514 13.859-26.326-1.231-77.59-46.08-44.263-69.888M164.84 449.52c-16.484 17.662 28.691 13.497 9.419-9.419-7.87-8.82-41.21 18.839-41.21 49.452s10.597 44.742 16.484 45.919c5.887 1.178 15.307-3.532 15.307-8.241 0-5.887-4.71-15.307-11.774-14.13-11.775 0-5.888 10.597-.001 10.597" transform="matrix(-.3926 0 0 .37087 413.951 51.638)" stroke="#000" fill="none"/><path d="M163.39 451.39s-24.453 9.908-24.453 39.343c0 29.436 7.065 28.259 7.065 28.259" transform="matrix(-.3926 0 0 .37087 413.951 51.638)" stroke="#000" fill="none"/><path d="M166.02 430.68s24.726-3.533 23.549 18.838c-1.178 22.371-9.42 23.549-22.371 22.371-12.952-1.177-5.887-16.483-5.887-16.483M156.6 543.71s18.839-1.178 17.661-21.194c-1.177-20.016-15.306-21.194-23.548-20.016-8.242 1.177-10.74 5.803-8.242 12.88M150.71 567.26s3.936-8.158 16.887-8.158c12.952 0 18.982 30.386 17.805 63.354-1.178 32.968-33.515 61.37-40.58 59.015-7.064-2.355-10.597-3.533-4.71-8.242M172.39 643.31l-22.859 38.166" transform="matrix(-.3926 0 0 .37087 413.951 51.638)" stroke="#000" fill="none"/><path d="M141.29 667.34c0 .416 5.054-1.105 8.587 1.249 3.532 2.355 4.365 5.816 4.365 5.816" transform="matrix(-.3926 0 0 .37087 414.355 51.876)" stroke="#000" fill="none"/><path d="M144.82 650.86s4.517-1.819 10.404.536 5.695 7.662 5.695 7.662" transform="matrix(-.3579 0 0 .2656 407.617 120.498)" stroke="#000" fill="none"/><path d="M170.42 741.5c-2.354 0 15.451-19.877-.688-23.897-20.284-3.872-28.744 16.55-26.389 28.323 5.072 28.746 16.897 64.033 52.945 66.388 30.613 2.355 78.451-5.101 108.3-1.523 29.44 3.433 61.94 14.272 73.714 26.047 11.774 11.774 19.112 11.892 19.112 23.667 0 11.774-16.815 17.816-23.476 10.74" transform="matrix(-.3926 0 0 .37087 412.771 52.44)" stroke="#000" fill="none"/><path d="M369.84 876.92c4.305-2.914 14.556-20.425 4.722-30.815-15.194-15.401-26.165-21.479-33.658-23.977M347.55 863.28c5.828-3.532 6.684-15.298.594-24.274-6.091-8.975-21.941-16.165-53.073-18.799-23.583-1.982-87.844 8.444-111.39 1.379-43.929-18.378-53.505-42.635-52.509-81.734 1.521-20.621 12.257-36.587 32.618-39.227 22.858-.143 26.774 11.906 26.774 30.744 0 9.68-9.013 25.716-21.334 23.362-12.322-3.188-21.92-25.013-1.106-36.669" transform="matrix(-.3926 0 0 .37087 412.771 52.44)" stroke="#000" fill="none"/><path d="M337.41 844.59s9.765 5.685 7.41 10.395c-2.354 4.709-8.658 2.7-4.496-2.296" transform="matrix(-.3926 0 0 .37087 412.771 52.44)" stroke="#000" fill="none"/><path d="M238.95 291.4s-6.66 6.66-3.33 22.479 9.991 14.987 9.991 14.987M216.47 300.55c-.833 1.665-9.706 11.858-4.71 22.681 4.995 10.824 8.956 12.977 8.956 12.977M193.99 313.87s-7.195 10.622-8.567 29.555 7.789 45 7.533 54.698c-.581 20.609-24.012 30.839-24.012 30.839M159.85 543.66c1.665 0 34.135-29.972 34.135 76.597-2.498 61.61-38.298 67.438-38.298 67.438" transform="matrix(-.3926 0 0 .37087 413.951 51.638)" stroke="#000" fill="none"/><path d="M158.07 701.03c16.205-14.296 47.219 13.112 35.708 38.506" transform="matrix(-.3926 0 0 .37087 414.082 49.912)" stroke="#000" fill="none"/><path d="M167.78 681.47c8.439.785 17.357 6.197 20.496 14.636" transform="matrix(-.3926 0 0 .37087 415.555 52.798)" stroke="#000" fill="none"/><path d="M148.2 477.06s9.991 14.154 24.977 14.154 19.982-15.819 19.982-15.819" transform="matrix(-.3926 0 0 .37087 413.951 51.638)" stroke="#000" fill="none"/><path d="M146.53 484.55s9.158 16.652 24.977 17.484c15.819.833 21.647-10.823 21.647-10.823M179.84 509.52s11.657 4.996 11.657 19.15c0 14.153-10.824 10.823-10.824 10.823" transform="matrix(-.3926 0 0 .37087 413.951 51.638)" stroke="#000" fill="none"/><path d="M353.01 313.46c.416-.416-1.665-9.159 8.326-8.742 9.99.416 6.244 9.574 14.57 12.904 7.909 2.082 22.063 4.164 22.528 4.164s14.619-2.082 22.528-4.164c8.326-3.33 4.58-12.488 14.57-12.904 9.991-.417 7.91 8.326 8.326 8.742" transform="matrix(.3926 0 0 .37087 101.104 51.638)" stroke="#000" fill="none"/><path d="M373.28 349.42c-.294-4.121-1.249-9.55-6.871-9.966-10.525-.345-18.856 20.605 4.444 20.753 17.055.111 17.198-32.355.804-32.831-23.549-.667-26.788 13.389-26.402 16.143 5.957-50.397-33.246-40.206-31.373-59.77.207-10.606 10.849-11.822 22.479-9.857 17.459 2.799 14.151 30.967 62.078 30.198 47.927.769 44.619-27.399 62.078-30.198 11.63-1.965 22.272-.749 22.479 9.857 1.873 19.564-37.33 9.373-31.373 59.77.386-2.754-2.853-16.81-26.402-16.143-16.394.476-16.251 32.942.804 32.831 23.3-.148 14.969-21.098 4.444-20.753-5.622.416-6.577 5.845-6.871 9.966" transform="matrix(.3926 0 0 .37087 101.104 51.638)" stroke="#000" fill="none"/><path d="M320.327 347.902l.046.282-4.418 1.09-.047-.282.28-.07c.246-.06.434-.162.567-.306.095-.098.158-.239.188-.426.026-.134-.003-.46-.089-.977l-1.12-6.798c-.088-.528-.165-.853-.233-.974a.63.63 0 0 0-.337-.273c-.154-.069-.349-.074-.586-.015l-.28.07-.047-.282 4.419-1.09.046.282-.28.069c-.245.06-.434.162-.567.306-.095.098-.16.241-.194.43-.026.132.004.459.09.976l1.12 6.798c.087.528.164.853.232.973.072.12.184.214.338.282.158.061.354.063.59.004l.282-.069zM313.808 339.243l.3 2.829-.226.036c-.204-.632-.403-1.076-.597-1.332a1.739 1.739 0 0 0-.747-.58c-.17-.066-.455-.068-.854-.005l-.636.101.856 8.064c.056.534.114.864.175.99.064.126.172.23.321.31.153.075.352.093.596.054l.283-.045.03.286-4.476.71-.03-.286.284-.045c.248-.04.442-.125.582-.257.101-.09.174-.225.22-.41.032-.131.02-.459-.035-.982l-.855-8.064-.618.098c-.576.092-.978.307-1.207.647-.322.473-.49 1.104-.505 1.89l-.239.038-.3-2.829 7.678-1.218zM282.034 343.569l.285 4.314.247-.024c.38-.037.686-.137.917-.3.231-.163.42-.419.562-.766.148-.347.227-.805.241-1.373l.222-.022.348 5.276-.222.022c-.146-.988-.408-1.623-.788-1.903a1.715 1.715 0 0 0-1.242-.36l-.247.024.212 3.216c.035.537.08.87.135 1 .06.13.163.24.31.329.15.083.345.113.585.09l.286-.029.019.287-4.492.444-.019-.287.284-.028c.25-.025.447-.099.592-.223.106-.083.182-.214.229-.396.038-.129.04-.457.005-.983l-.456-6.912c-.035-.537-.081-.87-.137-1a.673.673 0 0 0-.307-.32c-.146-.09-.34-.124-.581-.1l-.284.028-.02-.285 7.249-.716.199 3.014-.26.025c-.106-.701-.293-1.211-.56-1.528-.264-.316-.63-.522-1.1-.616-.258-.053-.73-.045-1.414.023l-.798.079zM265.555 343.732v2.852h-.23c-.135-.658-.286-1.13-.45-1.414a1.876 1.876 0 0 0-.68-.692c-.162-.093-.444-.14-.847-.14h-.641v8.131c0 .539.023.876.07 1.01a.8.8 0 0 0 .286.358c.143.098.338.147.585.147h.285v.288h-4.513v-.288h.286c.25 0 .452-.054.605-.163.11-.073.196-.196.26-.373.047-.125.07-.45.07-.979v-8.13h-.623c-.58 0-1.003.15-1.265.45-.37.42-.602 1.018-.7 1.795h-.24v-2.852h7.742zM256.643 353.987v.288h-4.506v-.288h.285c.25 0 .451-.055.604-.163.11-.073.195-.197.254-.373.047-.125.07-.451.07-.98v-6.933c0-.539-.023-.876-.07-1.011a.711.711 0 0 0-.285-.35c-.14-.104-.331-.156-.573-.156h-.285v-.286h4.506v.286h-.286c-.25 0-.452.055-.604.163-.11.073-.197.198-.261.375-.047.123-.07.45-.07.979v6.934c0 .538.023.875.07 1.01a.8.8 0 0 0 .286.358c.145.098.338.147.579.147h.286zM245.313 343.732l4.253 6.536v-4.531c0-.632-.075-1.06-.224-1.282-.203-.301-.544-.446-1.023-.436v-.287h2.848v.287c-.364.057-.61.132-.738.225-.122.089-.22.236-.292.443-.068.203-.101.552-.101 1.05v8.776h-.216l-5.83-8.776v6.7c0 .607.112 1.016.337 1.229.229.212.49.318.782.318h.204v.288h-3.058v-.288c.475-.005.805-.125.992-.357.186-.233.28-.63.28-1.19V345l-.185-.28c-.182-.28-.343-.464-.483-.552-.14-.089-.341-.138-.604-.148v-.287h3.058zM241.726 343.04l-.01.286c-.315.047-.602.238-.858.572-.187.25-.471.846-.856 1.786l-3.234 7.899-.21-.01-2.673-8.522c-.322-1.028-.542-1.632-.658-1.815-.113-.18-.336-.303-.669-.368l.01-.286 4.128.206-.01.287-.139-.007c-.373-.019-.628.025-.768.133-.1.073-.153.184-.158.334-.003.093.01.205.04.337.03.126.132.471.309 1.035l1.66 5.334 1.859-4.583c.221-.555.36-.926.411-1.115.053-.19.083-.351.087-.485a.822.822 0 0 0-.088-.418.669.669 0 0 0-.289-.286c-.18-.097-.42-.154-.72-.17l.01-.285 2.826.14zM226.518 341.718l-.1 3.512-.261-.019c-.08-.888-.348-1.616-.804-2.183-.452-.573-.957-.88-1.515-.922-.431-.031-.782.087-1.049.353a1.378 1.378 0 0 0-.422.942c-.011.234.023.443.103.631.11.252.296.507.555.765.191.185.634.52 1.332 1.008.978.678 1.63 1.3 1.954 1.863.321.564.464 1.191.43 1.885-.042.88-.36 1.617-.954 2.213-.59.59-1.315.853-2.178.79a2.87 2.87 0 0 1-.763-.157 5.235 5.235 0 0 1-.89-.446c-.198-.118-.362-.182-.493-.191-.11-.008-.229.035-.356.13-.129.093-.235.244-.322.452l-.234-.018.194-3.973.233.018c.132 1.13.448 2.01.949 2.638.504.624 1.063.957 1.676 1.002.474.034.859-.096 1.152-.39.3-.295.46-.653.48-1.072a1.705 1.705 0 0 0-.13-.733 2.187 2.187 0 0 0-.456-.696c-.21-.228-.586-.53-1.128-.907-.76-.529-1.303-.97-1.63-1.326a3.76 3.76 0 0 1-.739-1.167 3.335 3.335 0 0 1-.207-1.37c.041-.84.328-1.535.86-2.087s1.18-.802 1.946-.746c.28.02.548.08.806.183.197.077.432.211.707.401.28.187.477.285.59.293a.3.3 0 0 0 .267-.105c.068-.078.137-.273.207-.585l.19.014zM220.626 341.377l-.027.284c-.317.018-.614.183-.891.492-.202.233-.522.8-.962 1.702l-3.712 7.579-.208-.03-2.143-8.742c-.258-1.055-.44-1.678-.545-1.87-.1-.191-.315-.334-.644-.429l.027-.284 4.105.585-.027.284-.14-.02c-.37-.052-.627-.031-.773.063-.104.064-.164.17-.178.319-.009.092-.002.205.02.34.02.128.103.481.243 1.06l1.329 5.471 2.134-4.4c.255-.532.416-.89.48-1.073.065-.184.103-.343.116-.476a.835.835 0 0 0-.063-.424.699.699 0 0 0-.27-.313c-.173-.113-.409-.192-.707-.234l.027-.285 2.809.4zM210.833 340.505l-.334 2.823-.227-.04c-.057-.676-.15-1.17-.28-1.48a2.023 2.023 0 0 0-.593-.804c-.148-.12-.421-.216-.82-.286l-.635-.113-.954 8.047c-.063.533-.08.87-.05 1.011a.865.865 0 0 0 .242.405c.13.123.317.205.56.248l.284.05-.033.286-4.467-.792.034-.285.282.05c.248.044.453.025.618-.056.117-.053.218-.16.3-.323.062-.115.124-.434.186-.956l.954-8.047-.618-.11c-.574-.102-1.008-.027-1.305.225-.414.35-.714.901-.902 1.653l-.239-.042.335-2.823 7.662 1.359zM190.362 347.12l-.056.28-4.38-1.298.056-.28.278.083c.243.072.45.077.618.015.121-.039.227-.134.32-.289.068-.108.154-.418.255-.931l1.335-6.74c.104-.523.146-.857.127-1.002a.803.803 0 0 0-.21-.422c-.117-.142-.292-.247-.526-.316l-.279-.083.056-.278 4.38 1.297-.056.279-.278-.083c-.243-.072-.45-.077-.618-.015-.121.04-.23.135-.325.289-.069.106-.155.418-.257.931l-1.335 6.74c-.104.523-.145.857-.126 1 .023.147.093.29.209.431.121.137.3.24.533.31l.279.082zM187.25 336.105l-.06.277c-.318-.037-.63.075-.94.333-.227.196-.61.703-1.149 1.52l-4.547 6.864-.203-.065-1.115-9.024c-.133-1.089-.24-1.737-.324-1.946-.078-.206-.274-.384-.588-.535l.06-.277 3.996 1.286-.06.277-.135-.043c-.36-.116-.618-.14-.773-.072-.11.045-.182.14-.213.285a1.39 1.39 0 0 0-.02.34c.006.13.047.495.12 1.092l.684 5.646 2.62-3.989c.315-.483.514-.81.6-.98.084-.171.14-.322.168-.452a.847.847 0 0 0-.013-.43.757.757 0 0 0-.232-.356c-.158-.142-.382-.26-.673-.354l.06-.277 2.736.88zM324.272 336.94c1.355-.278 2.512.033 3.47.931.963.898 1.526 2.122 1.691 3.675.14 1.326-.053 2.543-.58 3.65-.7 1.47-1.815 2.327-3.35 2.57-1.538.244-2.794-.205-3.77-1.347-.771-.9-1.23-2.043-1.376-3.425-.165-1.553.128-2.913.88-4.082.757-1.176 1.768-1.834 3.035-1.972zm.128.481c-.781.124-1.324.707-1.629 1.749-.247.854-.29 2.031-.131 3.532.189 1.783.585 3.06 1.188 3.832.421.54.953.758 1.595.656.434-.068.782-.255 1.044-.557.335-.388.568-.957.697-1.71.128-.757.132-1.717.008-2.878-.146-1.382-.361-2.398-.644-3.048-.282-.655-.603-1.1-.961-1.329a1.602 1.602 0 0 0-1.167-.247zM291.36 341.89c1.364-.198 2.507.182 3.429 1.136.925.953 1.44 2.21 1.542 3.77.088 1.333-.152 2.537-.723 3.612-.757 1.427-1.906 2.216-3.448 2.368-1.546.153-2.783-.37-3.712-1.568-.734-.946-1.147-2.114-1.24-3.504-.102-1.56.245-2.901 1.042-4.025.802-1.13 1.838-1.726 3.11-1.79zm.108.488c-.785.077-1.351.627-1.696 1.65-.28.838-.371 2.012-.272 3.52.119 1.792.465 3.092 1.036 3.898.398.565.92.814 1.568.75.434-.043.789-.208 1.063-.495.35-.367.605-.922.764-1.665.16-.75.2-1.708.123-2.875-.092-1.389-.265-2.417-.523-3.083-.256-.671-.559-1.134-.907-1.384a1.62 1.62 0 0 0-1.156-.316zM300.383 346.67l.311 2.928c.06.566.125.92.196 1.06a.68.68 0 0 0 .339.299c.152.064.424.065.814.003l.03.285-4.374.694-.03-.285c.394-.063.657-.149.786-.257a.787.787 0 0 0 .258-.403c.044-.152.036-.512-.024-1.078l-.72-6.783c-.06-.566-.127-.915-.2-1.05-.07-.14-.182-.243-.334-.307s-.424-.067-.815-.005l-.03-.284 3.971-.63c1.034-.164 1.8-.197 2.298-.099.497.1.922.361 1.276.785.352.42.56.947.628 1.578.081.771-.078 1.444-.478 2.02-.256.364-.636.668-1.14.91l2.43 3.213c.317.414.54.669.664.764a.922.922 0 0 0 .627.167l.03.285-2.691.427-3.261-4.327-.56.09zm-.543-5.128l.485 4.58.36-.057c.584-.093 1.014-.226 1.29-.401.276-.18.478-.452.605-.817.133-.37.17-.831.111-1.381-.085-.797-.3-1.361-.648-1.693-.342-.332-.852-.445-1.529-.338l-.674.107zM333.09 340.926l.602 2.86c.116.553.216.894.3 1.022a.63.63 0 0 0 .366.247c.158.04.428 0 .809-.119l.058.279-4.271 1.343-.06-.28c.387-.12.638-.245.756-.372a.844.844 0 0 0 .216-.438c.028-.158-.016-.514-.132-1.066l-1.393-6.625c-.116-.553-.217-.89-.304-1.011-.084-.13-.204-.215-.362-.256s-.427-.003-.809.117l-.058-.278 3.878-1.219c1.01-.317 1.766-.464 2.27-.44.504.023.952.22 1.344.588.393.364.653.855.782 1.472.158.753.067 1.444-.273 2.076-.217.4-.564.758-1.04 1.073l2.734 2.826c.356.363.6.583.735.659.2.103.414.126.639.072l.059.278-2.63.827-3.668-3.807-.547.172zm-1.051-5.007l.94 4.472.35-.11c.571-.18.984-.376 1.24-.591.257-.219.43-.52.52-.902.093-.386.084-.849-.03-1.386-.163-.779-.433-1.306-.81-1.583-.375-.279-.892-.315-1.552-.107l-.658.207zM196.584 343.62l-.364 2.919c-.07.564-.088.925-.052 1.084a.806.806 0 0 0 .258.402c.132.113.392.206.783.279l-.036.285-4.361-.814.035-.285c.394.074.665.08.814.02a.678.678 0 0 0 .34-.3c.076-.132.15-.48.22-1.044l.844-6.762c.07-.564.084-.922.044-1.076a.746.746 0 0 0-.252-.41c-.13-.112-.392-.207-.781-.28l.035-.282 3.96.738c1.03.192 1.773.42 2.229.683s.805.659 1.048 1.186c.243.523.326 1.1.248 1.729-.096.768-.402 1.36-.917 1.779-.33.263-.763.426-1.302.488l1.608 3.91c.212.505.367.825.466.959.152.19.34.314.564.372l-.035.285-2.683-.5-2.154-5.261-.56-.105zm.637-5.111l-.57 4.565.359.067c.582.108 1.026.125 1.331.05.305-.078.561-.272.767-.58.21-.31.35-.741.418-1.29.099-.794.019-1.409-.24-1.845-.254-.435-.718-.716-1.393-.842l-.672-.125zM271.105 351.225l-3.042.157-.326 1.044c-.108.347-.156.632-.149.855.01.296.114.508.314.638.118.077.4.125.851.142l.01.288-2.864.148-.01-.288c.307-.073.556-.24.746-.504.19-.27.418-.813.682-1.632l2.79-8.56.121-.007 3.403 8.475c.325.803.586 1.306.784 1.508.15.153.356.237.619.248l.01.288-4.165.215-.01-.288.17-.008c.335-.018.568-.087.7-.208.09-.087.132-.209.127-.364a1.156 1.156 0 0 0-.048-.285 7.989 7.989 0 0 0-.21-.574l-.503-1.288zm-.236-.563l-1.407-3.561-1.196 3.695 2.603-.134z"/></g><g fill-rule="evenodd"><path fill="#fff600" d="M261.08 257.953h69.556v65.707h-69.557z"/><path fill="#cc1900" d="M271.016 192.245h9.936v65.708h-9.936zM290.89 192.245h9.936v65.708h-9.937zM310.763 192.245h9.936v65.708h-9.936z"/><path fill="#fff600" d="M261.08 192.245h9.936v65.708h-9.937zM280.953 192.245h9.936v65.708h-9.936zM300.826 192.245h9.936v65.708h-9.936zM320.7 192.245h9.936v65.708h-9.937z"/><path fill="#cc1900" d="M207.753 264.524h7.728v59.136h-7.728zM223.21 264.524h7.728v59.136h-7.729zM238.666 264.524h7.728v59.136h-7.728z"/><path fill="#fff600" d="M200.027 264.524h7.728v59.136h-7.728zM215.483 264.524h7.728v59.136h-7.728zM230.94 264.524h7.728v59.136h-7.728zM246.396 264.524h7.729v59.136h-7.729z"/><path fill="#cc1900" d="M192.296 264.524h7.729v59.136h-7.729z"/><path fill="#fff600" d="M184.57 264.524h7.728v59.136h-7.728z"/><path fill="#cc1900" d="M184.57 192.245h69.556v65.708H184.57z"/><path d="M247.952 211.556c1.426-.382 1.634-2.28 1.853-3.843.436-3.127-2.214-6.039-5.915-6.5s-7.016 1.403-7.452 4.53l-2.882 1.1 4.015.5-4.33 1.766 5.363.667-43.233 36.111 2.366 2.6 43.232-36.111c1.142-.954.316-2.266-.944-3.344-1.486-1.27-1.105-1.522-.91-2.92.284-2.039 2.239-2.909 4.46-2.632s3.81 2.023 3.548 3.899c-.131.938-.516 2.041-1.514 2.256-1.642.809.724 3.408 2.343 1.921z" fill="#fff600"/><path d="M194.88 361.42v336.61c0 35.434 16.978 53.15 50.934 53.15h118.85c33.957 0 33.957 35.433 33.957 35.433s0-35.433 33.956-35.433h118.85c33.957 0 50.935-17.716 50.935-53.15V361.42h-407.48zm17.716 17.717v177.16h177.17v-177.16h-177.17zm194.88 0v177.16h177.17v-177.16h-177.17zm-194.88 194.88v106.3c0 35.434 16.978 53.15 50.934 53.15h126.231v-159.45h-177.16zm372.05 0v106.3c0 35.434-16.977 53.15-50.934 53.15H407.481v-159.45h177.16z" stroke="#000" stroke-width="1pt" fill="#cba323" transform="matrix(.3926 0 0 .37087 101.104 51.638)"/><path d="M219.344 198.818l-13.91 14.08 4.28 25.344h19.26l4.281-25.344-13.911-14.08z" fill="#fff"/><path d="M218.278 204.072l-10.7 10.513 4.28 21.026h6.42v-31.538zm2.14 0v31.537h6.42l4.28-21.025-10.7-10.513z" fill="#fff600"/><path d="M222.825 238.24h-3.478s1.739 5.443 3.478 5.443c6.955 0 20.902-7.939 20.866-5.443 0 5.443-3.478 2.722-3.478 5.443 0 2.722 6.956 0 6.956-2.721 0-2.722 0-5.444-3.478-5.444s-13.59 5.48-17.388 5.444c-3.478 0-3.478-2.722-3.478-2.722zM215.868 238.24h3.477s-1.738 5.443-3.477 5.443c-6.956 0-20.902-7.939-20.867-5.443 0 5.443 3.478 2.722 3.478 5.443 0 2.722-6.955 0-6.955-2.721 0-2.722 0-5.444 3.477-5.444 3.478 0 13.59 5.48 17.389 5.444 3.478 0 3.478-2.722 3.478-2.722z" fill="#fffbff"/><path d="M70.866 574.02c0 35.433 28.704 36.668 17.717 53.149l-35.433 53.15H35.434l17.716-53.15c5.905-17.716 17.716-65.373 17.716-53.149z" transform="matrix(.14606 .025 -.03131 .11666 313.95 207.949)" stroke="#fff600" stroke-width="5" fill="#cc1900"/><path d="M35.433 423.42c0 3.667 2.242 31.888 0 35.067-2.242 3.179-8.969-18.684-12.977-16.279-4.008 2.405-7.603 24.158-12.902 25.504-5.298 1.35-12.3-17.71-18.412-17.71-6.112 0-11.937 19.062-17.235 17.717-5.298-1.346-10.071-23.099-14.079-25.504-4.008-2.405-10.735 19.458-12.977 16.279-2.242-3.179 0-31.4 0-35.067 0-14.669 19.842-26.575 44.291-26.575s44.291 11.906 44.291 26.575z" transform="matrix(.11687 0 0 .05971 306.8 255.835)" stroke="#fff600" stroke-width="7.99" fill="#cc1900"/><path d="M281.414 266.466c1.533.706 1.409 1.885.887 2.116-.522.23-1.244-.574-2.777-1.28s-3.3-1.05-2.778-1.281 3.135-.262 4.668.445z" fill="#008d00"/><path d="M-70.866 414.57v53.15h53.15v-17.717h-35.433V414.57h-17.716z" transform="scale(.14938 .1193) rotate(57.683 -819.277 3176.21)" stroke="#fff600" stroke-width="5" fill="#cc1900"/><path d="M70.866 574.02c0 35.433 28.704 36.668 17.717 53.149l-35.433 53.15H35.434l17.716-53.15c5.905-17.716-17.716-35.433-70.866 0-12.224 0-70.866-8.963-70.866 0v53.15h-17.716v-53.15c0-6.941-35.433-53.149-35.433-70.866 0-12.224-53.15 0-53.15-17.716 0-8.859 35.433-17.717 35.433-35.433 0-17.717 35.433 0 53.15 0 0 17.716-17.717 35.433 17.716 35.433 24.449 0 177.17 0 177.17 17.716 0 17.717-17.717 5.493-17.717 17.717z" stroke="#fff600" stroke-width="5" fill="#cc1900" transform="matrix(.14938 0 0 .1193 303.117 207.958)"/><path d="M288.12 289.125c1.436-.008 1.953 1.06 1.706 1.47-.247.41-1.166.006-2.603.014s-2.85.424-2.602.015 2.062-1.49 3.498-1.499zM309.29 289.125c1.437-.008 1.954 1.06 1.707 1.47-.247.41-1.166.006-2.603.014s-2.85.424-2.602.015 2.062-1.49 3.498-1.499zM284.775 286.172c1.165-.671 2.362-.04 2.457.408.096.448-.945.545-2.11 1.217s-2.014 1.664-2.11 1.216.598-2.169 1.763-2.84zM298.994 287.377c1.436-.04 1.989 1.017 1.755 1.432-.233.415-1.165.032-2.601.07s-2.835.485-2.601.07 2.011-1.534 3.447-1.572zM280.937 274.766l6.302-3.858 1.61 1.678-6.302 3.857z" fill="#008d00"/><path d="M283.554 277.5c0 .583-.36 1.057-.804 1.057s-.804-.474-.804-1.057.36-1.057.804-1.057.804.473.804 1.057z" fill="#008d00"/><path d="M47.995 681.85c34.086.02 34.086 12.901 19.835 12.901-19.835 0-67.83 4.38-67.83 3.28 0-1.103-16.484-14.203-16.484-14.203-1.232-3.513 1.177 14.128-1.232 14.203-2.41.074-16.43-15.381-16.43-15.381s1.288 15.232 0 15.307c-1.287.074-17.66-9.42-17.66-9.42l-1.178 8.242-15.306 9.42 15.306 10.597v8.242l15.306-8.242 1.178 15.306 18.839-15.306s4.764 16.299 2.354 16.484c-2.41.185 16.484-16.484 16.484-16.484-1.178-1.05 54.051 0 87.405-1.05 33.355-1.048 32.747-51.937 17.717-53.15-15.032-1.213-58.305 3.33-58.305-.203" transform="matrix(.07764 0 0 .08915 307.33 214.508)" stroke="#fff600" stroke-width="5.055" fill="#cc1900"/><g><path d="M70.866 574.02c0 35.433 28.704 36.668 17.717 53.149l-35.433 53.15H35.434l17.716-53.15c5.905-17.716 17.716-65.373 17.716-53.149z" transform="matrix(.14606 .025 -.03131 .11666 313.95 234.232)" stroke="#fff600" stroke-width="5" fill="#cc1900"/><path d="M35.433 423.42c0 3.667 2.242 31.888 0 35.067-2.242 3.179-8.969-18.684-12.977-16.279-4.008 2.405-7.603 24.158-12.902 25.504-5.298 1.35-12.3-17.71-18.412-17.71-6.112 0-11.937 19.062-17.235 17.717-5.298-1.346-10.071-23.099-14.079-25.504-4.008-2.405-10.735 19.458-12.977 16.279-2.242-3.179 0-31.4 0-35.067 0-14.669 19.842-26.575 44.291-26.575s44.291 11.906 44.291 26.575z" transform="matrix(.11687 0 0 .05971 306.8 282.119)" stroke="#fff600" stroke-width="7.99" fill="#cc1900"/><path d="M281.414 292.75c1.533.706 1.409 1.885.887 2.116-.522.23-1.244-.574-2.777-1.28s-3.3-1.05-2.778-1.281 3.135-.263 4.668.444z" fill="#008d00"/><path d="M-70.866 414.57v53.15h53.15v-17.717h-35.433V414.57h-17.716z" transform="matrix(.07986 .10083 -.12624 .06378 344.001 285.25)" stroke="#fff600" stroke-width="5" fill="#cc1900"/><path d="M70.866 574.02c0 35.433 28.704 36.668 17.717 53.149l-35.433 53.15H35.434l17.716-53.15c5.905-17.716-17.716-35.433-70.866 0-12.224 0-70.866-8.963-70.866 0v53.15h-17.716v-53.15c0-6.941-35.433-53.149-35.433-70.866 0-12.224-53.15 0-53.15-17.716 0-8.859 35.433-17.717 35.433-35.433 0-17.717 35.433 0 53.15 0 0 17.716-17.717 35.433 17.716 35.433 24.449 0 177.17 0 177.17 17.716 0 17.717-17.717 5.493-17.717 17.717z" stroke="#fff600" stroke-width="5" fill="#cc1900" transform="matrix(.14938 0 0 .1193 303.117 234.241)"/><path d="M288.12 315.409c1.436-.008 1.953 1.06 1.706 1.47-.247.41-1.166.006-2.603.014s-2.85.424-2.602.014 2.062-1.49 3.498-1.498zM309.29 315.409c1.437-.008 1.954 1.06 1.707 1.47-.247.41-1.166.006-2.603.014s-2.85.424-2.602.014 2.062-1.49 3.498-1.498zM284.775 312.456c1.165-.672 2.362-.04 2.457.407.096.449-.945.545-2.11 1.217s-2.014 1.665-2.11 1.217.598-2.17 1.763-2.841zM298.994 313.66c1.436-.039 1.989 1.018 1.755 1.433-.233.415-1.165.031-2.601.07s-2.835.485-2.601.07 2.011-1.534 3.447-1.573zM280.937 301.05l6.302-3.858 1.61 1.677-6.302 3.858z" fill="#008d00"/><path d="M283.554 303.783c0 .584-.36 1.057-.804 1.057s-.804-.473-.804-1.057.36-1.057.804-1.057.804.474.804 1.057z" fill="#008d00"/><path d="M47.995 681.85c34.086.02 34.086 12.901 19.835 12.901-19.835 0-67.83 4.38-67.83 3.28 0-1.103-16.484-14.203-16.484-14.203-1.232-3.513 1.177 14.128-1.232 14.203-2.41.074-16.43-15.381-16.43-15.381s1.288 15.232 0 15.307c-1.287.074-17.66-9.42-17.66-9.42l-1.178 8.242-15.306 9.42 15.306 10.597v8.242l15.306-8.242 1.178 15.306 18.839-15.306s4.764 16.299 2.354 16.484c-2.41.185 16.484-16.484 16.484-16.484-1.178-1.05 54.051 0 87.405-1.05 33.355-1.048 32.747-51.937 17.717-53.15-15.032-1.213-58.305 3.33-58.305-.203" transform="matrix(.07764 0 0 .08915 307.33 240.792)" stroke="#fff600" stroke-width="5.055" fill="#cc1900"/></g></g></svg>