<svg xmlns="http://www.w3.org/2000/svg" height="512" width="512"><path fill-rule="evenodd" fill="#de2110" d="M0 0h512v512H0z"/><path d="M167.48 127.3c7.353-.718 8.847-.622 14.246.776-6.934 3.173-15.133 1.587-20.218-2.92-7.684-6.977-25.985-19.041-19.441-8.761 33.953 37.625 63.195 12.186 80.978 33.85 6.057 7.38 11.407 17.286 8.22 27.015-1.09 3.33-5.027 11.164-9.786 9.172-6.233-2.607 1.18-23.087-3.356-29.75-10.301-15.13-28.965-11.083-44.28-12.718-4.442 12.048-15.145 10.233-24.985 4.155-12.562-7.757-12.184-26.836-23.411-33.137-11.7-6.566-9.793 15.425-7.908 20.65 8.166 22.642 32.212 31.105 54.22 27.08-16.288 25.221-42.106-16.328-54.894-6.152-8.115 6.457 6.218 18.204 11.183 20.9 13.737 7.456 30.243 3.71 43.712-2.251-7.69 8.353-21.841 13.478-33.328 11.783-5.933-.875-17.82-8.331-23.224-3.362-8.344 7.67 12.027 16.769 16.974 17.846 16.677 3.628 28.488-5.172 41.66-13.768-8.27 8.267-17.101 19.587-29.161 22.06-7.522 1.544-24.122-6.132-28.982 1.836-5.812 9.529 9.598 15.558 16.484 14.962 16.314-1.41 31.462-14.537 43.744-24.278-8.44 11.973-21.468 24.643-35.412 30.053-7.319 2.84-19.901-1.554-25.411 4.822-8.488 9.823 10.2 15.62 17.079 13.947 20.078-4.884 30.789-26.854 49.993-34.241-13.025 11.997-26.823 30.583-41.848 39.476-7.465 4.42-19.64-.996-25.543 5.524-13.345 14.737 20.089 17.887 29.534 10.08 15.82-13.075 23.405-31.819 42.023-42.58-12.417 16.886-28.144 42.103-43.937 55.735-7.519 6.489-24.027.796-28.79 8.012-9.565 14.492 21.285 16.98 28.975 11.859 25.246-16.81 26.625-55.773 58.333-65.191-8.984 19.243-17.95 45.29-39.578 52.076 3.245 9.775 14.719 10.63 22.093 3.503 12.654-12.225 10.042-40.057 32.066-40.998l-15.883 22.263c.844 9.095 17.143-3.103 22.132-11.848h2.083c-8.678 20.701-23.997 32.26-43.744 41.661.387 12.342-7.87 18.7-18.747 22.913-5.853-10.76-21.451-18.766-29.162-6.249 6.12.825 11.588 1.975 12.498 8.332-9.705-3.503-17.363-5.164-20.83 6.25 11.37-1.867 15.254-1.453 17.185 3.516-7.772 8.95-6.504 22.565 7.811 23.888-3.993-2.885-6.684-4.796-4.49-8.658 3.174-4.216 6.932.05 8.773-2.462 3.437-5.016.342-3.264 4.724-1.245 3.591 2.57 9.432-8.187 17.747 9.957 10.001-7.195.38-18.566-3.84-27.08l31.244-6.248 35.412-33.328 2.083 2.083c-11.446 18.01-27.919 33.472-49.993 35.412 7.389 13.4 21.884 6.49 33.328 2.083-4.976 9.709-17.895 9.763-22.232 17.797-8.892 16.479 28.26-.509 30.564-1.134-2.968 10.457-14.67 12.552-17.712 21.416-2.362 6.883 7.28 7.564 11.375 5.566 7.903-3.858 13.07-14.329 18.835-20.732-2.7 12.498 2.414 22.393-11.35 36.845l21.116 25.971 24.105-26.002c-13.306-11.513-5.134-24.978-7.7-37.463 5.636 6.61 7.554 17.458 15.563 21.382 3.735 1.83 11.444 1.887 10.507-4.264-1.327-8.709-14.123-13.184-16.829-22.718 2.667.881 38.682 17.772 30.398 1.133-3.926-7.884-17.214-8.332-22.066-17.797 11.575 4.458 23.46 10.078 33.328 0-18.345-6.374-45.633-17.23-47.91-39.578l36.005 31.002 30.652 10.66v2.082c-7.47 7.783-11.794 13.211-5.599 22.718l7.618 2.281c-4.883-5.382-3.254-8.161 0-10.288 5.511-2.626 8.828 2.473 10.96-2.789.97-2.554 1.309-3.756 1.8-.637.544 5.522 8.195 1.275 10.87 1.995 4.184 4.123-2.042 8.245-2.736 11.717 11.836-4.147 14.073-11.409 10.415-22.913.781-4.362 3.516-6.445 6.25-6.249 3.103.369 5.555 1.39 8.331 2.083-4.063-10.615-11.235-10.213-20.83-6.249.87-6.357 4.015-9.461 10.416-8.332-4.81-14.433-22.203-2.848-27.08 6.249-11.327-3.758-22.171-9.894-18.746-22.913-19.141-9.111-36.957-20.397-43.744-41.661h2.083c4.988 8.745 20.964 14.758 19.853 6.64l-13.604-17.055c29.296 1.258 17.627 54.513 54.159 43.744v-4.166c-21.022-11.71-29.658-32.914-39.578-54.16 31.18 9.264 32.212 47.938 56.436 64.827 7.746 5.4 40.352 3.953 30.766-11.494-4.312-6.95-21.507-1.933-28.794-8.012-15.823-13.198-31.737-38.862-43.827-55.736 19.135 12.16 28.294 36.653 47.912 46.477 8.284 4.15 27.92 3.531 25.103-10.765-2.004-10.174-18.32-4.501-25.073-7.396-15.154-6.497-31.63-29.188-43.775-40.813 18.187 7.987 28.97 28.335 47.91 34.05 6.97 2.104 24.969-1.03 19.983-12.318-3.544-8.02-19.406-3.697-26.232-6.155-15.008-5.404-26.542-19.207-37.495-30.159 14.7 8.455 27.996 22.758 45.827 24.278 6.884.587 24.746-7.583 15.367-16.296-6.102-5.667-18.437.657-25.782-.177-11.832-1.343-21.78-11.777-29.162-20.303 17.206 10.57 70.61 15.073 61.254-7.03-6.495-5.404-13.592 4.008-26.367 4.363-13.386.03-26.661-3.144-37.62-11.589 13.956 4.712 29.973 9.712 44.362 2.971 5.115-2.396 23.43-17.57 11.594-22.778-9.228-4.06-18.74 9.015-26.144 12.323-9.178 4.1-19.887 1.112-29.162-1.173v-2.083c19.024-1.01 37.915-2.092 50.432-18.831 4.11-5.498 14.823-28.012 2.855-31.68-4.776-1.463-8.478 3.305-10.467 6.89-5.845 10.535-31.91 52.378-42.82 22.79-15.347 1.638-33.936-2.4-44.282 12.717-4.59 6.709 2.5 27.293-3.695 29.751-17.506 6.944-5.814-31.31-1.57-36.186 18.863-21.685 69.87-3.015 78.708-33.36.96-8.048-10.509 6.352-15.908 9.843-5.849 3.604-13.275 3.84-19.503 2.655 6.608-3.461 11.913-2.366 16.08-3.06-3.91-6.87-12.878-5.998-15.17-9.804-2.99-5.4-14.92-6.975-21.699-5.905-12.892 2.849-17.852 6.694-41.702.021l10.415 12.498-14.927 6.238 6.595 4.177-12.498 8.333c2.083.694 7.043.698 6.71 2.658l-10.07 17.125c-2.089-3.59-8.96-12.989-9.93-16.595-.484-1.61 2.421-2.36 6.352-3.073l-11.809-8.447 7.632-4.459-15.964-5.956 8.332-12.498c-13.283 8.861-24.686-3.524-40.065.098-6.557 1.49-11.852 8.792-18.027 7.574-5.207-.891-11.278 2.205-14.929 8.992z"/><path d="M132.34 331.3c.651.313 1.848.156 2.03.86-1.224.442-2.682.494-3.906.39.573-1.302 1.225-.807 1.876-1.25zM188.2 331.53c-.65.313-1.847.156-2.029.86 1.224.442 2.682.494 3.905.39-.572-1.302-1.225-.807-1.876-1.25z" fill-rule="evenodd" fill="#de2110"/></svg>