<svg xmlns="http://www.w3.org/2000/svg" height="512" width="512"><defs><clipPath id="a"><path fill-opacity=".67" d="M0 0h512v512H0z"/></clipPath></defs><g clip-path="url(#a)"><path fill-rule="evenodd" fill="#3a7dce" d="M0 0h512v512H0z"/><path d="M95.839 237.9c-3.701-7.57-3.701-7.57-3.701-15.14-1.851 0-2.198.356-3.268.058-1.07-.295-1.475 6.98-4.946 5.56-.578-.71 2.488-5.972-.838-8.16-1.07-.712.26-5.028-.203-6.92 0 0-4.221 2.246-7.403-5.678-1.562-2.07-3.702 1.892-3.702 1.892s.925 2.425-.751 3.017c-2.372-1.775-4.108-.844-7.115-3.283-3.008-2.44.637-5.233-5.09-7.303 3.702-9.462 3.702-7.57 12.956-11.354-5.553-3.785-5.553-3.785-9.254-9.463-5.553-1.893-7.404-3.784-12.957-7.57-7.403-9.47-11.105-28.39-11.105-41.64 4.686-4.435 11.105 15.14 20.36 20.817l12.956 5.677c7.403 3.785 9.254 7.57 14.807 11.354l16.658 5.678c7.403 5.677 11.105 13.247 16.658 15.14 6.015 0 7.174-3.542 9.103-3.763 10.88-.57 16.434-2.003 18.603-5.345 2.197-2.66 7.46 1.538 22.267-4.139l-1.85-7.57s3.932-3.312 9.253-1.893c-.144-3.459-.492-12.685 4.75-16.847-3.183-3.414-1.048-5.861-1.048-5.861s2.95-2.898 3.297-4.436c-1.56-8.339 1.354-8.468 2.008-10.921.653-2.453-2.518-1.613-1.624-4.994.893-3.383 6.255-4.186 6.972-6.972.72-2.786-1.528-4.184-1.399-4.849 1.157-2.66.175-8.93 0-11.355 9.95-2.72 13.188-11 16.658-7.57 1.851-11.355 3.702-15.14 14.807-15.14 1.563-3.489-4.05-6.446-1.85-7.57 3.701-.472 6.535-.236 10.875 5.5 1.37 1.819 1.618-2.66 3.006-3.134 1.388-.473 4.71-.48 5.205-2.72.522-2.307 1.273-5.323 3.124-9.107 1.562-3.076 2.776 1.182 4.164 7.214 7.81.296 25.45 2.07 32.853 4.14 5.553 1.479 9.255-1.478 14.576-2.07 3.933 4.022 7.635 1.006 9.717 9.58 2.94 4.628 7.75.415 8.792 1.775 6.19 17.446 27.474 5.677 29.093 5.973 2.718 0 6.038 7.8 8.178 7.607 3.477-.6 2.493-3.024 5.53-2.048-.811 6.564 5.958 14.134 5.958 19.042 0 0 1.648.828 3.174-.628 1.525-1.456 2.928-5.197 4.287-5.108 3.239.473 4.551.898 8.284 1.565 10.036 3.506 15.148 4.297 19.046 6.094 1.813 3.393 3.57 5.13 7.246 4.496 3.037 2.086.822 4.818 2.615 4.995 3.702-1.892 4.917-3.962 8.618-2.07 3.702 1.893 7.404 5.678 9.255 9.463 0 1.892-1.851 9.462 0 20.816.925 3.785 1.373 6.786 5.35 13.277-1.057 6.668 5.003 17.89 5.003 20.728 0 3.784-2.95 5.737-4.801 9.52 7.403 5.679 0 15.14-3.701 20.818 27.763 5.678 14.807 17.032 37.017 11.354-5.553 13.247-3.587 12.184 1.966 25.43-11.106 7.57-.23 9.875-7.634 19.337-.463.592 4.395 8.22 11.22 8.22-1.85 15.14-7.403 9.463-5.552 32.173-14.576-.295-8.677 16.973-18.51 15.14.579 10.822 5.611 11.769 3.703 22.709-7.403 1.892-7.403 1.892-11.105 7.57l-5.553-1.893c-1.851 9.462-5.552 11.354 0 20.817 0 0-7.172.237-9.254 0-.175 3.253 3.181 4.14 3.702 7.57-.29 1.36-10.528 7.333-18.51 7.57-2.081 4.672 5.553 9.64 5.09 12.005-8.676 1.714-12.493 12.596-12.493 12.596s4.453 1.834 3.702 3.785c-2.37-1.775-3.702-1.893-7.403-1.893-1.851.474-6.362-.115-10.688 7.348-4.748 1.602-6.989 1.023-10.59 5.892-1.595-4.639-3.888.044-6.692 1.843-2.802 1.802-6.576 6.28-7.082 6.09.116-1.302 1.735-6.033 1.735-6.033l-9.254 1.893s-.413.04-1.14.116c-.728.074-.533-5.523-2.288-5.32-1.753.204-6.77 7.04-8.48 7.253-1.709.214-2.25-2.174-3.721-1.966-1.471.208-4.34 7.21-5.382 7.395-1.042.186-5.175-4.255-8.717-3.635-18.22 6.565-21.113-12.95-23.947-1.95-3.817-2.072-3.156-.87-7.035.17-2.475.652-2.7-3.346-4.901-3.285-4.404.127-4.172 4.386-6.573 3.114-1.965-8.872-13.824-7.275-14.98-11.059-.94-3.947 5.137-3.929 7.103-6.603 1.503-3.859-1.57-5.323 4.53-9.046 7.949-5.498 3.38-7.571 4.773-11.703 2.493-5.965 2.507-7.422.425-12.685 0 0-6.19-17.032-7.404-17.032-3.7-1.064-3.7 6.268-9.139 8.28-11.105 3.784-30.71-9.582-34.125-9.582-3.122.06-17.587 3.503-17.04-3.872-2.163 7.17-10.116 1.685-10.606 1.685-7.403 0-4.57 5.855-9.545 5.618-2.256-.769-25.044-2.13-25.044-2.13v3.786l-14.807-7.57-12.956-3.784c-11.105-3.786-5.552-13.248-24.06-7.57v-11.355h-9.255c3.701-22.71 0-11.354-1.85-32.172l-7.405 1.893c-7.403-10.231 10.295-8.28-5.552-15.14 0 0 .289-11.297-3.702-7.57-.81.473 1.851 5.677 1.851 5.677-14.807-1.892-18.509-5.677-18.509-20.817 0 0 12.204 1.775 11.105 0-1.735-2.838-3.99-21.29-3.586-22.53-.173-2.485 11.337-8.753 9.11-14.728 1.417-.532 5.581-.59 5.581-.59" fill="#fff"/><path stroke-linejoin="round" d="M595.51 313.51c-.592 1.332-.487 2.662.125 3.612 1.099-1.648.171-2.408-.125-3.612z" stroke="#fff" stroke-linecap="round" stroke-width="2.703" fill="none"/><path stroke-linejoin="round" d="M119.51 164.09s-3.104-.38-2.407 2.344c1.014-2.091 2.344-2.217 2.407-2.344zM120.21 157.76c-1.71.064-3.801-.253-3.104 2.47 1.014-2.09 3.041-2.343 3.104-2.47zM131.89 194.05s2.661-.19 1.964 2.534c-1.014-2.091-1.9-2.407-1.964-2.534z" stroke="#fff" stroke-width="2.534" fill="none"/></g></svg>