<svg xmlns="http://www.w3.org/2000/svg" height="512" width="512"><defs><clipPath id="a"><path fill="gray" d="M496.06 15.937h496.06v496.06H496.06z"/></clipPath></defs><g clip-path="url(#a)" transform="translate(-512 -16.449) scale(1.0321)"><path fill="#006" d="M0 15.937h992.13v496.06H0z"/><path d="M0 263.97L992.13 512V15.94L0 263.97z" fill-rule="evenodd" fill="#bd1021"/><path d="M992.13 42.512v442.91L106.3 263.962l885.83-221.46z" fill-rule="evenodd" fill="#fff"/><g stroke="#000"><path stroke-linejoin="round" d="M825.487 319.59s-6.193-5.069 1.127-13.234c-3.942-3.378-.282-9.853-.282-9.853s-6.757-2.534.282-12.951c-5.068-3.378-2.816-10.98-2.816-10.98s-16.611-6.195-.844-12.106c-12.951 5.63-25.058-7.603-25.058-7.603l-18.863.564c-3.2-15.67-28.07-2.061-9.58-47.011-4.787-.845-10.136-2.252-15.485 1.69-5.35 3.94-20.553 12.386-29.562 3.94s5.911-20.553 6.194-20.834c.28-.281 19.989-10.417 22.804-17.173-.28-5.07-6.475-9.01-.845-19.99 6.476-10.417 46.17-20.272 64.2-23.65 8.727-3.942 12.669-11.543 12.669-11.543l1.97 7.32s39.98-11.825 41.951-17.456.845 5.068.845 5.068c15.766-1.408 35.755-14.921 38.57-8.728 13.233-2.534 38.573-13.795 38.573-13.795s8.727-.281 2.533 9.291c3.942 6.194-1.126 11.543-1.407 11.543-.283 0 1.688 6.194-3.38 9.573 1.691 5.349-3.097 9.572-3.097 9.572s2.254 6.476-6.756 9.854c.845 5.631-5.068 6.757-5.068 6.757s.845 5.913-3.097 8.447c0 4.504-4.504 6.757-4.504 6.757s2.814 1.689-1.127 4.504c-3.94 2.816-44.765 27.873-44.765 27.592 0-.282 29.844 5.35 31.814 6.475s24.495 16.049 24.495 16.049l-22.806 28.154s-25.338-2.815-26.464-1.408 5.349 1.971 6.756 4.223c1.409 2.252 3.66 7.603 8.165 7.04 4.505-.565-8.446 8.164-16.892 9.009 0 3.097 10.698 3.378 13.514.845 2.816-2.535-6.758 7.32-7.884 8.727s12.67-1.971 12.67-1.971-2.253 9.29-14.358 12.107c4.785 7.883 2.814 12.951 2.533 12.951s-7.884-7.884-15.204-6.476c1.971 7.602 7.884 14.64 9.574 15.767 1.688 1.126-13.233.844-15.204-3.38s-3.66 10.136 1.689 14.642c-6.193.281-11.543-3.38-11.543-3.38s-3.66 8.446-1.126 12.67c2.534 4.224-8.728-8.447-8.728-8.447l-21.397 9.01-4.787-8.165z" fill-rule="evenodd" stroke-width="1.7061250000000001" fill="#9c3900"/><path d="M660.119 302.828c.501 0 31.084-.502 45.124-8.524 7.019 11.03 16.545 18.55 16.545 18.55l4.512-16.042s11.03.5 12.033 3.008c-1.504 3.007-2.005 7.018-2.005 7.018s7.52.503 8.021 1.504c.502 1.004-2.005 9.526-2.005 9.526l32.087 7.52s2.507-12.533 5.014-11.03c2.507 1.505 13.537 17.047 29.08 18.05s16.544-13.036 16.544-13.036l3.51 2.007s6.517-14.038 7.52-14.038 2.507 2.005 11.03 2.005c2.507 3.008 3.51 10.026 3.51 10.026s-9.527 9.527-6.518 17.048 3.51 5.514 3.51 5.514l69.188 16.545s3.51 5.516-2.506 8.524c0 .501-69.69-16.044-69.69-16.044s-6.519 7.52-11.532 6.016-1.504 3.008-1.504 3.008L906.79 366s5.516 7.02 1.505 9.025c-5.014.5-81.222-5.014-81.222-5.014s-4.512 9.526-9.525 1.504c-3.51 5.515-7.52-1.504-7.52-1.504s-6.518 5.014-7.521-.502c-5.516 4.011-9.025-2.506-9.025-2.506l-32.088-2.006-2.005 3.008s5.515 1.504-3.008 5.015c-8.523 3.509 51.138 2.005 52.643 2.505 1.504.503-4.01 5.015-4.01 5.015s30.583 2.005 36.097-4.512c5.516-6.519-2.005 8.522-2.005 8.522s24.066-1.002 24.066-2.005-.502 7.52-17.046 6.518c10.026 6.518 22.56 10.528 22.56 10.528s-12.534 3.009-27.073-.5c2.506 6.517 13.537 12.533 13.537 12.533s-8.022 7.02-26.072-10.028c5.015 9.025 1.003 12.536.502 11.532-.502-1.003-9.024-13.537-29.079-18.049 12.534 8.022 7.018 11.532 7.018 11.532s-6.517-11.532-17.046 0c-4.011-10.529-19.553-16.545-38.605-17.548-6.016-7.019-9.526-5.014-23.563-9.025-8.022-9.024-19.554-19.051-19.554-19.051s.502-13.538 14.038-12.033c1.504 4.512 1.504 3.008 1.504 3.008s15.042-5.516 19.554 2.005c6.518-11.532 15.542-1.724 17.046 2.286 4.32.633 26.071 1.223 26.071 1.223s-2.507-4.512-1.003-4.01c1.504.5 13.537-4.512 13.036-6.017-.502-1.504-1.003-6.517 1.002-6.016 2.006.5-17.046-2.507-27.575 5.516-3.51-3.511-1.003-13.037-1.003-13.037l-31.084-6.517-1.504 8.022s-9.025 1.504-8.523-.501c.5-2.007-2.006 7.018-2.006 7.018s-12.033-3.008-12.033-3.51 3.51-18.049 3.51-17.548c0 .503-10.028 1.003-24.066 11.532-4.011-12.534-35.597-29.079-35.597-29.58z" fill-rule="evenodd" stroke-width="1.3649pt" fill="#ffc221"/><path d="M736.328 307.346l-6.518 29.08M742.343 318.374l-2.005 9.526M774.432 325.895l-3.008 9.025M830.087 387.056c-.5 0-16.043 2.005-18.05 1.504-2.004-.5 24.568 8.022 24.568 11.53M802.011 390.578s-15.543-10.027-18.05-9.025c-2.506 1.003 15.543-.501 17.047-2.005M769.92 379.044s-16.043.501-17.547-1.003 15.542 11.03 18.55 10.028M738.834 372.015c-.501 0-11.03-4.01-15.542-5.015 4.01 4.012 7.02 9.527 17.046 11.532M742.846 365.504c-.502-1.003-20.055-7.02-20.055-10.028 4.512 1.505 11.03 3.51 17.046 2.005M846.63 342.438l-2.005 9.023" stroke-width="1.3649pt" fill="none"/><path d="M699.226 261.717s-21.058 18.048 0 28.577c1.003-7.02 2.507-8.021 2.507-8.021s17.547 6.517 28.076-9.025c-4.512-6.517-12.534-4.01-12.534-4.01s-16.546-.001-18.05-7.52z" fill-rule="evenodd" stroke-width="1.3649pt" fill="#ffc221"/><path d="M716.775 269.743l-14.54 12.534M761.554 356.796s3.352 3.695.343 8.207M832.094 360.495l-5.515.502M786.97 357.479l10.027 1.504M813.94 331.696s.282 10.136-8.164 9.854c-8.446-.282-5.632.282-5.632.282" stroke-width="1.3649pt" fill="none"/><path d="M820.424 330.003s3.378 1.126 2.534 3.661c-.845 2.533.844 9.853-9.01 16.892-10.418 2.252-9.29-8.727-9.29-8.727" stroke-width="1.3649pt" fill="none"/><path d="M824.082 333.102s6.194-3.66 7.038 2.253c.844 5.911-5.067 16.892-9.29 18.582-4.225 1.688-9.01-.283-8.448-3.097M831.684 335.64s5.632-4.505 7.32 1.408c1.69 5.912-4.504 19.145-7.039 19.426M839.56 337.046s2.815-1.407 4.785.281M830.551 357.315c-1.126.281-5.912.562-7.6-3.097M805.219 347.46c-.281 0-5.912.283-5.912.283M826.893 369.708l-.562-9.29-2.252-3.098-3.942 3.942s-.564 9.291-2.252 10.136M820.137 360.973c-.281-.562-3.097-5.911-3.097-5.911l-4.787 5.91s-.562 8.448-2.252 9.293M812.248 360.686c0-.28-1.971-5.63-1.971-5.63s-5.63 3.097-6.194 5.35c-.562 2.251-.845 8.445-2.252 9.009M804.086 359.28s.564-5.067-1.126-5.067c-1.689 0-9.291 7.038-9.572 13.232" stroke-width="1.3649pt" fill="none"/><path stroke-linejoin="round" d="M699.918 261.868s2.815-2.816 3.66-6.194c.845-3.379-1.126-7.04 2.253-10.136 3.378-3.097 47.861-21.96 51.522-25.62 3.66-3.66 10.417-11.544 11.262-13.233.844-1.69 3.378 8.446-4.224 12.951 8.165-2.253 13.514-4.786 16.892-3.66-3.379 4.786-12.387 12.67-16.61 12.67 9.854-3.66 18.862-6.758 21.397-4.787 2.533 1.971-12.107 11.826-18.02 12.388 9.855-2.533 23.088-6.475 24.776-2.252-5.349 1.69-3.66 3.095-14.64 9.29-1.407 1.128-8.446 1.408-8.446 1.408 8.446-.845 19.99-4.223 21.115 1.97-6.756 2.534-9.29 5.914-14.92 7.32-5.632 1.41-18.583 3.943-26.466 7.04-7.883 3.097-19.427 12.106-19.427 12.106s-25.057.845-25.057.563c0-.282-4.786-11.543-5.068-11.824z" fill-rule="evenodd" stroke-width="1.3649pt" fill="#fff"/><path d="M711.742 259.902s.282-5.63 2.816-7.601c2.533-1.971 15.203-6.758 18.019-10.98 2.815-4.224-4.223 7.32-3.097 10.416M716.81 251.453s6.194 2.254 4.786 7.04" stroke-width="1.3649pt" fill="none"/><path d="M724.13 254.694a4.645 4.645 0 1 1-9.29 0 4.645 4.645 0 0 1 9.29 0z" stroke-width="1.18531pt" fill="none"/><path d="M914.738 244.697l48.707 9.291s5.35-6.194 2.534-9.572c7.32-1.688 5.35-11.262 5.35-11.262s8.445-3.66 1.407-12.107c4.788-4.786-1.126-8.446-1.126-8.446s1.97-8.446-4.223-9.29c1.69-6.757-10.699-9.01-10.699-9.01s-25.62 7.039-43.64 7.602c5.913 5.912-2.252 9.572-2.252 9.572s4.787 3.379 3.379 6.194c-1.408 2.816.844 5.913-5.35 7.884 8.165 3.66-.844 9.853-.844 9.853s9.01 6.194 6.757 9.291z" fill-rule="evenodd" stroke-width="1.3649pt" fill="#fff"/><path d="M909.947 234.283s43.077 5.068 45.048 5.068 9.572 2.534 10.98 5.068M912.2 231.744l59.968 1.407M912.486 230.338s56.871-3.378 60.813-9.29M914.165 217.95s57.154-6.193 57.718-5.349M912.2 210.912s55.464-8.728 56.026-7.32M753.975 175.157s17.456 19.145 15.766 32.095" stroke-width="1.3649pt" fill="none"/><path d="M768.615 197.117s5.63 8.164 7.883 9.009 21.961 1.97 23.087 10.417c1.126 5.35-4.223 3.66-3.378 7.601 1.407 5.068 14.64 11.543 28.999 3.942M811.975 232.03s11.824 17.457 29.28-1.406M832.244 238.227s14.358 7.602 26.183-12.106M843.218 239.906s7.038 5.913 21.68-1.97M885.175 230.052s21.678 4.504 23.087 5.912M893.337 225.275c.28 0 15.203.563 15.203.563M884.042 216.824s25.901-1.689 29.28 3.661M872.781 208.66s36.32 1.407 38.009 3.378M880.943 245.816s6.194-1.688 7.04-.843M866.871 261.021s8.165 7.04 18.583 3.942M871.375 272.855s9.291 4.223 20.272 1.688M874.474 279.884s9.29 6.194 15.485 5.067M870.256 283.556s6.475 4.786 6.756 7.32M861.248 289.18s1.97 10.134 9.01 13.794M856.457 293.683s-3.097 13.233 4.787 21.398M848.295 304.098c0 .28-.562 6.193-.281 6.757M797.616 252.86l15.204-.846s5.63-2.252 1.688-5.911M816.48 249.488c.282 0 14.358 1.126 18.019 5.349 3.659 4.223 8.164 12.669 10.698 14.078 2.534 1.407 3.097-.564 3.097-.564M842.098 266.099s-7.6 12.951-1.688 16.893M837.867 280.457s-6.756 9.01-1.407 13.514M835.055 292.837s-5.349 8.729 1.128 14.64M832.694 269.688c-.363.363-6.54 4.723-8.719 3.634M826.156 283.488s2.543 2.542 4.723 2.18M826.457 296.7l4.057 2.783M827.003 306.814l3.51 2.118M763.412 168.732s7.401 3.85 13.323 0c5.921-3.849 34.343-18.355 41.745-20.724 7.4-2.369 11.546-15.988 13.027-21.908M825.883 142.087l41.45-12.139s6.81-5.625 7.105-15.987M871.47 125.211s41.449-4.145 41.449-19.54M906.412 116.328s43.522-11.842 47.667-16.283" stroke-width="1.3649pt" fill="none"/><path d="M785.018 178.206s26.35-13.619 30.495-15.099c4.144-1.48 13.617-13.322-.593-13.322" stroke-width="1.3649pt" fill="none"/><path d="M797.753 183.535c.296 0 21.612-13.916 28.717-15.691 3.85-5.33 1.777-10.954-4.736-9.77" stroke-width="1.3649pt" fill="none"/><path d="M828.245 164.29c.592-.295 11.547-.591 7.698 7.994-5.624 4.145-29.903 16.284-29.903 16.284M822.621 155.113l46.188-15.396s3.85-7.994-1.775-9.178M905.525 116.624c0 .296 5.923 3.553 2.37 8.882-6.514 3.85-37.304 11.25-37.304 11.25M952.3 111.888l-43.52 12.139M949.038 121.658l-37.895 11.547M945.79 131.132l-33.455 10.066M939.566 140.606c-.889 0-24.869 7.401-24.869 7.401M934.243 148.008l-15.396 6.217M930.394 156.297c-.593 0-13.323 5.625-13.323 5.625M926.545 163.106l-11.842 5.625M906.112 175.838s1.481.592 1.185 2.368M876.207 192.121s5.034 1.776.296 6.513c-2.368 3.257-9.177 2.37-13.322 8.29M908.487 125.803s6.219 1.48 1.481 9.474c-12.436 4.737-37.6 12.435-37.6 12.435s-1.184 2.072-4.44 3.849c-3.257 1.776-39.08 11.842-39.08 11.842M910.562 134.981s6.81 2.96 0 7.994c-7.698 4.44-34.64 12.73-34.64 12.73s-.296 2.369-1.48 3.257c-1.184.888-36.711 12.73-36.711 12.73" stroke-width="1.3649pt" fill="none"/><path d="M912.336 142.974s7.106 2.072.889 7.993c-7.402 4.441-31.087 12.435-31.087 12.435s-2.368 2.96-6.217 4.145c-3.85 1.184-28.422 11.25-28.422 11.25M914.11 150.968c2.074.888 7.698 1.776.889 7.106-7.993 3.552-27.533 11.25-27.533 11.25l-1.777 3.257-31.085 13.322M915.885 158.962s2.96 3.553-3.553 7.698c-7.106 3.849-22.5 9.77-22.5 9.77M912.336 167.251s3.257 2.073-.887 5.033c-4.738 2.369-23.39 12.139-23.39 12.139l-12.138 7.993" stroke-width="1.3649pt" fill="none"/><path d="M869.697 140.013c0 .296 5.033 4.441 3.256 9.178 4.442 3.257 3.553 6.81 3.553 6.81s6.217 3.552 5.33 8.585c6.217 1.48 5.92 5.034 5.92 5.034l-2.072 3.256s6.217-.296.888 7.698c3.257 1.776 1.777 3.849 1.777 3.849M886.567 180.87c-.889 0-21.612 7.698-26.942 12.435" stroke-width="1.3649pt" fill="none"/><path d="M836.543 171.693s6.217-.296 5.33 6.513c7.106-2.369 5.625 4.44 5.625 4.44s8.289-3.256 6.81 7.106c5.328-1.184 4.44 4.145 4.44 4.145s4.737-.296 4.737 2.369c3.257-2.961 6.81-1.48 6.81-1.48s2.368-3.257 5.624-2.37M842.167 177.91c0 .592-27.83 15.987-27.83 15.987M847.49 182.942l-21.021 13.027M854.6 189.455c0 .297-18.356 10.955-18.356 10.955M858.75 193.6s-13.027 10.659-15.987 10.067M863.186 196.857s-7.402 5.626-13.619 8.29M870.884 194.49s2.368 2.96-12.434 10.657" stroke-width="1.3649pt" fill="none"/></g></g></svg>