<svg xmlns="http://www.w3.org/2000/svg" height="512" width="512" version="1"><g stroke-width="1pt"><path fill="#006" d="M0 0h512v512H0z"/><path fill="#fff" d="M0 0v27.95L307.037 250h38.647v-27.95L38.647 0H0zm345.684 0v27.95L38.647 249.999H0v-27.95L307.037 0h38.647z"/><path fill="#fff" d="M144.035 0v249.999h57.614V0h-57.614zM0 83.333v83.333h345.684V83.333H0z"/><path fill="#c00" d="M0 100v50h345.684v-50H0zM155.558 0v249.999h34.568V0h-34.568zM0 249.999l115.228-83.333h25.765L25.765 249.999H0zM0 0l115.228 83.333H89.463L0 18.634V0zm204.691 83.333L319.919 0h25.765L230.456 83.333h-25.765zm140.993 166.666l-115.228-83.333h25.765l89.463 64.7v18.633z"/><path fill-rule="evenodd" fill="#fff" d="M54.886 368.64l40.665 15.4 13.32-41.403 13.32 41.402 40.665-15.399-24.061 36.223 37.396 22.197-43.327 3.767 5.969 43.082-29.962-31.527-29.962 31.527 5.97-43.082-43.328-3.767 37.396-22.197z"/><g fill-rule="evenodd" fill="#fff"><path d="M403.807 476.413l-18.823 1.638 2.597 18.71-13.02-13.691-13.02 13.692 2.597-18.711-18.823-1.638 16.247-9.646-10.458-15.736 17.675 6.692 5.782-17.99 5.782 17.99 17.675-6.692-10.458 15.736zM403.807 196.417l-18.823 1.638 2.597 18.71-13.02-13.691-13.02 13.692 2.597-18.711-18.823-1.638 16.247-9.645-10.458-15.737 17.675 6.691 5.782-17.986 5.782 17.986 17.675-6.691-10.458 15.737zM298.808 310.165l-18.823 1.638 2.597 18.711-13.02-13.692-13.02 13.692 2.598-18.71-18.823-1.639 16.247-9.646-10.458-15.735 17.675 6.692 5.782-17.99 5.781 17.99 17.675-6.692-10.458 15.735zM497.13 282.166l-18.83 1.638 2.59 18.71-13.02-13.691-13.02 13.691 2.59-18.71-18.795-1.638 16.275-9.646-10.479-15.736 17.689 6.692 5.74-17.99 5.81 17.99 17.64-6.692-10.43 15.736zM416.56 355.014l-10.29 6.377 2.892-11.753-9.247-7.805 12.074-.89 4.571-11.206 4.571 11.207 12.075.889-9.247 7.805 2.891 11.753z"/></g></g></svg>