<svg xmlns="http://www.w3.org/2000/svg" height="512" width="512" version="1"><g stroke-width="1pt"><g fill-rule="evenodd"><path fill="#c33" d="M0 170.666h512.004v170.666H0z"/><path fill="#09c" d="M0 0h512.004v170.666H0z"/><path fill="#093" d="M0 341.332h512.004v170.666H0z"/></g><path fill="#fff" d="M311.248 256.128c.033 41.4-33.54 75-74.94 75-41.4.067-75.025-33.483-75.058-74.883-.1-41.4 33.417-75.05 74.816-75.117 41.4-.131 75.08 33.361 75.18 74.761v.24z"/><path fill="#c33" d="M315.414 256.128c.028 34.04-27.577 61.667-61.617 61.667-34.04.054-61.688-27.529-61.715-61.568-.082-34.04 27.479-61.711 61.519-61.765 34.04-.109 61.732 27.43 61.813 61.47v.196z"/><path fill-rule="evenodd" fill="#fff" d="M290.115 285.595l10.216-21.492-22.416-7.975 22.416-7.975-10.216-21.491 21.491 10.216 7.975-22.416 7.975 22.416 21.492-10.216-10.217 21.491 22.417 7.975-22.417 7.975 10.217 21.492-21.492-10.217-7.975 22.417-7.975-22.417z"/></g></svg>