<svg xmlns="http://www.w3.org/2000/svg" height="512" width="512"><g fill-rule="evenodd" stroke-width="1pt"><path fill="#00009d" d="M0 0h170.664v511.983H0zM341.329 0h170.664v511.983H341.33z"/><path fill="#ffd400" d="M170.664 0H341.33v511.983H170.664z"/></g><g fill-rule="evenodd"><path d="M254.683 378.744c9.12.637 4.081-.414 13.201.223l.636-54.087h34.999c-.208-64.596 24.883-119.04 54.823-165.192 1.8-2.316.623-3.311-1.373-2.799-22.596 3.53-45.843 15.392-61.768 31.86-1.858 2.28.267 2.636 1.318 2.5 8.72-2.614 7.002 7.153 6.37 11.072-8.939 28.556-16.74 56.225-19.603 89.084-.004 2.285-.363 3.948-1.447 4.057-4.03.212-7.972.155-12.046.144-1.486.013-1.81-1.628-1.909-3.181.212-33.09-.082-66.177.13-99.266.102-2.183 8.008-11.047 9.294-11.082 4.05-.104 5.757-.004 10.285-.08 1.18-.01 1.433-3.644.083-3.82-2.757 0-7.873-.252-10.63-.252-1.306.05-19.806-14.059-19.848-16.958-.212-4.454-.087-8.824-.299-13.277.243-1.097-5.165-1.349-5.09.083v12.382c-.927 5.9 2.662 200.554 2.874 218.584z"/><path d="M254.201 378.744c-9.12.637-4.081-.414-13.201.223l-.636-54.087h-34.999c.208-64.596-24.883-119.04-54.823-165.192-1.8-2.316-.623-3.311 1.373-2.799 22.596 3.53 45.843 15.392 61.768 31.86 1.858 2.28-.267 2.636-1.318 2.5-8.72-2.614-7.002 7.153-6.37 11.072 8.939 28.556 16.74 56.225 19.603 89.084.004 2.285.363 3.948 1.447 4.057 4.03.212 7.972.155 12.046.144 1.486.013 1.81-1.628 1.909-3.181-.212-33.09.082-66.177-.13-99.266-.102-2.183-8.008-11.047-9.294-11.082-4.05-.104-5.757-.004-10.285-.08-1.18-.01-1.433-3.644-.083-3.82 2.757 0 7.873-.252 10.63-.252 1.306.05 19.806-14.059 19.848-16.958.212-4.454.087-8.824.299-13.277-.243-1.097 5.165-1.349 5.09.083v12.382c.927 5.9-2.662 200.554-2.874 218.584z"/></g></svg>