<svg xmlns="http://www.w3.org/2000/svg" height="512" width="512" version="1"><g stroke-width="1pt"><path fill-rule="evenodd" fill="#229e45" d="M0 0h512v512H0z"/><path d="M261.358 405.394L491.23 256.201 259.967 106.604 29.34 256.56l232.018 148.834z" fill-rule="evenodd" fill="#f8e509"/><path d="M361.52 256.004c0 53.622-43.54 97.093-97.25 97.093s-97.248-43.47-97.248-97.093 43.54-97.093 97.249-97.093c53.71 0 97.249 43.47 97.249 97.093z" fill-rule="evenodd" fill="#2b49a3"/><path fill-rule="evenodd" fill="#ffffef" d="M232.302 314.156l-3.004-1.734-3.121 1.544.699-3.468-2.41-2.542 3.446-.403 1.619-3.111 1.444 3.217 3.4.618-2.55 2.387zM297.473 330.658l-3.005-1.734-3.12 1.544.698-3.468-2.41-2.541 3.446-.404 1.619-3.11 1.444 3.217 3.4.617-2.55 2.388zM269.382 304.297l-2.595-1.498-2.696 1.334.603-2.996-2.082-2.196 2.978-.349 1.398-2.687 1.248 2.78 2.937.533-2.203 2.062zM335.202 294.818l-2.549-1.47-2.647 1.309.593-2.942-2.045-2.156 2.924-.342 1.373-2.638 1.225 2.729 2.884.523-2.163 2.025zM268.193 275.085l-3.005-1.734-3.12 1.544.698-3.468-2.41-2.542 3.447-.404 1.618-3.11 1.444 3.217 3.4.618-2.55 2.387zM187.95 244.96l-3.005-1.735-3.12 1.544.698-3.468-2.41-2.542 3.447-.403 1.618-3.111 1.444 3.217 3.4.618-2.55 2.387zM197.6 285.034l-3.005-1.734-3.12 1.544.698-3.468-2.41-2.542 3.447-.403 1.618-3.11 1.444 3.217 3.4.617-2.55 2.387zM297.734 230.206l-2.654-1.531-2.757 1.364.617-3.064-2.129-2.245 3.045-.357 1.43-2.748 1.275 2.843 3.004.545-2.253 2.109zM292.23 256.279l-2.09-1.207-2.17 1.074.485-2.412-1.677-1.769 2.398-.28 1.126-2.165 1.005 2.239 2.366.43-1.775 1.66zM183.477 292.296l-2.006-1.158-2.084 1.031.467-2.315-1.61-1.697 2.302-.27 1.08-2.077.964 2.148 2.27.413-1.702 1.594zM335.758 301.527l-1.634-.866-1.698.771.38-1.732-1.311-1.27 1.875-.201.88-1.554.786 1.607 1.85.309-1.387 1.192z"/><path fill-rule="evenodd" fill="#ffffef" d="M183.477 292.296l-2.006-1.158-2.084 1.031.467-2.315-1.61-1.697 2.302-.27 1.08-2.077.964 2.148 2.27.413-1.702 1.594z"/><path fill-rule="evenodd" fill="#ffffef" d="M183.477 292.296l-2.006-1.158-2.084 1.031.467-2.315-1.61-1.697 2.302-.27 1.08-2.077.964 2.148 2.27.413-1.702 1.594zM215.41 292.288l-2.007-1.157-2.083 1.03.466-2.315-1.61-1.697 2.302-.27 1.08-2.076.965 2.148 2.27.412-1.703 1.594zM211.441 302.91l-2.005-1.157-2.084 1.03.466-2.314-1.609-1.697 2.301-.27 1.081-2.077.964 2.148 2.27.413-1.702 1.594zM277.748 283.573l-2.006-1.157-2.083 1.03.466-2.315-1.61-1.697 2.302-.27 1.08-2.076.965 2.148 2.27.412-1.703 1.594zM258.29 283.566l-2.005-1.158-2.083 1.031.466-2.315-1.61-1.697 2.302-.27 1.08-2.077.965 2.149 2.27.412-1.703 1.594zM205.515 276.783l-1.257-.726-1.305.646.292-1.45-1.008-1.064 1.442-.169.677-1.301.604 1.346 1.423.258-1.067 1zM333.285 309.928l-2.005-1.158-2.084 1.03.466-2.315-1.609-1.697 2.301-.27 1.081-2.076.964 2.148 2.27.413-1.702 1.593zM317.083 312.05l-1.662-.961-1.725.856.386-1.923-1.333-1.409 1.906-.224.895-1.724.799 1.783 1.88.343-1.41 1.323zM324.727 311.866l-1.548-.894-1.607.796.36-1.788-1.242-1.31 1.775-.209.834-1.604.744 1.66 1.751.318-1.313 1.23zM346.676 292.712l-1.491-.86-1.548.766.346-1.72-1.196-1.262 1.71-.2.804-1.543.716 1.596 1.687.306-1.265 1.185zM316.89 322.86l-1.946-1.063-2.022.947.453-2.126-1.562-1.557 2.233-.247 1.05-1.906.935 1.971 2.203.379-1.653 1.462zM317 331.582l-1.775-1.062-1.844.946.413-2.125-1.425-1.558 2.037-.247.957-1.906.853 1.971 2.01.379-1.508 1.463zM302.286 311.863l-1.49-.86-1.55.765.347-1.72-1.195-1.261 1.71-.2.803-1.544.716 1.596 1.687.307-1.265 1.184zM288.491 311.863l-1.49-.86-1.548.765.346-1.72-1.196-1.261 1.71-.2.803-1.544.717 1.596 1.687.307-1.265 1.184zM265.069 291.38l-1.49-.86-1.549.766.347-1.72-1.196-1.261 1.71-.2.803-1.544.716 1.597 1.687.306-1.265 1.184zM267.679 333.126l-1.263-.729-1.311.649.294-1.457-1.013-1.068 1.448-.17.68-1.307.607 1.352 1.429.26-1.072 1.002zM232.302 265.605l-3.004-1.734-3.121 1.544.699-3.468-2.41-2.542 3.446-.404 1.619-3.11 1.444 3.217 3.4.618-2.55 2.387z"/><path d="M355.113 290.934c1.482-3.876 3.394-9.721 4.409-15.086-51.652-45.375-109.232-68.618-181.988-63.836-2.608 5.001-4.696 10.236-6.457 15.9 86.207-8.223 149.396 29.943 184.038 63.022z" fill-rule="evenodd" fill="#fff"/><path d="M331.893 265.425l1.845 1.008c-.29.654-.367 1.226-.236 1.714.137.493.476.922 1.017 1.288.574.392 1.087.564 1.538.518.457-.046.797-.233 1.018-.56a.968.968 0 0 0 .17-.658c-.02-.23-.146-.503-.377-.82-.16-.213-.548-.665-1.165-1.354-.794-.885-1.267-1.632-1.42-2.24-.212-.855-.083-1.632.389-2.333.305-.45.714-.786 1.23-1.005.522-.22 1.093-.27 1.707-.151.619.12 1.27.41 1.945.872 1.107.752 1.776 1.56 2.004 2.426.233.869.09 1.719-.43 2.551l-1.833-1.13c.23-.508.286-.945.166-1.314-.112-.37-.42-.725-.922-1.066-.516-.35-.993-.52-1.43-.505a.774.774 0 0 0-.653.357c-.141.21-.173.45-.098.718.098.342.509.91 1.239 1.703.727.793 1.223 1.44 1.487 1.943.27.5.393 1.021.367 1.562-.018.539-.217 1.088-.593 1.648a3.13 3.13 0 0 1-1.381 1.138 3.05 3.05 0 0 1-1.859.182c-.657-.134-1.368-.462-2.133-.983-1.115-.756-1.799-1.596-2.049-2.517-.246-.924-.095-1.923.457-2.992zM323.14 259.68l1.886.93c-.263.665-.318 1.241-.167 1.723.158.486.511.903 1.067 1.247.59.368 1.108.519 1.557.455.457-.066.79-.264.995-.6a.959.959 0 0 0 .146-.664c-.03-.23-.167-.498-.412-.806-.167-.207-.572-.641-1.218-1.306-.828-.852-1.33-1.58-1.508-2.18-.246-.847-.148-1.628.293-2.347a2.764 2.764 0 0 1 1.19-1.053c.514-.24 1.082-.315 1.7-.221.624.097 1.285.36 1.979.794 1.138.705 1.837 1.487 2.1 2.343.267.859.159 1.713-.326 2.566l-1.879-1.057c.21-.514.249-.954.114-1.317-.128-.366-.45-.708-.963-1.028-.532-.33-1.015-.48-1.45-.447a.772.772 0 0 0-.638.384c-.132.215-.156.453-.069.72.11.338.545.888 1.305 1.653.757.761 1.28 1.389 1.563 1.88.291.488.434 1.004.43 1.545.005.54-.173 1.096-.525 1.672-.322.519-.77.917-1.336 1.193a3.057 3.057 0 0 1-1.85.257c-.66-.108-1.384-.409-2.171-.897-1.143-.712-1.86-1.522-2.147-2.433-.285-.914-.174-1.916.335-3.006zM312.309 256.777l5.548-9.123 6.738 4.13-.939 1.544-4.901-3.006-1.232 2.022 4.562 2.797-.935 1.536-4.562-2.795-1.509 2.483 5.076 3.111-.936 1.538-6.91-4.237zM296.532 243.82l.823-1.6 4.118 2.131-1.941 3.784c-.602.182-1.358.225-2.274.13a7.125 7.125 0 0 1-2.53-.753c-.99-.512-1.746-1.163-2.268-1.96-.52-.8-.77-1.681-.743-2.647.03-.97.277-1.91.745-2.822.507-.99 1.167-1.76 1.976-2.317a4.689 4.689 0 0 1 2.72-.831c.77-.003 1.605.233 2.51.697 1.175.61 1.965 1.332 2.366 2.17.411.836.486 1.738.227 2.71l-2.08-.626a2.241 2.241 0 0 0-.19-1.492c-.226-.462-.615-.835-1.164-1.12-.837-.433-1.637-.51-2.406-.233-.763.277-1.412.937-1.948 1.983-.58 1.128-.766 2.104-.557 2.929.212.818.72 1.438 1.532 1.858.4.206.84.335 1.319.386.487.05.93.037 1.336-.038l.619-1.206-2.19-1.132zM227.725 226.758l1.551-10.574 3.181.471.856 7.493 2.944-6.933 3.192.471-1.55 10.575-1.975-.292 1.222-8.324-3.312 8.015-2.047-.303-.865-8.632-1.22 8.323-1.977-.29zM216.968 225.508l.995-10.644 7.86.743-.166 1.8-5.72-.539-.223 2.36 5.321.5-.167 1.795-5.322-.502-.27 2.896 5.92.557-.166 1.795-8.062-.76z" fill="#309e3a"/><g stroke-opacity=".502"><path d="M181.37 218.851c.03-1.088.216-1.998.561-2.727.256-.538.6-1.017 1.026-1.438a4.158 4.158 0 0 1 1.407-.924c.67-.263 1.439-.384 2.304-.36 1.569.043 2.809.565 3.72 1.567.919 1.003 1.354 2.374 1.307 4.113-.047 1.724-.55 3.063-1.512 4.014-.96.946-2.222 1.398-3.784 1.355-1.584-.043-2.828-.561-3.736-1.553-.908-.998-1.339-2.347-1.292-4.047z" fill="#309e3a"/><path d="M183.592 218.83c-.033 1.21.22 2.137.76 2.778.54.638 1.238.968 2.095.991.856.024 1.567-.266 2.13-.867.568-.608.869-1.53.903-2.77.033-1.224-.211-2.145-.731-2.762-.517-.617-1.217-.937-2.103-.962-.885-.024-1.607.263-2.167.86-.559.593-.855 1.504-.887 2.733z" fill="#f7ffff"/></g><g stroke-opacity=".502"><path d="M193.99 224.365l.125-10.688 4.524.054c1.138.014 1.962.12 2.473.32.516.196.926.541 1.23 1.036s.452 1.057.445 1.69c-.01.801-.252 1.462-.728 1.98-.475.516-1.181.835-2.118.96a4.91 4.91 0 0 1 1.138.911c.301.328.703.912 1.207 1.75l1.276 2.099-2.57-.03-1.528-2.344c-.541-.837-.914-1.364-1.114-1.58a1.612 1.612 0 0 0-.642-.453c-.226-.084-.586-.13-1.08-.135l-.435-.006-.053 4.461-2.15-.025z" fill="#309e3a"/><path d="M196.22 218.223l1.59.019c1.032.013 1.676-.024 1.934-.108.257-.085.46-.233.607-.445s.223-.479.228-.8c.004-.36-.089-.65-.281-.87-.186-.226-.453-.37-.801-.433-.174-.026-.698-.044-1.569-.055l-1.677-.019-.031 2.711z" fill="#fff"/></g><g stroke-opacity=".502"><path d="M206.153 214.207l3.924.2c.885.045 1.555.147 2.012.307a3.558 3.558 0 0 1 1.553 1.065c.422.493.731 1.087.93 1.784.196.692.27 1.537.22 2.536-.044.88-.192 1.631-.44 2.256-.307.764-.717 1.372-1.236 1.828-.389.345-.907.603-1.55.775-.482.127-1.12.17-1.913.13l-4.038-.206.538-10.675z" fill="#309e3a"/><path d="M208.213 216.111l-.356 7.071 1.603.08c.599.033 1.034.02 1.303-.034.352-.07.648-.204.886-.4.243-.198.448-.53.616-.999.17-.472.276-1.121.318-1.946s0-1.464-.122-1.913c-.123-.45-.309-.803-.558-1.065a2.043 2.043 0 0 0-.967-.552c-.297-.084-.883-.148-1.758-.192l-.965-.05z" fill="#fff"/></g><g stroke-opacity=".502"><path d="M258.478 233.293l2.486-10.393 3.355.809c1.27.306 2.087.558 2.448.756.556.298.971.758 1.246 1.379.275.616.313 1.338.116 2.165-.152.638-.395 1.147-.731 1.526-.333.38-.71.65-1.128.816-.412.16-.811.237-1.198.228-.522-.021-1.257-.146-2.203-.374l-1.362-.329-.938 3.92-2.09-.503z" fill="#309e3a"/><path d="M262.639 225.16l-.706 2.949 1.144.276c.825.198 1.388.277 1.69.234.306-.042.562-.16.773-.353.215-.193.36-.443.433-.75.09-.38.055-.717-.107-1.016-.164-.3-.407-.52-.73-.663-.239-.108-.734-.252-1.487-.434l-1.01-.244z" fill="#fff"/></g><g stroke-opacity=".502"><path d="M268.373 236.257l3.538-10.08 4.268 1.51c1.073.38 1.82.746 2.239 1.1.426.353.703.811.833 1.378s.09 1.148-.12 1.743c-.265.757-.706 1.303-1.323 1.642-.615.334-1.386.409-2.312.226.348.412.611.821.785 1.228.181.41.374 1.092.584 2.046l.536 2.4-2.425-.857-.695-2.712c-.246-.968-.43-1.586-.55-1.857a1.619 1.619 0 0 0-.463-.635c-.187-.154-.513-.312-.98-.478l-.41-.145-1.477 4.21-2.028-.72z" fill="#309e3a"/><path d="M272.438 231.163l1.5.53c.973.344 1.593.518 1.864.52.271.003.51-.071.719-.225.208-.152.364-.381.47-.683.12-.34.124-.645.014-.915-.104-.274-.311-.496-.62-.668-.157-.081-.646-.267-1.468-.557l-1.582-.56-.897 2.558z" fill="#fff"/></g><g stroke-opacity=".502"><path d="M280.88 235.871c.323-1.04.749-1.864 1.276-2.472a5.037 5.037 0 0 1 1.378-1.104 4.165 4.165 0 0 1 1.602-.507c.718-.072 1.49.022 2.317.281 1.498.468 2.55 1.31 3.157 2.523.612 1.214.66 2.653.144 4.314-.511 1.648-1.358 2.798-2.54 3.452-1.179.649-2.516.739-4.01.272-1.51-.472-2.569-1.31-3.174-2.512-.605-1.208-.654-2.623-.15-4.247z" fill="#309e3a"/><path d="M283.027 236.469c-.359 1.155-.366 2.115-.02 2.88.348.76.93 1.268 1.749 1.525.818.255 1.579.17 2.284-.256.712-.428 1.252-1.235 1.619-2.418.363-1.17.377-2.122.042-2.86-.329-.733-.918-1.233-1.763-1.497-.846-.265-1.618-.186-2.317.237-.698.418-1.23 1.214-1.594 2.389z" fill="#fff"/></g><g stroke-opacity=".502"><path d="M301.692 250.754l4.89-9.494 4.02 2.087c1.01.526 1.699.992 2.067 1.402.372.407.585.9.635 1.48s-.07 1.148-.358 1.71c-.367.712-.88 1.193-1.538 1.442-.655.246-1.427.213-2.32-.097.288.456.491.899.609 1.326.122.43.22 1.132.296 2.107l.2 2.451-2.283-1.185-.316-2.782c-.111-.994-.206-1.632-.29-1.915a1.612 1.612 0 0 0-.37-.694c-.163-.178-.466-.381-.904-.609l-.387-.2-2.041 3.962-1.91-.991z" fill="#309e3a"/><path d="M306.418 246.26l1.412.733c.916.477 1.508.734 1.776.775.267.041.516-.001.743-.123.227-.123.412-.327.56-.613.165-.319.21-.62.14-.903-.066-.286-.24-.536-.523-.748-.144-.102-.603-.354-1.378-.756l-1.488-.774-1.242 2.409z" fill="#fff"/></g><g stroke-opacity=".502"><path d="M341.19 270.261c.607-.902 1.251-1.568 1.933-1.997a5.043 5.043 0 0 1 1.636-.658 4.183 4.183 0 0 1 1.68-.021c.707.14 1.42.454 2.137.942 1.3.882 2.065 1.992 2.298 3.33.237 1.34-.131 2.729-1.103 4.171-.963 1.428-2.103 2.286-3.422 2.57-1.317.278-2.622-.022-3.919-.901-1.31-.891-2.083-2-2.317-3.326-.232-1.332.127-2.702 1.077-4.11z" fill="#309e3a"/><path d="M343.073 271.443c-.675 1.003-.958 1.92-.847 2.752.115.829.526 1.483 1.235 1.966.71.482 1.464.621 2.262.418.805-.205 1.553-.82 2.245-1.847.683-1.014.97-1.923.861-2.724-.105-.799-.524-1.447-1.258-1.946s-1.496-.647-2.286-.444c-.789.198-1.525.807-2.212 1.825z" fill="#fff"/></g><path d="M246.427 228.95l1.714-7.504 5.542 1.278-.288 1.267-4.032-.928-.384 1.663 3.755.866-.29 1.262-3.75-.863-.469 2.041 4.175.962-.288 1.265-5.685-1.31z" fill="#309e3a"/></g></svg>