<svg xmlns="http://www.w3.org/2000/svg" height="512" width="512"><path d="M0 0v512L512 0H0z" fill-rule="evenodd" fill="#ffca00"/><path d="M0 512h512V0L0 512z" fill-rule="evenodd" fill="#ff6500"/><g stroke="#000"><path stroke-linejoin="round" d="M172.819 349.662s-15.85-.546-22.41 7.47c-6.558 8.016-31.813 30.492-33.886 32.067-.94.63-21.135 4.736-21.135 4.736 9.916-9.898 21.007-13.514 30.105-30.848-4.54 8.698-8.013 12.504-13.323 17.288-4.617-2.149-16.593 7.168-26.62 11.555.182-.364 10.996-9.106 16.858-20.262-3.34 2.914-10.967 10.243-14.307 13.158-7.943.757-11.541 9.558-14.576 10.748-18.604 6.047-13.092 2.365-17.308 6.378-1.7 3.327-5.334 5.98-7.55 6.2-17.455 1.727-17.96 7.46-26.885 10.744-5.703 1.667-9.326.055-12.571-2.188 4.373-1.577 9.817-1.201 13.118-4.735 0 0 15.987-19.047 30.607-21.134 8.381-1.459 9.657-6.378 9.657-6.378s-24.778 6.924-28.968 10.567c-3.938 1.122-10.647 2.09-16.58 1.459 10.962-4.034 17.745-9.576 20.77-12.936 1.734-1.924 12.025-2.004 12.025-2.004s17.309-7.471 17.673-7.471 13.118-7.47 13.118-7.47-15.304 4.01-15.669 4.01-17.876.726-17.876.545c4.665-5.972 21.476-6.387 23.888-7.834 5.63-5.63 23.139-3.462 23.868-4.192.729-.727-18.402-6.558-26.418-4.919-8.016 1.64-20.223-8.379-20.223-8.379s16.762-2.552 22.227-.183 25.143 7.47 26.237 6.558c1.093-.91 22.674-8.563 25.143-5.83-2.126-4.544-4.81-4.423-4.738-8.38l12.025.547s6.194-8.2 6.01-8.563c-5.622-2.061-6.893-7.764-6.893-7.764 7.208 1.201 9.627.293 9.627.477 0 .18 6.378-7.107 6.378-7.107l4.373-6.923 3.28-14.94c-6.626 3.582-19.314-.181-19.13-.365 13.79-4.836 17.962-11.844 24.23-12.207-2.686-13.612 5.283-18.22 5.283-18.036 0 .181 5.467-11.844 5.467-11.844s-5.841-1.965-16.764 0c10.352-12.286 26.785-7.833 26.785-7.833 3.39-10.895 13.846-6.924 13.846-7.288-2.662-5.933 5.327-8.943 10.52-8.764-.746-4.421-5.484-9.089-7.305-12.794 8.682 5.58 17.727 3.414 22.293 11.537l8.198.911s9.108 1.64 9.292 1.64c.181 0 9.473.91 9.473.91 1.63-4.617-4.123-4.028-2.733-15.303 11.096 5.513 10.333 16.473 19.13 22.713 6.934-.478 9.028 1.95 12.451 5.104 3.995-.848 8.875.924 11.416 4.977-.122-4.296 1.115-10.36 6.56-2.733l10.02-.365s-13.163-19.175-24.778-8.38c3.396-11.719 15.305-10.567 15.305-10.567s-3.096-5.365-2.915-11.296c-6.357-2.542-8.382-13.3-8.563-13.118-.183.182-10.828 2.11-15.67 14.758-9.078-9.868 3.223-22.122 3.947-24.301 1.25-4.668 2.5-9.336 3.752-14.004-.981-4.598-.6-6.88 3.598-10.524-2.8-2.899-1.511-5.661 1.82-7.47-1.125-1.982-.206-3.964.306-5.947l44.51-2.544 10.027 13.775 1.64 7.47-3.828 9.838 11.48 13.665 4.19 4.372 8.743 5.102s8.2 3.461 8.382 3.644c.184.182 9.838 2.55 10.203 2.733.364.182 8.017 4.555 9.292 4.919s24.778 0 24.778 0l13.119-1.093-.183 21.499-6.924 1.64c-2.983 2.563-3.848 4.062-8.95 7.69-7.065 1.98-12.184 1.601-12.365 1.601-.183 0-7.107-1.823-7.288-2.004-.183-.181-7.836-2.55-7.836-2.55l-12.023-2.916c-4.946-.777-6.923 2.55-7.288 3.098-.364.546-2.368 24.232-2.368 24.232s-4.192 10.748-4.192 10.931c0 .182-3.885 7.185-6.924 9.657-.564 2.896-1.018 5.985-8.014 11.113-1.484 4.635-.282 9.102 4.735 10.021 2.429.973 4.86 1.943 7.288 2.915l10.932 2.55 12.025 2.552-8.563 18.766-21.134-3.463s-14.03-3.644-14.21-3.644c-.184 0-15.49-8.198-15.49-8.198s-4.918-11.113-4.918-11.297c0-.18-4.373-9.292-4.19-9.837.182-.546.182-5.83.182-6.013 0-.181-14.757-3.096-14.757-3.096l-15.486-1.64-16.945-4.556-12.936-3.825-8.381-2.915-9.292-.73s-12.207 1.822-12.207 2.005c0 .181-10.748 3.096-10.748 3.28 0 .18-6.923 16.215-6.923 16.215l-3.28 12.387 5.1 9.476 1.823 26.418-4.737 9.837 3.279 7.288 6.559 10.75 3.827 7.47-23.875 7.567-3.09-12.305s-8.199-20.221-8.016-20.405c.182-.181.363-6.742.363-6.923z" fill-rule="evenodd" stroke-linecap="round" stroke-width=".85995" fill="#fff"/><path stroke-linejoin="round" d="M196.966 320.584c4.963 1.489 5.054-8.264 9.015-11.9 3.144-13.15 20.15-12.692 25.541-3.868-18.031-1.357-11.092 8.774-16.639 13.159 14.183-6.701 27.243-5.536 30.185 3.868-5.7 10.838-11.028 20.926-16.728 31.761-9.084 4.536-13.175-1.67-23.134-7.377l-6.965-1.163c-.257-7.868-1.016-16.61-1.275-24.48zM208.065 381.583s24.262-.759 24.35 10.918c2.217 6.71 9.243 6.194-1.516 23.914.43-22.792-14.188-23.347-24.441-22.82 12.789 1.791 15.066 20.933 9.457 28.246-14.486-.519-26.603-3.665-41.09-4.183-5.06-5.593-11.044-18.676 8.471-27.947 8.258-2.711 16.514-5.42 24.77-8.128zM370.47 316.961l6.964-2.708s21.41-26.005 37.927-11.61c-11.337 1.705-20.574 15.396-20.574 15.396 6.146-4.577 29.234-3.133 26.748 17.132-24.719 7.318-25.416 20.284-23.976 35.715-16.453-.278-34.606-8.792-35.368-35.224 2.193-6.32 6.086-12.38 8.279-18.7zM459.033 206.832c0 8.956-7.26 16.216-16.215 16.216s-16.215-7.26-16.215-16.216 7.26-16.215 16.215-16.215 16.215 7.26 16.215 16.215z" fill-rule="evenodd" stroke-linecap="round" stroke-width=".85995" fill="#fff"/><path stroke-linejoin="round" d="M420.163 236.346c5.97 4.603 13.076 6.284 26.186 7.802 6.905-4.055 19.65-3.89 20.632-12.895 6.885-2.458 8.414-10.758 2.72-13.053-.243-2.434.145-11.885-10.44-12.103 1.421 3.514 2.69 13.158 2.69 13.158-5.518-.649-9.288 8.901-9.288 8.514 0-.193 3.04-15.14-11.691-15.595 5.068 8.473-1.468 15.208-1.468 15.208-1.55-1.935-1.557-5.33-4.403-6.373-7.315-3.08-8.707-12.001-8.395-16.785-3.837 3.24-6.696 6.48-6.554 10.774.057 7.062-.289 13.88.011 21.348z" fill-rule="evenodd" stroke-linecap="round" stroke-width=".85995" fill="#fff"/><path d="M441.697 150.085c12.477-1.738 23.65-4.998 31.004-10.472 2.373-1.767 22.402 1.583 32.714-4.576-15.63-.9-25.984-3.123-28.768-2.202-8.755 2.555-29.15 8.22-30.75 7.5-.14 1.444-2.62 7.74-4.2 9.75z" fill-rule="evenodd" stroke-linecap="round" stroke-width=".85995" fill="#fff"/><path stroke-linejoin="round" d="M445.939 140.22c8.925-2.09 10.968-6.422 16.24-9.586 8.07-3.227 12.553-3.345 20.6-11.663-20.925 2.85-23.273 3.585-23.273 3.585-4.34 2.64-10.31 6.693-15.007 12.844 1.422 1.512 1.337 3.072 1.44 4.82z" fill-rule="evenodd" stroke-linecap="round" stroke-width=".85995" fill="#fff"/><path stroke-linejoin="round" d="M444.448 135.344c0-.086 8.166-9.163 8.238-13.048.357-1.304 4.169-3.458 5.602-8.56.93-13.918 2.224-14.223 2.224-14.223 6.557-3.682 5.16-11.665 8.205-17.64 0 0-9.622 10.743-14.997 16.634-1.433 3.096-1.81 11.033-1.897 11.033-1.518 3.583-5.437 4.05-8.446 9.998-1.694 4.512-.282 8.642-2.836 14.515 1.743.031 2.683.46 3.907 1.291zM426.437 349.498c0 12.074-9.789 21.863-21.863 21.863s-21.864-9.789-21.864-21.863 9.789-21.863 21.864-21.863 21.863 9.788 21.863 21.863z" fill-rule="evenodd" stroke-linecap="round" stroke-width=".85995" fill="#fff"/><path stroke-linejoin="round" d="M214.714 423.436c0 10.967-8.89 19.858-19.858 19.858s-19.858-8.89-19.858-19.858 8.89-19.858 19.858-19.858 19.858 8.89 19.858 19.858z" fill-rule="evenodd" stroke-linecap="round" stroke-width=".8598804499999999" fill="#fff"/><path stroke-linejoin="round" d="M250.604 336.728c0 9.459-7.667 17.127-17.126 17.127s-17.126-7.668-17.126-17.127 7.668-17.126 17.126-17.126 17.126 7.668 17.126 17.126zM172.383 356.633c-6.196.365-12.502 2.514-12.319 2.697.181.181 6.742 3.644 5.83 4.738-.911 1.092-9.71 10.888-9.162 10.888 6.607 1.903 15.358-2.144 15.358-2.144s-3.57 5.749-4.163 7.512c5.89-3.171 11.414.973 12.753-2.199l-8.297-21.492zM302.408 299.74c-3.745 2.306-16.34-.288-16.34-.288 3.71 3.844 6.061 6.587 14.62 7.453-6.114 2.773-10.095 6.708-17.247 9.088 11.188 4.786 18.68-3.068 18.68-2.781s2.172 5.123.47 12.011c4.426-1.164 5.467-5.68 8.776-4.735-2.77-6.593-6.187-14.156-8.96-20.749zM372.58 242.001c-.317 2.078-.72 5.802-9.249 10.12 5.58 2.422 14.906-2.866 14.906-2.58s-7.581 13.507 5.446 19.206c-.346-10.202 1.433-18.346 1.433-18.346s4.79 6.589 8.313 14.333c5.628-6.05-2.006-17.486-2.006-17.486-6.213-1.433-12.844-3.814-18.843-5.247zM380.606 182.068s16.866 11.463 16.94 12.996c.07 1.534-1.535 7.886-7.008 10.733 13.14 1.533 14.527-6.717 14.527-6.717s-2.701 9.346-.511 12.12c7.228-4.454 7.01-11.536 7.01-11.536s4.818 7.301 3.724 11.244c1.532-.803 9.856-9.492 2.335-13.726 1.752-5.695 2.41-9.273-3.942-11.828-.682-3.432 1.119-4.527 1.678-6.79 0 0-6.279-1.899-7.008 3.504-.585 1.095-20.185-11.521-20.402-11.594-.067.331-7.343 11.667-7.343 11.594z" fill-rule="evenodd" stroke-linecap="round" stroke-width=".85995" fill="#fff"/><path stroke-linejoin="round" d="M385.123 175.163s15.62 8.293 16.642 10.264" fill-rule="evenodd" fill-opacity=".3" stroke-linecap="round" stroke-width=".85995" fill="#fff"/><path stroke-linejoin="round" d="M439.724 134.021c-2.07 0-10.319-2.58-15.765 1.433-2.488-3.997-5.16-7.13-13.049-5.446.071-3.571-1.343-3.112-3.23-4.235-1.989-4.332-5.172-6.25-11.322-3.505-5.357-5.51-14.014-5.752-20.093-1.489-9.19-2.726-21.352.454-44.108.199-1.573-.05-9.422 2.765-4.513 9.317-9.45-5.843-13.41 4.904-4.013 6.593 2.293 2.293 4.873 7.166 4.873 7.166s-16.428-11.746-25.454 1.39c-2.926 13.287 11.177 3.774 18.192 8.786 4.203 3.726 8.218 7.596 12.422 11.323 6.976-1.434 12.936-1.478 19.91-1.842-6.307 1.815-11.597 1.173-17.904 2.988 1.519 2.09 4.05 2.789 9.522 2.58l-11.64 4.067c7.13 5.515 16.128 1.893 22.991 2.866-4.352 6.521-13.3 13.417-24.599 10.266 4.864 7.748 14.537 6.757 24.395-3.294 8.253 1.438 13.603 2.45 24.145-1.117.51-.667 8.272-12.219 7.942-13.208 1.412.424 22.776 8.078 24.067 10.453.162-2.946 4.254-5.976-20.64-12.9-4.691-3.816 12.04-8.599 12.04-8.599l-.287 6.88c4.708-2.872 4.958-4.022 6.02-5.733 1.72-1.147 5.446 2.293 5.446 2.293l.21 6.062c2.072-.753 3.23-.903 4.664-2.91s4.182 2.397 4.182 2.397c4.284.423 11.524-1.6 15.122-7.589-1.628-6.083-.856-7.778 2.382-8.993 5.311-8.653 6.53-16.152-1.908-16.199z" fill-rule="evenodd" stroke-linecap="round" stroke-width=".85995" fill="#fff"/><path stroke-linejoin="round" d="M408.33 182.215s-2.63 3.285-2.118 9.638" fill-rule="evenodd" fill-opacity=".3" stroke-linecap="round" stroke-width=".85995" fill="#fff"/><path stroke-linejoin="round" d="M332.31 175.773s6.734 10.26 9.032 10.902c2.297.641 18.169 16.78 19.024 17.474 1.016.428 9.886.214 9.886.214-6.52-5.629-11.97-11.578-17.956-17.367 0 0-9.191-4.543-9.244-4.65s-4.916-6.626-4.916-6.626c-1.55-.499-3.206-1.265-4.649-2.458l-1.176 2.511z" fill-rule="evenodd" stroke-linecap="round" stroke-width=".85995" fill="#fff"/><path stroke-linejoin="round" d="M397.53 195.137c2.992-.73 7.154 1.752 7.446 3.87 1.607-.95 5.184-.95 6.498.292.585-.876 3.213-3.213 5.915-2.19M408.422 182.215s2.188 1.752 5.11.876" fill-rule="evenodd" fill-opacity=".3" stroke-linecap="round" stroke-width=".85995" fill="#fff"/><path stroke-linejoin="round" d="M444.127 190.525c3.624-.517 33.286-17.848 40.526 4.053-2.5-18.539-16.124-18.194-16.124-18.194s-.603-8.88-13.105-7.415c8.193 6.036 1.293 10.864.69 11.727-2.128-5.72-3.048-8.68-9.572-11.21 2.617 10.06-2.873 11.41-4.311 16.21-2.901-2.069-5.116-5.863-6.81-8.708-2.301 6.668-.288 10.663 2.327 14.141 2.3-.575 4.426-.718 6.38-.604z" fill-rule="evenodd" stroke-linecap="round" stroke-width=".85995" fill="#fff"/><path stroke-linejoin="round" d="M439.312 159.288c1.142 2.092 5.955 8.104-2.49 19.567-2.665-3.707-4.099-5.985-4.099-5.985s-7.198 4.682-6.377 20.761c-2.695-6.457-6.696-14.6 1.607-26.833-5.994 9.648-7.946 10.716-12.532 10.581 7.022-5.007 8.56-10.427 8.696-10.427 1.282.43 9.205.021 15.195-7.665z" fill-rule="evenodd" stroke-linecap="round" stroke-width=".85995" fill="#fff"/><path d="M433.923 133.198c1.575 5.876-2.755 9.95-6.084 13.088 7.228 14.168-15.975 13.027-7.607-.19" fill-rule="evenodd" stroke-linecap="round" stroke-width=".85995" fill="#fff"/><path d="M411.289 148.188s-1.711 2.187-.285 5.23M401.45 148.337c2.074.511 3.798 3.191.448 5.201-1.341.798-8.074-2.329-11.55 4.244" fill-rule="evenodd" fill-opacity=".3" stroke-linecap="round" stroke-width=".85995" fill="#fff"/><path d="M338.09 135.156c-2.722-.223-4.06 1.16-.803 4.328M340.681 125.83c-3.17-1.383-4.64 1.918-.848 4.551M349.785 126.098c-2.766-2.499-5.176 2.008-.757 3.703M363.567 126.098c-2.898-2.454-3.882 1.115-2.988 2.32" fill-rule="evenodd" stroke-linecap="round" stroke-width=".85995" fill="#fff"/><path d="M380.674 163.546c0 7.44-6.031 13.473-13.472 13.473s-13.473-6.032-13.473-13.473 6.032-13.473 13.473-13.473 13.472 6.032 13.472 13.473z" fill-rule="evenodd" fill-opacity=".3" stroke-linecap="round" stroke-width=".85995" fill="#fff"/><path stroke-linejoin="round" d="M379.895 167.965c-.367-.78-8.646-8.973-11.26-7.859-2.14.093-8.686 14.374-8.4 14.947 6.777 4.78 17.222.563 19.653-7.087z" fill-rule="evenodd" fill-opacity=".3" stroke-linecap="round" stroke-width=".85995" fill="#fff"/><path stroke-linejoin="round" d="M375.492 163.658c-1.02-.66-1.803-1.261-2.704.06-.901 1.322-5.827 13.28-5.827 13.28M390.833 136.65c-9.012-5.048-25.739 2.434-14.621 7.661-9.494-2.884-9.074 5.288-9.074 5.288M371.525 128.185c3.572-5.306 8.505-7.123 11.734-.471 4.3 5.733 12.383 1.445 12.383 1.445" fill-rule="evenodd" fill-opacity=".3" stroke-linecap="round" stroke-width=".85995" fill="#fff"/><path d="M346.987 132.588s-4.013 1.863-.284 4.73M367.351 130.152s-3.87.574-2.582 4.73" fill-rule="evenodd" stroke-linecap="round" stroke-width=".85995" fill="#fff"/><path d="M363.04 137.316c-.142 0-4.013.144-2.722 4.3M358.591 144.34c-.144.144-4.873-2.006-2.438 4.014" fill-rule="evenodd" fill-opacity=".3" stroke-linecap="round" stroke-width=".85995" fill="#fff"/><path stroke-linejoin="round" d="M376.432 120.833c-16.811-10.246-34.634-30.883-59.096-23.017 24.822 4.402 39.975 18.183 40.48 22.44 9.164-.721 11.688-.505 18.616.578z" fill-rule="evenodd" stroke-linecap="round" stroke-width=".85995" fill="#fff"/><path stroke-linejoin="round" d="M351.964 120.402c-2.236-2.742-10.68-17.967-27.851-17.678 13.13 6.71 20.996 15.874 21.719 18.183 2.451-.145 4.182-.361 6.132-.505z" fill-rule="evenodd" stroke-linecap="round" stroke-width=".85995" fill="#fff"/><path d="M337.241 121.05s1.95-14.286 4.763-16.018c2.814-1.731-9.379-3.896-9.234 8.659-10.249-8.37-19.915-6.927-21.504-6.35-1.587.577-24.099-.505-26.768 4.546 16.596-.36 21.356.722 22.872 2.381 10.175-2.597 15.947-1.082 22.73 7 3.103-.578 7.141-.001 7.141-.217z" fill-rule="evenodd" stroke-linecap="round" stroke-width=".85995" fill="#fff"/><path stroke-linejoin="round" d="M321.235 128.554c-4.112-4.04-7.533-6.553-19.878-7.586-1.802-.23-6.556-1.234-9.489-2.227 7.85-5.437 31.676 2.237 34.345 5.773-.793 2.453.175 4.095 1.473 5.682-2.202-1.316-4.135-1.847-6.451-1.642z" fill-rule="evenodd" stroke-linecap="round" stroke-width=".85995" fill="#fff"/><path d="M329.743 121.5s-6.146-5.626-10.875-5.532c2.743 1.655 5.864 6.383 7.753 8.085 1.326-1.513.993-1.418 3.122-2.553z" fill-rule="evenodd" stroke-linecap="round" stroke-width=".85995" fill="#fff"/><path stroke-linejoin="round" d="M317.245 116.251c-.237.095-10.354 6.336 1.04 14.657-.756 5.343 5.578 6.1 5.578 6.1s4.682 7.092 4.682 7.044c-10.062-6.696-18.547-5.067-21.675-2.324-6.1-8.936-16.433-10.394-20.214-11.482-4.729-1.04-17.828-2.127-18.724 9.74-12.579-12.34 7.329-17.636 10.732-17.258 3.403-.614 22.505 3.074 23.734 5.485-1.087-11.3 9.173-17.305 14.847-11.962zM354.899 157.368s-33.573-6.257-44.523 1.204c-10.95 7.46-12.392 18.53-28.277 20.215-15.883 1.685-17.568 4.693-23.464 12.876 8.785-2.768 27.798-8.784 40.913-6.137 5.414-6.07 8.423-8.905 7.941-9.025 4.091-13.477 32.61-18.652 46.087-13.838.24-3.37 1.685-4.934 1.323-5.295zM304.127 152.314l-50.18 1.444c-4.572 1.444-10.105 5.174-10.95 6.257-.841 1.083 2.168-11.792 8.786-11.19 8.542.841 31.887-.121 31.887-.121 7.1-2.647 14.802-5.295 19.494-3.49-1.685 4.212.963 7.1.963 7.1z" fill-rule="evenodd" stroke-linecap="round" stroke-width=".85995" fill="#fff"/><path d="M395.672 137.617s-13.872-4.218-10.232 10.013c5.586 7.092 13.617-3.43 13.504-4.492" fill-rule="evenodd" fill-opacity=".3" stroke-linecap="round" stroke-width=".85995" fill="#fff"/><path stroke-linejoin="round" d="M357.857 153.688c-3.064-5.02-22.207-11.828-28.761-9.53 10.51 4.935 25.528 9.912 26.42 12.635 1.234-2.212 2.256-3.063 2.341-3.105z" fill-rule="evenodd" fill-opacity=".3" stroke-linecap="round" stroke-width=".85995" fill="#fff"/><path d="M422.342 136.305s-11.572 3.161-15.871.582-14.963-6.401-10.26-14.639" fill-rule="evenodd" fill-opacity=".3" stroke-linecap="round" stroke-width=".85995" fill="#fff"/><path stroke-linejoin="round" d="M305.09 139.665s-29.36-.728-34.212 8.068c19.107-4.429 33.18-3.822 33.18-3.822l2.67-2.427-1.637-1.82z" fill-rule="evenodd" stroke-linecap="round" stroke-width=".85995" fill="#fff"/><path d="M358.637 132.82s-6.786.205-3.495 4.936" fill-rule="evenodd" stroke-linecap="round" stroke-width=".85995" fill="#fff"/><path stroke-linejoin="round" d="M420.301 220.592s9.82-.325 10.957-1.623M461.923 219.374s4.137 2.921 7.79-1.217M442.935 220.023s2.759 5.194 9.82 2.921M427.204 231.06s-2.11 5.275 8.278 4.788c2.678 1.623.81 6.817.81 6.817M441.077 206.307s5.843-.324 6.898 2.273M443.256 198.923s1.95.163 2.598 2.516c.65 2.353 3.002 1.136 4.382.081M416.38 349.364c-5.1-4.839-16.085-4.97-10.854 7.063 1.83-5.494 5.23-7.586 10.854-7.063zM414.293 356.542c-1.438-1.046-2.225 1.045-1.832 1.438M417.939 321.226s-7.847-.915-4.708 8.24M394.663 300.588s-1.048 9.285 6.277 10.33M383.954 357.849c0-.13-6.8-3.009-8.893 6.276M377.533 314.439s0 7.845 3.531 10.723M374.666 333.93c-.13 0-11.376 4.447-11.376 10.332M192.999 424.122c0-.13 7.228-7.622 8.806.79-.133 3.152-1.71 6.177-1.71 6.177M199.42 425.957s-4.075-.264-4.6 2.233M217.17 403.346c0-.13-9.203-2.892-10.517 4.206M169.86 408.23s7.623-4.469 11.829.395M232.51 392.751c0-.13-7.05-.048-8.101 4.683" fill-rule="evenodd" stroke-linecap="round" stroke-width=".85995" fill="#fff"/><path stroke-linejoin="round" d="M334.65 189.833c-.837.827-.725.873-1.59 1.076-.839.31-1.666.354-2.655.354-.679-.226-1.456-.748-2.123-1.416a6.728 6.728 0 0 1-1.239-2.124c0-.545-.231-1.347-.371-1.675.28.56.805 1.451 1.08 2.03.3.94.599 2.03.883 3.008.236 1.097.355 2.129.355 3.363-.179 1.353-.543 2.552-1.061 3.362-.732.39-1.14.591-2.124.708-1.066 0-1.408-.186-2.302-.531-.413-.536-1.266-1.452-1.768-2.124-.257-.993-.473-1.787-.532-2.831-.431-.62-.636-1.168-1.062-1.77-.193-.709-.514-1.061-.709-1.77-.22-.555-.708-1.13-.95-1.641" stroke-linecap="round" stroke-width=".85995" fill="none"/><path stroke-linejoin="round" d="M206.598 393.554s-5.128 4.05-4.273 7.556M234.414 332.371s-8.242 2-4.12 9.242M234.3 336.132s-1.75 5.869 1.123 7.992M238.909 336.5c.126.375-1.124 6.244-2.871 7.243M229.553 313.888s-.374 4.995 1.873 5.87M214.555 299.028s-1.997 5.87 5.495 7.868M200.819 318.383c0 .25 1.997 9.49 5.994 9.24M216.298 336.614s-10.24-5.745-11.239 9.365" fill-rule="evenodd" stroke-linecap="round" stroke-width=".85995" fill="#fff"/><path d="M393.562 138.8c1.002-.95 4.486-2.085 5.435 3.165.95 5.25-6.12 4.629-6.175 3.79-1.9-.78-1.996-4.889.74-6.955zM408.468 126.708s-9.076-1.107-8.237 6.488c5.304 4.691 9.338.053 10.23-2.516.445-1.843.298-3.413-1.993-3.972z" fill-rule="evenodd" stroke-linecap="round" stroke-width=".85995"/><path stroke-linejoin="round" d="M283.603 152.974s1.092 8.179-5.45 6.27c-6.543-1.908 10.085 4.09-2.727 6.543-2.658 3.723-2.181 4.362-2.181 4.362s6.985-.705 2.642 8.488c-1.638 4.907 2.456-10.732 15.557-2.745-5.997-5.854-1.681-5.777 6.609-5.47-11.498-1.88-10.904-12.541 5.997-7.361-.023-1.59-3.12-6.336 2.453-8.996 10.904-3-22.627-.546-22.9-1.09z" stroke-linecap="round" stroke-width=".85995" fill="none"/><path stroke-linejoin="round" d="M280.966 159.579c1.775.846 8.8 14.216 13.622-6.854-2.115-.508-10.916.253-10.916.253.197 3.216-.367 5.331-2.706 6.6z" stroke-width=".85995" fill="none"/><path stroke-linejoin="round" d="M278.604 164.995c-.401.973-1.004 2.584-1.312 3.586 0 .676.003 1.406.12 1.912.091.837.36 1.438.715 2.152.34.48.392.6.956.717.457.262 2.378.268 2.988.358h2.032c.957 0 1.803.01 2.63-.358.588-.168 1.055-.328 1.315-.837.584-.292.568-.585.956-1.195.167-.337.509-.929.718-1.315.275-.424.357-.529.357-1.075.17-.339.122-1.032.122-1.554-.023-.753-.124-1.442-.24-2.152-.116-.383-.299-.627-.597-.478-1.222.482-2.564-.478-3.947-.478-1.318-.198-2.036-.539-3.346-.717-.545 0-3.086.803-3.467 1.434zM405.258 216.216h.176c-.52 0-.227-.03.709.531.626.223 1.224.45 1.768.708.32.469.672 1.007 1.064 1.416.21.53.484 1.363.706 1.947 0 .817.097 1.406-.353 1.77-.321.814-.807.891-1.238 1.415-.638.213-1.138.504-1.947.885-.856.23-1.218.506-2.124.708-.942.426-1.564.503-2.655.53-.65 0-3.286-.145-3.935-.145.864-.03 3.632-.066 4.288-.208.972 0 1.52.102 2.123.53.796.276 1.248.517 1.947.709.484.193 1.447.28 1.947.53.282.471.817.72.532 1.24-.371.449-1.073.703-1.77.884-.463.316-3.974.926-4.44 1.242-1.67.143 3.353-.399 3.91-.534 1.014-.012 1.644-.128 2.477 0 .754.114 1.44.452 2.123.708.452.6.986.89 1.415 1.593.544.448.697.749.709 1.77-.223.443.192 1.698.133 2.366l-.778 2.329" stroke-width=".85995" fill="none"/><path stroke-linejoin="round" d="M390.925 216.393h.177c-.48 0-.234-.011.708.177.597.418 1.645.578 2.654.885.564.267 1.089.575 1.593.885.519.26 1.193.73 1.592 1.239.724.24.876.676 1.417 1.061.188.854.42 1.306.53 2.124-.071.942-.388 1.128-.707 1.77-.52.353-.839.817-1.593 1.062-.704.282-1.594.514-2.656.708-1.502.286-2.958.603-4.423.707-.73 0-.909.157-1.594.177.887.011 2.061.077 2.655.354 1.108.011 2.37.098 3.186.354 1.612.2 3.157.468 4.779.531.325.53.589.81.708 1.593-.429.314-.727.902-1.062 1.239-.53.325-1.054.661-1.947.885-.979.349-2.068.354-3.185.354h-5.664c-.172-.07-1.415-.177-.709-.177.734.339 2.2.693 3.186.885.676.197 1.06.56 1.417 1.061.429.324 1.08.919 1.415 1.24.277.461.355.754.355 1.592-.085 1.085-.438 1.098-1.24 1.77-.856.56-1.525.675-2.477.885h-2.656c-.71-.19-4.81-2.601-5.336-2.76.727.258 4.64 2.86 4.983 3.645.186.56.177 1.484.177 2.3-.032.86-.138 1.471-.53 1.946-.037.688-.222.532-.885.532l.885-.532c-.037.688-.222.532-.885.532M399.777 230.374h.885c.583.396.578.895 1.417 1.062.642.245 1.284.587 1.768.885.26.436.356.628.356 1.416 0 .865.2 2.04-.177 2.478-.307.358-1.422.349-1.947.53-.759.263-1.408.663-2.06.791-.822.162-2.155.076-2.719.448-.791.061-1.36.177-2.3.177-.546 0-.91-.036-1.238-.177.796.278 2.084.596 3.006 1.062.844.238 1.305.614 1.947 1.062.69.511 1.092.787 1.24 1.593.354.519.354 1.196.354 2.123-.195.584-.323 1.428-.532 1.947-.385.57-.849.678-1.415 1.061-.413.046-.296.133-.709.18" stroke-width=".85995" fill="none"/><path stroke-linejoin="round" d="M384.023 216.216c.293.123 1.197.563 1.77.885 1.041.25 1.724.68 2.477.885.392.484.85.684 1.061 1.416.615.802.764 1.222.886 2.123-.076.99-.234 1.19-1.062 1.416-.617.206-1.326.325-2.124.354-.731.099-1.394.255-2.123.354-.5.25-1.528.177-2.3.177-.764.059-2.01.226-2.904.226.996.036 2.489.128 3.61.128 1.08.115 2.144.172 2.655.708.78.295 1.22.929 1.947 1.239.351.518.762.817 1.062 1.416-.245.688-.63.918-1.417 1.061-.5.25-1.525.177-2.3.177-.539-.27-1.653-.177-2.477-.177h-1.947c.73.25 1.906.535 2.832.708.654.374 1.668.686 2.124 1.062.287.443.759.688 1.062 1.239.396.321.474.917.176 1.416-.073.881-.32 1.323-.708 1.77-.56.38-1.058.72-1.947 1.238-1.25.544-2.438.698-3.894.708-.961 0-1.431-.145-2.3-.177-.79-.271-1.787-.38-2.477-.53-.757-.207-1.777-1.805-2.772-1.841.678.087 1.486 1.706 1.71 2.194.25.5.177 1.527.177 2.301-.278.475-.342 1.378-.532 1.947-.034.615-.099 1.43-.353 1.77l.353-1.77c-.034.615-.099 1.43-.353 1.77" stroke-width=".85995" fill="none"/><path stroke-linejoin="round" d="M374.139 211.809c0 .07.614.393 1.03.868.403.634.827 1.355 1.238 1.946.28.806.53 1.189.708 1.947.33.542.475 1.39.532 2.124-.032.826-.103 1.565-.532 2.124-.208.716-.564 1-1.238 1.238-.587.278-1.149.354-2.123.354-.65 0-2.076-.097-2.725-.097 1.122 0 3.02.097 4.14.097 1.231.078 2.047.183 2.655.708.773.219 1.394.607 1.77 1.062.601.443 1.17.548 1.415 1.239.186.56.177 1.485.177 2.3-.092 1.016-.383 1.038-1.238 1.24h-2.477c-.546-.182-1.564-.267-2.302-.355-.601-.08-1.282-.617-1.803-.79.463.44.376 1.472.388 2.383.135.626.176 1.443.176 2.3-.073.945-.3 1.197-.885 1.594-.94.204-2.325.177-3.538.177-.991-.047-1.81-.177-2.832-.177-1.227 0-2.319-.136-3.452-.266.431.286.422.933.443 1.681.319.532.073 1.152 0 1.77-.06.769-.204 1.289-.532 1.77-.177 0-.305.97-.482.97" stroke-width=".85995" fill="none"/><path stroke-linejoin="round" d="M365.608 209.493c0 .059-.046-.037.885.707.54.433.808.976 1.239 1.593.156.666.38 1.255.53 1.947 0 1.031-.124 1.443-.53 2.124-.677.45-1.486.803-2.477.885-.587.195-1.413.299-2.126.354-.504.168-.442.27-1.142.354 1.133-.04 1.19-.177 2.383-.177.773 0 1.8-.074 2.3.177.793.107 1.364.218 1.77.708.73.199 1.046.519 1.415 1.061.544.369.862.685 1.062 1.416 0 .963-.108 1.506-.353 2.124-.31.616-.601.973-1.239 1.416-.456.393-1.116.49-1.77.708h-2.479c-.651 0 2.133.066 3.364.177.727.133 1.181.429 1.768.708.52.352 1.197.404 1.594.884.647.23.95.698 1.594 1.062.154.359.08.268.353.177" stroke-width=".85995" fill="none"/><path stroke-linejoin="round" d="M358.293 206.46c.869.43 1.346 1.953 1.481 2.855.246.897-.07 1.557-.353 2.478-.858.791-.956 1.046-2.123 1.239-1.005.3-2.099.227-3.01.53-.604.25-1.17.479-1.946.709h-2.479c-.764.45.61.068.885 0 1.378 0 2.798.018 4.07-.177h5.133c.906.136 1.036.445 1.417 1.238.376.456.498 1.233.53 2.124-.037 1.016-.2 1.316-.707 2.124-.509.63-.951.906-1.593 1.416-.828.355-2.046.575-3.186.708-1.362 0-2.825-.08-4.07.176-.94 0-4.694.252-4.366.58.619-.496 3.373-.403 4.366-.403 1.35-.276 2.552-.508 3.894-.53.846-.253 1.876-.343 2.83-.354.93.01 1.648.137 2.125.53.549.457 1.253 1.005 1.592 1.416.679.24.88.697 1.415 1.062.158.725.344 1.191.355 2.124-.22.622-.415 1.27-.708 1.77-.821.586-1.704 1.23-2.832 1.592-.98.38-1.782.497-2.83.531-.904 0-1.596.082-2.303.177-.649 0-5.955.097-6.604.097 1.596-.29 6.781-.097 7.845-.097 1.16 0 2.222.14 3.362.177.562.267 1.17.482 1.591.885.599.24 1.11 1.273 1.122 2.347" stroke-width=".85995" fill="none"/><path stroke-linejoin="round" d="M350.22 202.237c.157.315.785 1.559 1.063 2.3.19.768.176 1.612.176 2.478 0 1.107-.25 1.585-.708 2.478-.966.648-1.713 1.273-2.833 1.593-.935.167-1.701.11-2.653 0-.628-.252-1.151-.463-1.594-.885-.671 0 .39.147.709.177.53.36 1.32.57 2.124.885 1.018.411 1.403.735 2.123 1.593.647.521.812.63.885 1.592.45.507.388 1.196.177 1.77-.546.364-1.135.95-1.592 1.416-.798.333-1.087.518-2.123.53-.963-.034-1.461-.288-2.303-.353-.364-.341-.204-.265.356 0 .573.32 1.568.938 1.947 1.416.61.415.784.862 1.062 1.77.339.911.603 1.465 1.061 1.946.032.87.177 1.338.177 2.3-.248.617-.413 1.202-.885 1.593-.198.725-.642 1.017-.885 1.77-.695.41-1.585 1.26-2.124 1.77-.722.24-2.477.421-3.548.434" stroke-width=".85995" fill="none"/><path stroke-linejoin="round" d="M358.178 314.966c.262.615.553 1.293.707 1.947.077.642.176 1.137.176 1.947-.28.534-.342 1.172-.706 1.594-.232.649-.732.892-1.239 1.238-.683.293-1.164.518-2.125.532-.931 0-1.76-.057-2.477-.179-.784-.367-2.582-1.004-2.039-.62.684.221 1.654.707 2.216.976.74.493 1.3.777 1.947 1.591.564.39.784.71.885 1.417-.702.243-1.679.596-2.656.707-.858 0-1.674-.04-2.3-.177-.573-.273-1.06-.541-1.77-.709l1.77.709c-.573-.273-1.06-.541-1.77-.709l-2.408-.979c.475.454 3.164 1.571 3.47 2.22.25.621.408 1.378.532 2.3-.01 1.05-.101 2.247-.354 3.009-.201.734-.525 1.061-.885 1.591h-.355M355.702 325.584h.176c-.493 0-.231-.023.709.353.984.617 1.227.871 1.947 1.947.339.75.612.972.708 1.77.298.5.115 1.234 0 1.77-.47.386-.722.885-1.24 1.239-.349.513-.8.82-1.239 1.238-.605.13-.853.312-1.591.353" stroke-linecap="round" stroke-width=".85995" fill="none"/><path stroke-linejoin="round" d="M358.362 320.63v.177c0-.52-.03-.227.53.708.73.507.875 1.041 1.061 2.124.209.835.151 1.605 0 2.3-.546.319-1.261.86-2.036.977" stroke-width=".85995" fill="none"/><path stroke-linejoin="round" d="M366.847 324.712h-.177c.477 0 .234-.011-.709.177-.738.247-1.63.176-2.476.176-.656-.231-1.262-.355-1.947-.706-.585-.122-.677-.333-1.417-.356M363.132 331.959h-.177c.48 0 .236.011-.706-.177-.764-.495-2.046-1.362-2.752-1.596" fill-rule="evenodd" stroke-width=".85995" fill="#fff"/><path stroke-linejoin="round" d="M419.957 221.543c-.307.092-3.087.279-3.903.337h-2.477c-.862-.192-1.71-.342-2.655-.354-.706 0-.493-.436-1.202-.436" fill-rule="evenodd" stroke-linecap="round" stroke-width=".85995" fill="#fff"/><path stroke-linejoin="round" d="M417.457 228.604c-.06 0 2.452-.194 2.395-.194.293 0-3.163.194-3.456.194-.791.142-1.599.177-2.48.177-.552.105-1.813.11-2.3.354h-2.476c-.534-.028-.53-.149-1.062-.177" fill-rule="evenodd" stroke-width=".85995" fill="#fff"/><path stroke-linejoin="round" d="M348.616 312.306c.117.291.885 1.67.885 2.483-.012.931-.117 1.294-.53 1.77-.686.37-1.277.696-2.302.71h-3.186c-.96 0-5.487-1.037-5.767-1.248.828.112 3.823 1.247 4.882 1.247.966.035 1.502.241 2.48.53.94.287 1.563.534 2.3.709.506.296 1.332.346 1.77.708.818.29.715.688 1.061 1.592-.068.896-.275 1.318-.885 1.77-.39.48-1.119.904-1.947 1.238-.841.39-1.805.532-3.008.532h-2.477c-.585-.194-1.429-.323-1.947-.532l1.947.532c-.585-.194-1.429-.323-1.947-.532h-.179c.677.271.8.76 1.064 1.415.062.828.177 1.486.177 2.48-.168.71-.436 1.194-.709 1.77a7.854 7.854 0 0 1-1.062 1.768c-.156.353-.357.642-.532.355" stroke-linecap="round" stroke-width=".85995" fill="none"/><path stroke-linejoin="round" d="M339.236 308.59c0 .06-.023-.054.354.886.366.443.495 1.167.708 1.77 0 .858-.041 1.674-.176 2.3-.356.578-.608.922-1.239 1.239-.415.5-.906.642-1.77.708-.51.255-1.433.172-1.947 0-.651-.153-1.328-.344-1.77-.708-.732-.172-1.19-.397-1.592-.885-.653-.163-.523-.53-.179 0 .541.447.564.928.885 1.77.012.929.177 1.34.177 2.3.163.745.27 1.408-.177 1.947-.24.679-.697.88-1.061 1.417-.947.204-1.76.353-2.832.353-.546-.403-1.727-.766-2.124-1.238a5.637 5.637 0 0 1-1.591-1.062c-.491-.234-2.385-1.784-2.667-2.222.438.418 2.495 2.062 2.843 2.575.477.326.924.748 1.238 1.062.48.342.851.97 1.418 1.417.392.695.67.936.706 1.945v2.479c-.011 1.108-.172 1.257-.706 1.947-.11.33-.246.023-.356.353" stroke-width=".85995" fill="none"/><path stroke-linejoin="round" d="M332.517 320.63v.177c0-.555-.036-.223.709.708.612.33 1.316.714 1.947.886.456.394 1.18.39 1.683.882.807.108 1.74.498 2.658.532" fill-rule="evenodd" stroke-linecap="round" stroke-width=".85995" fill="#fff"/><path stroke-linejoin="round" d="M331.898 303.982c.27.256 1.516 1.818 1.683 2.66-.011 1.038-.114 1.346-.706 1.77-.587.278-1.149.353-2.123.353-.948-.208-1.53-.805-2.48-1.238-.502-.49-1.135-.667-1.59-1.062-.89-.303-1.044-.49-.18.177.853.463 1.576.9 2.124 1.238.75.523 1.002.605 1.417 1.594.2 1.013.46 1.924.53 3.008.392.576.45 1.227 0 1.77-.436.258-.626.354-1.415.354-.48-.415-.977-.764-1.415-1.062a6.12 6.12 0 0 1-1.062-1.062c-.47-.417-1.073-.733-1.417-1.238-.76-.332-1.108-.688-1.77-1.062-.61-.938-.028-.048.355.354.436.697.766 1.458 1.062 2.123v2.656a6.175 6.175 0 0 1-.356 1.946c-.9 0-1.593-.082-2.3-.178-.53-.211-1.369-.461-1.947-.707-.825-.458-1.344-.885-1.591-1.593-.422-.482-.787-1.188-1.062-1.592-.35-.445-.488-.651-.885-.885.431.46.832 1.371 1.591 1.947.53.798.982 1.046 1.241 1.947.39.472.447 1.337.53 2.123 0 .773.073 1.8-.177 2.3-.112.833-.367 1.218-.708 1.77-.266.565-.574 1.09-.886 1.592-.236 0-.176-.057-.176.177" stroke-linecap="round" stroke-width=".85995" fill="none"/><path stroke-linejoin="round" d="M335.521 301.16v.178c0-.237-.662 1.51-1.415 1.946-.892.172-1.3.354-2.3.354h-2.655c-.635-.22-1.422-.464-2.124-.707-.582-.511-1.137-.688-1.77-1.24-.525-.514-.686-.808-1.323-1.5-.262-.342-.071-.025.793.614.787.727 1.007.922 1.239 1.77.25.503.176 1.528.176 2.3-.036 1-.121 1.324-.885 1.595-.541.316-1.213.353-2.123.353-.455-.392-1.184-.66-1.77-1.238-.512-.338-1.11-1.131-1.592-1.592-.278-.429-1.525-1.945-1.954-2.22.46.312 1.94 2.034 2.483 2.397.37.649.815.97 1.241 1.415.367.621.599 1.213 1.062 1.593.098.73.254 1.392.353 2.124-.034.942-.19 1.341-.709 1.77-.685.672-.86.7-1.591.353-.608-.422-1.255-.79-1.77-1.238-.66-.181-1.214-.427-1.594-.885-.645-.227-1.099-.727-1.592-1.062a3.974 3.974 0 0 0-1.238-1.417l1.238 1.417a3.974 3.974 0 0 0-1.238-1.417l-3.032-3.743c.4.464 3.864 4.337 4.094 4.983.534.427.839 1.058 1.061 1.947.076.716.177 1.34.177 2.124-.47.493-.624.846-1.417 1.062h-2.477c-.979-.037-1.284-.241-2.123-.532-.718-.415-1.03-.67-1.415-1.239-.519-.353-.819-.763-1.417-1.061-.239-.358-.512-.457-.709-.886-.321-.137-.268-.355-.53-.532" stroke-width=".85995" fill="none"/><path stroke-linejoin="round" d="M337.035 297.882c-.057 0-1.277.1-2.22-.087-1.204-.076-2.534-.17-3.187-.71-.936-.322-1.122-.744-1.592-1.237-.518-.624-1.176-1.25-1.594-2.126-.34-.778-.518-1.447-.53-2.477v-2.832c0-.49.335-3.224.092-3.467-.011.97-.447 3.671-.447 4.705 0 .904-.08 1.596-.176 2.303-.413.66-.844 1.41-1.592 2.123-1.03.888-1.912 1.516-3.185 1.77-1.01.299-1.248.189-1.77-.708-.647-.484-.977-1.277-1.062-2.3-.266-.998-.142-2.011 0-3.009 0-.885-.09-2.394-.09-3.279 0-.413.09 1.172.09 1.332 0 1.044.007 1.654-.532 2.477-.409.906-1.005 1.575-1.592 2.3-.6.621-1.137.876-1.947 1.062-.853 0-1.589.009-2.123-.353-.654-.91-1.819-1.904-2.303-3.009v-6.999c.292.62.356 2.89.356 3.814-.071.912-.447 1.387-.709 2.3-.649.619-1.094 1.156-1.947 1.77-.947.484-1.76.85-2.832 1.062-1.146-.014-1.13-.103-1.591-1.062-.564-.63-.794-1.42-.885-2.3-.246-.85-.427-1.7-.532-2.479-.175-.702-.172-2.293-.354-2.834v1.949c.104.8.342 1.495.354 2.479 0 .871-.06 1.568-.354 2.123-.094.707-.311 2.693-.348 2.656" stroke-linecap="round" stroke-width=".85995" fill="none"/><path stroke-linejoin="round" d="M324.032 295.313c.076.383.354 1.562.354 2.48 0 1.038-.046 1.35-.53 2.123-.516.743-.826.706-1.947.706-.968 0-1.626-.108-2.124-.53-.655-.234-.99-.623-1.417-1.238-.484-.587-1.052-1.52-1.415-1.947-.176-.649-.532-2.28-.798-2.839-.185-.842.475 1.438.798 1.954.45.819.915 1.573 1.239 2.3.128.587.176 1.312.176 2.123-.355.5-.729.93-1.061 1.418a6.548 6.548 0 0 1-2.124.353c-.775-.117-1.225-.39-1.768-.709-.656-.218-1.01-.591-1.594-.885-.332-.504-1.068-1.27-1.415-1.947-.43-.605-.566-1.543-.885-2.123-.121-.847-.234-1.736-.532-2.3-.115-.895-.287-1.528-.885-1.947-.05-.461-.211-.376-.353-.709M310.755 299.579c.057.385.259 1.781.353 2.479-.011 1.015-.227 1.307-.53 1.946a4.069 4.069 0 0 0-.708 1.769c-.468.387-.72.887-1.239 1.24-.275.41-.55.353-1.238.353-.236.074-1.252-.064-1.77-.176M309.7 297.63c-.193.898-.548 1.648-.885 2.478-.514.57-.91 1.108-1.239 1.592-.616.247-1.16.355-2.123.355-.484-.33-1.112-.59-1.594-.885-.261-.112-.624-.243-.885-.355M333.045 173.742v.177c0-.441.025-.23-.356.53-.754.857-1.133 1.123-2.123 1.416-1.062.6-2.614.796-4.07.885-1.2.204-2.51.183-3.716.354-.392-.566-1.18-1.058-1.593-1.593-.418-.48-.626-.969-1.062-1.592-.291-.872-.826-1.578-1.062-2.478-.293-.85-.498-1.782-.709-2.655-.103-.777-.288-1.295-.353-2.124-.635-.181-.052.226.177.708.495.742.644 1.547.709 2.655.128.909.176 1.837.176 2.832 0 1.024-.092 1.645-.353 2.3-.612.624-1.02.753-1.947.885-1.066.272-2.355.177-3.54.177-.845-.114-1.131-.408-1.948-.53-.422-.378-1.135-.781-1.591-1.062-.321-.391-.702-.544-.885-.885" stroke-width=".85995" fill="none"/><path stroke-linejoin="round" d="M318.896 174.833c0 .06.534.797.534.856 0-.494-.02-.232.355.708.349 1.048.143 1.487-.532 2.301-.72.79-1.543 1.472-2.3 2.124-.802.368-1.463.862-2.476 1.062-1.172.147-2.417.206-3.364 0-.682-.388-1.523-1.003-1.947-1.593-.512-.501-.78-1-1.062-1.593-.158-.583-.362-1.352-.706-1.77-.049-.508.016.138.112.908.216.642.011.243.064 1.039v2.478c-.335 1.124-.796 2.55-1.062 3.54-.369.542-.685.862-1.417 1.061-.807.48-1.591.944-2.476 1.239-.484.399-1.197.354-2.124.354-.782-.313-.942-.495-1.594-1.239-.454-.357-.56-.578-.885-.885M294.657 185.07v.177c0-.554.036-.223-.709.708-.337.55-.787 1.05-1.415 1.593-.406.732-1.282 1.553-1.594 2.3-.752.383-1.864.64-2.83.885a99.571 99.571 0 0 0-3.008.354c-1.417.088-2.791.177-4.25.177-.846-.01-1.708-.157-2.3-.354-.566-.469-.676-.898-.706-1.946-.252-.753-.163-1.5-.532-1.947a1.395 1.395 0 0 0-.53-.885" stroke-width=".85995" fill="none"/><path stroke-linejoin="round" d="M330.04 181.176v.177c0-.495.021-.23-.353.708-.405.65-1.006 1.404-1.417 1.947-.617.549-1.506 1.41-2.123 1.946-1.046.873-1.888 1.183-3.185 1.416-1.156.15-1.959-.158-3.01-.708-.83-.872-.949-1.13-1.414-2.123-.085-.866-.156-1.57-.532-2.301-.156-.66-.376-1.28-.709-1.77.04-.608.285.367.356.708.192.483.28 1.445.53 1.947v2.478c.243.968.11 1.674 0 2.477-.3 1.014-.464 1.874-1.062 2.301-.69.241-1.665.354-2.653.354-1.209 0-2.539-.044-3.365-.531-.566-.385-1.04-.927-1.768-1.77-.594-.77-1.03-1.172-1.24-1.947-.418-.627-.672-1.321-1.062-1.77-.094-.752.062-.098.355.178.232.488.629 1.373.883 1.946.33.64.695 1.235.885 2.124.47.573.808 1.246.886 2.124.247.545.176 1.655.176 2.477-.156.856-.35 1.106-1.238 1.24-.727.176-1.647-.107-2.477-.532-.617-.308-.974-.6-1.417-1.238-.725-.585-1.163-1.17-1.768-1.947-.41-.431-.816-.864-1.24-1.416-.487-.598-.975-1.03-1.239-1.947-.275-.26-.433-.625-.709-.885.427.49.638.932.886 1.77.266.971.518 1.44.532 2.478v2.477c-.17.848-.58.772-1.418.885-.97 0-1.793.065-2.3-.354-.775-.104-1.307-.307-1.77-.708-.736-.192-1.209-.604-1.768-.885a18.34 18.34 0 0 0-1.238-1.592c-.246-.756-.711-1.074-1.064-1.593-.25-.25-.266-.794-.354-.708.344.406.654 1.28.886 1.77.142.79.176 1.597.176 2.478-.197.924-.53 1.383-.708 2.3-.39.746-.73 1.685-1.062 2.3-.645.44-1.154.917-1.945 1.24-1.046.47-2.103.67-3.364.708-.848.283-1.557.1-2.3 0-.576-.273-1.234-.549-1.594-1.062-.456-.21-.598-.44-.885-1.062-.642-.482-.876-1.2-1.238-2.124-.257-.743-.541-1.402-.707-2.123-.302-.69-.49-1.557-.885-2.124-.046-.412-.13-.296-.176-.708" stroke-width=".85995" fill="none"/><path stroke-linejoin="round" d="M322.244 196.573v.177c0-.478.011-.237-.177.708-.582.905-1.263 1.672-2.123 1.946-.51.255-1.431.172-1.947 0-.803-.411-1.346-.915-1.947-1.592-.468-.857-1.268-1.635-1.77-2.478-.445-.67-.764-1.153-.883-1.947-.383-.45-.659-1.383-.886-1.947-.052-.556-.045-.247-.21-.656.229.833.527 1.222.74 2.25.351 1.083.65 1.65.356 2.83-.145 1.077-.324 1.989-.709 3.01a10.818 10.818 0 0 1-.885 2.477c-.163.692-.468 1.303-.885 1.77-.402.44-1.08.558-1.77.708h-2.477c-.755-.102-1.461-.351-2.3-.531-.824-.44-.989-.645-1.594-1.24-.473-.584-.929-1.007-1.239-1.769-.451-.307-1.093-.777-1.417-1.239-.54-.532-.88-.916-1.238-1.77-.165-.76-.342-1.3-.353-2.3-.028-.533.247.852.53 1.77.256.596.447 1.54.708 2.3v2.832c0 .866.016 1.71-.176 2.478-.12.797-.42 1.162-.71 1.77-.504.31-1.047.696-1.767.884-.6.417-1.787.705-2.656.885a9.84 9.84 0 0 1-2.655.354c-1.018 0-1.498.011-1.947-.53-.424-.47-1.13-1.407-1.592-1.77-.245-.69-.603-.967-1.238-1.593-.254-.706-.658-1.57-1.062-2.124-.135-.86-.545-1.6-.708-2.3-.113-.262-.243-.624-.353-.886" stroke-width=".85995" fill="none"/><path stroke-linejoin="round" d="M341.117 195.107c.034.243-.163 1.125-.291 1.642-.388 1.053-.982 1.953-1.77 2.654-.852.512-1.189.813-2.124.885-.431.323-.94.14-1.24-.177-.914-.337-1.455-.883-2.301-1.239-.796-.51-1.213-.815-1.947-1.238-.413-.608-.936-1.292-1.415-1.77-.114-.192-1.13-1.886-.935-1.356.376.556 1.298 1.631 1.644 2.418.426.588.924 1.75 1.415 2.3.49.621 1.119 1.312 1.77 2.124.397.98.81 1.684.885 2.654.275.535.353 1.47.353 2.301 0 .963-.144 1.431-.176 2.301-.232.576-.457 1.236-.709 1.77-1.068 0-1.926-.178-2.655-.531-.574-.403-.918-.975-1.415-1.77-.349-.977-.947-1.66-1.415-2.654-.587-.987-1.06-2.498-1.594-3.363-.121-.859-.46-1.628-.53-2.655-.192-.32-.25-.418-.355-.77.112.826.176 1.486.176 2.54 0 1.082.062 2.043-.353 2.655-.316.95-.825 1.573-1.415 2.3-.717.453-1.353 1.059-2.302 1.416-1.053.365-1.869.531-3.009.531-1.14-.235-2.256-.346-3.313-.628-1.115-.1-1.908-.17-2.349-.788-.653-.734-1.392-1.545-1.946-2.477-.516-.339-.342-.386-.675-.754.376.586.317.518.498 1.461.335.695.353 1.28.353 2.124-.42.71-.858 1.466-1.415 2.124-.578.707-.876.93-1.77 1.239h-2.656c-.857 0-1.674-.041-2.3-.177-.763-.166-1.653-.517-2.476-.885-.386-.31-2.794-2.304-3.087-2.694" stroke-linecap="round" stroke-width=".85995" fill="none"/><path stroke-linejoin="round" d="M297.821 207.014h.177c-.555 0-.214-.047.532.885.534 1.076.88 2.033 1.415 3.008.13 1.092.332 1.993.355 3.186 0 1.255.094 2.434-.355 3.54-1.174 1.14-1.633 1.64-3.186 1.769-1.53.312-1.869.025-2.476-1.416-.443-.905-.78-1.913-1.239-2.832-.236-.674-.92-1.599-1.417-2.477-.27-.55-.651-1.372-1.062-2.124-.314-.823-.5-1.657-.885-2.124-.133-1.3-.247-.567.177 0-.11 1.122.62 4.285-.236 4.712-.585.278-1.197.112-2.174.112" stroke-width=".85995" fill="none"/><path stroke-linejoin="round" d="M343.754 197.678c0 .06.096 1.137.096 1.196 0-.536-.009-.235.18.885.063 1.173.343 2.353.705 3.185v2.478c-.277.936-.426 1.367-1.061 2.124-.372.547-.583.708-1.415.708-.569.284-1.8.177-2.656.177-.947-.261-2.162-.337-2.83-.885-.584-.45-1.144-.719-1.483-1.27.247.082.176.503.176.225M330.935 209.67v.353-.354.354-.354c-.154 1.665-.617 2.405-1.594 3.717-.656.77-1.302 1.457-2.3 1.946-1.408.734-2.818.948-4.423 1.062-1.211 0-1.686.049-2.303-.708-.773-.618-1.605-1.48-1.947-2.477-.646-.786-.988-1.811-1.415-2.655-.2-1.007-.568-1.883-.885-2.832-.213-.83.17.57.177 1.24 0 1.4-.223 2.489-.53 3.716-.376 1.118-.732 1.917-1.417 2.831-.693 1.098-1.543 1.506-2.653 2.301-1.693.376-3.222.338-4.956.177-1.115-.342-1.922-.589-2.832-1.239-.835-.26-1.878-.765-2.3-1.239-.862-.352-.562-.15-1.122-.43.129.812-.67 3.622-.825 4.5-.273.959-.388 1.49-1.062 1.948-.708.643-1.362 2.116-2.33 2.514-.729.159-1.635.67-2.557.742-.64.29-1.357.197-1.963.368" stroke-linecap="round" stroke-width=".85995" fill="none"/><path stroke-linejoin="round" d="M343.135 208.784c.064.392.353 1.864.353 2.831v3.009c-.055.998-.243 1.836-.353 2.655-.243.85-.615 1.236-1.239 1.77-.933.485-1.543.854-2.478 1.061-1.11 0-1.422-.178-2.3-.708-1.062-.838-1.794-1.507-2.656-2.477-.73-.784-1.213-1.402-1.77-1.947-.122-.929-.43-1.55-.707-2.478-.32-.448-.53-1.006-.885-1.416.326.652.76 1.008 1.238 1.947.553.961.854 2.018 1.239 3.009.312.814.718 1.696 1.24 2.124.372.884.613 1.206.883 2.123.083 1.07.18 2.052.18 3.186-.356 1.026-.746 1.727-1.595 2.3-1.135.677-2.14.874-3.538 1.062-1.504-.008-2.922-.082-4.07-.53-.487-.596-1.606-1.554-2.303-2.301-.587-.971-1.163-1.866-1.768-2.832-.312-.816-.603-1.52-.709-2.3-.19-.57-.254-1.473-.532-1.947-.243-1.322-.176.73-.176 1.239v3.185c-.372 1.526-1.268 2.794-2.3 4.07-1.266 1.015-2.296 1.814-3.894 1.947-1.553 0-2.644.044-3.894-.708-.582-.692-1.47-1.605-2.123-2.477-.597-1.009-1.085-1.673-1.415-2.655-.133-.614-.218-1.541-.356-2.3 0-.72-.073-.128-.128-.72 0 .826-.048.778-.048 1.604.13 1.167.176 2.324.176 3.54-.415 1.355-.438 1.893-1.944 1.947-1.076-.077-1.39-.281-2.126-.885a19.883 19.883 0 0 1-2.477-1.77c-.686-.64-.984-.97-1.607-1.479" stroke-linecap="round" stroke-width=".85995" fill="none"/><path stroke-linejoin="round" d="M336.049 222.41h.176c-.52 0-.227-.03.709.531.33.498.963 1.268 1.415 1.947.465.643 1 1.814 1.415 2.3.355.624.697 1.075.885 1.77 0 1.078.142 1.98.179 3.009 0 1.083-.168 1.549-.532 2.3-.567.375-1.39.91-2.3 1.24-.918.119-1.835.176-2.832.176a21.72 21.72 0 0 1-2.656-.177c-.603-.272-1.562-.658-2.123-1.062-.642-.568-1.326-1.537-1.947-2.3-.395-.633-.546-1.258-.707-1.947-.224-.877-.33-1.82-.708-2.478-.129-.592-.287-1.309-.353-.177-.237.47-.18 1.39-.18 2.124-.196.932-.43 1.827-.882 2.655-.674.624-1.128 1.446-2.126 1.77-1.176.744-2.53.9-3.891 1.061-1.048 0-2.257.133-3.188-.177a21.367 21.367 0 0 1-1.945-1.061 8.052 8.052 0 0 1-2.125-1.947c-.66-.83-.66-1.41-1.062-2.478-.058-1.004-.287-1.602-.353-2.478-.133-.245-.33-.684-.53-.884 0 1.242.165 2.261.53 3.362.06.844.176 1.575.176 2.478-.032.886-.208 1.468-.53 2.123-.64.471-.926.755-1.77 1.062-.84.158-1.722.177-2.655.177-.787-.212-1.39-.683-2.124-.885-.424-.515-.897-.736-1.415-1.592-.587-.888-.708-1.022-.708-2.124.162-.955.355-1.782.355-2.832 0-.992.023-1.541.353-2.3.041-.735.08-.426.08-1.268" stroke-width=".85995" fill="none"/><path stroke-linejoin="round" d="M301.903 231.613h-.176c.52 0 .206-.05-.354.885-.433.817-.649 1.646-1.061 2.123-.2.731-.521 1.048-1.062 1.416-.232.649-.732.893-1.24 1.239-.544.257-1.143.485-1.769.708l1.768-.708c-.543.257-1.142.485-1.768.708" stroke-width=".85995" fill="none"/><path stroke-linejoin="round" d="M357.65 242.056c-.059 0 1-.534.941-.534.52 0-.89.504-1.825 1.065-.535.267-1.668.177-2.477.177-.709-.164-1.864-.429-2.302-.885-.241-.956-.592-1.889-.883-2.832-.285-.823-.427-1.763-.532-2.654-.253-.854-.427-1.569-.709-2.478a45.16 45.16 0 0 1-.883-3.009c-.261-.877-.468-1.635-.532-2.477-.374-.303-.413-.87-.532-1.416" stroke-linecap="round" stroke-width=".85995" fill="none"/><path stroke-linejoin="round" d="M351.276 240.11c-.129 0-.42.838-.709 1.415-1.156 1.355-2.47 2.433-3.717 3.54-1.1.518-1.952 1.282-3.185 1.415-.512-.463-.711-1.708-.886-2.655-.497-1.673-.752-3.378-1.238-4.955-.44-.793-.874-1.755-1.062-2.478-.302-.637-.41-1.377-.53-1.946.14 1.379.796 2.672 1.062 4.07.216 1.17.353 2.31.353 3.54v3.01c-.199 1.095-.538 2.13-1.238 2.829-.181.112-.897-.38-1.594-.706-1.01-.55-2.187-1.181-2.832-1.594-.676-.98-1.717-2.09-2.476-3.185-.324-1.103-.567-2.028-.709-3.186-.234-1.02-.52-2.458-.885-3.185-.048-.582-.298-.621-.578-.93-.17 1.147-.624 1.83-1.014 2.876-.454.477-1.009.976-1.77 1.593-1.105 1.005-2.34 2.042-3.538 2.832-1.122.71-2.044.993-3.365 1.062-1.26-.04-1.768-.152-2.653-.885-1.46-.909-2.437-2.202-3.717-3.54-.954-1.047-1.316-1.429-1.415-2.832-.06-.768-.209-1.308-.355-2.123 0 .236-.058.177.178.177" stroke-width=".85995" fill="none"/><path stroke-linejoin="round" d="M318.001 242.41c-.052.36-.21 2.001-.353 2.655-.2.731-.468 1.084-1.062 1.415-.43.364-1.268.591-1.77.885-.915.087-1.71.25-2.479.353h-2.653c-.924 0-1.53.016-1.947-.53-.527-.433-1.076-1.334-1.415-1.947-.296-1.002-.365-1.62-.179-2.478 0-1.225.156-2.315.18-3.54 0-.884-.09-2.75-.09-3.635" stroke-linecap="round" stroke-width=".85995" fill="none"/><path stroke-linejoin="round" d="M306.512 245.597v.176c0-.477.012-.234-.176.709-.239.713-.592.965-1.062 1.415-.892.195-1.158-.028-2.126-.353-.619-.5-.777-.934-1.238-1.415a2.9 2.9 0 0 0-1.062-1.417c0-.381-.087-.264-.176-.53" stroke-width=".85995" fill="none"/><path stroke-linejoin="round" d="M300.94 244.083c0 .058.082.677.44 1.151.356.778.762 1.546 1.062 2.477v2.832c-.087 1.073-.243 2.303-.709 3.009-.394.564-1.385 1.013-2.3 1.415-.906.45-1.933.497-3.008.532-1.269-.28-2.333-.723-3.541-1.415-1.069-.546-2.142-1.218-3.185-1.77-.489-.425-.952-.638-1.415-1.239-.514-.376-.936-.913-1.417-1.24-.34-.498-.957-.856-1.415-1.415-.445-.32-.755-.79-1.062-1.239" stroke-width=".85995" fill="none"/><path stroke-linejoin="round" d="M355.977 254.127c0 .104-1.677 1.45-2.227 1.725-.688.504-1.848.98-2.832 1.417-1.38.422-2.458.706-3.892.706-.403-.591-1.495-1.323-2.123-2.123a31.433 31.433 0 0 0-1.417-2.477c-.321-1.02-.7-2.06-1.062-3.008-.31-.915-.59-1.445-.709-2.48-.29-.403-.527-1.616-.619-1.063.583.593.656 1.568.975 2.48 0 1.106.149 2.092.176 3.186-.252.709-.328 1.195-.885 1.594-.39.45-.66.53-1.415.53-.52.311-1.016.013-1.77 0-.927-.273-1.181-.457-1.594-1.062-.52-.365-.88-1.076-1.591-1.594-.45-.832-.711-1.142-1.062-1.945a10.283 10.283 0 0 1-.532-2.302c0-.931-.145-1.743-.177-2.653 0-.638.048-2.108-.176-2.484-.133 1.078-.356 2.328-.356 3.546-.156.834-.204 1.816-.353 2.653-.39.896-.945 1.83-1.77 2.655-1.11.629-2.087.876-3.362 1.062-1.342 0-2.568-.163-3.894-.177-.814-.463-1.724-1.091-2.653-1.77-.867-.784-1.97-1.77-2.656-2.3-.218-.617-.653-.988-1.061-1.417-.253-.468-.36-.406.176-.177.461.461 1.213 1.103 1.594 1.77.291.565.709 1.794 1.062 2.3 0 .962.165 1.372.176 2.3-.167.913-.713 1.136-1.77 1.418-1.01 0-1.942-.1-2.653-.353-.849-.356-1.484-.622-1.947-1.064-.454-.308-1.094-.778-1.417-1.239-.67-.706-1.383-1.453-1.947-2.123-.358-.392-.892-1.38-1.239-1.77.172.259.296.305.532.708.633.796.991 1.296 1.415 1.947.337.874.635 1.293.709 2.3 0 .858-.041 1.677-.177 2.303-.202.738-.527 1.165-1.24 1.414-.535.269-1.668.177-2.477.177-.594-.26-1.656-.715-2.3-.885-.41-.5-1.26-1.105-1.77-1.768-.45-.578-.711-1.172-1.239-1.594.457.376.739 1.043 1.239 1.594.272.557.676 1.42.885 2.123.353.782.488 1.638.708 2.477 0 .947-.062 1.789-.179 2.656 0 .926 0 1.602-.353 2.123-.218.793-.623 1.16-1.415 1.768-.848.165-1.201.344-2.123.356-.358-.434-.878-.909-1.417-1.418-.241-.509-.601-1.3-.885-1.768-.349-.568-.714-.869-1.062-1.594a7.646 7.646 0 0 1-1.592-2.3c-.447-.67-.899-2.607-1.061-3.355-.244-.162.286.455.353 1.585 0 .943-.055 1.796-.177 2.656.028 1.036.177 1.96.177 3.008-.097.704-.209 1.472-.532 1.947-.436.766-1.275 1.394-2.3 1.768-.386-.539-.84-.706-1.592-.885-.736-.376-1.263-.553-2.123-.883-.814-.591-1.16-.706-1.77-1.594-.579-.545-1.113-1.437-1.418-2.123-.135-.626-.177-1.443-.177-2.3.012-1.112.172-1.816.533-2.656.197-.72.662-1.213 1.238-1.591.502-.502 1.036-.929 1.77-1.064.09-.51.496-.491 0-.53v.53c.09-.51.496-.491 0-.53" stroke-linecap="round" stroke-width=".85995" fill="none"/><path stroke-linejoin="round" d="M354.463 267.176c0 .105-.513.433-1.062.708-1.123.358-2.375.085-3.54 0-1.15-.286-1.98-.35-2.477-1.061-.575-.413-1.46-1.326-1.947-1.947-.261-.55-.429-1.193-.53-1.947-.114-.92-.194-1.929-.355-2.832v-2.83c0-.961-.165-1.374-.177-2.303.078-.075.133.445.354.886 0 1.107-.04 2.169-.177 3.185-.096.995-.443 1.637-.709 2.302-.516.64-.804.846-1.591 1.062-.578.344-1.587.498-2.479.53-1.09-.062-1.704-.29-2.3-.885-.87-.69-1.426-1.447-1.947-2.477-.305-.993-.53-1.885-.53-3.009-.121-.786-.064-2.25-.355-2.832-.025-.516.149-1.603-.085-1.86.12.91-.083 2.592.085 3.63 0 1.165-.032 2.29-.177 3.362-.474 1.078-.697 1.658-1.591 2.124-.54.539-1.225.805-2.124 1.062-1.362 0-2.775.1-4.07-.177-.642-.174-1.245-.525-1.947-.709-.484-.408-1.209-.658-1.77-1.238-.652-.713-1.126-1.383-1.415-2.3-.863-1.108-1.5-2.17-1.947-3.362" stroke-linecap="round" stroke-width=".85995" fill="none"/><path stroke-linejoin="round" d="M350.381 277.105h-.176c.477 0 .234-.011-.709.177-.922.307-1.759.092-2.655-.177-.599-.263-1.223-.679-1.592-1.061-.617-.757-.858-.959-1.238-1.947-.298-1.218-.356-2.234-.356-3.539.014-1.032.285-1.694.532-2.655.315-.973.741-2.527.741-3.608-.039 1.172-.674 2.952-.74 4.14v2.83c-.285.85-.285 1.635-.71 2.302-.568.807-1.08 1.082-2.123 1.238-1.034-.094-1.043-.394-1.593-1.238-.936-1.128-1.459-2.642-1.769-4.07v-2.833c0-1.183.09-2.247.177-3.362.073-.731.128-.834.128.113.067 1.364.225 2.382.225 3.78-.252 1.036-.658 1.905-1.062 2.655-.756.103-1.353.341-2.3.353-.942 0-1.667-.042-2.3-.353-.442-.743-1.32-1.734-1.77-2.656-.206-.97-.493-1.784-.532-2.83-.22-.442-.278-1.394-.353-1.947.188 1.106.176 2.33.176 3.539-.009 1.126-.04 2.226-.53 2.832-.488.658-1.118.692-1.946.885-.9 0-1.867.085-2.656-.177-.885 0-1.899-.055-2.477-.355-.802-.35-1.093-.61-1.77-1.062-.362-.536-1.064-1.224-1.415-2.123 0-.938.12-1.711.53-2.3.167-.769.332-1.243.709-1.947.357-.853.694-1.23 1.061-1.77.317-.17-.864.795-1.417 1.77-.789.763-1.45 1.481-2.123 2.123-.897.567-1.365.982-2.477 1.062-1.105 0-1.56-.195-2.3-.53-.48-.525-.95-.617-1.062-1.417-.323-.796-.468-1.981-.708-2.653-.012-.998-.17-1.862-.354-2.832-.096-.707-.176-2.1-.176-1.413 0 1.53-.074 2.426.176 3.89v3.008c0 .931-.128 1.488-.355 2.124-.819.112-1.135.341-2.124.355a9.966 9.966 0 0 1-1.946-.709c-.418-.396-.769-.903-1.239-1.238l1.239 1.238c-.418-.396-1.482-1.348-1.952-1.683" stroke-width=".85995" fill="none"/><path stroke-linejoin="round" d="M344.281 287.287c-1.531 0-3.51-.803-5.045-.803-.951-.236-2.036-.318-2.476-.885-.379-.587-.658-1.307-.885-2.3 0-1.254.096-1.972.706-3.008.463-.915 1.208-1.642 1.594-2.3a12.491 12.491 0 0 0 1.415-2.3c.355-.556.344-.618.754-1.207.537-.094-1.642 1.188-3.231 2.268-1.227.548-2.268.697-3.717.706-1.092-.238-2.647-.591-3.539-.882-.708-.624-.708-1.606-.708-2.833v-3.185c0-.676.03-.754-.129-1.188-.073 1.007-.275 1.434-.403 2.427-.094 1.158-.29 2.144-.707 3.185-.458.869-1.023 2.04-1.594 2.655-.557.716-1.304 1.112-1.946 1.592-1.193.21-2.186.085-3.362-.177-1.262-.424-1.502-.917-1.947-2.123-.388-1.321-.353-2.777-.353-4.247.039-1.094.275-2.117.53-3.186v-3.008c0-.296.339-1.028.339-1.321" stroke-linecap="round" stroke-width=".85995" fill="none"/><path stroke-linejoin="round" d="M336.943 286.301c-.43.057-1.878.337-2.832.355-.692.23-1.871.177-2.832.177-1.03-.243-1.536-.252-1.947-.885-.63-.438-.874-.87-1.415-1.238-.261-.523-.555-1.106-.885-1.594-.09-1-.342-1.787-.353-2.832 0-.927-.002-1.603-.356-2.124v-.353" stroke-linecap="round" stroke-width=".85995" fill="none"/><path stroke-linejoin="round" d="M326.326 278.16v2.832c0 .929-.14 1.66-.353 2.477-.1.832-.33 1.756-.71 2.302-.421.81-1.015 1.08-1.77 1.415-.86.117-1.093.142-1.767-.176a5.336 5.336 0 0 1-1.947-1.062c-.925-.383-1.677-.837-2.3-1.417-.776-.544-1.31-1.099-1.77-1.592-.359-.715-.6-1.747-.886-2.3 0-.977.076-1.539.353-2.123.282-.567.651-.986 1.062-1.418.429-.408 1.513-1.199 2.13-1.417" stroke-linecap="round" stroke-width=".85995" fill="none"/><path stroke-linejoin="round" d="M314.814 280.82h-.177c.601 0 .227-.034-.885.707-.784.603-1.32.892-2.123 1.24-1.136.266-1.856.353-3.186.353-1.162 0-2.307.012-3.364-.176-.768 0-1.605-.005-2.123-.177a4.898 4.898 0 0 0-.886-1.594c-.135-.626-.176-1.442-.176-2.3.316-.504.562-1.554.885-1.947.45-.81.748-1.08 1.415-1.593.624-.434 1.112-.645 1.594-1.062.736-.246 1.025-.553 1.77-1.238.711-.645.995-1.097 1.592-1.592.396-.378.926-.88 1.417-1.24.234-.739.64-1.241.706-2.124v-3.362" stroke-width=".85995" fill="none"/><path stroke-linejoin="round" d="M295.253 291.346c-.209-.105-.764-1.126-1.323-1.685-1.236-1.243-2.28-1.83-2.3-3.539.396-.59 1.093-1.05 1.946-1.415.482-.472 1.005-.853 1.594-1.062.67-.146 1.564-.178 2.477-.178.963 0 1.43-.145 2.3-.177.929-.011 1.342-.177 2.302-.177.326-.327.693-.176-.179-.176-.628.287-1.339.353-2.3.353-.782-.34-1.252-.514-2.123-.706-.47-.408-1.044-.544-1.415-1.064-.789-.443-1.032-.837-1.24-1.768-.115-.863-.145-1.243.355-1.947.259-.996.75-1.587 1.238-2.3.585-.599.853-.709 1.947-.709h2.656c.628.112 1.337.179 1.944.353-.841-.24-1.688-1.117-2.476-1.947-.755-.818-.794-1.08-1.239-1.947-.293-1.107-.667-1.74-.708-2.83v-2.655c.17-.954.406-1.342.708-1.947" stroke-linecap="round" stroke-width=".85995" fill="none"/><path stroke-linejoin="round" d="M292.34 266.12c-.103.212-.871 1.356-1.061 1.771-.227.635-.356 1.195-.356 2.124-.156.763.007 1.158.18 1.947.515.353.937.727 1.414 1.415.768.369 1.023.724 1.415 1.417.481.325 1.202 1.098 1.507 1.593-.874-.064-1.874-.772-2.745-1.064-.507-.236-1.58-.555-2.124-.882h-3.009c-.942.07-1.128.385-1.77.706-.365.57-.637 1.055-.706 1.947-.197.591-.197 1.532 0 2.123.399.43.912 1.078 1.415 1.417.656.372 1.17.7 1.947 1.239.823.486 1.866.956 2.476 1.415.596.163 1.303.39 1.77.708.432.076.977.177.177.177-.475-.278-1.376-.342-1.947-.53-.837-.14-1.65-.43-2.653-.532-.929 0-1.236-.02-1.594.532-.72.209-.93.64-1.415 1.062-.316.667-.502 1.087-.532 2.123.19.711.374 1.067.532 1.592.131.307.464.952.709 1.153l-.709-1.153" stroke-width=".85995" fill="none"/><path stroke-linejoin="round" d="M284.727 247.89c-.475.121-2.08.617-3.009.885-.63.211-1.073.566-1.591.885-.514.349-.823.803-1.238 1.239-.211.632-.567 1.073-.886 1.593-.277.585-.465 1.101-.532 1.947.014 1.19.413 1.65.886 2.832.607 1.03 1.089 2.234 1.946 2.83.727.447 1.296.778 2.124 1.24.564.154 1.426.56 1.947.886.867.115 1.435.36 1.947.706h-1.415c-.828.032-1.557.147-2.126.532-.605.243-.869.725-1.415 1.062-.2.734-.507 1.046-.708 1.947-.294.587-.136 1.541 0 2.3.369.532.701 1.782 1.061 2.3.381 1.303.741 2.355 1.594 3.364.151.438 1.236 1.115 1.598 1.328-.545-.371-1.903-1.722-2.66-2.392-.447-.566-1.002-.958-1.77-1.238-.936-.358-1.81-.635-2.832-.706-.963 0-1.507.105-2.124.353-.451.392-1.03.596-1.415 1.061-.504.36-.765.938-1.061 1.594.034.952.245 1.429.708 2.124.413.619.716 1.06 1.239 1.415.527.61 1.11.967 1.947 1.415.697.497 1.325.61 2.123 1.061.787.253 1.436.617 2.477 1.062.887.486 3.263 2.21 3.992 2.488.156.234-2.357-1.504-3.107-1.956-.901-.2-1.213-.507-1.947-.708-.92-.425-1.406-.764-2.3-.886-.77-.353-1.78-.555-2.479-.706-1.064 0-1.926-.17-3.009-.177-.763 0-.825.019-1.061.53-.594.459-.931.984-1.415 1.594-.333.587-.716 1.108-1.062 1.591-.257.601-.546 1.353-.709 1.947-.156.725-.341 1.19-.353 2.124" stroke-width=".85995" fill="none"/><path stroke-linejoin="round" d="M269.523 281.508c0-.057.179.239.179.18 0 .497-.156-.125-.532-1.063-.585-.695-1.328-1.717-2.124-2.479-1.13-.805-2.302-1.62-3.54-2.123-1.076-.51-2.215-1.057-3.362-1.415-1.032-.2-2.098-.177-3.185-.177-1.069.012-1.225.29-1.947.53-.415.468-.8.943-1.062 1.594-.209.518-.337 1.362-.53 1.947 0 .903-.167 1.584-.179 2.476 0 .725.172 1.93-.263 2.218.183-.775.357-2.266.619-3.28-.014-1.066-.333-1.373-.709-2.3-.759-.85-1.47-1.75-2.123-2.478-.613-.778-1.39-1.693-2.124-2.3-.612-.374-1.215-.798-1.77-1.062-.9-.365-1.319-.672-2.3-.709-.42.402-.91.75-1.417 1.062-.521.355-.842.757-1.062 1.417-.324.475-.431 1.294-.53 2.124-.284.814-.353 1.35-.353 2.3-.227.3-.31.752-.355 1.238.105-.791.341-1.493.355-2.477-.14-.915-.495-1.809-.709-3.008-.032-1.22-.263-1.963-.708-2.656-.764-.68-1.466-1.67-2.477-2.3-.883-.424-1.582-.695-2.655-.708-.961.011-1.44.238-2.124.532-.248.616-.353 1.16-.353 2.123.011 1.002.188 1.36.53 1.947.105.782.454 1.374.532 2.3.243.408.176 1.273.176 1.947-.082-.954-.662-1.637-.885-2.477-.22-1.015-.493-1.869-.709-2.655-.387-1.039-.976-1.952-1.591-3.009-.624-.502-.954-1.018-1.77-1.594-.8-.694-1.406-1.105-2.3-1.238h-2.48c-.724.289-.94.564-1.414 1.062-.22.844-.645 1.523-.885 2.123 0 .88.036 1.688.176 2.48.42.437.7.91.885 1.59.298.51.709 2.255.709 3.106-.27-.725-.954-3.091-1.238-3.99a17.21 17.21 0 0 0-1.062-2.3c-.28-1.014-.688-1.542-1.24-2.3-.45-.693-1.163-1.296-1.948-1.77-.759-.636-1.078-.847-2.123-.886-.91.27-1.085.578-1.947.709-.333.3-.924.52-1.239.885-.167.71-.435 1.194-.708 1.77-.135.626-.177 1.442-.177 2.3.314.463.684 1.144.885 1.77.544.597.773 1.207 1.239 1.947.261.782 1.442 2.64 1.775 3.193-.106.105-1.037-1.349-1.42-1.778-.69-.954-1.032-1.54-1.417-2.655-.456-.596-.997-1.424-1.415-1.768a9.53 9.53 0 0 0-2.3-1.947c-.791-.557-1.213-.532-2.302-.532-1.117-.232-1.92.007-2.654.353-.527.537-1.641 1.408-2.123 1.77-.532.677-.793 1.126-1.24 1.594a7.875 7.875 0 0 0-.53 1.947c.075.98.46 1.197.885 2.123.47.363 1.17 1.298 1.591 1.592.34.42 2.518 2.394 1.775 2.394-.32-.472-1.403-1.607-1.951-2.039-.519-.633-1.16-1.18-1.592-1.593-.727-.315-1.314-.599-2.123-.709-1.023-.204-1.67-.321-2.656-.353-.894.08-1.38.523-1.947.885-.318.52-.674.96-.885 1.594-.399.481-.353 1.197-.353 2.123.316.466.647 1.147.885 1.768.539.519.931 1.36 1.592 1.947.701.59 1.314.874 2.123 1.062.872.032 1.34.177 2.302.177.613.039-.295.156-.532.355" stroke-width=".85995" fill="none"/><path stroke-linejoin="round" d="M194.834 284.008l-.177-.177c.443.443.243.23-.709-.532-1.077-.507-2.258-.667-3.538-.706-.975.25-2.034.514-3.009.706-.566.578-.933.821-1.593 1.594-.269.672-.413 1.183-.177 2.123.477.977.679 1.324 1.415 2.124.514.349.938.624 1.594.885 1.339.202 2.653.658 4.07.709 1.023 0 3.564.325 4.527.355 1.197 0-3.03-.179-3.465-.179-1.282 0-2.539.01-3.717.177-1.129.23-2.209.486-3.186 1.062-.807.458-.708.85-.708 1.947.254.63.562 1.066.885 1.591.553.511 1.013.995 1.77 1.24.927.51 1.89.975 3.009 1.062.734.248 3.85-.025 2.76-.087-.566.48-4.386.58-5.416.794-1.091.46-2.26 1.107-3.185 1.417-.2.766-.35 1.323-.176 2.123.38.622.683 1.188 1.238 1.77.442.441.692.686 1.417.884.757.371 1.995.578 3.009.885.786 0 .8-.117 1.238-.353M273.949 272.68c0-.06-.353-.588-.709-1.062-.935-1.097-2.518-2.305-3.717-3.364-1.289-.521-2.233-1.145-3.538-1.239-1.099 0-1.452.01-1.77.885-.386.466-.546 1.11-.71 1.947-.364.874-.352 1.695-.352 2.832-.266.53-.225 1.496-.53 1.947-.025.47-.115.77-.179.707-.294-.59.188-1.807.355-2.654 0-1.075.143-1.974.177-3.008-.413-1.612-.557-2.023-1.77-3.362-1.202-1.264-2.062-2.025-3.539-3.009-.775-.2-1.793-.52-2.832-.532-.64.346-1.506.906-2.123 1.415-.622.842-.872 1.378-.886 2.479.129.972.425 1.596.886 2.477.245.623.518 1.421.708 2.302.324.828.457 2.03.883 2.653.12.945.112.608-.176 0-.092-1.2-.473-2.314-.886-3.185-.344-1.291-.724-1.763-1.415-2.832-.683-1.062-.983-1.49-2.123-1.592a4.155 4.155 0 0 0-2.479 0c-.654.363-.846.58-.883 1.592-.202.603-.268 2.062-.268 2.924 0 .261.899-3.674.621-4.692-.662-1.222-1.408-2.176-2.479-3.188-1.043-1.252-1.988-2.4-3.361-3.185-.961-.284-1.491.138-2.124.709-.826.55-1.468 1.332-1.77 1.947-.2.736-.461 1.16-.886 1.947-.665.83-1.208 3.868-1.325 3.286-.142-.952.204-3.399.443-4.348.098-1.218.206-2.273-.18-3.185-.733-.973-1.375-1.688-2.3-2.124-.614-.672-1.077-.709-2.123-.709-.786.25-1.814.844-2.655 1.415-.516.484-.739.817-.883 1.418-.319.55-.569 1.69-.709 2.3-.183.759-.518 1.47-.532 2.476-.367 1.202-.176-.818-.176-1.415-.283-.85-.143-2.008-.53-2.655-.48-.888-.702-1.094-1.594-1.768-.906-.41-1.367-.709-2.477-.709-.495.346-1.091.569-1.593 1.062-.562.72-1.04 1.435-1.592 2.3-.193.768-.179 1.612-.179 2.479.02.72.15 1.142.18.177v-2.833c-.194-.99-.368-1.449-1.241-1.77-.615-.332-1.445-.353-2.477-.353-.72.254-.933.562-1.062 1.415-.44.619-.532.825-.532 1.77-.25.5-.177 1.527-.177 2.3-.282.379-.32 1.142-.353 0-.06-.887-.286-1.85-.532-2.476-.589-.459-1.4-.973-1.947-1.239-.864 0-1.71-.016-2.476.177-.684.348-.681.887-1.239 1.415-.178.761-.463 1.06-.532 1.947-.16.745-.105 1.346 0 2.123.198.555.493 1.23.356 1.594a29.92 29.92 0 0 1-1.77-2.3c-.656-.53-.838-.76-1.77-.885-.762-.06-1.232-.18-2.124-.18-.43.375-.954.748-1.415 1.065-.415.61-.757.74-.885 1.591-.269.535-.182 1.585 0 2.124.43.28.575.635 1.061.885.367.456.92.899 1.239 1.415.21.424.286.21-.354.179-.554-.665-1.277-.917-2.302-1.417-1.103-.198-1.894-.016-3.009.176-.502.727-.846 1.408-.882 2.48.034.942.632 2.322 1.15 2.751" stroke-width=".85995" fill="none"/><path stroke-linejoin="round" d="M280.485 260.273H279.599c-1.4-.13-2.66-.342-4.07-.355-1.298 0-2.293.013-3.362.532-1.039.362-1.243.75-1.947 1.415-.452.844-.993 1.543-1.238 2.479-.319.786-.672 1.49-.709 2.476.227 1.356 0-.974 0-1.594.282-1.596.18-3.139-.176-4.776a19.246 19.246 0 0 0-1.239-3.186c-.396-.704-.85-1.309-1.77-1.593-.637-.184-1.672-.209-2.3 0-.447.314-1.186 1.16-1.594 1.77-.452.6-1.048 1.514-1.415 2.124-.44.738-.789 1.664-1.061 2.3-.09.513-.218 1.077-.356 1.417-.353-.709-.78-.945-1.768-1.417-.92-.787-1.95-1.505-2.832-1.947-.706-.438-1.715-1.069-2.479-1.415-.544-.379-1.468-.61-2.3-.709-.86 0-2.078-.11-2.653.177-.688.245-.934.628-1.241 1.24-.312.507-1.837 2.273-1.777 2.13 0-.985.869-2.978.539-3.9-.47-.933-.858-1.378-1.062-2.123-.557-.617-.76-1.285-1.415-1.77-.24-.677-.697-.88-1.062-1.416-.786-.334-.88-.67-1.947-.708-.88 0-1.697.142-2.302.353-.658.181-1.21.424-1.591.885-.796.38-.94.71-1.594 1.238-.454.32-1.014 1.007-1.239 1.594-.516.628-.073.805 0 1.77" stroke-width=".85995" fill="none"/><path stroke-linejoin="round" d="M277.48 252.155v-.179c0 .523.033.23-.53-.706-.357-.58-.73-1.039-1.416-1.77-.613-.718-1.03-.709-2.124-.709-.773 0-1.8-.073-2.3.177-.69.263-1.094.93-1.594 1.593-.56.778-1.117 1.34-1.415 1.947-.355.847-.683 1.209-.885 1.947-.447.335-.426.693-1.062.886-.318-.578-.903-.922-1.238-1.418-.791-.273-1.841-1.045-2.655-1.591-.865-.576-1.656-.9-2.477-1.417-.789-.273-1.287-.354-2.3-.354-1.112.05-1.628.308-2.48.886-.772.364-1.306.912-1.946 1.415-.624.433-3.178 4.187-3.818 4.714-.654.615 2.22-2.85 2.756-3.83.413-1.045.709-1.68.709-2.831-.202-1.447-.333-2.78-1.417-3.715-.849-.333-1.853-.523-3.01-.532-.809.11-1.221.357-2.123.532-.678.362-1.355.543-1.947 1.061-.566.349-.866.714-1.591 1.062-.353.518-.878.734-1.238 1.238-.262.113-1.223 1.074-1.335 1.335" stroke-width=".85995" fill="none"/><path stroke-linejoin="round" d="M271.633 248.073h-.177c.52 0 .23.03-.706-.532-.486-.33-.94-.752-1.417-1.238-.995-.252-1.789-.718-2.832-.885-.886-.362-1.88-.706-2.654-.885-.763 0-1.616-.005-2.123.176-.353.518-.764.819-1.062 1.417-.236.498-.401 1.317-.708 1.768-.021.71-.374 1.938-.8 2.223.394-.698 1.114-2.596 1.33-3.814-.274-1.298-.79-2.495-1.416-3.717-.69-.84-1.486-1.663-2.3-2.477-.818-.205-1.733-.177-2.655-.177-1.078 0-1.427.013-1.947.707-.505.399-.95 1.1-1.415 1.416-.507.677-.98.966-1.238 1.948a7.761 7.761 0 0 0-.709 1.947l.709-1.947a7.761 7.761 0 0 0-.709 1.947v.176c.22-.738.69-1.442.709-2.478 0-.916.039-2.008-.177-2.655-.282-.7-.564-1.13-1.24-1.592-.826-.816-1.507-1.366-2.477-1.77-.791-.405-1.61-.466-2.48-.177-.864.363-1.208.676-1.59 1.239-.764.27-.85.594-.886 1.592-.032.96-.16 1.738 0 2.478.12 1.011.41 1.65.709 2.478.385.596.832.95 1.062 1.592.236 0 1.068 1.28 1.068 1.516" stroke-width=".85995" fill="none"/><path stroke-linejoin="round" d="M270.761 247.362c0-.396-.357-2.43-.357-3.364 0-.961-.165-1.372-.177-2.301 0-.644.17-2.043-.264-1.775.032.87.088 2.051.088 3.013-.253.708-.328 1.194-.886 1.593-.573.383-1.467.353-2.476.353-.846-.092-1.915-.147-2.48-.53a5.77 5.77 0 0 1-2.123-.884c-.605-.344-1.107-.732-1.594-1.062-.204-.755-.573-.947-.706-1.947-.401-.924.532-3.106.278-3.359-.07.905-3.394 2.313-4.348 2.651-.97.329-1.75.354-2.832.354-.72 0-1.473-.004-1.947-.177-.755-.55-1.135-.904-1.77-1.416-.828-.634-1.452-.983-2.3-1.77-.737-.698-1.124-1.34-1.592-1.946-.303-.656-.84-1.74-1.24-2.301-.095-.706-.177-1.399-.177-2.3v2.477c-.354.78-.925 1.584-1.592 2.3-.97.446-1.731.923-2.832 1.063-.612-.34-1.399-.626-1.947-.885-.922-.137-1.247-.415-1.77-1.062-.606-.977-1.142-1.675-1.239-2.832-.27-.482.094-.907.177-1.593 0-.38.087-.263.177-.53M217.146 226.125c-.055 1.067-1.603 2.383-1.953 3.19-.287.91-.895 1.445-1.243 2.122-.842.477-1.534.67-2.48 1.062-1.295.046-2.343.314-3.714.354-1.11 0-2.738.309-3.273-.354-.745-.807-2.135-1.882-2.745-2.655-.607-.588.445-2.09.282-2.39M177.68 243.53c-.366 1.103-.765 4.717-2.13 6.843-.617.804-1.456 1.112-2.3 1.414-1.004.262-1.791.606-3.009.709-.853.326-1.325.35-2.123.177-.496-.101.06-1.055-.436-1.156.658.328.073 1.72.612 2.573.07.906.32 1.158.354 2.123 0 1.044-.04 2.011-.177 3.009-.092.91-.25 1.71-.353 2.477-.535.802.009.121-.702.525-.73.22-1.53.585-2.477.706-.772.193-1.619.349-2.302.443-.965.573-.546.45 0 1.238.638.514.85.697 1.062 1.683.252.498-.269 2.594-.713 3.369-.078.92-.425 1.566-.532 2.477-.294 1.034-.425 2.164-.709 3.185-.177.676-.53 1.472-.706 2.302-.314.564-1.103 1.557-1.418 2.124-.502.31-1.74.972-2.304 1.243-.152.584 1.034.518 1.42 1.057.573.573.85.956 1.061 1.947.15.983.362 1.575.532 2.3-.112.768-.39 1.736-.885 2.3-.27 1.018-.647 1.545-1.238 1.947-.57.53-1.342.947-2.124 1.062-.546.38-1.468.61-2.3.708-.294.248-1.757 1.362-2.133 1.514M240.675 242.762c-.2 0-1.29-.056-1.77-.177-.847-.494-1.78-.354-2.833-.354-.933.178-1.55.333-1.944.885-.418.785-.695 1.374-.709 2.477.011.996.319 1.723.53 2.48.373.449.415 1.213.708 1.767 0 .356.445 1.69.445 2.044-.38-.853-1.17-3.03-1.506-4.167-.19-1.266-.328-1.848-1.239-2.477-1.2-.977-1.807-1.507-3.185-1.77-.959.154-1.7.784-2.479 1.238-.51.597-1.468 1.147-2.124 1.594-.876.761-1.467 1.307-1.77 2.477 0 .903.083 1.596.179 2.302.14.647.323 1.362.53 1.945.236 1.032.456 1.958.532 3.008.179.182.176 1.076.176.886-.424-.58-.656-1.351-.885-2.124-.273-.775-.642-1.52-1.062-2.3-.81-.706-1.013-.768-2.123-1.062-.858 0-1.674.042-2.3.177-.39.32-1.028.626-1.417 1.062-.482.612-.986 1.165-1.239 2.123 0 .904.083 1.596.177 2.3v2.126-2.126 2.126" stroke-width=".85995" fill="none"/><path stroke-linejoin="round" d="M239.436 235.153h-.176c.493 0 .231.022-.709-.354-.47-.32-1.263-.411-1.77-.708-1.023-.037-1.832-.176-3.009-.176-1.036.093-1.25.518-1.415 1.592-.247.74-.176 1.631-.176 2.478-.062.941-.248 1.746-.356 2.655-.103.477.122 3.404-.085 3.82-.153-1.036-.81-3.898-1.153-4.705-.606-1.332-1.367-2.333-2.477-3.54-.818-.71-1.245-.533-2.302 0-1.018.13-1.23.359-1.768.708-.535.39-1.08.91-1.417 1.593-.565.446-.89 1.041-1.062 1.77.06.777.293 1.499.532 2.123.165.32 1.79 3.715 1.956 4 .186.307-1.543-2.776-2.133-3.292-.607-.594-1.201-.53-2.302-.53-1.41.176-2.58.385-3.715 1.061-.605.584-.816 1.105-1.24 1.593-.1.734-.292 1.42-.354 2.3.133.877.413 1.243.885 1.947.16.367 1.319 1.963 1.422 2.397-.681-.376-2.701-1.511-3.722-1.511-1.036.137-1.422.46-1.947 1.238-.369.91-.355 1.786-.355 2.832-.03.872-.177 1.569-.177 2.477 0 .355.358 4.274.358 4.627-.156-.66-.732-4.845-1.064-5.334-.37-.857-.984-1.928-1.77-2.479-.567-.339-1.195-.133-1.77.177a13.587 13.587 0 0 1-1.24 1.947c-.235.887-.517 1.128-.531 2.123.099.732 1.325 3.98 1.424 4.708 0 .262-1.186-2.974-1.248-3.114-.298-.715-.853-1.804-1.238-2.655-.612-.415-.91-.835-1.591-1.239a10.259 10.259 0 0 0-1.77-1.061c-.872-.248-1.647-.353-2.656-.353-.706.346-1.069.607-1.592 1.414a9.093 9.093 0 0 0-.355 2.656v2.653c.193.704.48 1.218 1.062 1.77a71.13 71.13 0 0 0 2.132 2.842c.718.718-1.194-1.754-1.6-1.956-.727-.388-1.103-.594-1.947-.709-.5-.25-1.528-.176-2.3-.176-.84.288-2.039.467-2.656.885-.99.371-1.834.424-2.123 1.238.036 1.066.243 1.644.532 2.479.438.81.724 1.422 1.238 1.945.353.52.754.844 1.415 1.064.314.46 2.032 1.392 2.486 1.949-.548-.33-2.328-.557-3.016-.358-.486.33-1.188.874-1.947 1.415-.768.608-.708 1.03-.708 2.126.064.844.254 1.36.532 1.944.286.608.564 1.042.885 1.77-.122.27 4.187 3.062 4.187 3.298M234.483 233.03h-.177c.521 0 .227-.03-.708.53-.8.268-1.58.4-2.3.178a26.863 26.863 0 0 0-3.186-.177c-.355-.266-.802-.141-1.061-.531-.72-.317-1.067-.526-1.24-1.239-.41-.68-.792-1.696-1.063-2.478-.385-.721-.674-1.246-1.061-2.123 0 1.081.183 2.023.355 3.008v2.655c-.443.837-.413 1.264-1.417 1.416-.878 0-1.697-.143-2.3-.354-1.388-.336-2.878-.678-4.247-.885-.58-.829-1.234-1.105-2.293-2.116" stroke-width=".85995" fill="none"/><path stroke-linejoin="round" d="M215.725 232.321c-.876.24-1.716.1-2.3.708-.395.593-.909.813-1.062 1.593-.546 1.06-.709 2.44-.709 3.894.202 1.02.803 1.985 1.417 2.654.32.52 1.083 1.62 1.596 2.393.516 1.018-.403-.306-1.066-.623-.858-.978-1.942-1.919-3.185-2.124-1.355-.33-2.433-.451-3.715 0-.904.445-1.099.864-1.24 1.947-.25.5-.177 1.526-.177 2.301.011.977.176 1.842.176 2.83.257.796.152 1.844.356 2.656.32.445.578 2.385.795 2.756-.222-1.103-.743-3.96-1.327-4.88-.431-.633-1.08-1.043-1.77-1.415a7.998 7.998 0 0 0-2.124-.532c-.862-.215-1.823-.218-2.477 0-1.036.367-1.387.64-1.77 1.415a16.995 16.995 0 0 1-.709 2.303c-.06.79.003 3.41.003 4.35M204.396 232.498c0-.252-1.928.773-2.123 1.416-.977.616-1.344 1.264-2.564 1.329-1.2.19-2.23.623-3.538.623h-4.603" stroke-width=".85995" fill="none"/><path stroke-linejoin="round" d="M198.549 235.507v.177c0-.521.03-.227-.532.708-.727.948-.968 1.405-.71 2.654 0 1.025.145 1.846.18 2.832.511 1.215 1.17 2.897 1.591 3.893.438.798.296.378-.53.355-.86-.33-1.644-.355-2.655-.355-.938 0-1.81.027-2.655.178-.666.443-1.32.725-2.124 1.062-.498.383-1.374.757-1.768 1.238-.188.56-.179 1.484-.179 2.3.099.725.248 1.285.532 1.77.523.79 1.016 1.322 1.77 2.124.402.383 1.048.794 1.592 1.239.548.165 1.775.887 2.13 1.243-.635-.436-2.972-1.945-3.722-2.658-1.662-.736-3.428-1.355-5.31-1.594-1.122.041-1.94.599-2.654 1.238-.48.688-.72 1.076-1.417 1.418-.548.671-1.108.564-1.238 1.591-.269.805-.026 1.383.176 2.302.335.847.697 1.8 1.062 2.477.537.525.87.947 1.417 1.594.663.578 1.064.99 1.77 1.238.427.408 1.601.842 2.218 1.062-.429.371-1.857.63-2.396.885-.78.66-1.319 1.12-1.768 1.592-.097.706-.18 1.398-.18 2.302-.04.734-.176 1.103-.176 1.945.36.513.844 1.474 1.417 1.947.491.566 1.094.795 1.592 1.24.353.15.57.36.885.53l-.885-.53c.353.15 1.908.45 2.222.62" stroke-width=".85995" fill="none"/><path stroke-linejoin="round" d="M191.28 235.683c-.083 0-.59.59-1.063 1.062-.747.724-.807 1.203-1.238 2.3 0 1.094.007 1.825.709 2.479.422.764 1.077 1.452 1.591 2.123.612.593.88 1.075 1.24 1.77-.352-.518-1.052-1.09-1.593-1.947-.599-.43-1.174-1.211-1.947-1.77-1.053-.38-1.513-.503-2.477-.354-.816.544-1.671.934-2.302 1.593-.725.615-1.392.795-1.768 1.593-.569.406-.672.807-.709 1.77 0 1.13.25 1.617.532 2.653.48.833.895 1.62 1.239 2.126.277.227 1.192 1.475 1.332 1.332-.488-.293-1.59-1.348-2.394-1.51-.667.304-2.057.178-3.009.178-1.048 0-1.68.005-2.479.353-.71.27-1.536.638-2.3 1.239-.951.328-1.495.69-1.591 1.77.156.86.536 1.009 1.238 1.77.775.817 1.49 1.681 2.477 2.3.44.638 1.536 1.445 1.947 1.947.502.23 3.116.175 2.14.175-.778.201-4.17.79-4.796 1.24-.784.75-.96 1.438-1.062 2.656.065 1.098.354 2 .532 3.008.448.915.58 1.61 1.062 2.3.38.588 1.291 1.454 1.77 1.77.764.31 1.938.888 2.833 1.24.472.171 1.27.36 1.944.529h-3.185c-.828.22-1.465.312-1.947.708-.731.246-.906.643-1.415 1.062 0 .97.103 1.52.532 2.124.115.775.548 1.527 1.062 1.947.415.658 1.043 1.231 1.591 1.593.714.622 1.03.766 1.77 1.062.803.108 1.512.413 2.3.53.402.332 1.441.532 1.948.885l-1.947-.885c.401.332 1.44.532 1.947.885l.89.268c-.826.127-2.09.163-3.014.617-1.261.388-2.508.642-3.008 1.415-.796.4-.87.773-1.062 1.594-.074 1.025-.115 1.392.176 2.123a5.29 5.29 0 0 0 1.418 1.418c.522.438 1.534 1.272 2.3 1.591.88.51 1.493.764 2.123 1.062-.844.14-1.722.176-2.655.176-.576.338-1.032.351-1.415.886-.592.43-.98.846-1.062 1.77-.257.766-.087 1.293.353 2.123.55.416 1.156.991 1.77 1.415.638.299 1.638.677 2.477.886.287.114 1.305.176.356.176-.454.234-1.402.179-2.124.179-.926.083-1.286.422-1.947.885-.566.564-.846.686-.885 1.768 0 1.005.09 1.438.53 1.947.465.977.892 1.282 1.594 1.77.596.363 1.559.503 2.476.53 1.09 0 2.151-.025 3.185.18.448 0 3.936.582 4.002.533" stroke-width=".85995" fill="none"/><path stroke-linejoin="round" d="M174.997 263.644c0 .053-.325.516-.53 1.062-.882.667-.898 1.257-1.946 1.415-.746.163-1.346.105-2.124 0-.316-.443-.933-.913-1.415-1.238-.401-.578-1.057-1.757-1.509-2.129M176.51 269.836c-.043.268-.857 1.743-.974 2.302-.672.674-1.658 1.71-2.655 2.303-.75.176-1.3.44-2.3.53-.84.27-1.878.176-2.832.176-.776-.179-1.328-.502-2.124-.885-.342-.422-2.442-2.181-3.018-2.573" stroke-width=".85995" fill="none"/><path stroke-linejoin="round" d="M175.548 272.198c0 .27-.397 4.075-.888 5.781-.429.757-1.06 1.621-1.591 2.477-.569.954-.901 1.474-1.947 1.947-1.177.442-2.344.532-3.717.532-.879-.211-1.977-.766-3.01-1.062-.639-.436-1.487-.956-2.123-1.417-.642-.53-1.408-1.012-1.772-1.77" stroke-width=".85995" fill="none"/><path stroke-linejoin="round" d="M178.896 287.723h-.177c.48 0 .234-.012-.708.176-1.197.177-1.954.07-3.009-.355-.764-.266-1.674-.959-2.477-1.592-.736-.71-1.408-1.375-1.947-1.77a2.14 2.14 0 0 0-.708-1.415c0 .892.08 1.66.179 2.477 0 .997-.131 1.777-.356 2.655-.28.984-.67 1.349-1.415 2.124-1.06.22-1.997.353-3.185.353-1.277-.01-2.376-.216-3.54-.353-.64-.291-1.22-.592-1.771-.885M178.644 287.883c-.633 1.977-2.862 3.002-3.282 3.546-1.002.243-1.857.52-3.009.532-1.034 0-1.149-.044-1.77-.532-1.025-.342-1.35-.622-1.77-1.239 0-.236.06-.176-.177-.176M180.845 298.34l-.177.177c.402-.401.21-.255-.176.708-.55 1.035-1.28 1.204-2.3 1.592-.936-.14-1.3-.482-2.303-1.062-.933-.523-1.64-1.42-2.3-2.3-.534-1.188-.885-2.188-.885-3.538-.245-.555-.33-1.234-.708-1.594v3.717c-.276.828-.312 1.475-.53 2.3-.147 1.078-.37 1.865-.709 2.656-.651.903-1.662 1.128-3.008 1.238-1.08.232-2.346.177-3.539.177-.929-.11-1.486-.29-2.3-.53-.938-.532-1.192-.695-1.947-1.594-.828-.935-1.814-2.119-2.302-3.008-.28-.991-.762-3.977-.975-5.06 0-1.045.099 2.432.092 2.936-.257 1.585-.356 3.11-.356 4.78v2.829c-.183 1.172-.33 1.773-1.061 2.479-.512.573-1.47 1.286-1.947 1.591-.379.461-.872.805-1.592 1.062-.777.427-1.52.603-2.302.709-.427.075-.725.337-1.062 0" stroke-width=".85995" fill="none"/><path stroke-linejoin="round" d="M181.395 305.93c-.42.61-1.222 1.98-1.951 2.131-.775.408-1.98.353-3.185.353-.851-.195-1.745-.149-2.124-.708-1.371-.92-2.628-1.972-3.717-3.186a12.43 12.43 0 0 1-1.24-1.946c-.409-.14.05.408.178.708.645.947 1.069 1.901 1.238 3.009.227.846.227 1.974 0 2.653-.208.94-.486 1.608-1.238 2.302-.362.45-.952.354-1.77.354-1.145-.145-2.06-.622-3.185-1.062-1.227-.725-1.741-.936-2.3-2.124-.232-1.343-.37-2.75-.533-4.07-.023-.484-.034-2.435-.263-2.665-.253.658-.647 3.112-.975 3.903-.209 1.138-.326 1.493-1.415 1.594-.578.282-1.376 0-2.302 0-.64-.218-1.053-.372-1.415-.709-.163-.3-.37-.405-.532-.708M183.689 308.063h-.177c.52 0 .206-.05-.355.883-.42.631-.55 1.406-.707 2.126.074.959.319 1.197.707 1.768 1.032.624 1.204.885 2.479 1.062 1.385.264 5.63-.092 7.012.174 1.087.156-3.07.8-3.474.888-.683.367-1.429.481-2.124 1.061-.956.739-1.676 1.347-2.3 1.77-.178.684-.353 1.356-.353 2.3.241.604.564 1.15.885 1.771.654.688.856 1.085 1.768 1.417 1.404.05 2.789.166 4.247.177 1.418-.367 3.977-1.002 4.874-1.507.259 0-1.014.383-1.156.445-.594.296-1.181.75-1.947 1.415-.73.365-.973.778-1.415 1.415-.461.592-.647 1.115-1.062 1.594-.124.91-.128 1.174.353 1.947.65.896.81 1.27 1.77 1.415.397.38.989.869 1.592 1.24.424.193 3.043.211 2.848.528-.862.062-4.054.335-4.616.71-.722.255-.933.562-1.062 1.416.037 1.01.225 1.254.707 1.946.323.475.807.938 1.417 1.239.431.413 3.51 1.032 4.086 1.509.743.259-2.582-.269-3.201-.269-.502.25-1.527.177-2.302.177-.315.51-.72.99-1.062 1.591-.319.532-.074 1.152 0 1.77.463.498 1.103 1.558 1.417 2.124.583.397.722.746 1.592 1.062.357.392 3.595 1.635 4.18 1.69M190.935 342.393v.179c0-.523.05-.21-.885.353-.431.534-1.1 1.13-1.415 1.591-.165.796.03 1.193.353 1.947.473.38 1.099 1.144 1.417 1.77.824.753 1.383 1.202 1.768 1.77.535.161 2.461.985 3.023 1.333-1-.014-3.477-.913-4.437-.979-1.175 0-1.707.133-2.48.532-.318.518-.671.96-.882 1.591-.22.622-.434 1.216-.532 1.947-.246.762.009 1.18.353 1.77.617.498.878.824 1.594 1.062.511.457 1.123.695 2.123.71.44.22 2.31.086 2.841.086-.612.4-2.497.784-3.194.975-.555.284-1.236.49-1.594.885-.383.599-.672.963-.708 1.945.295.74.745 1.426 1.593 2.125.787.888.865 1.064 1.947 1.415.918.425 4.685.042 5.687.085-.887.133-4.774 1.216-5.687 1.862-.644.459-.678.977 0 1.592.436.777.936 1.178 1.77 1.417.962 0 1.372-.165 2.3-.177.817.097 3.814-.091 4.706-.091-.685.387-4.22.86-5.237.977-.885.305-1.25.332-1.415 1.238 0 .816-.097 1.406.353 1.77.459.81.73.872 1.77.883.514.31 1.216.04 1.947 0h6.125M202.768 383.074c.534 0-5.472-7.675-7.928-6.864-1.13.193-1.864.21-2.3 1.062-.635.633-1.265 1.704-1.593 2.653-.085.959-.232 1.727 0 2.656.162.7.575 1.44.708 2.3.195.38.434 1.209.177 1.594-.126-.606-.305-.982-.532-1.77-.209-1.347-.333-2.789-.53-4.07-.553-.418-1.213-1.076-1.947-1.595-.997-.142-1.867-.17-2.655 0-.654.574-.9 1.025-1.592 1.417-.569.189-2.023.315-2.834.354" stroke-width=".85995" fill="none"/><path stroke-linejoin="round" d="M169.7 310.196c.06 0-.037-.048.709.885.433.324.58.638 1.238 1.062.757.573 1.562.885 2.656 1.062 1.08.362 2.23.518 3.361.706.975 0 1.959.016 2.832-.176 1.014 0 1.537-.145 2.477-.177l.713-.268M184.4 320.103v.179c0-.48-.012-.234.176.706 0 1.066-.165 1.353-.532 1.947-.773.56-1.637.736-2.653 1.062a11.2 11.2 0 0 1-3.54-.707c-.859-.71-1.219-1.199-1.771-2.302-.576-1.752-1.044-3.1-1.062-4.956 0-1.022.028-1.802-.53-2.3-.27-.268-.298.461-.532.885-.078 1.064-.539 1.69-1.061 2.656-.645.621-1.4 1.341-2.3 1.947-.932.206-1.257.365-2.124.176a46.465 46.465 0 0 0-1.77-1.946c-.216-.828-.83-1.83-1.239-2.833-.38-.951-.81-1.765-.885-2.832-.355-.979-.284-.844-.53.177-.518 1.121-.67 1.857-1.24 2.832-.741.576-1.42 1.085-2.477 1.417-1.236.186-2.043.094-3.185-.179-.862-.31-1.277-.69-1.77-1.415-.549-.538-.769-.915-.886-1.77-.36-.587-.75-1.857-1.061-2.653-.351-.427-.604-1.248-.709-1.947-.245-.202-.4-.578-.53-.885" stroke-width=".85995" fill="none"/><path stroke-linejoin="round" d="M190.5 323.45c-.026.343-.393 2.698-.799 3.374-.481 1.011-.662 1.376-1.77 1.415-1.098-.177-1.956-.73-2.832-1.415-.732-.924-1.454-1.621-1.945-2.653-.532-.438-.474-.69-.353 0 .564.578.516.56.53 1.591v2.656a6.505 6.505 0 0 1-.356 2.123c-.334.936-.722 1.402-1.591 2.124-1.01.225-1.176-.142-1.947-.709-.945-.383-1.314-.729-1.947-1.238-.502-.502-1.02-1.115-1.417-1.77-.094-.707-.177-1.4-.177-2.3 0-.886.714-3.018.714-3.903-.136-1.083-.858.917-1.42 1.602-.456.874-1.037 1.555-1.594 1.947-.743.69-1.894 1.005-3.008 1.239-1.048 0-1.892-.16-2.833-.356-.616-.853-.832-1.332-1.238-2.123 0-1.103.16-1.858.353-2.83.186-.922.434-2.506.445-3.458 0-.961-.165 1.046-.445 1.511-.231 1.048-.474 1.103-1.238 1.768-.917.124-1.83.179-2.832.179-1.073 0-2.05.094-3.009.353-.66-.231-1.009-1.163-1.415-1.947-.229-.688-.346-1.341-.353-2.3 0-.913-.21-1.45-.355-2.123-.404.899-.769.97-1.768 1.061-.583 0-1.273.065-1.594-.179-.346-.566-.812-1.089-1.062-1.591l1.062 1.591c-.346-.566-1.615-2.336-1.865-2.838" stroke-width=".85995" fill="none"/><path stroke-linejoin="round" d="M191.83 330.193c0 .17-.095 1.128-.177 1.594-.319.731-.424 1.394-.532 2.3a6.487 6.487 0 0 1-.353 2.123c-.41.562-.9.872-1.415 1.239-1.197 0-1.55-.11-2.48-.707a33.166 33.166 0 0 0-2.123-1.594c-.506-.853-1.034-1.52-1.593-2.3l-.624-.623c-.36-.753.399.417.624 1.332.268.933.355 1.757.355 2.83-.032 1.13-.236 2.073-.355 3.187-.48.947-.498 1.154-1.592 1.239-1.156 0-2.259-.016-3.362-.177-1.089-.167-1.908-.468-2.832-1.062-.236-.617-.355-1.396-.355-2.302.013-1.078.263-1.984.355-3.009.379-1.032.523-1.685.885-2.653.29-.388.457-.807.53-1.417-.158 1.098-.743 1.873-1.062 2.832-.561 1.055-1.449 2.137-1.947 3.185-.674.647-.917.904-1.591 1.239-.798-.12-1.163-.42-1.77-.707-.347-.509-.76-.805-1.062-1.594-.56-.788-.697-1.142-.709-2.3 0-.713.058-1.947 0-2.123-.073-.225-.93-3.312-1.156-3.385M167.407 327.35c-.275.176-1.436.508-2.3.529h-3.185c-1.035-.094-.938-.484-1.241-1.238a9.37 9.37 0 0 1-.53-2.656c-.153-.855-.6-.938-.71-1.676-.51.33-.535-.101-1.413.085-1.218.185-2.195.445-3.364.706-1.094.151-2.083.342-3.186.355-1.03 0-1.837.099-2.3-.532-.296-.594-.344-1.417-.353-2.3 0-.995.11-1.958.353-2.655.363-.672.83-1.388 1.415-1.947a4.72 4.72 0 0 1 1.24-1.238c.365-.537.822-.739 1.063-1.415.424-.351.637-.895.885-1.418" stroke-width=".85995" fill="none"/><path stroke-linejoin="round" d="M143.489 316.48c.316.073 2.67.596 3.194.976.87.484 1.209 1.035 1.768 1.592.28.592.466 1.13.709 1.947.135.674.176 1.573.176 2.479-.33.543-.642 1.45-.885 2.123-.364.54-.69.892-1.415 1.239-.853.655-2.327 1.247-3.54 1.77-.817.096-1.585.177-2.477.177-.885 0-1.86.534-2.745.534-.855 0-2.08-.11-2.653.176-.262 0-.135.042-.356-.176M168.645 334.435c-.07 0-.557.569-1.062.883-.417.706-.591 1.12-1.061 1.947-.305.828-.466 1.465-.53 2.302v2.477c.01.929.177 1.34.177 2.3V349.3v-2.477 2.477M170.755 336.912c0 .355-.213 3.27-.002 3.903.057 1.073.36 1.674.708 2.477.553.428 1.287 1.412 1.947 2.123.532.534 1.071.867 1.947 1.062 1.025.204 1.84.355 2.653.179.668-.292 1.684-.863 2.48-1.24.362-.79.887-1.68 1.238-2.654.302-.933.325-1.899.353-1.594.376.305 1.08 1.147 1.417 1.594.75.452 1.486.984 2.123 1.768.663.738 1.734.493 2.748.527" stroke-width=".85995" fill="none"/><path stroke-linejoin="round" d="M172.888 349.823c0-.06 2.084 2.671 2.836 2.671a13.13 13.13 0 0 0 2.656.356c1.087-.014 1.922-.285 2.832-.709.736-.78.53-1.94.53-3.185V346.3c-.02-.724-.243-1.293-.353-1.947.162 1.15.715 2.106 1.061 3.186.395.853 1.633 3.978 2.83 4.162.544.658 1.064.319 1.594-.445.958-.628 1.204-3.575 1.594-4.07 0-.498.128-.461.176-.886" stroke-linecap="round" stroke-width=".85995" fill="none"/><path stroke-linejoin="round" d="M172.52 356.542c0 .06 1.377 1.217 2.312 1.78.968.728 1.122.884 2.303.884.8-.15 1.121-.768 1.768-1.417.903-.88 1.112-1.584.885-2.83-.035-.965-.298-2.506-.53-2.12.408.534.789 1.313 1.062 1.765.365.539.624.917 1.415 1.062.465.394 1.137.646 1.947.708.429.321.979.211 1.238-.176.596-.269 1.041-.537 1.417-.885.17-.562.466-.909.707-1.415" stroke-width=".85995" fill="none"/><path stroke-linejoin="round" d="M185.982 355.854v.176c0-.477-.012-.236.176.707.06 1.025.18 1.924.18 3.008-.258 1.062-.425 1.828-1.062 2.48-.601.3-1.663.162-2.48 0-1.068-.482-3.861-2.484-4.246-3.363-.262-.15 2.309 1.791 2.655 2.3.4.615.693 1.071.883 1.77.172.515.296 1.645.179 1.945-.147.966-.484.938-1.24 1.241-.767.19-1.61.177-2.477.177-.79-.108-1.232-.363-1.947-.532l-.269-.18" stroke-linecap="round" stroke-width=".85995" fill="none"/><path stroke-linejoin="round" d="M189.353 363.628v.885c-.207.816-.3 1.548-.532 2.123-.174.998-.603 1.041-1.239 1.594-.784.195-1.676.209-2.3 0-1.119-.67-1.701-1.027-2.479-1.947-.777-.777.333.445.709 1.062.612.541.975.926 1.062 1.947.21 1.057.252 1.504-.356 2.123-.438.629-1.1.947-2.123 1.239h-2.477c-.935-.209-.844-.482-1.238-1.062M191.921 368.948c.044.337-.014 1.83-.09 2.655-.685 1.14-.683 1.19-1.946 1.594-1.02.138-2.073.177-3.185.177-.748-.262-1.294-.764-1.77-1.594-.698-.523-.22.206 0 .709.368.958.68 1.582.884 2.655.062.732.45.956-.353 1.062-.894.252-1.83.353-2.832.353-.773-.105-1.642-.083-2.305-.264" stroke-width=".85995" fill="none"/><path stroke-linejoin="round" d="M185.798 374.887c.065.305.404.904.888 1.328.353.736.825 1.037 1.415 1.415.623.353 1.075.695 1.77.885.982 0 1.408-.186 2.124-.353 1.066-.365 1.1-.55 1.593-1.24.34-.553.594-.936.707-1.769.254-.509.172-1.433 0-1.947-.071-.935-.466-1.254-.707-1.947-.252-.084-.332-.708-.534-.976M161.56 328.06c-.06.06-.118.12-.177.177.42-.42.247-.218-.709.355-.862.232-1.213.505-1.591 1.062-.808.445-1.367.842-1.594 1.77v2.477c-.193.644-.177 1.743-.177 2.655 0 .961-.112 1.76-.176 2.654.123.578.467 1.405.268 1.951-.067-.773-.445-1.811-.445-2.658-.323-.47-.679-1.518-1.062-1.947-.511-.442-1.034-.637-1.947-.885-.942-.314-1.566-.195-2.123.353-.406.425-.897 1.126-1.24 1.947-.193.973-.496 1.512-.53 2.477-.2.929-.354 1.49-.177 2.302v2.654c0 .825.179 1.921.179 2.747-.113 1.31-.424-.204-.711-.624-.19-.887-.383-1.61-.885-2.123-.445-.537-1.181-.707-2.124-.707-.903 0-1.408-.21-1.591.53-.262.523-.307 1.71-.356 2.479V352.659c-.151-.94-.518-1.366-1.061-2.123-.617-.711-1.11-.9-2.3-1.062-1.156-.28-1.727-.172-2.656.356-.89.869-1.477 1.164-1.591 2.123-.36.433-.436 1.245-.533 1.947v2.653c0 .493-.729-.536-1.238-1.238-.594-.817-.947-1.025-1.947-1.062-.679.349-2.03.865-2.653 1.415-.452.365-.355.954-.355 1.77v2.48c-.049.614-.968.614-1.415.176-.656-.323-1.518-.768-2.3-.885-.675-.32-1.236-.392-1.77-.177-.276.894-.533 1.6-.533 2.653-.27.727-.353 1.26-.353 2.124" stroke-width=".85995" fill="none"/><path stroke-linejoin="round" d="M165.985 333.908c-.06 0 2.376-.803 2.316-.803.496 0-2.26.78-3.201 1.156-.716.261-1.488 1.037-2.124 1.77-1.456 1.3-3.22 3.259-4.602 4.78-1.28 1.284-2.19 2.162-3.009 3.538-1.768 1.4-3.077 2.745-4.6 4.426-1.626 1.215-3.231 2.382-4.779 3.715-1.55.775-2.92 1.47-4.602 2.123-1.505.502-2.803 1.17-4.247 1.77-.769.599-1.209.858-2.124 1.239-1.394.8-2.988 1.415-4.07 2.123-.53.36-.897.84-1.77 1.24-.558.652-1.29.918-2.124 1.416-.968.348-1.995.69-3.185 1.062-1.227.42-1.989.77-3.186 1.238-3.254 1.14-6.581 2.447-9.91 3.009-.954.348-1.916.637-2.832.708-1.344.486-3.011.51-4.424.709-.907.238-2.044.527-2.832.706-.91.25-1.8.463-2.478.709-.909.105-1.926.364-2.654.532-.863.254-1.228.511-1.947.706-.404.35-2.082 1.695-2.485 2.043M140.508 329.115c.103.34.355 1.41.355 2.302-.144.844-.316 1.9-.708 2.477-.317.794-1.333 1.541-1.947 2.124-.711.156-1.347.3-2.124.532-.913.066-2.981 2.063-3.99 2.137-.59.117-1.319.174-2.126.174-.252-.266-.337-.115-.706-.261.594.424.413.568.53 1.5 0 .944.66 1.884.536 2.744-.218 1.046-1.121 2.317-1.853 2.73-.894.554-1.68.896-2.655 1.24-.872.03-1.571.177-2.477.177-.59 0-1.055-.033-1.417-.177M149.887 323.634v1.062c.231 1.16.401 1.97 1.238 2.832.592.794 1.537 1.415 2.477 1.947h2.655c.638-.11 2.057.11 2.752.09M151.997 329.482c-.06.057.415-.151.357-.092.443-.445-.293.04-1.243.798-1.066.906-1.525 1.305-1.77 2.656.014 1.016.23 1.307.532 1.947.223.789.654 1.518 1.238 1.947.237 0 .177.06.177-.177M140.416 333.724c0 .085.83.434 1.153.886.904.575 2.053 1.6 3.186 2.3 1.103.367 2.128.103 3.185-.354.704-.185 1.224-.44 1.77-1.061l.18-.18" stroke-width=".85995" fill="none"/><path stroke-linejoin="round" d="M143.695 336.568c-.465.823-1.17 1.316-1.24 2.3 0 .906.119 1.683.355 2.3.33.612.718 1.576 1.238 2.124.324.53.656.977 1.062 1.238-.314-.87-1.11-1.543-1.947-2.3-.325-.372-.708-.53-1.062-.177-.908.064-1.525.292-2.123.532a11.01 11.01 0 0 0-2.477 1.239c-.649.67-.708 1.038-.708 2.123-.085 1.124-.177 2.204-.177 3.362.273.225.328.392.353.885-.192-.743-.585-1.899-1.061-2.477-.425-.593-.732-.697-1.77-.708-.9.165-.868.608-1.416 1.062-.536.777-.908 1.022-1.238 1.947-.431 1.009-.532 1.862-.532 3.008.236 0 .532 1.842.532 1.605" stroke-width=".85995" fill="none"/><path stroke-linejoin="round" d="M135.715 336.568v.177c0-.473.034-.225-.532.53-.246.832-.353 1.293-.353 2.302.133 1.02.511 1.554.708 2.476.693.826.968 1.209 1.768 1.594.243.243.558.328.709.177M130.762 342.92h-.177c.046.117 0 .789 0 1.238 0 .847-.071 1.739.177 2.48.176.72 1.174.992 1.598 1.417M121.566 347.346c0 .06.355-.415.355-.358 0-.493-.335.303-.708 1.243-.835.993-1.447 1.775-2.48 2.832-1.086.34-1.774.998-2.831 1.77-1.154.654-2.278 1.033-3.362 1.592-1.185.498-2.557.858-3.894 1.238a15.874 15.874 0 0 1-3.893.886c-.898.31-1.892.527-2.832.708-1.101.383-2.314.842-3.362 1.239-.816.282-1.268.444-1.947.885-1.065.367-2.103 1.075-3.186 1.593-.388.468-1.447 1.115-2.123 1.769-1.104.591-2.231 1.596-3.363 2.123-1.304.832-2.608 1.518-4.07 1.947-1.167.555-2.31.968-3.363 1.594-.796.54-1.611 1.318-2.477 1.947-.54.793-1.22 1.385-1.947 1.947-.573 1.059-1.51 1.873-2.3 2.653-.472.32-1.019.832-1.417 1.24-.543.56-1.066 1.06-1.592 1.415-.52.645-.812.865-1.593 1.239-.486.5-1.09.644 0 .708 1.012-.323 2.245-.325 3.362-.353 1.1-.238 2.377-.362 3.54-.532.987-.126 2.152-.321 3.362-.353 1.288.216 3.183-.346 4.602-.885a251.461 251.461 0 0 1 3.362-1.947c.646-.45 1.205-.651 1.947-1.062.642-.174 1.245-.525 1.947-.709M126.336 346.108c0 .218.073 1.268.176 1.77.342 1.094.796 1.933 1.592 2.653.617.363 1.892.266 2.924.266M122.62 347.002c-.14 0-.086.417-.352.885 0 .913.123 1.846.353 2.477 1.172.548 1.979.816 3.362.885.843-.064 1.318-.28 1.946-.53.553-.114-.185.427-.708.883-.74.743-1.076 1.371-.706 2.48.371.774 3.24 1.747 3.733 2.217" stroke-width=".85995" fill="none"/><path stroke-linejoin="round" d="M118.906 350.717c-.18.826-.204 1.303.355 1.945.482.399 1.197.355 2.124.355 1.577-.085 3.018-.355 4.6-.355.745 0-.612.1-.885.178-.89.312-1.349.411-1.947.883-.945.388-1.42.83-2.3 1.594-.356.528-.512 1.213-.177 1.77.349.514.789.883 1.415 1.239.663.513.82.798 1.77.885h.353" stroke-width=".85995" fill="none"/><path stroke-linejoin="round" d="M116.52 352.322c-.082.335-.444.883-.444 1.766.073.942.303 1.195.885 1.591.484.4 1.2.356 2.124.356h1.061c-.504.296-1.298.387-1.768.706-.557.38-.83.732-1.061 1.594-.014.988-.17 1.35 0 2.3.385.722.6 1.254 1.061 1.947.347.51 2.105 1.543 2.754 1.773M111.652 355.143c-.162.745-.105 1.346 0 2.123.418.468.735 1.074 1.24 1.415.498.413 2.076.163 3.014.175.745.02 1.158.176.177.176-.473.452-1.879 1.007-2.13 1.952-.254.509-.172 1.43 0 1.947.07.9.334 1.224.531 1.944.475.498.693.773 1.415 1.064l-1.415-1.064c.475.498.693.773 1.415 1.064v.177c-.094-.22-.158-.401-.353-.532" stroke-linecap="round" stroke-width=".85995" fill="none"/><path stroke-linejoin="round" d="M105.903 356.473c-.424.63-.666.848-.444 1.679.463.646.947 1.33 1.593 1.77 1.027.933 6.594-.395 7.387-.275.24.243-6.746 1.378-7.21 2.928-.193.633-.263 1.69 0 2.48.012 1.015.228 1.306.53 1.946.245.514.423.862 1.062 1.062-.236 0-.176.057-.176-.18" stroke-linecap="round" stroke-width=".85995" fill="none"/><path stroke-linejoin="round" d="M99.088 358.674c-.25.775.05 1.129.354 1.77.423.636 1.158 1.455 1.77 1.858.357.207 6.161-.27 6.055-.27-.65.227-5.962 1.596-6.94 2.13-.366.71-.354 1.314-.354 2.3.071.929.137 1.328.885 1.594.499.248 1.47.303 2.123.353l1.248.268" stroke-linecap="round" stroke-width=".85995" fill="none"/><path stroke-linejoin="round" d="M94.135 360.715c0 .195-.289 1.044-.18 1.679.248.58.119.963.53 1.238.15.853.398 1.427 1.24 1.594.926 0 1.64.044 2.123-.355.73-.32 1.163-.597 1.77-.883l-1.77.883c.73-.32 1.163-.597 1.77-.883l3.297-.982c-.544.397-4.046 1.821-4.713 2.043-.498.475-.903.553-1.061 1.415-.105.778-.162 1.379 0 2.124.457.436.84.82 1.239 1.238" stroke-linecap="round" stroke-width=".85995" fill="none"/><path stroke-linejoin="round" d="M90.415 363.1c-.091.204-.53.993-.53 1.768.085.95.37 1.11.884 1.77h2.478c.69.125 2.688-.715 3.46-.715-.775.17-2.713 1.216-3.106 1.777-.476.19-.476.475-.531 1.062-.274.459-.17 1.307 0 1.77.333.491.728.925 1.062 1.415" stroke-width=".85995" fill="none"/><path stroke-linejoin="round" d="M85.991 365.577c0 .261.066 1.41.177 1.947.685.53 1.113.88 1.947 1.415.87.034 4.458-1.603 5.42-1.603.687 0-3.473 1.883-3.65 1.958-.357.58-.637.846-.708 1.77-.323.537-.099 1.344 0 1.945.283.438.57.654 1.062.885-.236 0-.177.06-.177-.176" stroke-width=".85995" fill="none"/><path stroke-linejoin="round" d="M81.389 367.893c0 .06.011-.057-.177.885-.347.463-.044.897.354 1.24.508.684 1.321.85 2.124 1.063.79.14 1.597.176 2.477.176.67 0 3.206-1.665 3.556-1.96-.586.236-3.446 2.08-4.264 2.313-.99.454-1.257.835-1.592 1.77.037 1.01.314 1.253.707 1.948.358.662 1.893-.053 2.486.341" stroke-width=".85995" fill="none"/><path stroke-linejoin="round" d="M78.027 370.714v.176c0-.52.03-.227-.531.709-.179.823-.233 1.284.354 1.77.434.64.738.934 1.593 1.062.277.12 4.61-2.318 5.075-2.318-.698.477-5.578 3.29-5.96 4.088-.335.693-.354 1.278-.354 2.124M73.427 375.323c0 .926-.045 1.64.354 2.124.097.809 1.801.864 2.4 1.148" stroke-width=".85995" fill="none"/></g></svg>