<svg xmlns="http://www.w3.org/2000/svg" height="512" width="512"><defs><clipPath id="a"><path fill-opacity=".67" d="M-.001 0h496.06v496.06H-.001z"/></clipPath></defs><g fill-rule="evenodd" clip-path="url(#a)" transform="translate(.001) scale(1.0321)"><path fill="#b20000" d="M0 0h992.13v329.53H0z"/><path fill="#429f00" d="M0 329.53h992.13v166.54H0z"/><path fill="#fff" d="M0 0h109.84v496.06H0z"/><g stroke-width="1pt" fill="#b20000"><path d="M5.23 8.402h5.23v8.409H5.23zM20.923 8.402h15.692v8.409H20.923zM26.148-.01h5.23V8.4h-5.23zM52.307-.01h5.23V8.4h-5.23zM73.224 8.402h15.692v8.409H73.224zM78.465-.01h5.23V8.4h-5.23z"/><path d="M15.697 16.81h10.462v8.41H15.697zM31.389 16.81H41.85v8.41H31.389zM67.999 16.81H78.46v8.41H68zM83.69 16.81h10.463v8.41H83.69zM10.456 25.22h10.462v8.408H10.456zM36.615 25.22h10.461v8.408H36.615zM62.773 25.22h10.462v8.408H62.773zM88.916 25.22h10.462v8.408H88.916zM99.383 8.402h5.23v8.409h-5.23zM5.23 33.628h10.462v8.408H5.231zM41.84 33.628h10.462v8.408H41.84zM94.157 33.628h10.462v8.408H94.157zM10.456 58.85h10.462v8.409H10.456zM15.697 67.259h10.462v8.408H15.697zM36.615 58.85h10.461v8.409H36.615zM31.389 67.259H41.85v8.408H31.389zM20.923 75.667h15.692v8.408H20.923z"/><path d="M26.148 84.074h5.23v8.409h-5.23zM62.773 58.852h10.462v8.408H62.773z"/><path d="M67.999 67.259H78.46v8.408H68zM88.916 58.85h10.462v8.409H88.916zM83.69 67.259h10.463v8.408H83.69zM73.224 75.667h15.692v8.408H73.224z"/><path d="M78.465 84.074h5.23v8.409h-5.23zM52.307 75.667h5.23v8.408h-5.23zM.005 75.667h5.23v8.408H.005zM104.608 75.667h5.23v8.408h-5.23zM26.148 117.707h5.23v8.408h-5.23z"/><path d="M20.923 126.114h15.692v8.408H20.923zM15.697 134.522H41.85v8.408H15.697zM78.465 117.707h5.23v8.408h-5.23z"/><path d="M73.224 126.114h15.692v8.408H73.224zM67.999 134.522h26.154v8.408H67.999zM73.224 176.562h26.154v8.408H73.224zM62.773 142.93h36.614v8.409H62.773zM10.456 142.93h36.615v8.409H10.456zM15.697 184.97h15.692v8.408H15.697zM10.456 176.562H36.61v8.408H10.456zM83.69 159.746h26.155v8.408H83.69zM78.465 184.97h15.692v8.408H78.465z"/><path d="M20.923 193.377h5.23v8.409h-5.23zM83.69 193.377h5.23v8.409h-5.23zM.005 159.746h26.154v8.408H.005zM47.08 176.562h15.693v8.408H47.08zM52.307 184.97h5.23v8.408h-5.23zM36.615 159.746h36.614v8.408H36.615zM57.532 33.628h10.462v8.408H57.532z"/><path d="M47.08 42.035h15.693v8.408H47.08zM41.84 50.443h10.462v8.409H41.84zM57.532 50.443h10.462v8.409H57.532zM.005 42.035h10.462v8.408H.005zM5.23 50.443h10.462v8.409H5.231zM99.383 42.035h10.462v8.408H99.383zM94.157 50.443h10.462v8.409H94.157zM.005 126.114h5.23v8.408H.005zM104.608 126.114h5.23v8.408h-5.23zM47.08 193.377h15.693v8.409H47.08zM41.84 201.786h10.462v8.408H41.84zM57.532 201.786h10.462v8.408H57.532zM36.615 210.194h10.461v8.408H36.615zM62.773 210.194h10.462v8.408H62.773z"/><path d="M31.389 218.601H41.85v8.408H31.389zM67.999 218.601H78.46v8.408H68zM26.148 227.01H36.61v8.408H26.148zM73.224 227.01h10.462v8.408H73.224z"/><path d="M15.697 235.417h15.692v8.408H15.697zM78.465 235.417h15.692v8.408H78.465z"/><path d="M88.916 227.01h10.462v8.408H88.916zM94.157 218.601h10.462v8.408H94.157z"/><path d="M99.383 210.194h10.462v8.408H99.383zM10.456 227.01h10.462v8.408H10.456zM5.23 218.601h10.462v8.408H5.231z"/><path d="M.005 210.194h10.462v8.408H.005zM20.923 243.825h5.23v8.408h-5.23zM83.69 243.825h5.23v8.408h-5.23zM52.307 218.601h5.23v8.408h-5.23zM36.615 243.825h5.23v8.408h-5.23zM67.999 243.825h5.23v8.408h-5.23zM52.307 243.825h5.23v8.408h-5.23zM.005 243.825h5.23v8.408H.005zM104.608 243.825h5.23v8.408h-5.23zM52.307 126.114h5.23v8.408h-5.23zM26.148 42.035h5.23v8.408h-5.23zM78.465 42.035h5.23v8.408h-5.23zM47.08 100.891h15.693v8.408H47.08z"/><path d="M36.615 109.298h15.692v8.409H36.615z"/><path d="M41.84 117.707h5.23v8.408h-5.23zM31.389 100.891H41.85v8.408H31.389zM36.615 92.483h15.692v8.408H36.615zM41.84 84.074h5.23v8.409h-5.23zM57.532 92.483h15.692v8.408H57.532zM62.773 84.074h5.23v8.409h-5.23zM67.999 100.891H78.46v8.408H68z"/><path d="M57.532 109.298h15.692v8.409H57.532z"/><path d="M62.773 117.707h5.23v8.408h-5.23zM83.69 100.891h10.463v8.408H83.69zM88.916 92.483h15.692v8.408H88.916zM99.383 100.891h10.462v8.408H99.383z"/><path d="M88.916 109.298h15.692v8.409H88.916z"/><path d="M94.157 117.707h5.23v8.408h-5.23zM94.157 84.074h5.23v8.409h-5.23zM.005 100.891h10.462v8.408H.005zM5.23 92.483h15.693v8.408H5.23zM15.697 100.891h10.462v8.408H15.697z"/><path d="M5.23 109.298h15.693v8.409H5.23z"/><path d="M10.456 117.707h5.23v8.408h-5.23zM10.456 84.074h5.23v8.409h-5.23zM5.23 151.338h20.923v8.408H5.23zM31.389 151.338H52.31v8.408H31.39zM57.532 151.338h20.923v8.408H57.532zM83.69 151.338h20.923v8.408H83.69zM41.84 168.153h26.154v8.409H41.84zM5.23 168.153h26.154v8.409H5.231zM78.465 168.153h26.154v8.409H78.465zM104.608 201.786h5.23v8.408h-5.23zM.005 201.786h5.23v8.408H.005zM5.23 487.657h5.23v-8.408H5.23zM20.923 487.657h15.692v-8.408H20.923z"/><path d="M26.148 496.057h5.23v-8.408h-5.23zM52.307 496.057h5.23v-8.408h-5.23zM73.224 487.657h15.692v-8.408H73.224z"/><path d="M78.465 496.057h5.23v-8.408h-5.23zM15.697 479.245h10.462v-8.408H15.697zM31.389 479.245H41.85v-8.408H31.389zM67.999 479.245H78.46v-8.408H68zM83.69 479.245h10.463v-8.408H83.69zM36.615 470.833h10.461v-8.408H36.615zM62.773 470.833h10.462v-8.408H62.773zM88.916 470.833h10.462v-8.408H88.916zM99.383 487.657h5.23v-8.408h-5.23zM5.23 462.433h10.462v-8.408H5.231z"/><path d="M41.84 462.433h10.462v-8.408H41.84zM94.157 462.433h10.462v-8.408H94.157zM10.456 437.21h10.462v-8.41H10.456zM15.697 428.797h10.462v-8.408H15.697zM36.615 437.21h10.461v-8.41H36.615zM31.389 428.797H41.85v-8.408H31.389zM20.923 420.385h15.692v-8.408H20.923z"/><path d="M26.148 411.985h5.23v-8.408h-5.23zM62.773 437.21h10.462v-8.41H62.773zM67.999 428.797H78.46v-8.408H68zM88.916 437.21h10.462v-8.41H88.916zM83.69 428.797h10.463v-8.408H83.69zM73.224 420.385h15.692v-8.408H73.224z"/><path d="M78.465 411.985h5.23v-8.408h-5.23zM52.307 420.385h5.23v-8.408h-5.23zM.005 420.385h5.23v-8.408H.005zM104.608 420.385h5.23v-8.408h-5.23zM26.148 378.35h5.23v-8.409h-5.23z"/><path d="M20.923 369.95h15.692v-8.409H20.923zM15.697 361.537H41.85v-8.408H15.697zM78.465 378.35h5.23v-8.409h-5.23z"/><path d="M73.224 369.95h15.692v-8.409H73.224zM67.999 361.537h26.154v-8.408H67.999zM73.224 319.502h26.154v-8.409H73.224zM62.773 353.126h36.614v-8.409H62.773zM10.456 353.126h36.615v-8.409H10.456zM15.697 311.09h15.692v-8.412H15.697zM10.456 319.502H36.61v-8.409H10.456zM83.69 336.314h26.155v-8.409H83.69zM78.465 311.09h15.692v-8.409H78.465zM.005 336.314h26.154v-8.409H.005zM47.08 319.502h15.693v-8.409H47.08zM52.307 311.09h5.23v-8.409h-5.23zM36.615 336.314h36.614v-8.409H36.615zM57.532 462.433h10.462v-8.408H57.532zM47.08 454.021h15.693v-8.408H47.08zM41.84 445.61h10.462v-8.41H41.84zM57.532 445.61h10.462v-8.41H57.532zM.005 454.021h10.462v-8.408H.005zM5.23 445.61h10.462v-8.41H5.231zM99.383 454.021h10.462v-8.408H99.383zM94.157 445.61h10.462v-8.41H94.157zM.005 369.95h5.23v-8.409H.005zM104.608 369.95h5.23v-8.409h-5.23zM41.84 294.278h10.462v-8.409H41.84zM57.532 294.278h10.462v-8.409H57.532zM36.615 285.866h10.461v-8.409H36.615zM62.773 285.866h10.462v-8.409H62.773zM31.389 277.454H41.85v-8.409H31.389zM67.999 277.454H78.46v-8.409H68z"/><path d="M26.148 269.054H36.61v-8.409H26.148zM73.224 269.054h10.462v-8.409H73.224zM15.697 260.642h15.692v-8.409H15.697zM78.465 260.642h15.692v-8.409H78.465zM88.916 269.054h10.462v-8.409H88.916z"/><path d="M94.157 277.454h10.462v-8.409H94.157zM99.383 285.866h10.462v-8.409H99.383zM10.456 269.054h10.462v-8.409H10.456z"/><path d="M5.23 277.454h10.462v-8.409H5.231zM.005 285.866h10.462v-8.409H.005zM20.923 252.233h5.23v-8.408h-5.23zM52.307 277.454h5.23v-8.409h-5.23zM52.307 369.95h5.23v-8.409h-5.23zM26.148 454.021h5.23v-8.408h-5.23zM78.465 454.021h5.23v-8.408h-5.23zM47.08 395.173h15.693v-8.408H47.08zM36.615 386.761h15.692v-8.408H36.615zM41.84 378.35h5.23v-8.409h-5.23zM31.389 395.173H41.85v-8.408H31.389z"/><path d="M36.615 403.573h15.692v-8.408H36.615zM41.84 411.985h5.23v-8.408h-5.23zM57.532 403.573h15.692v-8.408H57.532zM62.773 411.985h5.23v-8.408h-5.23z"/><path d="M67.999 395.173H78.46v-8.408H68zM57.532 386.761h15.692v-8.408H57.532zM62.773 378.35h5.23v-8.409h-5.23zM83.69 395.173h10.463v-8.408H83.69z"/><path d="M88.916 403.573h15.692v-8.408H88.916z"/><path d="M99.383 395.173h10.462v-8.408H99.383zM88.916 386.761h15.692v-8.408H88.916zM94.157 378.35h5.23v-8.409h-5.23zM94.157 411.985h5.23v-8.408h-5.23zM.005 395.173h10.462v-8.408H.005z"/><path d="M5.23 403.573h15.693v-8.408H5.23z"/><path d="M15.697 395.173h10.462v-8.408H15.697zM5.23 386.761h15.693v-8.408H5.23zM10.456 378.35h5.23v-8.409h-5.23zM10.456 411.985h5.23v-8.408h-5.23zM5.23 344.725h20.923v-8.408H5.23zM31.389 344.725H52.31v-8.408H31.39zM57.532 344.725h20.923v-8.408H57.532zM83.69 344.725h20.923v-8.408H83.69zM41.84 327.902h26.154v-8.409H41.84zM5.23 327.902h26.154v-8.409H5.231zM78.465 327.902h26.154v-8.409H78.465zM104.608 294.278h5.23v-8.409h-5.23zM.005 294.278h5.23v-8.409H.005zM47.08 252.233h5.231v8.409h-5.23zM57.532 252.233h5.23v8.409h-5.23zM57.532 235.417h5.23v8.408h-5.23zM47.08 235.417h5.231v8.408h-5.23zM10.456 462.433h10.462v8.409H10.456zM83.69 302.678h5.23v-8.409h-5.23zM20.923 302.678h5.23v-8.409h-5.23zM47.078 294.274H62.77v8.407H47.078z"/></g></g></svg>