<svg xmlns="http://www.w3.org/2000/svg" height="512" width="512"><defs><clipPath id="a"><path fill-opacity=".67" d="M124.02 0h496.06v496.06H124.02z"/></clipPath></defs><g clip-path="url(#a)" transform="translate(-128) scale(1.0321)"><path fill-rule="evenodd" fill="#c60000" d="M0 0h744.09v496.06H0z"/><path fill-rule="evenodd" fill="#003bb2" d="M0 70.866h744.09v354.33H0z"/><path d="M513.77 248.028c0 78.276-63.456 141.73-141.729 141.73-78.277 0-141.73-63.458-141.73-141.73 0-78.277 63.457-141.73 141.73-141.73 78.277 0 141.73 63.457 141.73 141.73z" fill-rule="evenodd" fill="#fff"/><g stroke="#000" fill-rule="evenodd"><path d="M0 318.04c6.927 1.019 14.391 1.206 23.312 0 7.405 1.994 12.863 5.647 18.317 8.326 3.057 5.665 7.339 13.999 11.656 18.316 1.874 6.872 4.641 9.755 8.326 16.652.918 6.795 3.182 13.617 0 19.981-3.796 4.745-9.758 7.515-14.986 9.991-6.902 3.688-10.937 5.046-19.982 6.661-7.444 1.329-15.03 1.665-23.312 1.665-8.013-1.431-14.192-2.757-21.647-3.33-7.414-1.324-15.898-2.007-23.312-3.331-4.813-2.815-11.026-5.126-16.651-6.66-3.907-3.725-9.56-7.953-14.986-11.656-4.19-7.502-8.004-10.206-11.656-16.652-3.316-4.876-4.89-11.169-4.996-19.981 2.625-5.344 6.961-10.53 9.991-14.986 5.197-3.433 11.072-7.989 18.316-11.656 9.784-.346 13.604-3.214 23.312-3.331h24.977c5.652.566 8.442 5.584 13.321 9.991z" transform="matrix(.2058 0 0 .17605 398.135 146.308)" stroke-width="3.75" fill="#030"/><path d="M273.08 659.39c-6.66-38.298-16.652-133.21-16.652-174.84 1.665-31.639 121.56-139.87 124.89-151.53 3.33-11.656 64.94-99.909 74.931-126.55-24.977 18.316-66.606 98.243-74.931 106.57-8.326 8.326 18.316-83.257 9.991-111.56-8.326 33.303-21.647 118.22-31.638 126.55-4.995 4.996-91.583 104.9-101.57 101.57-9.991-3.33-36.633-19.981-31.637-29.972 4.995-9.991 71.601-71.601 74.931-93.248s8.326-73.266 14.986-78.261c6.661-4.996 16.652-29.973 24.977-49.955-21.646 9.991-24.977 39.964-33.302 41.629-8.326 1.665-28.308-33.303-28.308-33.303s13.321 38.298 14.986 46.624c1.666 8.326-6.66 63.275-11.656 69.936-4.995 6.661-41.628 53.284-48.289 54.949-6.66 1.666-24.977-76.596-24.977-91.582s13.321-73.266 0-76.597c-8.326 0-9.991 68.271-14.986 68.271-4.996 0-16.652-68.27-16.652-68.27s-6.659 31.637-3.33 53.283c-9.991 1.666-36.633-39.962-36.633-39.962s49.954 86.587 59.946 89.917c9.99 4.995 19.981 68.271 18.316 71.601s-49.954-16.651-59.945-23.312c-9.991-6.66-29.973-79.927-29.973-79.927s9.991 71.601-1.665 61.611c-11.656-9.991-29.972-18.317-39.963-33.303-9.99-14.986-4.995-76.597-4.995-76.597s-16.651 54.95-23.312 54.95c-6.661 0-28.307-73.266-28.307-73.266s3.33 79.927 13.32 84.922c9.991 4.995 159.85 104.9 161.52 114.9 1.666 9.99 19.983 48.288 29.974 59.944-1.666 21.647 6.66 161.52 9.99 194.82l29.973 9.991z" transform="matrix(.2058 0 0 .17605 329.595 130.477)" stroke-width="1pt" fill="#520900"/><path d="M-338.02 133.21c1.849 6.416 2.528 12.146 11.656 14.986 5.054 1.925 15.007 4.529 19.982 6.661 5.242 2.483 11.14 5.593 18.316 6.66 5.394 1.798 14.58 3.65 21.647 4.996 7.443 1.329 15.029 1.665 23.312 1.665 9.557-1.707 13.811-3.429 19.981-8.326 1.851-6.786 4.343-9.832 4.996-18.317.567-7.944 1.665-14.819 1.665-23.311-1.541-4.623-1.789-15.359-3.33-19.982-5.577-5.466-7.051-8.649-16.652-11.656-7.476-3.382-14.307-3.33-23.312-3.33-6.961 2.32-15.344 1.665-23.312 1.665h-23.311c-6.973 1.516-12.292 2.762-18.317 6.66-8.133 3.673-9.338 6.317-13.321 14.987-2.934 8.8-3.036 15.415 0 26.642z" transform="matrix(.2058 0 0 .17605 396.079 140.444)" stroke-width="3.75" fill="#030"/><path d="M-329.7 191.49c0-2.781-6.02 2.689-8.326 4.995-5.392 3.774-7.647 8.815-8.326 18.317-2.502 5.189 0 13.714 0 21.646 0 9.181.062 15.585 4.996 19.982 5.598 3.445 8.289 4.995 18.316 4.995h46.624c5.896-1.965 13.091-2.953 19.982-4.995 7.705-4.085 13.071-4.517 21.646-6.661 4.883-4.237 11.635-8.599 19.982-9.99 9.547-.455 15.257-3.788 21.647-8.326 8.216-2.054 15.635-6.365 21.647-9.991 4.837-3.289 8.309-7.415 11.656-13.321 3.396-7.925 4.482-12.895-1.665-21.647-12.143-4.415-6.108-9.191-14.987-13.321-4.062-2.453-13.524-5.673-18.316-8.326-8.293.615-14.192 2.679-23.312 3.331-4.71 2.355-14.368 1.665-21.647 1.665h-26.642c-7.968 0-16.35-.656-23.312 1.665-6.667 1.818-9.985 4.842-16.651 6.66-4.393 2.987-11.507 5.411-16.652 8.326l16.652-8.326c-4.393 2.987-11.507 5.411-23.312 13.322z" transform="matrix(.2058 0 0 .17605 395.05 142.203)" stroke-width="3.75" fill="#030"/><path d="M-186.5 49.949c3.314 0-5.2 3.98-8.326 6.66-4.011 7.064-4.474 13.423-6.661 19.982-2.565 5.772-5.726 13.067-6.66 19.983-3.139 7.493-4.878 10.224-4.996 19.98 0 7.678-.09 16.38 1.665 21.647 5.049 6.362 9.899 9.976 18.317 14.986 7.207 2.495 12.49 3.984 19.982 4.996h23.312c5.267 1.756 13.969 1.665 21.646 1.665 8.493-3.172 11.709-7.208 19.982-8.326 9.115-.828 10.687-4.642 14.986-11.656 3.998-5.168 5.674-11.013 6.66-18.316 0-8.399-.75-15.628-1.665-23.312-4.006-4.494-7.052-10.696-9.99-18.316-5.146-8.82-5.152-12.739-13.321-16.65-3.976-5.431-10.848-8.07-14.987-11.657-8.651-.618-15.218-1.694-21.646-4.995-7.678 0-16.38-.09-21.647 1.665-6.032 0-10.447.57-16.651 1.665z" transform="matrix(.2058 0 0 .15016 396.764 145.755)" stroke-width="3.75" fill="#030"/><path d="M-58.28 64.935c-.987 0-4.077 4.824-6.66 9.99-4.344 6.916-4.925 13.316-8.326 18.317-1.33 7.443-1.665 15.028-1.665 23.312.755 8.314 3.196 11.323 8.325 14.987 7.713 4.38 11.367 6.41 19.982 8.325 7.447.573 12.8 1.665 21.647 1.665 7.968 0 16.35.656 23.312-1.665 8.283 0 15.87-.336 23.312-1.665 3.823-3.24 12.04-6.141 16.651-8.325 5.482-6.642 8.106-13.245 11.656-18.317 0-9.822.078-15.564-4.995-23.312-3.621-6.388-7.961-9.321-13.322-14.986-6.718-2.337-12.38-7.196-19.982-8.326H-58.28z" transform="matrix(.2058 0 0 .17605 395.393 139.858)" stroke-width="3.75" fill="#030"/><path d="M76.596 76.591c-6.286 2.619-8.59 3.3-11.656 9.99-4.62 7.116-7.342 10.463-11.656 14.987-.99 6.664-3.643 13.879-6.66 18.317-.915 7.684-1.666 14.913-1.666 23.312 4.222 6.486 10.085 12.603 16.651 16.65 6.79 2.352 13.95 5.933 19.982 8.327 7.766 2.033 14.951 4.398 23.312 4.995 7.217 1.805 15.164 1.665 23.312 1.665 7.404-1.61 13.75-3.478 19.981-8.325 3.333-5.196 7.156-11.045 8.326-19.982 2.754-8.263.54-19.061-3.33-26.642-2.039-7.477-5.016-10.373-13.32-14.987-4.596-4.854-10.703-10.322-14.988-13.321-5.28-4.584-12.142-5.153-19.98-8.326-8.493-1.887-11.338-4.33-19.983-4.995l19.982 4.995c-8.488-1.886-11.333-4.33-28.304-6.66z" transform="matrix(.2058 0 0 .17605 393.337 146.6)" stroke-width="3.75" fill="#030"/><path d="M-51.619 146.53c-7.618 3.463-11.162 7.635-16.651 13.321 0 8.846 1.092 14.2 1.665 21.647 3.466 4.734 7.144 14.249 9.991 18.316 2.172 6.812 6.92 12.137 9.99 16.652 7.691 3.112 15.496 5.441 23.313 8.325 9.198 0 15.098 2.06 23.312 3.331 6.962 2.32 15.344 1.665 23.312 1.665 8.147 0 16.094-.139 23.312 1.665 7.703 1.369 13.396 4.361 21.647 4.995 4.739-.451 13.136-1.138 19.982-1.665 7.667-3.485 10.982-5.707 14.987-11.656 3.752-4.542 3.33-11.267 3.33-19.981 1.602-8.972 2.092-15.007-1.665-23.312-.108-8.961-1.817-13.172-3.331-21.647-3.005-6.01-5.646-8.651-11.656-11.656-5.464-3.808-12.863-5.998-18.316-9.991-7.433-.885-15.76-2.05-21.647-3.33-6.51-4.341-11.933-6.545-21.647-6.661-9.514-1.132-13.996-2.263-21.647 1.665-7.989.571-15.15 2.169-19.982 4.996-6.144.472-15.283.981-19.982 3.33-7.414 0-9.987 1.288-16.651 1.665l16.65-1.665c-7.413 0-9.986 1.288-18.315 9.991z" transform="matrix(.2603 0 0 .13643 390.547 151.866)" stroke-width="3.75" fill="#030"/><path d="M-123.22 278.07c-4.299-.632-17.278-1.665-26.642-1.665-8.747 0-15.86.58-23.312 3.33-7.975 1.537-13.883 4.047-19.982 6.661-5.053 2.393-10.953 4.83-14.986 8.325-4.955 3.369-9.13 6.335-13.321 13.321-4.476 6.422-4.944 10.559-8.326 18.317v23.312c.587 7.633 1.64 14.23 4.995 21.647 5.022 4.017 11.977 5.282 18.317 6.66 6.029 1.311 13.875 2.775 21.647 3.33 9.239 0 14.16.466 21.646 3.331 9.747-.361 11.606-2.628 19.982-6.661 9.314-3.692 14.861-5.061 23.312-9.991 5.173-4.079 8.578-10.984 11.656-18.316 4.689-7.575 7.91-14.886 11.656-21.647 1.804-7.218 1.665-15.164 1.665-23.312-2.22-6.258-5.752-8.905-9.991-14.986-4.616-5.049-6.672-8.946-9.991-13.321l9.991 13.321c-4.616-5.049-6.672-8.946-18.316-11.656z" transform="matrix(.2058 0 0 .17605 397.107 143.376)" stroke-width="3.75" fill="#030"/><path d="M0 318.04c6.927 1.019 14.391 1.206 23.312 0 7.405 1.994 12.863 5.647 18.317 8.326 3.057 5.665 7.339 13.999 11.656 18.316 1.874 6.872 4.641 9.755 8.326 16.652.918 6.795 3.182 13.617 0 19.981-3.796 4.745-9.758 7.515-14.986 9.991-6.902 3.688-10.937 5.046-19.982 6.661-7.444 1.329-15.03 1.665-23.312 1.665-8.013-1.431-14.192-2.757-21.647-3.33-7.414-1.324-15.898-2.007-23.312-3.331-4.813-2.815-11.026-5.126-16.651-6.66-3.907-3.725-9.56-7.953-14.986-11.656-4.19-7.502-8.004-10.206-11.656-16.652-3.316-4.876-4.89-11.169-4.996-19.981 2.625-5.344 6.961-10.53 9.991-14.986 5.197-3.433 11.072-7.989 18.316-11.656 9.784-.346 13.604-3.214 23.312-3.331h24.977c5.652.566 8.442 5.584 13.321 9.991z" transform="matrix(.26399 0 0 .14724 403.708 141.11)" stroke-width="3.75" fill="#030"/></g><g fill-rule="evenodd" stroke="#000" stroke-width="3.711" fill="#006a00"><path d="M200.16 613.18l4.71-7.064-12.952-2.355 9.42-9.419-12.952-4.71 12.952-9.419-12.952-7.065 14.129-5.887-7.064-11.774 14.129 2.355-5.887-14.13 16.484 7.065v-18.839l11.774 12.952 9.419-16.484 7.065 15.306 14.129-16.484 4.71 12.952 21.193-10.597-5.887 16.484 22.371-9.419-4.71 18.839 21.194-9.42-8.242 17.662 21.194 1.177-17.662 10.597 17.662 7.064-16.484 9.42 14.129 11.774c-45.135 20.801-79.673 27.473-131.87 9.419z" transform="matrix(.17023 -.01276 .00851 .15688 345.428 200.725)"/><path d="M200.16 613.18l4.71-7.064-12.952-2.355 9.42-9.419-12.952-4.71 12.952-9.419-12.952-7.065 14.129-5.887-7.064-11.774 14.129 2.355-5.887-14.13 16.484 7.065v-18.839l11.774 12.952 9.419-16.484 7.065 15.306 14.129-16.484 4.71 12.952 21.193-10.597-5.887 16.484 22.371-9.419-4.71 18.839 21.194-9.42-8.242 17.662 21.194 1.177-17.662 10.597 17.662 7.064-16.484 9.42 14.129 11.774c-45.135 20.801-79.673 27.473-131.87 9.419z" transform="matrix(.17023 -.01276 .00851 .15688 305.086 199.554)"/><path d="M200.16 613.18l4.71-7.064-12.952-2.355 9.42-9.419-12.952-4.71 12.952-9.419-12.952-7.065 14.129-5.887-7.064-11.774 14.129 2.355-5.887-14.13 16.484 7.065v-18.839l11.774 12.952 9.419-16.484 7.065 15.306 14.129-16.484 4.71 12.952 21.193-10.597-5.887 16.484 22.371-9.419-4.71 18.839 21.194-9.42-8.242 17.662 21.194 1.177-17.662 10.597 17.662 7.064-16.484 9.42 14.129 11.774c-45.135 20.801-79.673 27.473-131.87 9.419z" transform="matrix(.17023 -.01276 .00851 .15688 367.842 200.138)"/><path d="M200.16 613.18l4.71-7.064-12.952-2.355 9.42-9.419-12.952-4.71 12.952-9.419-12.952-7.065 14.129-5.887-7.064-11.774 14.129 2.355-5.887-14.13 16.484 7.065v-18.839l11.774 12.952 9.419-16.484 7.065 15.306 14.129-16.484 4.71 12.952 21.193-10.597-5.887 16.484 22.371-9.419-4.71 18.839 21.194-9.42-8.242 17.662 21.194 1.177-17.662 10.597 17.662 7.064-16.484 9.42 14.129 11.774c-45.135 20.801-79.673 27.473-131.87 9.419z" transform="matrix(.16558 -.04818 .03215 .15259 339.985 219.519)"/><path d="M200.16 613.18l4.71-7.064-12.952-2.355 9.42-9.419-12.952-4.71 12.952-9.419-12.952-7.065 14.129-5.887-7.064-11.774 14.129 2.355-5.887-14.13 16.484 7.065v-18.839l11.774 12.952 9.419-16.484 7.065 15.306 14.129-16.484 4.71 12.952 21.193-10.597-5.887 16.484 22.371-9.419-4.71 18.839 21.194-9.42-8.242 17.662 21.194 1.177-17.662 10.597 17.662 7.064-16.484 9.42 14.129 11.774c-45.135 20.801-79.673 27.473-131.87 9.419z" transform="matrix(.17023 -.01276 .00851 .15688 382.785 209.503)"/><path d="M200.16 613.18l4.71-7.064-12.952-2.355 9.42-9.419-12.952-4.71 12.952-9.419-12.952-7.065 14.129-5.887-7.064-11.774 14.129 2.355-5.887-14.13 16.484 7.065v-18.839l11.774 12.952 9.419-16.484 7.065 15.306 14.129-16.484 4.71 12.952 21.193-10.597-5.887 16.484 22.371-9.419-4.71 18.839 21.194-9.42-8.242 17.662 21.194 1.177-17.662 10.597 17.662 7.064-16.484 9.42 14.129 11.774c-45.135 20.801-79.673 27.473-131.87 9.419z" transform="matrix(.17023 -.01276 .00851 .15688 365.852 211.26)"/><path d="M200.16 613.18l4.71-7.064-12.952-2.355 9.42-9.419-12.952-4.71 12.952-9.419-12.952-7.065 14.129-5.887-7.064-11.774 14.129 2.355-5.887-14.13 16.484 7.065v-18.839l11.774 12.952 9.419-16.484 7.065 15.306 14.129-16.484 4.71 12.952 21.193-10.597-5.887 16.484 22.371-9.419-4.71 18.839 21.194-9.42-8.242 17.662 21.194 1.177-17.662 10.597 17.662 7.064-16.484 9.42 14.129 11.774c-45.135 20.801-79.673 27.473-131.87 9.419z" transform="matrix(.17023 -.01276 .00851 .15688 288.151 199.554)"/><path d="M200.16 613.18l4.71-7.064-12.952-2.355 9.42-9.419-12.952-4.71 12.952-9.419-12.952-7.065 14.129-5.887-7.064-11.774 14.129 2.355-5.887-14.13 16.484 7.065v-18.839l11.774 12.952 9.419-16.484 7.065 15.306 14.129-16.484 4.71 12.952 21.193-10.597-5.887 16.484 22.371-9.419-4.71 18.839 21.194-9.42-8.242 17.662 21.194 1.177-17.662 10.597 17.662 7.064-16.484 9.42 14.129 11.774c-45.135 20.801-79.673 27.473-131.87 9.419z" transform="matrix(.16558 -.04818 .03215 .15259 260.29 218.935)"/><path d="M200.16 613.18l4.71-7.064-12.952-2.355 9.42-9.419-12.952-4.71 12.952-9.419-12.952-7.065 14.129-5.887-7.064-11.774 14.129 2.355-5.887-14.13 16.484 7.065v-18.839l11.774 12.952 9.419-16.484 7.065 15.306 14.129-16.484 4.71 12.952 21.193-10.597-5.887 16.484 22.371-9.419-4.71 18.839 21.194-9.42-8.242 17.662 21.194 1.177-17.662 10.597 17.662 7.064-16.484 9.42 14.129 11.774c-45.135 20.801-79.673 27.473-131.87 9.419z" transform="matrix(.17023 -.01276 .00851 .15688 303.095 208.92)"/><path d="M200.16 613.18l4.71-7.064-12.952-2.355 9.42-9.419-12.952-4.71 12.952-9.419-12.952-7.065 14.129-5.887-7.064-11.774 14.129 2.355-5.887-14.13 16.484 7.065v-18.839l11.774 12.952 9.419-16.484 7.065 15.306 14.129-16.484 4.71 12.952 21.193-10.597-5.887 16.484 22.371-9.419-4.71 18.839 21.194-9.42-8.242 17.662 21.194 1.177-17.662 10.597 17.662 7.064-16.484 9.42 14.129 11.774c-45.135 20.801-79.673 27.473-131.87 9.419z" transform="matrix(.17023 -.01276 .00851 .15688 286.159 210.674)"/><path d="M200.16 613.18l4.71-7.064-12.952-2.355 9.42-9.419-12.952-4.71 12.952-9.419-12.952-7.065 14.129-5.887-7.064-11.774 14.129 2.355-5.887-14.13 16.484 7.065v-18.839l11.774 12.952 9.419-16.484 7.065 15.306 14.129-16.484 4.71 12.952 21.193-10.597-5.887 16.484 22.371-9.419-4.71 18.839 21.194-9.42-8.242 17.662 21.194 1.177-17.662 10.597 17.662 7.064-16.484 9.42 14.129 11.774c-45.135 20.801-79.673 27.473-131.87 9.419z" transform="matrix(-.34584 -.01446 .01961 -.15679 454.529 392.911)"/></g><path d="M356.34 196.48c0 22.512-18.995 6.66-38.298 6.66-19.302 0-36.632 17.517-39.962.001 0-9.192 25.655-23.313 44.957-23.313 14.308 1.666 36.634-4.196 33.303 16.652z" fill-rule="evenodd" transform="matrix(.28224 0 0 .31083 329.218 218.038)" stroke="#000" stroke-width="2.5" fill="#510800"/><path d="M356.34 196.48c0 22.512-18.995 6.66-38.298 6.66-19.302 0-36.632 17.517-39.962.001 0-9.192 25.655-23.313 44.957-23.313 14.308 1.666 36.634-4.196 33.303 16.652z" fill-rule="evenodd" transform="matrix(-.28224 0 0 .31083 423.416 216.625)" stroke="#000" stroke-width="2.5" fill="#ffc600"/><path d="M349.68 188.16c0 13.794-7.082 24.977-15.819 24.977-8.736 0-15.819-11.183-15.819-24.977s7.082-24.977 15.819-24.977c8.736 0 15.819 11.183 15.819 24.977z" fill-rule="evenodd" transform="matrix(.3481 0 0 .33958 328.462 212.161)" stroke="#000" stroke-width="2.5" fill="#520900"/><g fill-rule="evenodd" stroke="#000" stroke-width="1pt" transform="matrix(-.64519 -.12125 -.38315 .64452 582.597 96.792)"><path d="M273.75 383.58c-2.737 4.561 42.976 12.952 57.694 22.371 14.719 9.42 14.718 10.008 21.194 14.718l1.765-2.944c-3.532-3.532-38.494-26.356-62.403-34.145-6.805-2.273-10.3-13.248-12.951-8.83l-5.299 8.83z" transform="matrix(-.72328 -.54505 .52 -.75812 322.39 677.92)" fill="#af8000"/><path d="M319.08 369.45l-25.315-5.887s-5.887 2.354-6.475 11.185c-.589 8.831 4.709 14.129 4.709 14.129l27.081-9.419V369.45z" transform="matrix(.84438 -.2975 .28383 .88505 -89.238 -64.18)" fill="gray"/><rect ry="3.532" rx="3.532" transform="matrix(.84438 -.2975 .28383 .88505 -19.207 -255.61)" height="19.428" width="7.064" y="534.62" x="175.71" fill="gray"/></g><path d="M244.77 87.419c7.322-5.947 11.157-3.718 17.649 3.102 9.323 9.814 41.318 58.854 46.313 63.017s4.241-6.417 10.344-1.387c3.032 3.727-10.437 17.026-13.737 14.57-6.411-5.02 3.915-5.375-.354-9.644-4.925-5.133-51.215-40.497-60.282-50.57-5.92-6.578-6.314-13.97.067-19.088z" fill-rule="evenodd" transform="matrix(.7387 .1658 .34388 .54663 178.197 70.438)" stroke="#000" stroke-width="1.25" fill="#923d09"/><g stroke="#000"><path d="M193.63 88.249c15.546 4.424 43.275 46.12 53.766 45.791 16.652-.481 83.233-77.561 72.564-88.252-7.399-8.246-67.939 41.192-71.852 44.126-.67-8.601-15.95-51.042-28.31-59.945-14.62-9.31-32.21-4.157-47.82-6.661-7.3-2.843-18.84-14.056-23.78-24.976 8.182-3.544 15.323-2.479 23.311-10.651 5.679-6.642 2.381-46.913.37-51.059-13.291-14.268 5.429-7.327-39.024-9.082-64.268-2.446-75.878 49.582-31.653 70.792C97.74 14.26 86.983 17.926 78.263 19.978c-8.777.106-38.826-.763-55.546 12.489-33.403 24.552-8.925 30.904-15.352 35.8-7.173 5.645-17.868 19.827-21.888 28.307-10.472 4.996-99.485-4.995-116.5-1.664-16.42.965-56.467 15.818-73.15 26.64 3.565 14.143 241.51-7.602 249.27-2.496 5.946 3.345-2.705 51.237 2.011 54.949 1.66 9.063 116.54 5.829 125.6 5.829 7.557-18.86 15.39-81.558 20.925-91.583z" fill-rule="evenodd" transform="matrix(-.13277 0 0 .21127 332.778 192.49)" stroke-width="4.702" fill="#ffc600"/><path d="M174.9-96.568c1.543 25.457-7.118 3.304-38.369 3.304-60.56-5.035-39.286 99.196-39.286 67.025-26.227-13.71-44.834-100.29 29.616-96.93 23.538 0 44.958 7.857 48.044 26.602z" fill-rule="evenodd" transform="matrix(-.15932 0 0 .14822 336.515 193.377)" stroke-width="5.125"/><path d="M387.98 96.574c0 1.68-.172 7.957-.833 11.656-.445 3.74-1.539 8.077-2.498 10.823-.342 4.452-2.091 5.174-2.497 9.991-1.544 2.27-2.209 5.944-2.498 9.991 0 4.27.686 7.558.833 11.656.481 3.56 1.612 6.366 1.665 10.823 0 4.365-.005 7.549-1.665 9.991v5.828" transform="matrix(-.20875 0 0 .21127 406.366 185.894)" stroke-width="3.75" fill="none"/><path d="M383.81 76.592c.58 0 1.029 20.129 5.828 24.978 1.039 3.212 4.574 7.343 5.828 9.99 1.672 2.459 3.981 5.368 8.326 6.661h11.656c4.634 0 7.473.055 10.823-1.665 1.485-.8 2.531-1.846 3.33-3.331M442.09 115.72h.832c-2.327 0-1.092-.104 3.331 1.665 1.725 2.537 3.768 3.625 6.66 4.996 2.982 1.467 6.391 1.665 10.823 1.665 4.198-.354 6.74-1.686 9.159-3.331 4.043-1.308 4.815-2.935 5.828-7.493v-11.656c-.478-3.53-1.384-6.372-2.498-9.158-.419-1.258-.833-.705-.833-2.497M510.36 121.55c-.425 0-2.65 2.575-4.163 4.995-2.568.918-3.233 3.716-4.162 5.828-.669 2.675-1.666 2.859-1.666 6.661-1.677 3.708-2.204 7.007-2.497 10.823l2.497-10.823c-1.677 3.708-2.204 7.007-2.497 10.823M461.24 54.946h-.833c2.249 0 1.099-.053-3.33.833-1.817 2.27-4.807 4.305-7.493 5.827-2.977 1.825-5.367 4.01-8.326 4.996l8.326-4.996c-2.977 1.825-5.367 4.01-8.326 4.996M402.13 51.615h.833c-2.248 0-1.105-.054 3.33.833 2.936 1.39 4.752 2.89 7.493 4.995 1.291 1.935 3.257 2.305 4.163 5.828 1.574.847 2.124 1.67 2.498 4.163M427.11 29.968h4.163c4.529 0 6.733.681 10.824.833 3.538-.425 4.382-1.738 7.493-2.498M442.93 133.21c.139.661 1.652 4.256 2.498 5.828 1.517 2.512 3.538 4.914 4.163 8.326.968 2.905 1.526 6.23 1.665 9.99.761 3.503 1.264 6.62-.833 9.159-.898 3.292-2.57 5.692-4.162 9.158-1.111 0-.833-.278-.833.833M416.28 134.87v.833c0-2.248.055-1.105-.832 3.33-1.147 4.013-2.15 7.388-4.163 9.991-1.098 3.294-2.326 4.504-2.498 9.158.662 1.544.833 3.263.833 5.828M412.12 169.01v4.163c.908 1.211.55 1.294 1.665 1.665M343.02 128.21v.832c0-2.327-.258-.936 4.163.833 3.572.638 7.937 1.037 10.823 1.665 2.672 1.312 5.265 3.48 7.493 4.995 1.994 1.728 4.819 3.48 7.494 4.996 3.004 1.502 4.325 2.823 5.828 5.828.907 1.21.549 1.293 1.665 1.665" transform="matrix(-.20875 0 0 .21127 406.366 185.894)" stroke-width="3.75" fill="none"/><path d="M423.78-16.655c.123-.184 2.467-1.914 4.996-2.498 1.805-1.354 4.812-.74 6.66 0" transform="matrix(-.32609 0 0 .21127 458.057 186.64)" stroke-width="3" fill="none"/><path d="M445.42-19.153h.833c-2.248 0-1.106.054 3.33-.833 3.481-1.16 7.672-.832 11.656-.832 1.174.391.832.242.832 1.665M444.59-7.497v.833c0-2.327-.103-1.091 1.666 3.33.643 2.962 1.76 7.05.832 9.158-2.184 0-2.859-.274-4.163-.833" transform="matrix(-.25362 0 0 .21127 427.35 186.64)" stroke-width="3.402" fill="none"/><path d="M371.33-24.981c0 3.219-4.1 5.828-9.158 5.828s-9.158-2.61-9.158-5.828 4.1-5.828 9.158-5.828 9.158 2.61 9.158 5.828z" fill-rule="evenodd" transform="matrix(-.24986 -.03625 -.02486 .11894 403.716 205.73)" stroke-width="4.501"/><path d="M371.33-24.981c0 3.219-4.1 5.828-9.158 5.828s-9.158-2.61-9.158-5.828 4.1-5.828 9.158-5.828 9.158 2.61 9.158 5.828z" fill-rule="evenodd" transform="matrix(-.18083 -.0238 -.018 .07811 382.901 193.785)" stroke-width="6.528"/><path d="M371.33-24.981c0 3.219-4.1 5.828-9.158 5.828s-9.158-2.61-9.158-5.828 4.1-5.828 9.158-5.828 9.158 2.61 9.158 5.828z" fill-rule="evenodd" transform="matrix(-.18083 -.0238 -.018 .07811 377.412 193.254)" stroke-width="6.528"/><path d="M412.95 113.64c0 2.07-1.864 3.747-4.163 3.747-2.299 0-4.163-1.678-4.163-3.747s1.864-3.747 4.163-3.747c2.3 0 4.163 1.678 4.163 3.747zM469.57 119.89c0 1.38-1.305 2.498-2.914 2.498-1.61 0-2.914-1.119-2.914-2.498s1.305-2.498 2.914-2.498c1.61 0 2.914 1.119 2.914 2.498z" fill-rule="evenodd" transform="matrix(-.20875 0 0 .21127 406.366 185.894)" stroke-width="3.75"/><path d="M447.09 31.634v.833c0-2.796.197-1.03-4.163 3.33-3.724 1.785-5.164 3.667-6.66 6.66-1.742 3.85-2.342 6.613-2.498 10.824v6.66M419.61 30.801c.577 0 1.477 2.273 2.498 4.995 1.856 2.189 3.037 5.351 3.33 9.159 0 4.518.78 6.453.833 10.824v3.33M504.54 129.04c0 .481-2.6 1.455-4.163 3.33-3.161.428-5.964.833-9.99.833-.611-.916-1.836-1.217-3.331-1.665" transform="matrix(-.20875 0 0 .21127 406.366 185.894)" stroke-width="3.75" fill="none"/></g><g fill-rule="evenodd" stroke="#000" stroke-width="3.75" fill="#fff"><path d="M276.41 36.63l88.253 1.665v11.656s8.325 14.986 13.321 48.29c4.995 33.302 9.991 158.19 9.991 158.19l21.646 141.54s-13.321 21.646-23.312 19.981c-9.99-1.666-39.963-13.32-39.963-14.987 0-1.665-1.665-79.926-4.995-133.21-3.331-53.285-9.991-81.592-24.977-104.9-19.982 48.288-21.647 98.243-19.982 98.243s1.665 39.963 3.33 69.936c1.666 29.972-1.665 71.601-1.665 71.601l-58.28-3.33s1.665-36.634 3.331-64.94c1.665-28.308 6.744-41.626 8.326-73.267 1.748-34.963 4.202-53.319 6.66-109.9 3.238-45.739 14.687-75.258 17.9-103.24.871-7.133-.416-12.488.416-13.32z" transform="matrix(-.21595 0 0 .13708 386.964 218.454)"/><path d="M316.38 166.51s-8.326-13.321-11.656-36.633-3.33-28.307-3.33-28.307M298.06 233.12l-9.99 39.963" transform="matrix(-.21595 0 0 .13708 386.964 218.454)"/><path d="M276.41 223.12l11.657 54.949" transform="matrix(-.21595 0 0 .13708 374.02 218.682)"/><path d="M387.98 417.95l-11.66-81.6M276.41 44.955l88.253 1.665M318.04 164.84c0-1.665 4.995-29.972 4.995-29.972M284.74 44.955l-8.326 84.922" transform="matrix(-.21595 0 0 .13708 386.964 218.454)"/></g><path d="M549.21 538.58c0 136.98-111.05 248.03-248.03 248.03S53.15 675.56 53.15 538.58 164.2 290.55 301.18 290.55 549.21 401.6 549.21 538.58z" stroke="#006a00" stroke-width="6.25" fill="none" transform="matrix(.4783 0 0 .47891 228.554 -9.847)"/><g stroke-width="1pt"><path d="M502.439 222.633c14.925 12.727-2.956 25.453-11.195 25.453s-26.12-12.726-11.194-25.453c-3.731 12.727 11.194 15.909 11.194 22.273 0-6.364 14.926-9.545 11.195-22.273z" fill-rule="evenodd" fill="#006a00"/><path d="M336.61 432.28c35.433 124.02-53.149 106.3-53.149 141.73 0-35.433-88.583-17.717-53.15-141.73" stroke="#000" fill="none" transform="matrix(.21062 0 0 .1796 431.543 145)"/></g><g stroke-width="1pt"><path d="M362.044 115.794c14.283-13.446 24.938 5.755 24.028 13.954-.911 8.199-15.521 24.586-26.504 8.325 12.22 5.12 17.03-9.38 23.346-8.677-6.316-.703-7.824-15.908-20.87-13.602z" fill-rule="evenodd" fill="#006a00"/><path d="M336.61 432.28c35.433 124.02-53.149 106.3-53.149 141.73 0-35.433-88.583-17.717-53.15-141.73" stroke="#000" fill="none" transform="matrix(.02329 -.20959 .17827 .01986 277.145 177.761)"/></g><g stroke-width="1pt"><path d="M399.996 373.926c-10.344 16.674-25.577.867-26.805-7.29-1.228-8.157 8.676-27.758 23.469-14.876-13.125-1.798-14.043 13.454-20.328 14.402 6.284-.948 11.65 13.355 23.664 7.764z" fill-rule="evenodd" fill="#006a00"/><path d="M336.61 432.28c35.433 124.02-53.149 106.3-53.149 141.73 0-35.433-88.583-17.717-53.15-141.73" stroke="#000" fill="none" transform="matrix(.03139 .20853 -.17736 .02677 466.1 292.163)"/></g><g stroke-width="1pt"><path d="M241.94 255.338c-14.103-13.635 4.535-25.22 12.758-24.705 8.223.514 25.277 14.333 9.587 26.103 4.517-12.47-10.181-16.577-9.785-22.929-.396 6.351-15.491 8.595-12.56 21.53z" fill-rule="evenodd" fill="#006a00"/><path d="M336.61 432.28c35.433 124.02-53.149 106.3-53.149 141.73 0-35.433-88.583-17.717-53.15-141.73" stroke="#000" fill="none" transform="matrix(-.2102 -.01315 .01119 -.17924 307.862 337.248)"/></g><g stroke-width="1pt"><path d="M491.375 190.403c17.441 8.964 2.949 25.454-5.071 27.345-8.02 1.89-28.338-6.396-16.721-22.208-.72 13.244 14.536 12.917 15.993 19.112-1.456-6.194 12.344-12.716 5.8-24.249z" fill-rule="evenodd" fill="#006a00"/><path d="M336.61 432.28c35.433 124.02-53.149 106.3-53.149 141.73 0-35.433-88.583-17.717-53.15-141.73" stroke="#000" fill="none" transform="matrix(.20501 -.04832 .0411 .17481 404.6 131.101)"/></g><g stroke-width="1pt"><path d="M326.202 124.41c9.26-17.302 25.47-2.502 27.216 5.56 1.746 8.062-6.888 28.257-22.472 16.347 13.213.955 13.156-14.324 19.367-15.673-6.21 1.349-12.478-12.583-24.11-6.235z" fill-rule="evenodd" fill="#006a00"/><path d="M336.61 432.28c35.433 124.02-53.149 106.3-53.149 141.73 0-35.433-88.583-17.717-53.15-141.73" stroke="#000" fill="none" transform="matrix(-.04462 -.2061 .17529 -.03805 265.449 210.231)"/></g><g stroke-width="1pt"><path d="M438.042 359.189c-4.076 19.2-23.764 9.51-27.685 2.255-3.92-7.255-1.252-29.058 17.03-21.97-12.954 2.77-8.646 17.428-14.236 20.457 5.59-3.029 15.487 8.6 24.891-.742z" fill-rule="evenodd" fill="#006a00"/><path d="M336.61 432.28c35.433 124.02-53.149 106.3-53.149 141.73 0-35.433-88.583-17.717-53.15-141.73" stroke="#000" fill="none" transform="matrix(.10023 .18547 -.15775 .08547 472.495 259.813)"/></g><g stroke-width="1pt"><path d="M249.096 288.697c-17.708-8.424-3.727-25.352 4.23-27.487 7.959-2.136 28.521 5.522 17.394 21.684.314-13.26-14.925-12.465-16.57-18.612 1.645 6.146-11.95 13.089-5.054 24.415z" fill-rule="evenodd" fill="#006a00"/><path d="M336.61 432.28c35.433 124.02-53.149 106.3-53.149 141.73 0-35.433-88.583-17.717-53.15-141.73" stroke="#000" fill="none" transform="matrix(-.20343 .0546 -.04643 -.17347 337.646 345.308)"/></g><g stroke-width="1pt"><path d="M473.611 165.692c19.412 2.742 11.121 23.079 4.164 27.497-6.958 4.42-28.866 3.262-23.07-15.49 3.658 12.748 17.964 7.43 21.368 12.805-3.404-5.374 7.498-16.066-2.462-24.812z" fill-rule="evenodd" fill="#006a00"/><path d="M336.61 432.28c35.433 124.02-53.149 106.3-53.149 141.73 0-35.433-88.583-17.717-53.15-141.73" stroke="#000" fill="none" transform="matrix(.17785 -.11296 .09607 .15166 372.213 138.156)"/></g><g stroke-width="1pt"><path d="M295.512 141.997c4.869-19.014 24.138-8.515 27.755-1.103 3.617 7.412.046 29.086-17.927 21.244 13.059-2.23 9.362-17.054 15.073-19.848-5.71 2.794-15.118-9.237-24.9-.293z" fill-rule="evenodd" fill="#006a00"/><path d="M336.61 432.28c35.433 124.02-53.149 106.3-53.149 141.73 0-35.433-88.583-17.717-53.15-141.73" stroke="#000" fill="none" transform="matrix(-.09246 -.18948 .16116 -.07884 256.97 239.857)"/></g><g stroke-width="1pt"><path d="M465.258 338.912c1.569 19.566-20.063 15.909-25.89 10.076-5.826-5.832-9.485-27.49 10.058-25.925-11.626 6.36-3.318 19.175-7.811 23.676 4.493-4.5 17.295 3.815 23.643-7.827z" fill-rule="evenodd" fill="#006a00"/><path d="M336.61 432.28c35.433 124.02-53.149 106.3-53.149 141.73 0-35.433-88.583-17.717-53.15-141.73" stroke="#000" fill="none" transform="matrix(.14894 .1491 -.12681 .127 469.941 233.823)"/></g><g stroke-width="1pt"><path d="M262.314 316.518c-19.203-3.95-9.661-23.73-2.442-27.705 7.219-3.975 29.013-1.452 22.06 16.901-2.857-12.952-17.466-8.538-20.53-14.114 3.064 5.576-8.483 15.566.912 24.918z" fill-rule="evenodd" fill="#006a00"/><path d="M336.61 432.28c35.433 124.02-53.149 106.3-53.149 141.73 0-35.433-88.583-17.717-53.15-141.73" stroke="#000" fill="none" transform="matrix(-.18455 .10163 -.08644 -.15736 361.8 350.332)"/></g><g stroke-width="1pt"><path d="M447.846 142.81c19.452-2.45 16.777 19.351 11.22 25.442-5.556 6.091-27.001 10.727-26.32-8.89 6.87 11.341 19.282 2.453 23.975 6.745-4.693-4.291 3.028-17.471-8.875-23.297z" fill-rule="evenodd" fill="#006a00"/><path d="M336.61 432.28c35.433 124.02-53.149 106.3-53.149 141.73 0-35.433-88.583-17.717-53.15-141.73" stroke="#000" fill="none" transform="matrix(.14205 -.1557 .13243 .12112 342.783 142.863)"/></g><g stroke-width="1pt"><path d="M270.39 164.98c-.282-19.628 21.063-14.556 26.495-8.353 5.431 6.203 7.662 28.055-11.736 25.208 12.018-5.581 4.568-18.916 9.347-23.112-4.779 4.196-17.008-4.944-24.106 6.256z" fill-rule="evenodd" fill="#006a00"/><path d="M336.61 432.28c35.433 124.02-53.149 106.3-53.149 141.73 0-35.433-88.583-17.717-53.15-141.73" stroke="#000" fill="none" transform="matrix(-.13885 -.15857 .13487 -.1184 258.827 269.535)"/></g><g stroke-width="1pt"><path d="M483.694 311.268c6.134 18.644-15.75 20.2-22.785 15.907-7.037-4.291-15.694-24.475 3.666-27.568-9.8 8.925 1.293 19.417-2.014 24.852 3.307-5.434 17.707-.377 21.133-13.19z" fill-rule="evenodd" fill="#006a00"/><path d="M336.61 432.28c35.433 124.02-53.149 106.3-53.149 141.73 0-35.433-88.583-17.717-53.15-141.73" stroke="#000" fill="none" transform="matrix(.17987 .1097 -.09332 .15338 463.489 208.038)"/></g><g stroke-width="1pt"><path d="M283.945 341.222c-19.566 1.23-15.538-20.362-9.613-26.094 5.926-5.732 27.617-9.019 25.714 10.518-6.148-11.749-19.09-3.653-23.507-8.23 4.416 4.576-4.11 17.248 7.406 23.806z" fill-rule="evenodd" fill="#006a00"/><path d="M336.61 432.28c35.433 124.02-53.149 106.3-53.149 141.73 0-35.433-88.583-17.717-53.15-141.73" stroke="#000" fill="none" transform="matrix(-.15147 .14653 -.12463 -.12916 388.806 347.731)"/></g><g stroke-width="1pt"><path d="M421.07 125.363c18.603-6.194 20.217 15.712 15.95 22.769-4.266 7.057-24.4 15.784-27.544-3.592 8.942 9.787 19.39-1.35 24.827 1.945-5.437-3.295-.426-17.727-13.234-21.122z" fill-rule="evenodd" fill="#006a00"/><path d="M336.61 432.28c35.433 124.02-53.149 106.3-53.149 141.73 0-35.433-88.583-17.717-53.15-141.73" stroke="#000" fill="none" transform="matrix(.10906 -.1804 .15345 .093 318.026 145.89)"/></g><g stroke-width="1pt"><path d="M252.642 196.757c-6.852-18.391 14.954-20.796 22.151-16.781 7.198 4.015 16.633 23.846-2.593 27.69 9.446-9.3-2.046-19.352 1.047-24.912-3.093 5.56-17.678 1.066-20.605 14.003z" fill-rule="evenodd" fill="#006a00"/><path d="M336.61 432.28c35.433 124.02-53.149 106.3-53.149 141.73 0-35.433-88.583-17.717-53.15-141.73" stroke="#000" fill="none" transform="matrix(-.184 -.10263 .0873 -.15689 276.839 299.122)"/></g><g stroke-width="1pt"><path d="M496.635 287.41c8.218 17.822-13.345 21.866-20.824 18.406-7.48-3.46-18.38-22.523.5-27.808-8.718 9.987 3.498 19.143.832 24.92 2.666-5.776 17.548-2.396 19.492-15.518z" fill-rule="evenodd" fill="#006a00"/><path d="M336.61 432.28c35.433 124.02-53.149 106.3-53.149 141.73 0-35.433-88.583-17.717-53.15-141.73" stroke="#000" fill="none" transform="matrix(.1912 .08845 -.07523 .16303 464.8 187.162)"/></g><g stroke-width="1pt"><path d="M320.435 365.818c-18.015 7.742-21.468-13.95-17.81-21.341 3.657-7.393 22.984-17.787 27.748 1.254-9.734-8.997-19.207 2.982-24.902.157 5.695 2.825 1.917 17.629 14.964 19.93z" fill-rule="evenodd" fill="#006a00"/><path d="M336.61 432.28c35.433 124.02-53.149 106.3-53.149 141.73 0-35.433-88.583-17.717-53.15-141.73" stroke="#000" fill="none" transform="matrix(-.09349 .18897 -.16073 -.07971 421.383 336.668)"/></g><g stroke-width="1pt"><path d="M504.167 257.892c11.793 15.68-8.43 24.195-16.47 22.395-8.04-1.8-22.719-18.126-5.379-27.286-6.415 11.606 7.458 17.971 6.072 24.182 1.386-6.21 16.645-6.055 15.777-19.291z" fill-rule="evenodd" fill="#006a00"/><path d="M336.61 432.28c35.433 124.02-53.149 106.3-53.149 141.73 0-35.433-88.583-17.717-53.15-141.73" stroke="#000" fill="none" transform="matrix(.20554 .046 -.03913 .17527 451.895 166.641)"/></g><g stroke-width="1pt"><path d="M392.025 118.176c16.868-10.002 23.084 11.064 20.409 18.866-2.675 7.802-20.504 20.603-27.679 2.335 10.81 7.667 18.663-5.434 24.674-3.368-6.01-2.066-4.17-17.234-17.404-17.833z" fill-rule="evenodd" fill="#006a00"/><path d="M336.61 432.28c35.433 124.02-53.149 106.3-53.149 141.73 0-35.433-88.583-17.717-53.15-141.73" stroke="#000" fill="none" transform="matrix(.06839 -.19945 .16965 .05832 295.67 160.104)"/></g><g stroke-width="1pt"><path d="M357.465 376.692c-16.067 11.247-23.852-9.29-21.772-17.272 2.08-7.982 18.894-22.093 27.424-4.418-11.357-6.829-18.2 6.828-24.35 5.221 6.15 1.607 5.456 16.87 18.698 16.469z" fill-rule="evenodd" fill="#006a00"/><path d="M336.61 432.28c35.433 124.02-53.149 106.3-53.149 141.73 0-35.433-88.583-17.717-53.15-141.73" stroke="#000" fill="none" transform="matrix(-.05317 .20405 -.17355 -.04534 450.388 327.608)"/></g><g stroke-width="1pt"><path d="M243.966 224.172c-10.793-16.387 9.92-23.621 17.833-21.323 7.913 2.298 21.545 19.51 3.669 27.568 7.125-11.182-6.324-18.401-4.554-24.513-1.77 6.111-16.99 5.003-16.948 18.268z" fill-rule="evenodd" fill="#006a00"/><path d="M336.61 432.28c35.433 124.02-53.149 106.3-53.149 141.73 0-35.433-88.583-17.717-53.15-141.73" stroke="#000" fill="none" transform="matrix(-.20228 -.05875 .04997 -.17248 290.451 318.508)"/></g><g stroke="#000"><path d="M193.63 88.249c15.546 4.424 43.275 46.12 53.766 45.791 16.652-.481 83.233-77.561 72.564-88.252-7.399-8.246-67.939 41.192-71.852 44.126-.67-8.601-15.95-51.042-28.31-59.945-14.62-9.31-32.21-4.157-47.82-6.661-7.3-2.843-18.84-14.056-23.78-24.976 8.182-3.544 15.323-2.479 23.311-10.651 5.679-6.642 2.381-46.913.37-51.059-13.291-14.268 5.429-7.327-39.024-9.082-64.268-2.446-75.878 49.582-31.653 70.792C97.74 14.26 86.983 17.926 78.263 19.978c-8.777.106-38.826-.763-55.546 12.489-33.403 24.552-8.925 30.904-15.352 35.8-7.173 5.645-17.868 19.827-21.888 28.307-10.472 4.996-99.485-4.995-116.5-1.664-16.42.965-56.467 15.818-73.15 26.64 3.565 14.143 241.51-7.602 249.27-2.496 5.946 3.345-2.705 51.237 2.011 54.949 1.66 9.063 116.54 5.829 125.6 5.829 7.557-18.86 15.39-81.558 20.925-91.583z" fill-rule="evenodd" transform="matrix(.13277 0 0 .21128 417.097 193.746)" stroke-width="4.702" fill="#520900"/><path d="M174.9-96.568c1.543 25.457-7.118 3.304-38.369 3.304-60.56-5.035-39.286 99.196-39.286 67.025-26.227-13.71-44.834-100.29 29.616-96.93 23.538 0 44.958 7.857 48.044 26.602z" fill-rule="evenodd" transform="matrix(.15932 0 0 .14823 413.364 194.634)" stroke-width="5.125"/><path d="M387.98 96.574c0 1.68-.172 7.957-.833 11.656-.445 3.74-1.539 8.077-2.498 10.823-.342 4.452-2.091 5.174-2.497 9.991-1.544 2.27-2.209 5.944-2.498 9.991 0 4.27.686 7.558.833 11.656.481 3.56 1.612 6.366 1.665 10.823 0 4.365-.005 7.549-1.665 9.991v5.828" transform="matrix(.20875 0 0 .21128 343.51 187.15)" stroke-width="3.75" fill="none"/><path d="M383.81 76.592c.58 0 1.029 20.129 5.828 24.978 1.039 3.212 4.574 7.343 5.828 9.99 1.672 2.459 3.981 5.368 8.326 6.661h11.656c4.634 0 7.473.055 10.823-1.665 1.485-.8 2.531-1.846 3.33-3.331M442.09 115.72h.832c-2.327 0-1.092-.104 3.331 1.665 1.725 2.537 3.768 3.625 6.66 4.996 2.982 1.467 6.391 1.665 10.823 1.665 4.198-.354 6.74-1.686 9.159-3.331 4.043-1.308 4.815-2.935 5.828-7.493v-11.656c-.478-3.53-1.384-6.372-2.498-9.158-.419-1.258-.833-.705-.833-2.497M510.36 121.55c-.425 0-2.65 2.575-4.163 4.995-2.568.918-3.233 3.716-4.162 5.828-.669 2.675-1.666 2.859-1.666 6.661-1.677 3.708-2.204 7.007-2.497 10.823l2.497-10.823c-1.677 3.708-2.204 7.007-2.497 10.823M461.24 54.946h-.833c2.249 0 1.099-.053-3.33.833-1.817 2.27-4.807 4.305-7.493 5.827-2.977 1.825-5.367 4.01-8.326 4.996l8.326-4.996c-2.977 1.825-5.367 4.01-8.326 4.996M402.13 51.615h.833c-2.248 0-1.105-.054 3.33.833 2.936 1.39 4.752 2.89 7.493 4.995 1.291 1.935 3.257 2.305 4.163 5.828 1.574.847 2.124 1.67 2.498 4.163M427.11 29.968h4.163c4.529 0 6.733.681 10.824.833 3.538-.425 4.382-1.738 7.493-2.498M442.93 133.21c.139.661 1.652 4.256 2.498 5.828 1.517 2.512 3.538 4.914 4.163 8.326.968 2.905 1.526 6.23 1.665 9.99.761 3.503 1.264 6.62-.833 9.159-.898 3.292-2.57 5.692-4.162 9.158-1.111 0-.833-.278-.833.833M416.28 134.87v.833c0-2.248.055-1.105-.832 3.33-1.147 4.013-2.15 7.388-4.163 9.991-1.098 3.294-2.326 4.504-2.498 9.158.662 1.544.833 3.263.833 5.828M412.12 169.01v4.163c.908 1.211.55 1.294 1.665 1.665M343.02 128.21v.832c0-2.327-.258-.936 4.163.833 3.572.638 7.937 1.037 10.823 1.665 2.672 1.312 5.265 3.48 7.493 4.995 1.994 1.728 4.819 3.48 7.494 4.996 3.004 1.502 4.325 2.823 5.828 5.828.907 1.21.549 1.293 1.665 1.665" transform="matrix(.20875 0 0 .21128 343.51 187.15)" stroke-width="3.75" fill="none"/><path d="M423.78-16.655c.123-.184 2.467-1.914 4.996-2.498 1.805-1.354 4.812-.74 6.66 0" transform="matrix(.32609 0 0 .21128 291.821 187.893)" stroke-width="3" fill="none"/><path d="M445.42-19.153h.833c-2.248 0-1.106.054 3.33-.833 3.481-1.16 7.672-.832 11.656-.832 1.174.391.832.242.832 1.665M444.59-7.497v.833c0-2.327-.103-1.091 1.666 3.33.643 2.962 1.76 7.05.832 9.158-2.184 0-2.859-.274-4.163-.833" transform="matrix(.25362 0 0 .21128 322.53 187.893)" stroke-width="3.402" fill="none"/><path d="M371.33-24.981c0 3.219-4.1 5.828-9.158 5.828s-9.158-2.61-9.158-5.828 4.1-5.828 9.158-5.828 9.158 2.61 9.158 5.828z" fill-rule="evenodd" transform="matrix(.24986 -.03625 .02486 .11894 346.164 206.986)" stroke-width="4.501"/><path d="M371.33-24.981c0 3.219-4.1 5.828-9.158 5.828s-9.158-2.61-9.158-5.828 4.1-5.828 9.158-5.828 9.158 2.61 9.158 5.828z" fill-rule="evenodd" transform="matrix(.18083 -.0238 .018 .07811 366.977 195.038)" stroke-width="6.528"/><path d="M371.33-24.981c0 3.219-4.1 5.828-9.158 5.828s-9.158-2.61-9.158-5.828 4.1-5.828 9.158-5.828 9.158 2.61 9.158 5.828z" fill-rule="evenodd" transform="matrix(.18083 -.0238 .018 .07811 372.47 194.51)" stroke-width="6.528"/><path d="M412.95 113.64c0 2.07-1.864 3.747-4.163 3.747-2.299 0-4.163-1.678-4.163-3.747s1.864-3.747 4.163-3.747c2.3 0 4.163 1.678 4.163 3.747zM469.57 119.89c0 1.38-1.305 2.498-2.914 2.498-1.61 0-2.914-1.119-2.914-2.498s1.305-2.498 2.914-2.498c1.61 0 2.914 1.119 2.914 2.498z" fill-rule="evenodd" transform="matrix(.20875 0 0 .21128 343.51 187.15)" stroke-width="3.75"/><path d="M447.09 31.634v.833c0-2.796.197-1.03-4.163 3.33-3.724 1.785-5.164 3.667-6.66 6.66-1.742 3.85-2.342 6.613-2.498 10.824v6.66M419.61 30.801c.577 0 1.477 2.273 2.498 4.995 1.856 2.189 3.037 5.351 3.33 9.159 0 4.518.78 6.453.833 10.824v3.33M504.54 129.04c0 .481-2.6 1.455-4.163 3.33-3.161.428-5.964.833-9.99.833-.611-.916-1.836-1.217-3.331-1.665" transform="matrix(.20875 0 0 .21128 343.51 187.15)" stroke-width="3.75" fill="none"/></g><g fill-rule="evenodd" stroke="#000" stroke-width="3.75" fill="#fff"><path d="M276.41 36.63l88.253 1.665v11.656s8.325 14.986 13.321 48.29c4.995 33.302 9.991 158.19 9.991 158.19l21.646 141.54s-13.321 21.646-23.312 19.981c-9.99-1.666-39.963-13.32-39.963-14.987 0-1.665-1.665-79.926-4.995-133.21-3.331-53.285-9.991-81.592-24.977-104.9-19.982 48.288-21.647 98.243-19.982 98.243s1.665 39.963 3.33 69.936c1.666 29.972-1.665 71.601-1.665 71.601l-58.28-3.33s1.665-36.634 3.331-64.94c1.665-28.308 6.744-41.626 8.326-73.267 1.748-34.963 4.202-53.319 6.66-109.9 3.238-45.739 14.687-75.258 17.9-103.24.871-7.133-.416-12.488.416-13.32z" transform="matrix(.21595 0 0 .13708 362.915 219.704)"/><path d="M316.38 166.51s-8.326-13.321-11.656-36.633-3.33-28.307-3.33-28.307M298.06 233.12l-9.99 39.963" transform="matrix(.21595 0 0 .13708 362.915 219.704)"/><path d="M276.41 223.12l11.657 54.949" transform="matrix(.21595 0 0 .13708 375.86 219.932)"/><path d="M387.98 417.95l-11.66-81.6M276.41 44.955l88.253 1.665M318.04 164.84c0-1.665 4.995-29.972 4.995-29.972M284.74 44.955l-8.326 84.922" transform="matrix(.21595 0 0 .13708 362.915 219.704)"/></g><path d="M349.68 188.16c0 13.794-7.082 24.977-15.819 24.977-8.736 0-15.819-11.183-15.819-24.977s7.082-24.977 15.819-24.977c8.736 0 15.819 11.183 15.819 24.977z" fill-rule="evenodd" transform="matrix(.3481 0 0 .33958 189.228 212.87)" stroke="#000" stroke-width="2.5" fill="#ffc600"/><g stroke-width="1pt"><g fill-rule="evenodd" stroke="#000"><path d="M212.6 892.91s53.15-17.716 70.867-17.716c17.716 0 17.716 17.716 19.135 18.212l-1.419 34.937H212.6V892.91z" transform="matrix(.2104 0 0 .249 289.382 93.4)" fill="#00cfe6"/><path d="M265.75 892.91s0-17.716 17.717-17.716c17.716 0 35.433-.496 53.149-.001v53.15H265.75V892.91z" transform="matrix(.2104 0 0 -.249 296.837 560.12)" fill="#00cfe6"/><path d="M212.6 892.91s53.15-17.716 70.867-17.716c17.716 0 17.716 17.716 19.135 18.212l-1.419 34.937H212.6V892.91z" transform="matrix(-.2104 0 0 .249 468.299 93.454)" fill="#00cfe6"/><path d="M265.75 892.91s0-17.716 17.717-17.716c17.716 0 35.433-.496 53.149-.001v53.15H265.75V892.91z" transform="matrix(-.2104 0 0 -.249 460.845 560.17)" fill="#00cfe6"/><path d="M249.45 875.2s0-17.717-17.716-17.717h53.15L249.45 875.2z" transform="matrix(-.2104 0 0 -.249 449.96 555.763)" fill="#fff"/><path d="M159.45 892.91l106.3 53.15s-36.039 33.299-70.866 35.433c-17.717 0-35.433-35.433-35.433-35.433v-53.15z" transform="matrix(-.24547 0 0 .249 473.891 93.453)" fill="#00cfe6"/><path d="M249.45 892.91c.71-8.858-2.214-35.434-19.931-35.434h55.364c17.717 0 35.434 17.717 35.434 35.434l-1.419 35.432-69.448.001V892.91z" transform="matrix(-.2104 0 0 .249 457.415 97.865)" fill="#fff"/><path d="M249.45 875.2s0-17.717-17.716-17.717h53.15L249.45 875.2z" transform="matrix(.2104 0 0 -.249 307.72 555.713)" fill="#fff"/><path d="M159.45 892.91l106.3 53.15s-36.039 33.299-70.866 35.433c-17.717 0-35.433-35.433-35.433-35.433v-53.15z" transform="matrix(.24547 0 0 .249 283.79 93.398)" fill="#00cfe6"/><path d="M249.45 892.91c.71-8.858-2.214-35.434-19.931-35.434h55.364c17.717 0 35.434 17.717 35.434 35.434l-1.419 35.432-69.448.001V892.91z" transform="matrix(.2104 0 0 .249 300.266 97.81)" fill="#fff"/><path d="M88.802 891.9c-.11 1.012 17.607-34.421 53.04-34.421s177.16 70.866 247.92 70.866c70.975 0 196.65-72.56 230.42-70.866 33.773 1.694 53.521 37.161 53.149 35.433-.373-1.728-17.716 53.15-17.716 53.15 0-17.716-17.717-35.433-35.433-35.433-17.717 0-106.3 70.866-230.42 70.866-123.91 0-212.49-70.866-230.21-70.866-17.717 0-35.433 17.716-35.433 35.433l-35.318-54.16z" transform="matrix(.2104 0 0 .249 296.814 93.454)" fill="#fff"/></g><path d="M415.924 324.256l-3.259-9.946 3.336-1.531.385 1.174-2.726 1.25.998 3.047 2.553-1.171.381 1.165-2.552 1.172 1.109 3.385 2.833-1.3.385 1.175-3.443 1.58zM401.934 330.769l-3.259-9.946.61-.28 2.874 8.771 2.273-1.043.385 1.175-2.883 1.323zM397.7 332.757l-3.259-9.946 3.113-1.428.384 1.174-2.501 1.148 1.008 3.079 2.165-.994.385 1.175-2.165.994 1.48 4.518-.61.28zM360.216 332.887l2.149-10.258 1.256.368-.028 7.7c-.003.716-.009 1.254-.016 1.607.15-.352.377-.868.68-1.544l3.005-6.695 1.124.33-2.15 10.258-.804-.236 1.799-8.586-3.632 8.048-.754-.22.005-9.27-1.83 8.734-.804-.236zM359.849 321.64l.794.39-1.978 5.639c-.343.98-.685 1.725-1.024 2.237-.338.51-.75.858-1.236 1.047-.48.185-1.01.134-1.59-.15-.561-.277-.967-.657-1.214-1.15-.247-.49-.342-1.071-.287-1.741.057-.674.267-1.528.63-2.562l1.978-5.64.794.39-1.975 5.633c-.297.848-.47 1.498-.515 1.948-.042.447.017.837.175 1.17.162.334.413.586.754.753.584.287 1.075.277 1.475-.031.4-.31.813-1.075 1.243-2.301l1.976-5.633zM343.864 314.838l.595.325-2.186 5.594c-.38.972-.733 1.716-1.06 2.235-.325.516-.692.88-1.101 1.095-.405.212-.823.197-1.256-.04a1.726 1.726 0 0 1-.85-1.033c-.145-.458-.16-1.014-.043-1.667.118-.657.377-1.498.778-2.524l2.185-5.593.595.325-2.184 5.587c-.328.84-.535 1.482-.62 1.921-.081.436-.076.809.015 1.122.094.312.268.54.523.679.437.24.832.197 1.185-.128.353-.326.766-1.096 1.24-2.312l2.184-5.586zM333.256 316.575l.602.201c-.163.5-.258.932-.284 1.299-.023.36.03.694.159 1 .13.3.324.52.579.66a.965.965 0 0 0 .685.112c.23-.05.437-.178.618-.383.186-.209.338-.463.454-.762.12-.305.182-.592.188-.86a1.66 1.66 0 0 0-.18-.796c-.081-.167-.287-.469-.617-.905-.328-.443-.538-.802-.63-1.083a2.907 2.907 0 0 1-.129-1.162c.036-.417.142-.85.315-1.293.192-.49.434-.91.728-1.262.296-.356.61-.577.943-.662.333-.085.65-.044.953.121.333.182.58.459.743.83.166.37.229.816.19 1.34a6.055 6.055 0 0 1-.375 1.646l-.606-.22c.208-.629.285-1.147.23-1.557-.054-.41-.254-.707-.599-.896-.36-.197-.677-.198-.955-.003-.273.193-.488.488-.645.89-.135.347-.19.666-.16.953.026.289.234.682.622 1.186.393.497.646.883.756 1.157.16.403.224.839.193 1.307-.031.466-.147.957-.35 1.477-.202.515-.46.964-.776 1.347-.314.378-.65.625-1.007.74-.353.11-.69.077-1.01-.099a1.927 1.927 0 0 1-.874-.942c-.174-.405-.24-.905-.198-1.502.046-.6.192-1.225.437-1.879zM419.134 316.693c-.54-1.649-.758-3.036-.651-4.155.105-1.126.482-1.837 1.132-2.136.426-.195.882-.152 1.368.13s.946.775 1.383 1.481c.436.7.817 1.545 1.144 2.541.33 1.008.531 1.955.603 2.838.071.88.002 1.61-.209 2.179-.213.565-.52.939-.921 1.122-.435.2-.896.152-1.387-.143-.49-.294-.95-.793-1.383-1.494s-.793-1.49-1.079-2.363zm.637-.268c.392 1.198.851 2.074 1.375 2.63.526.552 1.014.723 1.466.516.46-.21.723-.732.79-1.567.07-.83-.105-1.888-.524-3.168-.266-.81-.561-1.486-.886-2.03-.324-.548-.663-.93-1.017-1.147-.352-.223-.681-.265-.986-.126-.432.199-.699.691-.801 1.476-.102.781.093 1.92.583 3.416zM410.564 326.6l-3.258-9.946 2.045-.939c.411-.188.754-.241 1.027-.16.272.08.545.315.822.71.276.393.503.862.683 1.41.231.706.32 1.349.267 1.932-.054.58-.28 1.037-.68 1.372.216.093.393.201.53.325.294.271.608.635.94 1.092l1.69 2.339-.768.352-1.288-1.789a24.095 24.095 0 0 0-.89-1.17c-.22-.263-.396-.438-.53-.52a.766.766 0 0 0-.363-.139c-.08 0-.199.035-.356.108l-.708.324 1.448 4.419-.611.28zm-1.21-5.836l1.313-.602c.279-.128.477-.291.594-.484.116-.2.17-.452.164-.762a3.357 3.357 0 0 0-.172-.952c-.153-.469-.36-.82-.619-1.05-.256-.231-.556-.268-.898-.111l-1.46.67 1.078 3.29zM403.59 324.137c-.54-1.649-.76-3.036-.653-4.155.105-1.125.483-1.837 1.133-2.135.426-.195.882-.153 1.367.13.486.281.947.774 1.384 1.48.436.7.817 1.546 1.143 2.542.33 1.008.532 1.954.604 2.837.071.88.002 1.61-.21 2.18-.213.565-.52.938-.92 1.122-.435.2-.897.152-1.387-.144-.49-.293-.951-.792-1.383-1.494a11.03 11.03 0 0 1-1.078-2.363zm.635-.268c.393 1.198.852 2.075 1.376 2.63.526.552 1.014.723 1.465.517.46-.211.724-.733.79-1.568.07-.83-.104-1.888-.523-3.167-.266-.81-.561-1.487-.886-2.03-.324-.548-.663-.93-1.017-1.148-.353-.223-.682-.265-.986-.125-.432.198-.699.69-.801 1.476-.102.78.092 1.92.582 3.415zM368.867 335.137l1.226-10.469 2.415.396c.492.081.873.253 1.144.516.274.259.468.622.583 1.092.12.467.15.939.094 1.42a3.479 3.479 0 0 1-.372 1.227 2.084 2.084 0 0 1-.789.847c.368.25.63.614.785 1.095.158.482.202 1.03.13 1.638a4.616 4.616 0 0 1-.353 1.34c-.175.397-.37.696-.584.893-.214.199-.47.333-.767.404-.295.069-.648.07-1.058.004l-2.454-.403zm1.562-5.93l1.393.228c.378.062.653.064.826.013a.96.96 0 0 0 .548-.443c.14-.224.232-.52.275-.887.04-.347.025-.66-.047-.938-.071-.284-.196-.488-.376-.615-.178-.13-.5-.234-.962-.31l-1.286-.211-.37 3.162zm-.566 4.833l1.603.263c.275.045.47.06.586.046.203-.026.378-.095.525-.205.148-.113.278-.288.392-.526.116-.243.193-.531.232-.864a2.62 2.62 0 0 0-.066-1.044c-.089-.311-.236-.542-.442-.69-.203-.156-.51-.266-.92-.333l-1.488-.244-.422 3.597zM376.438 336.415v-10.57h2.882c.579 0 1.02.097 1.321.289.301.188.543.521.723 1.002.18.482.27 1.011.27 1.593 0 .75-.149 1.382-.448 1.898-.298.513-.759.838-1.383.979.228.178.4.353.52.526.25.375.488.843.712 1.406l1.131 2.877h-1.081l-.86-2.199a23.565 23.565 0 0 0-.621-1.458c-.163-.335-.31-.572-.439-.705a1.116 1.116 0 0 0-.39-.282c-.098-.034-.258-.051-.48-.051h-.997v4.695h-.86zm.86-5.904h1.85c.392 0 .7-.067.921-.195.222-.136.39-.346.506-.634a2.59 2.59 0 0 0 .172-.953c0-.498-.112-.91-.336-1.232-.222-.322-.574-.484-1.055-.484h-2.058v3.498zM383.967 336.134l.9-10.922.913-.191 4.177 9.857-.965.203-1.219-2.997-2.675.56-.231 3.301-.9.189zm1.207-4.66l2.17-.455-1.1-2.741a41.75 41.75 0 0 1-.777-2.065c.019.685.003 1.373-.047 2.06l-.246 3.2zM343.395 325.786l3.783-9.682 1.685.922c.343.188.579.437.708.749.132.307.177.697.134 1.17-.04.47-.147.927-.321 1.372-.162.414-.366.774-.613 1.083s-.52.517-.818.628c.204.32.299.726.282 1.219-.014.494-.133 1.025-.352 1.588-.177.452-.387.85-.63 1.194-.24.338-.466.58-.68.718-.213.14-.44.211-.68.211-.238 0-.5-.078-.786-.235l-1.712-.937zm2.788-5.29l.97.532c.264.144.468.21.61.2.19-.015.367-.116.53-.298.165-.181.314-.443.447-.782.125-.32.2-.623.223-.903.025-.286-.012-.509-.11-.67-.097-.164-.307-.335-.63-.512l-.897-.491-1.143 2.925zm-1.748 4.471l1.119.612c.192.105.333.163.422.177a.746.746 0 0 0 .446-.077c.14-.074.286-.211.436-.412.152-.205.289-.462.409-.77.141-.361.22-.696.238-1.008.019-.316-.027-.568-.14-.756-.107-.194-.304-.368-.59-.524l-1.04-.569-1.3 3.327z"/></g><g><path d="M212.6 432.28v106.3c0 70.866 88.583 106.3 88.583 106.3s88.583-35.433 88.583-106.3v-106.3h-177.17z" fill-rule="evenodd" transform="matrix(.42082 0 0 .39634 249.17 46.689)" stroke="#000" stroke-width="1pt" fill="#00daec"/><path d="M212.6 432.28v106.3a83.104 83.104 0 0 0 3.806 24.914l84.777-42.631V432.28H212.6z" fill-rule="evenodd" transform="matrix(.42082 0 0 .39634 249.17 46.689)" stroke="#000" stroke-width="1pt" fill="#fff"/><path d="M212.6 432.28v106.3a83.104 83.104 0 0 0 3.806 24.914l84.777-42.631V432.28H212.6z" fill-rule="evenodd" transform="matrix(-.42082 0 0 .39634 502.661 46.689)" stroke="#000" stroke-width="1pt" fill="#fff300"/><g fill-rule="evenodd" transform="matrix(.42082 0 0 .39634 249.17 46.689)" stroke="#000" stroke-width="1.25"><path d="M244.77 87.419c7.322-5.947 11.157-3.718 17.649 3.102 9.323 9.814 41.318 58.854 46.313 63.017s4.241-6.417 10.344-1.387c3.032 3.727-10.437 17.026-13.737 14.57-6.411-5.02 3.915-5.375-.354-9.644-4.925-5.133-51.215-40.497-60.282-50.57-5.92-6.578-6.314-13.97.067-19.088z" transform="matrix(.63945 .23742 .1423 .70223 58.901 338.88)" fill="#923d09"/><rect ry="1.293" rx="2.606" transform="matrix(.75556 .65508 -.58585 .81042 0 0)" height="66.045" width="5.212" y="181.35" x="495.52" fill="#af8000"/><path transform="matrix(.83117 .55602 -.64108 .76747 0 0)" fill="#b0b0d4" d="M497.3 228.63h29.375v18.868H497.3z"/></g><g stroke="#000" fill-rule="evenodd" transform="matrix(.42082 0 0 .39634 249.17 46.689)"><path d="M385.112 528.567c4.885-2.105-27.333-35.603-33.785-51.842-6.452-16.24-6.108-16.717-8.617-24.322l-3.151 1.36c.806 4.93 15.87 43.87 30.736 64.151 4.198 5.818.63 16.77 5.36 14.73l9.457-4.077z" stroke-width="1pt" fill="#af8000"/><path d="M341.548 453.549l-25.872 2.486s-4.83 4.107-2.573 12.665c2.255 8.558 8.965 11.892 8.965 11.892l22.668-17.557-3.188-9.486z" stroke-width="1pt" fill="gray"/><rect ry="3.532" rx="3.532" transform="rotate(-18.579)" height="19.428" width="7.064" y="534.62" x="175.71" stroke-width="1pt" fill="gray"/><path d="M239.61 381.52c0 7.316-1.581 13.246-3.532 13.246s-3.533-5.93-3.533-13.246c0-7.316 1.582-13.246 3.533-13.246s3.532 5.93 3.532 13.246z" transform="matrix(.74465 -.71591 .63468 .39346 -105.9 523.83)" stroke-width="1pt" fill="#cf0000"/><path d="M239.61 381.52c0 7.316-1.581 13.246-3.532 13.246s-3.533-5.93-3.533-13.246c0-7.316 1.582-13.246 3.533-13.246s3.532 5.93 3.532 13.246z" transform="matrix(-.97804 .31097 .02748 .7554 595.47 104.78)" stroke-width="1pt" fill="#cf0000"/><path transform="matrix(.85897 -.51203 .49936 .86639 0 0)" stroke-width="1.153" fill="#b0b0d4" d="M15.073 596.25h78.868v17.796H15.073z"/></g><path d="M231.36 591.4l8.83-7.065s1.767 8.831 7.065 8.831 8.831-7.653 8.831-7.653 0 7.653 5.887 7.653 10.597-7.653 10.597-7.064c0 .588.588 7.064 5.298 7.064s10.597-6.476 10.597-6.476.589 7.654 5.887 7.065c5.299-.589 7.065-8.242 7.653-7.653.589.588 4.121 7.653 8.242 7.064s10.009-6.476 10.009-6.476 1.177 7.065 5.887 7.065c4.709 0 6.476-6.476 6.476-6.476s2.354 5.298 6.475 5.298 10.597-5.887 10.597-5.887" transform="matrix(.40198 0 0 .39634 259.724 53.456)" stroke="#0072ff" stroke-width="1pt" fill="none"/><path d="M231.95 591.4c3.139-1.374 5.69.196 9.418-7.654 0 4.121 2.945 9.42 8.243 9.42s8.831-7.653 8.831-7.653 0 7.653 5.887 7.653 10.597-7.653 10.597-7.064c0 .588.588 7.064 5.298 7.064s10.597-6.476 10.597-6.476.589 7.654 5.887 7.065c5.299-.589 7.065-8.242 7.653-7.653.589.588 4.121 7.653 8.242 7.064 2.943-.589 10.009-7.065 10.009-7.065" transform="matrix(.42082 0 0 .39634 260.566 57.656)" stroke="#0072ff" stroke-width="1pt" fill="none"/><g fill-rule="evenodd"><path d="M305.54 350.62v18.839h14.717l-5.298-18.839h-9.419z" transform="matrix(.3324 0 0 .29557 285.894 167.701)" stroke="#000" stroke-width="1pt" fill="#fff"/><path d="M394.109 274.293c-.196.174-7.828 3.828-17.808 3.828s-13.893-1.044-14.872-1.74c-.978-.696-2.152-2.088-3.326-2.088-1.175 0-2.153.87-2.153.87s1.957.87 3.327 1.914c1.37 1.044 1.76 2.958 1.76 2.958l32.29.348s-.197-1.914-.197-2.958 1.175-2.61.979-3.132z"/><path d="M365.932 261.938h.782v16.183h-.782zM376.498 259.848h.783v18.445h-.783zM386.87 262.981h.782v15.139h-.783z"/><path stroke="#000" stroke-width="1.024" fill="#fff" d="M299.07 342.37h18.839v8.831H299.07z" transform="matrix(.3324 0 0 .29557 284.524 162.829)"/><path stroke="#000" stroke-width="1.101" fill="#fff" d="M297.89 350.61h21.782v8.831H297.89z" transform="matrix(.3324 0 0 .29557 284.524 162.829)"/><path stroke="#000" stroke-width="1.159" fill="#fff" d="M296.71 358.86h24.137v8.831H296.71z" transform="matrix(.3324 0 0 .29557 284.524 162.829)"/><path stroke="#000" stroke-width="1.372" fill="#fff" d="M266.17 334.72h23.837v12.527H266.17z" transform="matrix(.3324 0 0 .29557 284.524 162.829)"/><path stroke="#000" stroke-width="1.475" fill="#fff" d="M264.68 346.41h27.561v12.527H264.68z" transform="matrix(.3324 0 0 .29557 284.524 162.829)"/><path stroke="#000" stroke-width="1.553" fill="#fff" d="M263.19 358.1h30.541v12.527H263.19z" transform="matrix(.3324 0 0 .29557 284.524 162.829)"/><path stroke="#000" stroke-width="1.312" fill="#fff" d="M260.21 368.28h36.5v15.307h-36.5z" transform="matrix(.3324 0 0 .29557 284.524 162.829)"/><path stroke="#000" stroke-width="1.017" fill="#fff" d="M238.25 342.37h15.763v10.414H238.25z" transform="matrix(.3324 0 0 .29557 284.524 162.829)"/><path stroke="#000" stroke-width="1.094" fill="#fff" d="M237.26 352.09h18.226v10.414H237.26z" transform="matrix(.3324 0 0 .29557 284.524 162.829)"/><path stroke="#000" stroke-width="1.151" fill="#fff" d="M236.28 361.81h20.197v10.414H236.28z" transform="matrix(.3324 0 0 .29557 284.524 162.829)"/><path stroke="#000" stroke-width=".973" fill="#fff" d="M234.31 370.27h24.137v12.725H234.31z" transform="matrix(.3324 0 0 .29557 284.524 162.829)"/><path d="M220 377.51h9.876l10.597-33.374L220 377.51z" stroke="#000" stroke-width="1.017" fill="#fff" transform="matrix(.3324 0 0 .29557 284.524 162.829)"/><path d="M366.109 262.116l.723.317-9.496 13.072-.723-.318z"/></g><path d="M231.36 591.4l8.83-7.065s1.767 8.831 7.065 8.831 8.831-7.653 8.831-7.653 0 7.653 5.887 7.653 10.597-7.653 10.597-7.064c0 .588.588 7.064 5.298 7.064s10.597-6.476 10.597-6.476.589 7.654 5.887 7.065c5.299-.589 7.065-8.242 7.653-7.653.589.588 4.121 7.653 8.242 7.064s10.009-6.476 10.009-6.476 1.177 7.065 5.887 7.065c4.709 0 6.476-6.476 6.476-6.476s2.354 5.298 6.475 5.298 7.065-7.064 7.065-7.064 1.177 6.476 4.121 6.476c2.943 0 6.476-6.476 6.476-6.476s1.177 8.242 4.121 7.653c2.943-.589 4.121-8.242 4.71-7.653.588.589 4.709 7.064 4.12 7.064" transform="matrix(.39755 0 0 .39634 256.288 48.556)" stroke="#0072ff" stroke-width="1pt" fill="none"/></g></g></svg>