<svg xmlns="http://www.w3.org/2000/svg" height="512" width="512"><defs><clipPath id="a"><path fill-opacity=".67" d="M.182 3.025h512v512h-512z"/></clipPath></defs><g clip-path="url(#a)" transform="translate(-.182 -3.025)"><path fill="#fff" d="M81.319 3.025h362.276v512H81.319z"/><path fill="#bf0a30" d="M-99.818 3.025H81.32v512H-99.818zM443.595 3.025h181.138v512H443.595zM135.49 250.44l-14.067 4.808 65.456 57.446c4.952 14.764-1.718 19.116-5.968 26.86l71.06-9.02-1.851 71.512 14.718-.423-3.21-70.918 71.13 8.432c-4.402-9.297-8.32-14.233-4.247-29.098l65.413-54.425-11.447-4.144c-9.36-7.222 4.044-34.784 6.066-52.178 0 0-38.195 13.135-40.698 6.262l-9.727-18.685-34.747 38.172c-3.797.91-5.414-.602-6.305-3.809l16.053-79.766-25.419 14.297c-2.128.91-4.256.125-5.658-2.355l-24.445-49.073-25.21 50.952c-1.9 1.826-3.802 2.037-5.38.796l-24.205-13.578 14.53 79.143c-1.156 3.142-3.924 4.026-7.18 2.325l-33.216-37.737c-4.345 6.962-7.29 18.336-13.033 20.885-5.744 2.387-24.98-4.823-37.873-7.637 4.404 15.895 18.176 42.302 9.461 50.957z"/></g></svg>