<svg xmlns="http://www.w3.org/2000/svg" height="512" width="512"><path fill="#006" d="M0 0h512v512H0z"/><g stroke-width="1pt"><path d="M0 0v20.46L325.081 183H366v-20.459L40.919.001H0zm366 0v20.46L40.919 183H0v-20.46L325.081 0H366z" fill="#fff"/><path d="M152.5 0v183h61V0h-61zM0 61v61h366V61H0z" fill="#fff"/><path d="M0 73.2v36.6h366V73.2H0zM164.7 0v183h36.6V0h-36.6zM0 183l122-61h27.28l-122 61H0zM0 0l122 61H94.72L0 13.64V0zm216.72 61l122-61H366L244 61h-27.28zM366 183l-122-61h27.28L366 169.36V183z" fill="#c00"/></g><g fill-rule="evenodd" fill="#fff"><path d="M336.822 250.103l5.71-18.307-15.39-11.693 19.39-.247 6.46-18.053 6.27 18.151 19.392.532-15.516 11.463 5.522 18.39-15.86-11.068zM382.506 253.7l11.433-15.302-10.632-16.252 18.349 6.364 12.055-14.81-.095 19.233 18.093 7.099-18.408 5.52-.879 19.203-11.28-15.822zM293.076 265.378l-.762-19.185-18.391-5.694 18.154-6.914.03-19.206 11.976 14.91 18.416-6.182-10.753 16.129 11.353 15.393-18.624-4.945zM260.88 294.564l-8.053-17.376-19.127 2.004 14.078-13.528-7.332-17.707 16.748 9.017 14.6-12.957-3.728 19.1 16.358 9.707-19.054 2.786zM246.181 336.653l-14.619-12.198-16.433 10.127 7.001-18.342-14.107-12.81 18.942.864 7.714-18.054 4.704 18.877 18.881 1.657-16.037 10.802zM245.831 383.933l-18.196-5.29-11.105 15.923-.771-19.654-17.968-6.058 17.717-6.852-.005-19.677 11.72 15.42 17.973-6.1-10.475 16.382zM267.137 423.876l-18.75 2.63-3.804 19.12-8.545-17.658-18.848 1.834 13.469-13.537-7.854-17.993 16.87 9.292 14.002-12.955-3.045 19.281zM300.099 455.57l-16.703 9.035 2.938 19.275-14.03-13.578-17.065 8.321 8.033-17.421-13.495-14.136 18.995 2.812 8.732-17.062 3.705 19.162zM340.334 461.829l-9.115 16.828 12.85 14.509-19.066-3.588-9.802 16.432-2.665-19.042-18.92-4.351 17.42-8.18-1.886-19.128 13.432 13.989zM385.52 454.881l-.568 19.193 17.952 6.989-18.588 5.605-1.358 19.156-10.915-15.727-18.8 4.857 11.844-15.324-10.26-16.162 18.235 6.257zM432.873 246.535l13.118 13.842 17.486-8.116-9.062 17.39 12.54 14.39-18.714-3.097-9.735 17.02-2.504-19.305-18.562-3.877 17.169-8.833zM472.154 289.13l5.955 18.225 19.226.323-15.567 11.73 5.2 18.466-15.57-10.977-16.017 11.1 5.945-18.513-15.102-11.615 19.246-.463zM486.917 343.879l-2.204 19.07 17.289 8.539-18.997 3.952-2.987 18.965-9.532-16.626-19.143 3.189 13.106-14.227-8.843-17.003 17.633 7.835zM476.518 401.278l-8.53 17.14 13.341 14.046-19.178-2.911-9.231 16.768-3.319-18.936-19.057-3.68 17.128-8.79-2.542-19.05 13.904 13.505zM448.21 452.325l-16.116 10.071 4.114 19.053-14.835-12.667-16.521 9.382 6.949-17.895-14.335-13.257 19.13 1.608 7.669-17.58 4.873 18.892z"/></g></svg>