<svg xmlns="http://www.w3.org/2000/svg" height="512" width="512"><g fill-rule="evenodd"><path fill="#0021ad" d="M0 0h512v512H0z"/><path d="M0 0l512 512L511.71.38 0 0z" fill="#1c8a42"/><path d="M345.384 258.746a92.49 92.49 0 1 1-184.982 0 92.49 92.49 0 1 1 184.982 0z" fill="#ffc639"/><path d="M195.39 217.47c6.327 8.688 15.91 23.235 23.624 19.441 6.012.02 9.122.446 9.937 4.444 14.194 2.42 38.05-3.57 52.884-22.896 0 0 1.254.162.818-7.185.082-3.205 4.377-2.558 4.48-1.525.6 1.592.493 2.786 1.298 2.825 1.835-.614 4.33-4.709 6.423-7.307.572-1.147.26-2.36.394-3.798 1.102-2.718 3.856-2.125 4.439-.705.521.917.53 1.624 1.05 2.54 2.796 1.863 7.846.124 8.24.124.496-2.276 1.961-2.063 1.961-2.063 1.862-.412 1.136-.245 2.355.392-1.08 12.293 2.418 12.834 2.129 19.146.125 7.034-2.13 9.035-2.13 11.728.716 3.273 11.098 3.387 7.443 6.163-3.21 1.717.018 4.929-4.82 6.172-14.05 7.136-16.745 13.257-16.745 13.257s-3.53 6.67-3.922 6.67c-2.36 4.45-5.342 2.018-6.997 4.19-.829 2.725-1.76 8.76-.103 11.898.827 4.313-.103 6.665-1.14 10.98-.93 8.998-4.496 10.362-4.908 13.526-1.657 3.373.348 19.221-1.22 19.221-10.467.207-18.488-2.002-22.627-2.828 4.035-17.383 2.473-32.667 2.473-34.235-1.037-12.435-18.635-9.407-21.323-11.062-2.236-.474-3.64-2.293-4.426-3.078-2.486-.262-3.416-.834-5.902-1.093-1.242.619-.493 1.263-3.262 2.113-7.015.847-10.118-6.115-10.118-6.115.342-2.347-15.774.478-24.536-1.555-3.593 2.002-5.161 7.923-8.107 8.63-.083 1.834-4.836-1.509-5.795-3.315-.205-5.255 4.58-7.583 4.58-7.583 3.793-2.667 6.049-3.106 7.877-4.946.916-4.576.453-7.96 2.403-11.4 1.65-2.625 4.085-1.393 5.735-2.572 1.78-1.176 2.527-8.872.893-10.982 0 0-7.103-6.409-7.495-6.8-2.313-6.63 2.7-10.898 4.14-10.418z" fill="#1c8a42"/><path d="M455.51 64.507c-2.437-9.64-24.239-30.401-40.625-43.612-3.914-2.665-6.464-1.078-5.954 2.722 2.042 3.403 3.57 7.144 5.613 10.546.567 2.268 1.644 3.855 2.211 6.123 0 0 .17 3.912.512 4.252 5.102 5.616 5.782 10.377 5.782 10.377 2.948 5.67 5.556 9.81 10.717 14.458 5.783 3.629 1.529 14.913 1.7 20.924 0 3.8-2.72 3.346-5.102 2.89-18.768-17.236-37.366-17.292-53.754-22.281-6.406-.681-6.52 2.381-4.422 4.081 11.453 12.248 22.228 20.583 36.403 27.557l7.144 4.424 8.164 6.803c6.294 4.083 6.805 7.826 6.805 8.164.169 7.655-3.913 13.608-5.104 15.99-2.15 8.118-6.463 9.526-6.463 9.526-35.04 23.645-53.414 29.768-110.23 22.453-.85-.454-6.294.454 0 2.722 14.46 4.82 49.978 12.546 84.341-3.727 8.25-5.784 13.77-3.887 19.747-7.35 9.812-6.05 23.83-13.587 26.381-14.437 7.655-4.083 29.087-8.676 34.02-12.76 5.67-.453 11.544-1.197 11.941-6.073 1.865-1.202 4.585-.325 6.61-4.294 4.49-.782 3.733-2.391 3.733-2.391-1.133-3.174-5.33-4.479-8.334-6.803-4.423-1.475-7.484-1.928-10.718-.341-1.02.455-2.04.908-3.061 1.361 0 0-4.763-.68-4.763-1.02-10.584-.58-9.554-35.656-13.298-50.285z" fill="#ffc639"/><path d="M480.324 121.93a2.615 1.634 15.948 1 1-4.986-1.567 2.615 1.634 15.948 1 1 4.986 1.566z" fill="#1c8a42"/><path fill="#fff" d="M52.902 392.237l-11.765-11.014-11.907 10.86 1.276-16.06-15.915-2.54 13.355-9.018-7.94-14.023 15.38 4.817 6.013-14.952 5.822 15.028 15.44-4.62-8.12 13.92 13.239 9.19-15.947 2.335zM132.482 298.487l-9.266-8.675-9.378 8.554 1.005-12.649-12.535-2 10.519-7.104-6.254-11.044 12.113 3.793 4.737-11.776 4.585 11.837 12.16-3.64-6.395 10.964 10.428 7.238-12.56 1.84zM144.595 497.25l-15.492-7.808-6.194 16.208-5.426-16.477-15.84 7.08 7.808-15.485-16.2-6.195 16.476-5.433-7.087-15.833 15.492 7.808 6.194-16.207 5.427 16.476 15.84-7.08-7.809 15.493 16.201 6.187-16.476 5.433zM215.366 380.686l-11.727-.348-5.655 10.288-5.565-10.336-11.727.25 6.17-9.98-6.089-10.039 11.736.348 5.646-10.288 5.565 10.336 11.735-.249-6.17 9.98zM141.157 412.655l-9.994-6.669-9.732 7.023 3.425-11.314-9.87-6.842 12.111-.324 3.625-11.261 4.066 11.118 12.112-.113-9.6 7.197z"/></g></svg>