<svg xmlns="http://www.w3.org/2000/svg" height="512" width="512"><path fill="#fff" d="M-2.086 2.086h512v512h-512z"/><path fill-rule="evenodd" fill="gray" d="M255.141 238.08l1.378-1.816-.716-2.162 2.153.748 1.833-1.35-.046 2.276 1.848 1.332-2.176.657-.693 2.17-1.3-1.87z"/><path d="M128.27 257.88h.25c-.668 0-.317-.05.752.765.873.355 1.642.51 3.005.51 1.195.087 2.23.255 3.507.255 1.175.504 1.844.965 2.755 1.274.402.62 1.278 2.007 1.753 2.55.882.66 1.947 1.063 2.755 1.784 1.008.28 1.65.716 2.755 1.53.833.4 1.62.731 2.755 1.274 1.09.383 2.282.897 3.256 1.275.858.205 2.006.556 2.755 1.02 1.065.234 1.958.537 3.257.764 1.326.16 1.995.517 3.255.765 1.132.583 2.014 1.018 3.257 1.53.504.754.937 1.433 2.003 1.783.548.676 1.456.855 2.004 1.53.807.389 1.695.647 2.755 1.02 1.277.093 2.198.462 3.506.51h7.014c1.118.135 2.37.313 3.255.51 1.226 0 2.421.02 3.507-.255 1.402-.017 2.055-.416 3.256-.51 1.34.216 2.249.097 2.755 1.275.83.844 1.335 1.672 1.503 2.804.264.806.25 2.138.25 3.313 0 1.108.007 2.314.251 3.06.797.783 1.419 1.014 2.505 1.274.805.273 2.288.511 3.005 1.02.592.632.882 1.636 1.753 2.294.763.596 2.037.72 3.256.764h3.507c1.095 0 2.547.107 3.256-.254 1.085-.402 1.37-1.148 2.755-1.275 1.305.2 1.278.83 2.254 1.275.621.91 1.21 1.287 2.004 1.784.515.75 1.188 1.331 2.254 1.53 1.305-.135 2.486-.524 3.507-.765.357-.91.794-1.538 1.252-2.295.34-.584.5-.735.5-1.784.375-.762.329-2.312 0-3.314-.047-1.297-.345-1.982-.5-3.314 0-1.235.058-2.411.25-3.313.515-.605.85-1.594 1.253-2.295.683-.834 1.316-1.148 2.254-1.53.792-.268 2.101-.255 3.256-.255.613-.186 1.63-.124 1.252-.509-.325.33-1.57.435-.25.51.719-.497 2.03-.725 2.755-1.02 1.07-.164 1.711-.534 2.755-.764.78-.466 1.654-.688 2.755-1.02a42.105 42.105 0 0 1 3.006-1.02c1.153-.552 1.864-.863 3.005-1.02.785-.421 1.772-.51 3.006-.51 1.157.756 1.765 1.348 2.755 2.295.473.709.897 1.135 1.252 2.039.802.555 1.23.964 2.755 1.02 1.206 0 1.685.21 2.004-.765.659-.598 1-1.656 1.753-2.294.748-.748 1.67-1.127 2.505-1.53.94-.26 1.7-.607 3.005-.764.87-.324 1.767-.392 2.755.254.736 1.046 1.566 2.112 2.505 3.315.637.42 1.417.51 2.504.51.765-.39 2.343-.256 3.507-.256 1.026.3 1.474.988 2.505 1.275.576.059.887.255 1.503.255 1.832.242 2.594.058 4.007-.255h3.507c1.23.047 1.894.255 3.255.255.761.47 2.066.688 3.006 1.02 1.186.284 1.412.742 2.505 1.274.708.36 2.161.255 3.256.255a13.925 13.925 0 0 0 3.256-.765c.95-.236 1.352-.48 1.753-1.274.623-.431 1.482-1.12 2.004-1.785a6.696 6.696 0 0 0 1.753-1.784c.674-.453 1.808-1.608 2.254-2.294.64-.522 1.324-1.614 1.754-2.295.55-.83 1.243-1.313 1.753-2.549.39-1.192.442-2.126.751-3.314.258-.963.732-1.778 1.002-3.059.51-1.116.917-2.204 1.252-3.059.615-.702 1.023-1.55 1.754-2.294.419-.66.977-.995 1.503-1.53.596-.578 1.496-1.007 2.504-1.274 1.034-.287 1.482-.749 2.003-1.53.947-.32 1.506-.736 2.755-1.02a39.093 39.093 0 0 1 3.006-.764h3.507c1.263 0 2.35.115 3.506.255 1.142.332 2.213.621 3.256.765.717.345 1.91.976 2.505 1.529.748.503 1.565 1.314 2.004 2.04.327 1 .86 1.441 1.502 2.294.67.886 1.233 1.446 2.505 2.039 1.014.239 1.844.674 3.005.765 1.331 0 2.136.167 3.257.255 1.225 0 2.42.02 3.506-.255 1.094-.643 1.486-.815 2.254-1.785 1.01-.505 1.744-.907 3.006-1.02.83-.183 1.858-.254 3.006-.254.65.454 1.34.625 1.753 1.274.66.476.703.734 1.753.765.717.427 1.771.63 2.755.765h3.506-3.506 3.506c.96-.82 1.253-.727 1.253-1.784.775-.632 1.16-1.52 2.004-2.55.457-.756.895-1.384 1.252-2.294.273-.835.614-2.116.751-3.059.317-.846.615-2.145.752-3.314.303-1.178.5-2.23.5-3.569v-3.569c-.014-1.26-.2-2.141-.5-3.058-.397-1.127-1.061-1.95-1.503-2.804a29.376 29.376 0 0 1-2.254-2.04 113.923 113.923 0 0 0-3.006-1.784c-1.097-.692-2.15-1.292-3.006-1.785-.502-.572-1.318-1.357-1.752-1.784-.344-.698-.344-2.361 0-3.059.029-1.061.14-1.673.75-2.295 1.142-.416 1.903-.965 2.756-1.53.553-.788 1.421-.94 2.504-1.783 1.084-.484 1.699-.738 2.505-1.53 1.172-.398 2.265-1.208 3.256-1.53.536-.66 1.54-1.205 2.755-1.529.869-.602 1.909-1.242 2.755-1.53 1.18-.636 2.056-.86 3.256-1.529 1.225-.311 2.319-.872 3.507-1.274.305-.38.668-.66 1.252-.765 1.56-.094 2.859-.265 3.757-1.02 1.007-.363 1.112-1.099 1.753-1.784.461-.844.964-1.217 1.252-2.294.797-.871.357-1.127-1.001-1.275-.428-.435-.813.004-1.002-.765-.899-.41-1.134-1.123-1.753-1.784-.379-1.054-.37-1.527.751-2.04.699-.483 1.693-.645 2.255-1.274 1.043-.16 1.836-.619 2.755-1.02 1.36-.099 2.085-.412 3.255-.765.997-.541 1.644-.86 2.505-1.274 1.03-.454 2.258-1.094 3.256-1.53.898-.609 2.039-1.205 3.256-1.529.897-.464 2-.829 3.006-1.275.858-.206 2.005-.556 2.755-1.02a16.759 16.759 0 0 0 3.256-1.02c.838-.384 1.825-.869 2.504-1.274 1.038-.456 1.778-1.003 2.756-1.275.592-.574 1.39-.981 2.254-1.274.705-.666 2.204-1.586 3.005-2.04.76-.366 1.648-.739 2.255-1.274.583-.066.418-.189 1.001-.255 1.826-.56 2.758-.767 3.757-1.784.777-.375 1.575-.781 2.254-1.275.836-.675 1.501-1.286 2.004-2.04.912-.328 1.411-.971 2.254-1.529.874-.355 1.643-.51 3.006-.51 1.095 0 2.547.106 3.256-.255 1.572-.019 1.98-.402 3.005-1.02.34-.972 1.064-1.459 2.004-2.038.554-.515 1.955-1.286 2.505-1.785 1.084-.528 1.552-1.202 2.505-2.04.735-.805 1.656-1.55 2.504-2.038 1.053-.467 1.807-.677 2.755-1.02 1.186-.215 2.378-.437 3.504-.765 1.281-.1 1.734-.481 2.76-.765.709-.688 1.138-1.035 2.002-2.039.423-1.171 1.049-1.6 2.253-1.784 1.21-.644 2.18-.72 3.01-1.53.845-.863 1.43-1.834 2.252-2.804.465-1.099.9-1.76 1.001-3.059-.018-1.564-.352-1.79-1.001-2.804-.626-.914-1.02-1.495-1.502-2.295-.78-.449-1.89-.894-2.76-1.274-1.191.093-1.924.366-2.753.765-.852.701-1.442 1.277-2.002 2.294-.381.821-.638 1.725-1.001 2.804-.477.693-1.615 1.351-2.51 1.784-1.048.467-1.799.677-2.752 1.02-1.186.417-1.74.778-3.005 1.275-.741.357-1.766.905-2.505 1.274a21.825 21.825 0 0 1-3.005 1.53c-1.111.642-1.746.994-2.756 1.275-1.138.69-2.24 1.212-3.256 1.784-.842.421-1.664.967-2.755 1.53-.886.196-2.138.374-3.256.51h-3.757c-1.07-.252-2.344-.47-3.506-1.02-1.247-.658-1.858-1.074-2.755-1.785-.55-1.087-.734-1.607-.752-3.059-.778-.396-1.855-.495-3.005-.51-1.27 0-2.449-.048-3.256.51a5.282 5.282 0 0 0-2.756 1.275c-1.153.558-1.906 1.23-2.755 1.784-.882.542-2.024 1.353-3.005 1.785-.922.402-2.364.842-3.507 1.274-1.47.43-2.534.904-4.007 1.02-1.257.579-2.243.751-3.506 1.275-1.283.485-2.189.843-3.507 1.274-.87.45-2.44 1.202-3.256 1.785-1.496.76-2.59 1.407-3.757 2.039-1.172.5-2.022.976-3.256 1.53-.607.55-1.809.98-2.505 1.53-1.117.284-2.4.753-3.005 1.274-.988.12-1.537.385-2.004 1.02-.892 1.09-.502 1.019-1.503 1.019-.856.529-2.186.51-3.506.51-1.336-.036-2.388-.255-3.757-.255-1.175-.214-2.25-.464-3.507-.51H365.21c-1.331 0-2.136.167-3.257.255-1.246.09-2.217.367-3.255.51-1.13.173-1.645.605-2.505 1.02-.791.381-1.588.765-2.505 1.02-1.23.66-2.644 1.008-4.007 1.274-1.029.485-2.49.745-3.257 1.275-1.174.091-1.942.414-3.255.509-1.116.514-2.035.787-3.006 1.02-.9.305-1.767.495-3.006.51-1.158.16-1.797.491-3.005.765-.43.368-1.116.63-1.753.764-1.472.71-1.954.765-3.507.765h-3.507c-1.67-.165-3.328-.378-5.009-.765-1.714-.084-3.35-.304-5.01-.51h-11.02c-1.323-.048-2.498-.305-3.756-.51-1.178-.214-2.422-.318-3.506-.764-1.558-.084-3.134-.298-4.509-.765-1.253-.227-2.453-.656-3.757-.765-.723-.447-2.142-.595-2.755-1.02-1.145-.09-2.097-.451-2.755-1.019-1.172-.177-1.85-.703-3.006-1.02-1.04-.64-2.297-.855-3.757-1.53-1.244-.27-2.489-.718-3.757-1.019-.999-.352-2.216-.686-3.005-1.274-1.107-.308-1.743-.64-3.006-1.02-.59-.535-1.75-1.095-2.504-1.53-.548-.496-1.987-1.35-2.755-1.784a57.835 57.835 0 0 0-2.756-3.059 10.484 10.484 0 0 0-2.504-2.04 27.831 27.831 0 0 1-3.006-1.529c-.948-.263-1.714-.85-2.254-1.53-.854-.492-1.411-.931-2.254-1.529-1.309.505-1.447.255-2.755.255-1.493-.125-2.591-.171-4.007 0-1.225.147-2.423.255-3.758.255h-3.506c-1.585.02-1.84.228-2.254 1.53-.73.815-1.034 1.77-1.754 2.294-.618.797-1.51 1.34-2.505 1.784-1.236.87-1.61 1.185-2.253 2.295-.82.731-1.504 1.778-2.004 2.548-.455.792-.76 1.525-1.002 2.805 0 1.22.098 2.503-.25 3.569 0 1.22.098 2.503-.251 3.569V186.249c.522.782 1.225 1.081 1.503 2.294.371 1.008-.316.647-1.002 1.275h-7.013c-1.277 0-2.311-.168-3.507-.255-1.012-.184-2.493-.251-3.255-.51h-3.507c-1.246-.09-2.217-.366-3.256-.51-1.45-.28-2.454-.708-3.757-1.53-1.334-.29-2.352-.801-3.507-1.528-1.244-.332-2.23-.997-3.506-1.275-.86-.414-1.474-.815-2.505-1.275-.606-.844-1.19-1.315-2.504-1.53-1.008-.526-1.862-.509-3.256-.509-1.305.158-2.065.504-3.006.765-1.044.48-2.404.89-3.256 1.274-.851.347-1.625.813-2.505 1.275-.673.882-1.067 1.409-1.503 2.294-.333 0-.25-.085-.25.255-1.349.05-2.768 0-4.257 0-.707.36-2.082.437-3.006.51-.734.578-1.602 1.078-2.254 1.53-.432.879-.734 1.113-.752 2.549.054 1.523.591 1.965 1.002 3.058-.301 1.39-.837 1.506-2.004 1.785-.886.196-2.041.255-3.256.255h-7.514c-1.442 0-2.12.016-2.755-.765-.435-.864-.476-1.965-.751-2.804-.746-1.033-1.08-1.726-2.254-2.549-.259-.79-.88-1.949-1.252-2.804-.402-.862-.712-1.623-1.503-2.295-.833-.786-1.776-1.297-2.505-2.039-.838-.547-1.51-1.001-3.005-1.02-1.214 0-2.37.06-3.257.255-.61.54-1.63 1.115-2.504 1.785-.692.94-1.306 1.625-2.254 2.55-1.069.996-2.132 1.602-3.006 2.038-.8.408-1.617.91-2.254 1.785-.744.33-1.105.884-1.503 1.784-.653.593-1.028 1.582-1.252 2.55-.409 1.247-.465 2.68-.501 4.078v3.569c-.396.48-.61.989-1.252 1.53-.613.555-1.535 1.163-2.255 1.529-.697.913-1.133 1.45-1.252 2.804 0 1.114-.103 2.593.25 3.314.507.722 1.53 1.22 2.505 1.785.938.338 1.425 1.078 2.004 2.039 1.073.49.94.944 2.254 1.02.795.636 2.016.835 3.006 1.274 1.002.278 1.502.742 2.504 1.02.65.86 1.364 1.417 1.753 2.803.106.891.452 1.784 0 2.55-1.02.618-2.389 1.011-3.005 1.53-.81.043-.75.234-1.252.509-.01 1.704-.234 2.572-.501 3.824-.086 1.14-.25 1.96-.25 3.314v3.569c.532 1.132 1.236 1.343 2.003 2.04.763.554 1.001 1.208 1.252 2.293.43.997.887 1.829 1.253 2.804.456.977.751 1.863.751 3.314-.125 1.396-.698 1.636-1.753 2.294-.56.69-.376 1.912-.752 3.06 0 1.175-.013 2.507.25 3.313.43.583.326.826.502 1.785z" fill-rule="evenodd" fill="#ffce00"/><g fill-rule="evenodd" fill="#009a00"><path d="M156.452 312.238l-.407-.415c.924.94.478.595-.407-1.656-.086-2.387-.654-2.772-2.034-3.727-1.618-.549-2.309-1.252-2.848-2.899-1.034-.87-1.813-2.033-2.441-3.313a10.878 10.878 0 0 1-2.848-2.899 10.886 10.886 0 0 1-2.848-2.898c-1.546-.55-2.567-1.669-4.476-2.485-1.075-1.042-2.084-1.557-3.662-2.485-1.766-.86-1.867-1.483-4.069-1.656-.673.754-1.74.458-2.034 1.656.09 2.454.569 2.969 1.627 4.97.083 2.261.68 3.326 1.628 4.97 1.155.822 2.045 2.285 3.255 3.312 1.292.894 1.806 1.844 3.662 2.899.97 1.234 2.59 1.896 4.069 2.898 1.82.715 3.312 1.266 4.475 2.071 1.633.39 2.748 1.02 4.069 1.657 1.953.186 2.748.408 5.29 0zM164.998 323.829l-.406-.414c.966.983.505.581-.814-1.656-1.504-1.45-1.83-2.56-4.069-2.9-1.195-.486-3.136-.787-4.475-1.242-2.317 0-3.378-.252-5.29-.828-1.367-.38-3.095-1.054-4.476-1.656-1.636-.248-3.33-.9-4.882-1.242h-5.696c-1.828.437-2.857.456-3.255 2.484.834 1.028 1.935 1.925 2.848 2.899.514 1.819 1.755 2.252 2.848 3.313 1.883.663 2.266 1.159 4.475 1.242 1.873.636 3.235.803 5.29.828 2.18 0 3.747.45 5.696.828 1.623.224 3.216.415 5.29.415 1.767 0 3.693-.01 4.882-.415 2.564-2.087 2.034-2.54 2.034.415l.814.828M178.83 330.04h-.406c1.098 0 .54.027-1.628-.414-2.029-.59-3.181-1.163-5.29-1.243-1.251-.744-2.788-.827-4.882-.827h-5.696c-2.014.157-2.868.67-4.883.827-1.069.637-3.193 1.16-4.475 1.657-1.144.792-2.121 1.777-3.662 2.485.355 2.057 1.477 2.831 2.848 3.727 1.377.56 2.792 1.09 4.882 1.242 2 .076 3.077.414 5.29.414 2.073 0 3.666-.19 5.29-.414 1.35-.651 2.499-1.333 4.475-1.656.985-.87 2.427-1.476 3.662-2.07 1.093-.527 2.58-1.013 3.662-1.657l-3.662 1.656c1.093-.526 2.58-1.012 4.475-3.727zM198.663 339.672v-.352c0 .986.05.462-.814-1.41-1.506-.689-3.313-1.175-4.476-1.764-1.778 0-4.138-.146-5.289.353-2.055.021-3.417.164-5.29.705-1.785.233-2.814.775-4.068 1.41-1.417.663-3.471 1.516-5.29 2.116-1.608.972-2.152 1.541-4.068 2.47-1.207 1.145-2.443 1.834-3.255 2.82-.362 1.19.023 2.594 1.627 3.174 1.014.726 2.572 1.105 4.069 1.41 1.899-.06 3.576-.289 4.882-1.057 2.016-.232 3.214-.744 4.883-1.058 1.428-.44 2.795-.861 4.475-1.059 1.164-.683 3.228-1.274 4.476-1.762 2.044-.718 3.35-1.664 4.883-2.469.73-.733 1.705-1.524 2.848-1.763l-2.848 1.763c.73-.733 1.705-1.524 3.255-3.527zM214.23 347.572c-.076-.018-1.893-.736-3.255-.736-1.206-.638-3.158-.766-4.882-1.471-2.224 0-3.738.225-4.883 1.103-1.691.206-3.203.656-4.476 1.472-1.584.336-3.021.652-4.475 1.471-1.963.745-2.827 1.444-4.07 2.207-.837.917-2.646 1.43-3.66 2.208-.912.998-.91 2.317-.408 3.679 1.042.58 2.823 1.155 4.069 1.84 1.819.293 3.672.367 5.696.367 1.807-.126 3.33-.4 4.476-1.104 2.046-.89 2.591-1.55 4.068-2.575.855-.935 2.285-1.688 3.663-2.207 1.038-.814 2.298-1.408 4.068-1.84a79.335 79.335 0 0 0 2.848-2.575c1.138 0 .357.114 1.22-1.84zM231.778 351.192c-.098-.013-2.298-.359-3.662-.359-1.151-.507-3.511-.359-5.29-.359-2.241.074-2.934.482-4.068 1.436-1.154.626-2.546 1.188-3.662 2.153-1.427.77-2.712 1.833-4.07 2.511-1.492.564-2.779 1.21-4.475 1.435-.817.873-2.251 1.627-3.255 2.512-1.117.739-1.59 1.094-1.627 2.87-.829.59-1.388 1.746-1.22 2.153 1.646.746 3.007 1.052 5.289 1.077 2.173.022 3.7.44 5.696 0 2.034-.532 2.847-.904 4.883-1.436 1.038-1.193 1.818-1.992 3.255-2.87.776-1.006 1.705-1.932 3.255-2.511 1.16-.932 2.878-1.96 4.068-2.512.728-.899 2.147-1.854 3.255-2.512.816-1.217 1.047-1.419 1.628-3.588zM233.759 347.848v-12.423c-1.89-1.137-2.172-1.818-2.848-4.141-1.003-1.656-1.77-2.697-2.442-4.142-.942-1.006-1.718-2.312-2.034-4.14-.777-1.534-1.26-3.076-2.848-3.728-1.44-.318-3.317-.414-5.29-.414-2.694.102-2.44.585-2.44 3.313.189 2.121.853 2.676 1.627 4.555.597 1.285 1.246 2.605 2.034 3.727.609 1.372 1.563 3.139 2.441 4.141.713 1.523 1.737 2.903 2.035 4.556 1.115 1.44 1.885 2.7 2.848 3.727.797 1.693 1.396 2.65 2.848 3.313.83 1.266 2.233 1.37 4.069 1.656zM214.23 341.225h.407c-1.137 0-.533.051 1.627-.828.576-1.172.407-3.573.407-5.384 0-2.358-.383-3.361-.814-4.97-.74-1.798-1.344-2.64-1.627-4.555-.609-1.307-1.221-2.625-1.628-4.14-.731-1.096-1.254-2.748-1.627-4.141-1.373-.793-2.642-1.587-4.069-2.071-1.294-.624-2.499-1.554-4.068-2.07-2.042.38-2.272 1.064-2.442 3.312-.47 1.67.175 3.18.814 4.555.672 1.634 1.073 3.291 2.035 4.555.586 1.858 1.183 2.506 1.22 4.556.7 1.219.993 3.014 1.628 4.555.817 1.923 1.577 2.752 2.848 4.141 1.737 1.203 2.333 1.707 5.289 2.485zM197.954 335.839c0-.199 1.292-1.013 2.035-2.071.608-1.238.533-3.755 0-5.384-.772-1.94-1.613-3.395-2.035-4.969-.429-1.31-.407-3.474-.407-5.384-.371-1.74-.982-3.025-1.627-4.969-.526-1.338-1.55-3.012-2.034-4.555-.635-.61-1.352-1.863-2.035-2.485-.795-.662-.823-.828-2.44-.828-2.164.082-3.252.285-4.477 1.656-.428 1.31-.406 3.475-.406 5.384.026 2.282.235 3.361 1.22 4.97.719 1.74 2.227 3.434 3.255 4.968.843 1.454 1.38 2.836 2.441 3.728.277 1.865.966 2.72 1.628 4.14.276 1.866.966 2.72 1.627 4.142 1.065.12.568.385 1.22.828l-1.22-.828c1.065.12.568.385 3.255 1.657zM181.679 323.416c.248-.57 1.759-2.785 2.034-4.141-.028-2.349-.296-3.952-1.628-5.383-.33-1.45-1.128-3.638-1.627-4.97 0-1.91.022-4.073-.407-5.383 0-2.176-.295-3.483-.814-4.97-.919-1.375-1.909-1.778-4.068-2.484-1.75-.594-2.96-.166-4.883.414v5.797c.026 2.192.41 3.757 1.22 4.97.662 1.42 1.301 2.436 2.035 4.14.079 2.252.665 3.415.814 5.384.16 2.118.355 3.214 1.627 4.556 1.733.833 2.261 1.64 3.662 2.07l-3.662-2.07c1.733.833 2.261 1.64 5.697 2.07zM167.036 314.306v-.414c0 1.158-.05.543.814-1.656.44-1.795.407-3.772.407-5.798-.126-1.669-.364-3.596-.814-4.969-.371-2.12-.798-3.446-1.22-5.384-.29-1.682-1.41-3.538-2.035-4.97-.399-1.218-.806-3.76-1.22-4.969-.292-1.548-1.022-2.035-2.442-2.484-1.114-.567-3.768-.567-4.882 0-1.198.422-1.196 1.385-1.627 2.484-.151 2.143-.51 3.726 0 5.798.688 1.198 1.416 2.47 2.034 3.727.8 1.47 1.601 3.675 2.441 4.97.612 2.102.839 3.073 2.034 4.969.44 1.342 1.134 2.956 2.035 4.14.58 1.475 1.424 2.52 2.034 4.142 1.098 0 .275-.027 2.441.414z"/><path d="M250.595 358.463h-6.73c-1.034 1-1.394 1.574-3.188 1.803-.906.798-1.764 1.537-3.188 1.802-1.253.277-2.887.36-4.605.36-2.1-.026-2.82.067-3.188-1.802.034-1.858.12-1.962 1.772-2.163.884-.744 2.366-1.096 3.896-1.442 1.17-.423 2.601-.795 3.896-1.082 1.256-.454 2.454-.917 3.542-1.442-.27-1.1-1.145-.86-2.125-.36-1.273 0-2.79.098-3.543-.36-.883-1.338-1.362-1.776-3.541-1.803-2.068-.025-2.421-.578-4.25-.721-1.753-.022-2.977-.289-4.252-.721-1.87-.136-3.126-.426-4.604-1.082-.475-.483.652-.583 1.417-.721 1.047-.725 2.155-1.016 3.896-1.081h4.959c1.817 0 3.215.297 4.959.36 1.421.5 2.915.763 3.896 1.442 1.282.435 2.089 1.2 2.834 2.163 1.246.346 2.5.773 3.896 1.082 1.633 0 3.484-.02 4.605.36.81 1.376.17 3.631-.354 5.408z"/></g><g fill-rule="evenodd" fill="#009a00"><path d="M346.168 312.599l.407-.415c-.924.94-.478.595.407-1.656.086-2.387.654-2.772 2.034-3.727 1.618-.549 2.309-1.252 2.848-2.899 1.034-.87 1.813-2.033 2.441-3.313a10.878 10.878 0 0 0 2.848-2.899 10.886 10.886 0 0 0 2.848-2.898c1.546-.55 2.567-1.669 4.476-2.485 1.075-1.042 2.084-1.557 3.662-2.485 1.766-.86 1.867-1.483 4.069-1.656.673.754 1.74.458 2.034 1.656-.09 2.454-.569 2.969-1.627 4.97-.083 2.261-.68 3.326-1.628 4.97-1.155.822-2.045 2.285-3.255 3.312-1.292.894-1.806 1.844-3.662 2.899-.97 1.234-2.59 1.896-4.069 2.898-1.82.715-3.312 1.266-4.475 2.071-1.633.39-2.748 1.02-4.069 1.657-1.953.186-2.748.408-5.29 0zM337.622 324.19l.406-.414c-.966.983-.505.581.814-1.656 1.504-1.45 1.83-2.56 4.069-2.9 1.195-.486 3.136-.787 4.475-1.242 2.317 0 3.378-.252 5.29-.828 1.367-.38 3.095-1.054 4.476-1.656 1.636-.248 3.33-.9 4.882-1.242h5.696c1.828.437 2.857.456 3.255 2.484-.834 1.028-1.935 1.925-2.848 2.899-.514 1.819-1.755 2.252-2.848 3.313-1.883.663-2.266 1.159-4.475 1.242-1.873.636-3.235.803-5.29.828-2.18 0-3.747.45-5.696.828-1.623.224-3.216.415-5.29.415-1.767 0-3.693-.01-4.882-.415-2.564-2.087-2.034-2.54-2.034.415l-.814.828M323.79 330.401h.406c-1.098 0-.54.027 1.628-.414 2.029-.59 3.181-1.163 5.29-1.243 1.251-.744 2.788-.827 4.882-.827h5.696c2.014.157 2.868.67 4.883.827 1.069.637 3.193 1.16 4.475 1.657 1.144.792 2.121 1.777 3.662 2.485-.355 2.057-1.477 2.831-2.848 3.727-1.377.56-2.792 1.09-4.882 1.242-2 .076-3.077.414-5.29.414-2.073 0-3.666-.19-5.29-.414-1.35-.651-2.499-1.333-4.475-1.656-.985-.87-2.427-1.476-3.662-2.07-1.093-.527-2.58-1.013-3.662-1.657l3.662 1.656c-1.093-.526-2.58-1.012-4.475-3.727zM303.957 340.033v-.352c0 .986-.05.462.814-1.41 1.506-.689 3.313-1.175 4.476-1.764 1.778 0 4.138-.146 5.289.353 2.055.021 3.417.164 5.29.705 1.785.233 2.814.775 4.068 1.41 1.417.663 3.471 1.516 5.29 2.116 1.608.972 2.152 1.541 4.068 2.47 1.207 1.145 2.443 1.834 3.255 2.82.362 1.19-.023 2.594-1.627 3.174-1.014.726-2.572 1.105-4.069 1.41-1.899-.06-3.576-.289-4.882-1.057-2.016-.232-3.214-.744-4.883-1.058-1.428-.44-2.795-.861-4.475-1.059-1.164-.683-3.228-1.274-4.476-1.762-2.044-.718-3.35-1.664-4.883-2.469-.73-.733-1.705-1.524-2.848-1.763l2.848 1.763c-.73-.733-1.705-1.524-3.255-3.527zM288.39 347.933c.076-.018 1.893-.736 3.255-.736 1.206-.638 3.158-.766 4.882-1.471 2.224 0 3.738.225 4.883 1.103 1.691.206 3.203.656 4.476 1.472 1.584.336 3.021.652 4.475 1.471 1.963.745 2.827 1.444 4.07 2.207.837.917 2.646 1.43 3.66 2.208.912.998.91 2.317.408 3.679-1.042.58-2.823 1.155-4.069 1.84-1.819.293-3.672.367-5.696.367-1.807-.126-3.33-.4-4.476-1.104-2.046-.89-2.591-1.55-4.068-2.575-.855-.935-2.285-1.688-3.663-2.207-1.038-.814-2.298-1.408-4.068-1.84a79.335 79.335 0 0 1-2.848-2.575c-1.138 0-.357.114-1.22-1.84zM270.842 351.553c.098-.013 2.298-.359 3.662-.359 1.151-.507 3.511-.359 5.29-.359 2.241.074 2.934.482 4.068 1.436 1.154.626 2.546 1.188 3.662 2.153 1.427.77 2.712 1.833 4.07 2.511 1.492.564 2.779 1.21 4.475 1.435.817.873 2.251 1.627 3.255 2.512 1.117.739 1.59 1.094 1.627 2.87.829.59 1.388 1.746 1.22 2.153-1.646.746-3.007 1.052-5.289 1.077-2.173.022-3.7.44-5.696 0-2.034-.532-2.847-.904-4.883-1.436-1.038-1.193-1.818-1.992-3.255-2.87-.776-1.006-1.705-1.932-3.255-2.511-1.16-.932-2.878-1.96-4.068-2.512-.728-.899-2.147-1.854-3.255-2.512-.816-1.217-1.047-1.419-1.628-3.588zM268.861 348.21v-12.424c1.89-1.137 2.172-1.818 2.848-4.141 1.003-1.656 1.77-2.697 2.442-4.142.942-1.006 1.718-2.312 2.034-4.14.777-1.534 1.26-3.076 2.848-3.728 1.44-.318 3.317-.414 5.29-.414 2.694.102 2.44.585 2.44 3.313-.189 2.121-.853 2.676-1.627 4.555-.597 1.285-1.246 2.605-2.034 3.727-.609 1.372-1.563 3.139-2.441 4.141-.713 1.523-1.737 2.903-2.035 4.556-1.115 1.44-1.885 2.7-2.848 3.727-.797 1.693-1.396 2.65-2.848 3.313-.83 1.266-2.233 1.37-4.069 1.656zM288.39 341.586h-.407c1.137 0 .533.051-1.627-.828-.576-1.172-.407-3.573-.407-5.384 0-2.358.383-3.361.814-4.97.74-1.798 1.344-2.64 1.627-4.555.609-1.307 1.221-2.625 1.628-4.14.731-1.096 1.254-2.748 1.627-4.141 1.373-.793 2.642-1.587 4.069-2.071 1.294-.624 2.499-1.554 4.068-2.07 2.042.38 2.272 1.064 2.442 3.312.47 1.67-.175 3.18-.814 4.555-.672 1.634-1.073 3.291-2.035 4.555-.586 1.858-1.183 2.506-1.22 4.556-.7 1.219-.993 3.014-1.628 4.555-.817 1.923-1.577 2.752-2.848 4.141-1.737 1.203-2.333 1.707-5.289 2.485zM304.666 336.2c0-.199-1.292-1.013-2.035-2.071-.608-1.238-.533-3.755 0-5.384.772-1.94 1.613-3.395 2.035-4.969.429-1.31.407-3.474.407-5.384.371-1.74.982-3.025 1.627-4.969.526-1.338 1.55-3.012 2.034-4.555.635-.61 1.352-1.863 2.035-2.485.795-.662.823-.828 2.44-.828 2.164.082 3.252.285 4.477 1.656.428 1.31.406 3.475.406 5.384-.026 2.282-.235 3.361-1.22 4.97-.719 1.74-2.227 3.434-3.255 4.968-.843 1.454-1.38 2.836-2.441 3.728-.277 1.865-.966 2.72-1.628 4.14-.276 1.866-.966 2.72-1.627 4.142-1.065.12-.568.385-1.22.828l1.22-.828c-1.065.12-.568.385-3.255 1.657zM320.941 323.777c-.248-.57-1.759-2.785-2.034-4.141.028-2.349.296-3.952 1.628-5.383.33-1.45 1.128-3.638 1.627-4.97 0-1.91-.022-4.073.407-5.383 0-2.176.295-3.483.814-4.97.919-1.375 1.909-1.778 4.068-2.484 1.75-.594 2.96-.166 4.883.414v5.797c-.026 2.192-.41 3.757-1.22 4.97-.662 1.42-1.301 2.436-2.035 4.14-.079 2.252-.665 3.415-.814 5.384-.16 2.118-.355 3.214-1.627 4.556-1.733.833-2.261 1.64-3.662 2.07l3.662-2.07c-1.733.833-2.261 1.64-5.697 2.07zM335.584 314.667v-.414c0 1.158.05.543-.814-1.656-.44-1.795-.407-3.772-.407-5.798.126-1.669.364-3.596.814-4.969.371-2.12.798-3.446 1.22-5.384.29-1.682 1.41-3.538 2.035-4.97.399-1.218.806-3.76 1.22-4.969.292-1.548 1.022-2.035 2.442-2.484 1.114-.567 3.768-.567 4.882 0 1.198.422 1.196 1.385 1.627 2.484.151 2.143.51 3.726 0 5.798-.688 1.198-1.416 2.47-2.034 3.727-.8 1.47-1.601 3.675-2.441 4.97-.612 2.102-.839 3.073-2.034 4.969-.44 1.342-1.134 2.956-2.035 4.14-.58 1.475-1.424 2.52-2.034 4.142-1.098 0-.275-.027-2.441.414z"/><path d="M252.025 358.824h6.73c1.034 1 1.394 1.574 3.188 1.803.906.798 1.764 1.537 3.188 1.802 1.253.277 2.887.36 4.605.36 2.1-.026 2.82.067 3.188-1.802-.034-1.858-.12-1.962-1.772-2.163-.884-.744-2.366-1.096-3.896-1.442-1.17-.423-2.601-.795-3.896-1.082-1.256-.454-2.454-.917-3.542-1.442.27-1.1 1.145-.86 2.125-.36 1.273 0 2.79.098 3.543-.36.883-1.338 1.362-1.776 3.541-1.803 2.068-.025 2.421-.578 4.25-.721 1.753-.022 2.977-.289 4.252-.721 1.87-.136 3.126-.426 4.604-1.082.475-.483-.652-.583-1.417-.721-1.047-.725-2.155-1.016-3.896-1.081h-4.959c-1.817 0-3.215.297-4.959.36-1.421.5-2.915.763-3.896 1.442-1.282.435-2.089 1.2-2.834 2.163-1.246.346-2.5.773-3.896 1.082-1.633 0-3.484-.02-4.605.36-.81 1.376-.17 3.631.354 5.408z"/></g></svg>