<svg xmlns="http://www.w3.org/2000/svg" height="512" width="512" version="1"><g fill-rule="evenodd" stroke-width="1pt"><path fill="#ffe800" d="M0 0h511.993v511.984H0z"/><path fill="#00148e" d="M0 255.992h511.993v255.992H0z"/><path fill="#da0010" d="M0 383.993h511.993v128H0z"/></g><g fill-rule="evenodd"><path d="M213.471 244.16l-54.661 57.728-.964-1.24 54.662-57.728.963 1.24zM251.552 253.594L180.018 329l-1.254-1.187 71.533-75.407 1.255 1.187z"/><path d="M478.35 60.236v88.583l17.717 88.583 17.717-88.583V60.236H478.35z" transform="matrix(-.05174 -.05124 -.06702 .06804 210.06 348.857)" stroke="#000" stroke-width="4.104" fill="gray"/><path d="M478.35 60.236v88.583l17.717 88.583 17.717-88.583V60.236H478.35z" transform="matrix(-.05174 -.05124 -.06702 .06804 191.615 319.402)" stroke="#000" stroke-width="4.104" fill="gray"/></g><path d="M301.18 272.84s-17.716 336.61 53.15 336.61 106.3-35.433 106.3-35.433l-.86-185.03-158.59-116.15z" fill-rule="evenodd" transform="matrix(.3386 0 0 .48628 64.646 -20.459)" stroke="#000" stroke-width="1pt" fill="#ffdf00"/><path d="M344.46 304.2c-.001 17.717-7.846 269.82 27.587 269.82s88.583-17.717 88.583-17.717l-.86-167.31-115.31-84.79z" fill-rule="evenodd" transform="matrix(.3386 0 0 .48628 64.646 -20.459)" stroke="#000" stroke-width="1pt" fill="#0000c4"/><path d="M367.52 321.16c-.001 17.717 4.525 217.42 39.958 217.42h53.15l-.859-149.59-92.249-67.833z" fill-rule="evenodd" transform="matrix(.3386 0 0 .48628 64.646 -20.459)" stroke="#000" stroke-width="1pt" fill="#e10000"/><path d="M165.66 112.217l54.661 57.728.964-1.24-54.662-57.728-.964 1.24z" fill-rule="evenodd"/><path d="M301.18 272.84s-35.433 336.61 70.866 336.61c88.583 0 88.583-53.15 106.3-53.15l-17.72-124.02-159.45-159.44z" fill-rule="evenodd" stroke="#000" stroke-width="1pt" fill="#ffdf00" transform="matrix(.44076 0 0 .46547 17.296 16.967)"/><g stroke="#000"><path d="M269.59 155.24c1.133 0 28.318-94.016 118.94-147.25" transform="matrix(.2907 -.02042 -.03781 .26483 112.022 135.874)" stroke-width="2.305" fill="none"/><path d="M421.37-20.327c0 18.133-4.567 31.716-11.328 45.309-5.627-18.124-9.061-27.176-9.061-45.309s6.832-35.114 12.459-48.707c2.23 12.46 7.93 30.574 7.93 48.707z" fill-rule="evenodd" transform="matrix(.10457 -.16598 .2197 .10549 142.767 218.893)" stroke-width="1pt" fill="#005b00"/><path d="M454.22-169.28c0 4.066-3.804 7.363-8.495 7.363s-8.496-3.297-8.496-7.363 3.804-7.363 8.496-7.363 8.495 3.297 8.495 7.363z" fill-rule="evenodd" transform="matrix(.1365 -.07592 .06666 .13189 144.082 218.379)" stroke-width="1pt" fill="red"/><path d="M421.37-20.327c0 18.133-4.567 31.716-11.328 45.309-5.627-18.124-9.061-27.176-9.061-45.309s6.832-35.114 12.459-48.707c2.23 12.46 7.93 30.574 7.93 48.707z" fill-rule="evenodd" transform="matrix(.1333 .0897 -.09594 .25077 146.638 97.413)" stroke-width="1pt" fill="#005b00"/><path d="M421.37-20.327c0 18.133-4.567 31.716-11.328 45.309-5.627-18.124-9.061-27.176-9.061-45.309s6.832-35.114 12.459-48.707c2.23 12.46 7.93 30.574 7.93 48.707z" fill-rule="evenodd" transform="matrix(.13174 -.02321 -.02342 .24533 145.367 144.856)" stroke-width="1pt" fill="#005b00"/><path d="M421.37-20.327c0 18.133-4.567 31.716-11.328 45.309-5.627-18.124-9.061-27.176-9.061-45.309s6.832-35.114 12.459-48.707c2.23 12.46 7.93 30.574 7.93 48.707z" fill-rule="evenodd" transform="matrix(.04776 .1905 -.13026 .14575 182.098 58.956)" stroke-width="1pt" fill="#005b00"/><path d="M421.37-20.327c0 18.133-4.567 31.716-11.328 45.309-5.627-18.124-9.061-27.176-9.061-45.309s6.832-35.114 12.459-48.707c2.23 12.46 7.93 30.574 7.93 48.707z" fill-rule="evenodd" transform="matrix(.1559 -.14017 .1413 .17762 123.442 206.61)" stroke-width="1pt" fill="#005b00"/><path d="M421.37-20.327c0 18.133-4.567 31.716-11.328 45.309-5.627-18.124-9.061-27.176-9.061-45.309s6.832-35.114 12.459-48.707c2.23 12.46 7.93 30.574 7.93 48.707z" fill-rule="evenodd" transform="matrix(.16366 -.16932 .18963 .15304 112.346 237.575)" stroke-width="1pt" fill="#005b00"/><path d="M421.37-20.327c0 18.133-4.567 31.716-11.328 45.309-5.627-18.124-9.061-27.176-9.061-45.309s6.832-35.114 12.459-48.707c2.23 12.46 7.93 30.574 7.93 48.707z" fill-rule="evenodd" transform="matrix(.19371 .0721 -.14516 .24102 108.735 136.094)" stroke-width="1pt" fill="#005b00"/><path d="M421.37-20.327c0 18.133-4.567 31.716-11.328 45.309-5.627-18.124-9.061-27.176-9.061-45.309s6.832-35.114 12.459-48.707c2.23 12.46 7.93 30.574 7.93 48.707z" fill-rule="evenodd" transform="matrix(.11406 .1576 -.24164 .1672 144.751 102.653)" stroke-width="1pt" fill="#005b00"/><path d="M421.37-20.327c0 18.133-4.567 31.716-11.328 45.309-5.627-18.124-9.061-27.176-9.061-45.309s6.832-35.114 12.459-48.707c2.23 12.46 7.93 30.574 7.93 48.707z" fill-rule="evenodd" transform="matrix(.06087 .06563 -.10203 .12326 199.228 102.117)" stroke-width="1pt" fill="#005b00"/><path d="M421.37-20.327c0 18.133-4.567 31.716-11.328 45.309-5.627-18.124-9.061-27.176-9.061-45.309s6.832-35.114 12.459-48.707c2.23 12.46 7.93 30.574 7.93 48.707z" fill-rule="evenodd" transform="matrix(.0808 .00438 -.0589 .12964 189.731 127.605)" stroke-width="1pt" fill="#005b00"/><path d="M421.37-20.327c0 18.133-4.567 31.716-11.328 45.309-5.627-18.124-9.061-27.176-9.061-45.309s6.832-35.114 12.459-48.707c2.23 12.46 7.93 30.574 7.93 48.707z" fill-rule="evenodd" transform="matrix(-.00744 .10914 -.10258 .06206 226.927 85.88)" stroke-width="1pt" fill="#005b00"/><path d="M421.37-20.327c0 18.133-4.567 31.716-11.328 45.309-5.627-18.124-9.061-27.176-9.061-45.309s6.832-35.114 12.459-48.707c2.23 12.46 7.93 30.574 7.93 48.707z" fill-rule="evenodd" transform="matrix(.05045 .0865 -.1892 .11516 176.592 111.9)" stroke-width="1pt" fill="#005b00"/><path d="M421.37-20.327c0 18.133-4.567 31.716-11.328 45.309-5.627-18.124-9.061-27.176-9.061-45.309s6.832-35.114 12.459-48.707c2.23 12.46 7.93 30.574 7.93 48.707z" fill-rule="evenodd" transform="matrix(.09816 .16804 -.25191 .15103 166.287 77.567)" stroke-width="1pt" fill="#005b00"/><path d="M269.59 155.24c1.133 0 28.318-94.016 118.94-147.25" transform="matrix(.2665 -.14823 .10665 .21103 94.381 196.598)" stroke-width="2.37" fill="none"/><path d="M454.22-169.28c0 4.066-3.804 7.363-8.495 7.363s-8.496-3.297-8.496-7.363 3.804-7.363 8.496-7.363 8.495 3.297 8.495 7.363z" fill-rule="evenodd" transform="matrix(.1365 -.07592 .06666 .1319 161.236 194.184)" stroke-width="1pt" fill="red"/><path d="M454.22-169.28c0 4.066-3.804 7.363-8.495 7.363s-8.496-3.297-8.496-7.363 3.804-7.363 8.496-7.363 8.495 3.297 8.495 7.363z" fill-rule="evenodd" transform="matrix(.1365 -.07592 .06666 .1319 169.374 189.382)" stroke-width="1pt" fill="red"/><path d="M454.22-169.28c0 4.066-3.804 7.363-8.495 7.363s-8.496-3.297-8.496-7.363 3.804-7.363 8.496-7.363 8.495 3.297 8.495 7.363z" fill-rule="evenodd" transform="matrix(.14121 -.07854 .05007 .09906 135.93 200.279)" stroke-width="1pt" fill="red"/><path d="M454.22-169.28c0 4.066-3.804 7.363-8.495 7.363s-8.496-3.297-8.496-7.363 3.804-7.363 8.496-7.363 8.495 3.297 8.495 7.363z" fill-rule="evenodd" transform="matrix(.14121 -.07854 .05007 .09906 138.282 199.258)" stroke-width="1pt" fill="red"/><path d="M454.22-169.28c0 4.066-3.804 7.363-8.495 7.363s-8.496-3.297-8.496-7.363 3.804-7.363 8.496-7.363 8.495 3.297 8.495 7.363z" fill-rule="evenodd" transform="matrix(.14121 -.07854 .05007 .09906 136.93 201.448)" stroke-width="1pt" fill="red"/><path d="M454.22-169.28c0 4.066-3.804 7.363-8.495 7.363s-8.496-3.297-8.496-7.363 3.804-7.363 8.496-7.363 8.495 3.297 8.495 7.363z" fill-rule="evenodd" transform="matrix(.15167 -.08436 .07406 .14654 144.922 210.722)" stroke-width="1pt" fill="red"/><path d="M454.22-169.28c0 4.066-3.804 7.363-8.495 7.363s-8.496-3.297-8.496-7.363 3.804-7.363 8.496-7.363 8.495 3.297 8.495 7.363z" fill-rule="evenodd" transform="matrix(.15167 -.08436 .07406 .14654 146.656 208.927)" stroke-width="1pt" fill="red"/><path d="M454.22-169.28c0 4.066-3.804 7.363-8.495 7.363s-8.496-3.297-8.496-7.363 3.804-7.363 8.496-7.363 8.495 3.297 8.495 7.363z" fill-rule="evenodd" transform="matrix(.15167 -.08436 .07406 .14654 147.092 209.79)" stroke-width="1pt" fill="red"/></g><path d="M336.61 308.27c-.001 17.717-35.433 212.6 53.15 265.75 35.433 17.716 88.582-17.717 88.582 0l-17.71-141.74-124.02-124.01z" fill-rule="evenodd" transform="matrix(.44076 0 0 .46547 17.296 16.967)" stroke="#000" stroke-width="1pt" fill="#0000c4"/><path d="M372.05 343.7c-.001 17.717-17.716 159.45 35.433 194.88 35.433 35.433 124.02 25.822 124.02 25.822l-70.87-132.12-88.58-88.58z" fill-rule="evenodd" stroke="#000" stroke-width="1pt" fill="#e10000" transform="matrix(.44076 0 0 .46547 17.296 16.967)"/><path d="M148.788 143.962l71.534 75.408 1.255-1.187-71.534-75.407-1.255 1.186z" fill-rule="evenodd"/><path d="M460.63 184.25l17.716 35.433V237.4c-.865-1.305 0 17.716-17.716 17.716-17.717 0-17.717-35.433-17.717-35.433s-17.716 35.433-17.716 70.866 17.716 53.15 17.716 53.15-2.611-36.703 17.717-35.433c20.328 1.271 17.716 17.716 17.716 17.716v35.433h17.717v-141.73l17.717-35.433-27.136-53.15-26.014 53.15z" fill-rule="evenodd" transform="matrix(.10225 -.10676 .07864 .08233 75.203 169.68)" stroke="#000" stroke-width="1pt" fill="#cececc"/><path d="M557.82 95.669l-26.323 70.866 17.717 53.15-35.433-17.716 35.433 53.149v35.433h17.716v-35.433l35.433-53.149-35.433 17.716 17.717-53.15-26.827-70.866z" fill-rule="evenodd" transform="matrix(.07873 -.12073 .10527 .06986 96.06 163.395)" stroke="#000" stroke-width="1pt" fill="#cececc"/><path d="M422.53 136.96c0 2.068-1.958 3.746-4.371 3.746-2.412 0-4.371-1.678-4.371-3.746s1.959-3.747 4.371-3.747c2.413 0 4.371 1.679 4.371 3.747zm-6.244 7.909c0 35.801 20.917 187.81 22.582 191.56.139 4.44-4.718 6.383-7.077.833-6.551-17.342-20.744-159.91-21.333-193.22-.244-13.734 3.761-14.801 8.326-14.57 3.759.209 8.325 3.725 8.325 7.909 0 4.996-5.828 8.742-10.823 7.493z" fill-rule="evenodd" transform="matrix(.30254 0 0 .23415 43.048 77.33)" stroke="#000" stroke-width="1pt" fill="#e10000"/><path d="M422.53 136.96c0 2.068-1.958 3.746-4.371 3.746-2.412 0-4.371-1.678-4.371-3.746s1.959-3.747 4.371-3.747c2.413 0 4.371 1.679 4.371 3.747zm-6.244 7.909c31.488 61.415 48.722 166.77 50.387 170.52.139 4.44-4.718 6.383-7.077.833-2.479-3.315-12.667-100.18-49.138-172.18-.244-13.734 3.761-14.801 8.326-14.57 3.759.209 8.325 3.725 8.325 7.909 0 4.996-5.828 8.742-10.823 7.493z" fill-rule="evenodd" transform="matrix(.2854 .06855 -.11376 .22088 67.428 53.448)" stroke="#000" stroke-width="1pt" fill="#0000c4"/><path d="M422.53 136.96c0 2.068-1.958 3.746-4.371 3.746-2.412 0-4.371-1.678-4.371-3.746s1.959-3.747 4.371-3.747c2.413 0 4.371 1.679 4.371 3.747zm-6.244 7.909c0 35.801 20.917 187.81 22.582 191.56.139 4.44-4.718 6.383-7.077.833-6.551-17.342-20.744-159.91-21.333-193.22-.244-13.734 3.761-14.801 8.326-14.57 3.759.209 8.325 3.725 8.325 7.909 0 4.996-5.828 8.742-10.823 7.493z" fill-rule="evenodd" transform="matrix(.3866 0 0 .38093 -8.547 87.337)" stroke="#000" stroke-width="1pt" fill="#e10000"/><path d="M422.53 136.96c0 2.068-1.958 3.746-4.371 3.746-2.412 0-4.371-1.678-4.371-3.746s1.959-3.747 4.371-3.747c2.413 0 4.371 1.679 4.371 3.747zm-6.244 7.909c31.488 61.415 48.722 166.77 50.387 170.52.139 4.44-4.718 6.383-7.077.833-2.479-3.315-12.667-100.18-49.138-172.18-.244-13.734 3.761-14.801 8.326-14.57 3.759.209 8.325 3.725 8.325 7.909 0 4.996-5.828 8.742-10.823 7.493z" fill-rule="evenodd" transform="matrix(.3647 .11153 -.14536 .35935 22.607 48.482)" stroke="#000" stroke-width="1pt" fill="#0000c4"/><g fill-rule="evenodd"><path d="M289.631 244.16l54.662 57.728.963-1.24-54.661-57.728-.964 1.24zM251.55 253.594L323.086 329l1.254-1.187-71.534-75.407-1.254 1.187z"/><path d="M478.35 60.236v88.583l17.717 88.583 17.717-88.583V60.236H478.35z" transform="matrix(.05174 -.05124 .06702 .06804 293.042 348.857)" stroke="#000" stroke-width="4.104" fill="gray"/><path d="M478.35 60.236v88.583l17.717 88.583 17.717-88.583V60.236H478.35z" transform="matrix(.05174 -.05124 .06702 .06804 311.488 319.402)" stroke="#000" stroke-width="4.104" fill="gray"/></g><g fill-rule="evenodd" stroke-width="1pt"><path d="M301.18 272.84s-17.716 336.61 53.15 336.61 106.3-35.433 106.3-35.433l-.86-185.03-158.59-116.15z" transform="matrix(-.3386 0 0 .48628 438.465 -20.459)" stroke="#000" fill="#ffdf00"/><path d="M344.46 304.2c-.001 17.717-7.846 269.82 27.587 269.82s88.583-17.717 88.583-17.717l-.86-167.31-115.31-84.79z" transform="matrix(-.3386 0 0 .48628 438.465 -20.459)" stroke="#000" fill="#0000c4"/><path d="M367.52 321.16c-.001 17.717 4.525 217.42 39.958 217.42h53.15l-.859-149.59-92.249-67.833z" transform="matrix(-.3386 0 0 .48628 438.465 -20.459)" stroke="#000" fill="#e10000"/><path d="M337.452 112.217l-54.662 57.728-.963-1.24 54.662-57.728.963 1.24z"/><g stroke="#000" fill="#005b00"><path d="M428.17-16.928s81.556 90.618 111.01 154.05c29.451 63.432 54.371 156.32 54.371 156.32s2.265-86.086-36.247-163.11c-52.1-97.419-131.4-142.73-129.13-147.26z" transform="matrix(.1235 -.05562 .06132 .26593 243.637 183.89)"/><path d="M428.17-16.928s81.556 90.618 111.01 154.05c29.451 63.432 54.371 156.32 54.371 156.32s2.265-86.086-36.247-163.11c-52.1-97.419-131.4-142.73-129.13-147.26z" transform="matrix(.14805 -.0386 .05203 .29398 230.03 162.45)"/><path d="M428.17-16.928s81.556 90.618 111.01 154.05c29.451 63.432 54.371 156.32 54.371 156.32s2.265-86.086-36.247-163.11c-52.1-97.419-131.4-142.73-129.13-147.26z" transform="matrix(.17476 .10666 -.0217 .29994 233.795 77.035)"/><path d="M428.17-16.928s81.556 90.618 111.01 154.05c29.451 63.432 54.371 156.32 54.371 156.32s2.265-86.086-36.247-163.11c-52.1-97.419-131.4-142.73-129.13-147.26z" transform="matrix(.1856 .02256 .01245 .33261 217.135 111.378)"/><path d="M428.17-16.928s81.556 90.618 111.01 154.05c29.451 63.432 54.371 156.32 54.371 156.32s2.265-86.086-36.247-163.11c-52.1-97.419-131.4-142.73-129.13-147.26z" transform="matrix(.13645 .12644 -.02784 .26786 259.09 75.2)"/><path d="M428.17-16.928s81.556 90.618 111.01 154.05c29.451 63.432 54.371 156.32 54.371 156.32s2.265-86.086-36.247-163.11c-52.1-97.419-131.4-142.73-129.13-147.26z" transform="matrix(.1709 .00107 .0259 .30402 221.8 131.719)"/><path d="M428.17-16.928s81.556 90.618 111.01 154.05c29.451 63.432 54.371 156.32 54.371 156.32s2.265-86.086-36.247-163.11c-52.1-97.419-131.4-142.73-129.13-147.26z" transform="matrix(.14928 -.05359 .05029 .29058 229.01 173.214)"/><path d="M428.17-16.928s81.556 90.618 111.01 154.05c29.451 63.432 54.371 156.32 54.371 156.32s2.265-86.086-36.247-163.11c-52.1-97.419-131.4-142.73-129.13-147.26z" transform="matrix(.14956 -.02466 .03783 .29819 230.934 150.527)"/><path d="M428.17-16.928s81.556 90.618 111.01 154.05c29.451 63.432 54.371 156.32 54.371 156.32s2.265-86.086-36.247-163.11c-52.1-97.419-131.4-142.73-129.13-147.26z" transform="matrix(.16782 .11476 -.03826 .2847 240.29 74.095)"/><path d="M428.17-16.928s81.556 90.618 111.01 154.05c29.451 63.432 54.371 156.32 54.371 156.32s2.265-86.086-36.247-163.11c-52.1-97.419-131.4-142.73-129.13-147.26z" transform="matrix(.1841 .03988 -.00352 .33303 220.513 98.363)"/><path d="M428.17-16.928s81.556 90.618 111.01 154.05c29.451 63.432 54.371 156.32 54.371 156.32s2.265-86.086-36.247-163.11c-52.1-97.419-131.4-142.73-129.13-147.26z" transform="matrix(.12836 .12774 -.0431 .2488 265.86 77.481)"/><path d="M428.17-16.928s81.556 90.618 111.01 154.05c29.451 63.432 54.371 156.32 54.371 156.32s2.265-86.086-36.247-163.11c-52.1-97.419-131.4-142.73-129.13-147.26z" transform="matrix(.18139 .01145 .0064 .31049 218.663 121.27)"/></g><path d="M301.18 272.84s-35.433 336.61 70.866 336.61c88.583 0 88.583-53.15 106.3-53.15l-17.72-124.02-159.45-159.44z" transform="matrix(-.44076 0 0 .46547 485.82 16.967)" stroke="#000" fill="#ffdf00"/><path d="M336.61 308.27c-.001 17.717-35.433 212.6 53.15 265.75 35.433 17.716 88.582-17.717 88.582 0l-17.71-141.74-124.02-124.01z" transform="matrix(-.44076 0 0 .46547 485.82 16.967)" stroke="#000" fill="#0000c4"/><path d="M372.05 343.7c-.001 17.717-17.716 159.45 35.433 194.88 35.433 35.433 124.02 25.822 124.02 25.822l-70.87-132.12-88.58-88.58z" transform="matrix(-.44076 0 0 .46547 485.82 16.967)" stroke="#000" fill="#e10000"/><path d="M354.328 143.963l-71.534 75.407-1.254-1.187 71.533-75.407 1.255 1.186z"/><path d="M460.63 184.25l17.716 35.433V237.4c-.865-1.305 0 17.716-17.716 17.716-17.717 0-17.717-35.433-17.717-35.433s-17.716 35.433-17.716 70.866 17.716 53.15 17.716 53.15-2.611-36.703 17.717-35.433c20.328 1.271 17.716 17.716 17.716 17.716v35.433h17.717v-141.73l17.717-35.433-27.136-53.15-26.014 53.15z" transform="matrix(-.10225 -.10676 -.07864 .08233 427.91 169.68)" stroke="#000" fill="#cececc"/><path d="M557.82 95.669l-26.323 70.866 17.717 53.15-35.433-17.716 35.433 53.149v35.433h17.716v-35.433l35.433-53.149-35.433 17.716 17.717-53.15-26.827-70.866z" transform="matrix(-.07873 -.12073 -.10527 .06986 407.057 163.395)" stroke="#000" fill="#cececc"/><path d="M422.53 136.96c0 2.068-1.958 3.746-4.371 3.746-2.412 0-4.371-1.678-4.371-3.746s1.959-3.747 4.371-3.747c2.413 0 4.371 1.679 4.371 3.747zm-6.244 7.909c0 35.801 20.917 187.81 22.582 191.56.139 4.44-4.718 6.383-7.077.833-6.551-17.342-20.744-159.91-21.333-193.22-.244-13.734 3.761-14.801 8.326-14.57 3.759.209 8.325 3.725 8.325 7.909 0 4.996-5.828 8.742-10.823 7.493z" transform="matrix(-.30254 0 0 .23415 460.08 77.33)" stroke="#000" fill="#e10000"/><path d="M422.53 136.96c0 2.068-1.958 3.746-4.371 3.746-2.412 0-4.371-1.678-4.371-3.746s1.959-3.747 4.371-3.747c2.413 0 4.371 1.679 4.371 3.747zm-6.244 7.909c31.488 61.415 48.722 166.77 50.387 170.52.139 4.44-4.718 6.383-7.077.833-2.479-3.315-12.667-100.18-49.138-172.18-.244-13.734 3.761-14.801 8.326-14.57 3.759.209 8.325 3.725 8.325 7.909 0 4.996-5.828 8.742-10.823 7.493z" transform="matrix(-.2854 .06855 .11376 .22088 435.684 53.448)" stroke="#000" fill="#0000c4"/><path d="M422.53 136.96c0 2.068-1.958 3.746-4.371 3.746-2.412 0-4.371-1.678-4.371-3.746s1.959-3.747 4.371-3.747c2.413 0 4.371 1.679 4.371 3.747zm-6.244 7.909c0 35.801 20.917 187.81 22.582 191.56.139 4.44-4.718 6.383-7.077.833-6.551-17.342-20.744-159.91-21.333-193.22-.244-13.734 3.761-14.801 8.326-14.57 3.759.209 8.325 3.725 8.325 7.909 0 4.996-5.828 8.742-10.823 7.493z" transform="matrix(-.3866 0 0 .38093 511.648 87.337)" stroke="#000" fill="#e10000"/><path d="M422.53 136.96c0 2.068-1.958 3.746-4.371 3.746-2.412 0-4.371-1.678-4.371-3.746s1.959-3.747 4.371-3.747c2.413 0 4.371 1.679 4.371 3.747zm-6.244 7.909c31.488 61.415 48.722 166.77 50.387 170.52.139 4.44-4.718 6.383-7.077.833-2.479-3.315-12.667-100.18-49.138-172.18-.244-13.734 3.761-14.801 8.326-14.57 3.759.209 8.325 3.725 8.325 7.909 0 4.996-5.828 8.742-10.823 7.493z" transform="matrix(-.3647 .11153 .14536 .35935 480.487 48.482)" stroke="#000" fill="#0000c4"/></g><g fill-rule="evenodd" stroke="#000" stroke-width="1pt"><path d="M478.35 698.03c17.717 10.652 37.089 8.268 53.15 0V556.3h-35.433c17.717 53.15 17.717 106.3-17.717 141.73z" fill="#e10000" transform="matrix(.44076 0 0 .46547 17.296 16.967)"/><path d="M513.78 609.45c0 88.582-42.466 108.27-42.466 125.98 17.716 0 29.465-8.248 42.466-19.685 17.716-17.717 19.426-107.68 17.716-106.3H513.78z" transform="matrix(.26501 0 0 .52366 103.226 -43.228)" fill="#0000c4"/><path d="M478.35 609.45c-.81 51.77-44.794 99.639-36.497 110.24 9.474 9.475 36.497-21.654 71.931-3.937 17.716-17.717 19.426-107.68 17.716-106.3h-53.15z" transform="matrix(.26501 0 0 .52366 103.226 -43.228)" fill="#0000c4"/><path d="M513.78 609.45c0 88.582-40.696 94.469-40.696 118.09 17.717 0 40.603-12.912 40.696-11.791 17.716-17.717 19.426-107.68 17.716-106.3H513.78z" transform="matrix(.26501 0 0 .34912 94.948 63.145)" fill="#ffdf00"/><path d="M478.35 609.45c-.81 51.77-43.73 95.702-35.433 106.3 9.474 9.475 35.433-17.717 70.867 0 17.716-17.717 19.426-107.68 17.716-106.3h-53.15z" transform="matrix(.26501 0 0 .34912 94.948 63.145)" fill="#ffdf00"/><path d="M478.35 698.03c17.717 10.652 37.089 8.252 53.15-.015v-141.72h-35.433c17.717 53.15 17.717 106.3-17.717 141.73z" transform="matrix(-.44076 0 0 .46547 485.82 16.974)" fill="#e10000"/><path d="M513.78 609.45c0 88.582-42.466 108.27-42.466 125.98 17.716 0 29.465-8.248 42.466-19.685 17.716-17.717 19.426-107.68 17.716-106.3H513.78z" transform="matrix(-.26501 0 0 .52366 399.886 -43.223)" fill="#0000c4"/><path d="M478.35 609.45c-.81 51.77-44.794 99.639-36.497 110.24 9.474 9.475 36.497-21.654 71.931-3.937 17.716-17.717 19.426-107.68 17.716-106.3h-53.15z" transform="matrix(-.26501 0 0 .52366 399.886 -43.223)" fill="#0000c4"/><path d="M513.78 609.45c0 88.582-40.696 94.469-40.696 118.09 17.717 0 40.603-12.912 40.696-11.791 17.716-17.717 19.426-107.68 17.716-106.3H513.78z" transform="matrix(-.26501 0 0 .34912 408.168 63.152)" fill="#ffdf00"/><path d="M478.35 609.45c-.81 51.77-43.73 95.702-35.433 106.3 9.474 9.475 35.433-17.717 70.867 0 17.716-17.717 19.426-107.68 17.716-106.3h-53.15z" transform="matrix(-.26501 0 0 .34912 408.168 63.145)" fill="#ffdf00"/></g><g stroke="#000" fill-rule="evenodd"><path d="M198.56 77.952l-89.676 35.434 89.676 35.434 44.837-17.717 22.419 17.717 22.419 35.433 22.419-35.433 22.419-17.717 1201.9-.002V95.667l-1201.9.002-22.419-17.717c0-17.716 4.703-35.433 22.419-35.433l89.675-.002c0-17.716-44.838-53.15-134.51-53.15-89.675 0-134.51 35.434-134.51 53.15l89.675.002c17.716 0 22.419 17.717 22.419 35.433l-22.44 17.717-44.84-17.716z" transform="matrix(.09095 0 0 .16926 174.417 269.463)" stroke-width="4.467" fill="#908f8a"/><path transform="matrix(.20988 0 0 .20687 173.099 277.19)" stroke-width="1.838" fill="#b74d00" d="M204.35 95.671h336.61v17.717H204.35z"/><path transform="matrix(.20988 0 0 .20687 173.099 277.19)" stroke-width="1.838" fill="#b74d00" d="M204.35 77.955h336.61v17.717H204.35zM204.35 60.237h336.61v17.717H204.35z"/><path transform="matrix(.20988 0 0 .20687 173.099 277.19)" stroke-width="1.838" fill="#b74d00" d="M204.35 42.522h336.61v17.717H204.35zM204.35 24.805h336.61v17.717H204.35z"/><path transform="matrix(.20988 0 0 .20687 173.099 277.19)" stroke-width="1.838" fill="#b74d00" d="M204.35 7.089h336.61v17.717H204.35zM204.35-10.628h336.61V7.089H204.35z"/><path d="M423.23 60.236l137.8 124.02h19.686l-137.8-124.02H423.23z" transform="matrix(.1889 0 0 .20687 139.765 262.532)" stroke-width="3.255" fill="#908f8a"/><path d="M423.23 60.236l137.8 124.02h19.686l-137.8-124.02H423.23z" transform="matrix(.1889 0 0 -.20687 139.765 313.11)" stroke-width="3.255" fill="#908f8a"/><path d="M425.2 60.236v124.02h17.716V60.236H425.2z" transform="matrix(.2099 0 0 .20687 130.46 262.532)" stroke-width="3.087" fill="#908f8a"/><path d="M423.23 60.236l137.8 124.02h19.686l-137.8-124.02H423.23z" transform="matrix(.1889 0 0 .20687 173.231 262.532)" stroke-width="3.255" fill="#908f8a"/><path d="M423.23 60.236l137.8 124.02h19.686l-137.8-124.02H423.23z" transform="matrix(.1889 0 0 -.20687 173.231 313.11)" stroke-width="3.255" fill="#908f8a"/><path d="M425.2 60.236v124.02h17.716V60.236H425.2z" transform="matrix(.20989 0 0 .20687 189.958 262.532)" stroke-width="3.087" fill="#908f8a"/><path d="M425.2 60.236v124.02h17.716V60.236H425.2z" transform="matrix(.20989 0 0 .20687 163.927 262.532)" stroke-width="3.087" fill="#908f8a"/><path d="M425.2 60.236v124.02h17.716V60.236H425.2z" transform="matrix(.2099 0 0 .20687 156.491 262.532)" stroke-width="3.087" fill="#908f8a"/></g><g><g stroke="#000" stroke-width="1pt" fill="#ffdf00" fill-rule="evenodd"><path d="M655.51 396.85c0 88.016-55.559 159.45-124.02 159.45-68.456 0-124.02-71.433-124.02-159.45 0-88.015 55.559-159.45 124.02-159.45 68.457 0 124.02 71.433 124.02 159.45zm-17.717.001c0 78.236-47.622 141.73-106.3 141.73-58.677 0-106.3-63.496-106.3-141.73 0-78.237 47.622-141.73 106.3-141.73 58.677 0 106.3 63.496 106.3 141.73z" transform="matrix(.44076 0 0 .46547 17.296 16.967)"/><path d="M579.75 249.94c-14.836-8.072-31.144-12.537-48.258-12.537s-33.422 4.465-48.257 12.537l6.893 16.323c12.716-7.175 26.695-11.144 41.364-11.144s28.648 3.969 41.364 11.144l6.894-16.323z" transform="matrix(.44076 0 0 .46547 17.296 16.967)"/><path d="M579.75 249.94c-14.836-8.072-31.144-12.537-48.258-12.537s-33.422 4.465-48.257 12.537l6.893 16.323c12.716-7.175 26.695-11.144 41.364-11.144s28.648 3.969 41.364 11.144l6.894-16.323z" transform="matrix(.44076 0 0 -.46547 17.386 386.413)"/></g><path d="M298.413 201.689c0 36.435-20.977 65.97-46.853 65.97s-46.853-29.536-46.853-65.97c0-36.436 20.977-65.971 46.853-65.971s46.853 29.537 46.853 65.97z" fill-rule="evenodd" fill="#a7cfff"/><path d="M637.8 396.85c1.133 26.658-4.634 39.635-11.89 67.356-1.912 2.979-10.966-6.537-16.447-11.236s-7.812 4.239-14.537-3.046c-6.725-7.284-11.049 2.058-15.983-4.095s-51.301-7.056-51.366-7.585c4.591-2.276 28.269.152 24.474-11.193-4.3-11.722-31.094-.352-34.692-15.365-2.44-14.907-53.566-15.543-57.219-19.225 1.444 5.664 39.728 8.049 38.814 22.57-.833 5.915-37.693 7.644-41.247 12.651-3.045 6.295 28.927-1.707 30.114 6.032-.078 3.185-4.705.068-21.358 4.99-8.326 2.46 15.454 10.329 6.41 14.637-9.045 4.307-28.261 6.187-27.433 7.997 2.94 8.908 44.693 19.536 40.535 21.065-14.754 6.559-22.552 10.872-29.627 14.652-19.24-25.653-31.146-61.087-31.146-100.2 31.716-11.405 24.968-13.735 83.645-13.735s77.981 2.33 128.95 13.735z" fill-rule="evenodd" stroke="#000" stroke-width="1pt" fill="#afff7b" transform="matrix(.44076 0 0 .46547 17.296 16.967)"/><path d="M637.8 396.85c-8.07 0-16.454 3.399-25.07 3.399-8.617 0-17.465-3.398-26.466-3.398s-19.287 4.531-28.512 4.531c-9.224 0-17.388-4.531-26.676-4.531-9.287 0-18.566 3.398-27.755 3.398s-18.289-3.398-27.219-3.398-17.691 3.398-26.201 3.398-16.77-3.399-24.699-3.399c0-19.559 2.976-38.197 8.358-55.151 27.075 2.002 11.042-15.715 27.075-15.715 8.655 0 17.434 1.859 25.238 9.788 2.447 0 14.479-11.373 27.912-9.788 13.432 1.586 8.492 27.272 26.371 28.637 9.062 6.796 14.392 11.133 26.778 13.871 17.717 1.606 68.351-2.5 68.705-.194a188.08 188.08 0 0 1 2.161 28.552z" fill-rule="evenodd" stroke="#000" stroke-width="1pt" fill="#fff" transform="matrix(.44076 0 0 .46547 17.296 16.967)"/><path d="M549.85 473.94c0-5.664 13.512-9.462 13.512-18.524s-11.914-9.349-12.379-17.86c-.2-3.461 10.319-7.046 14.914-7.335s8.493 7.42 8.493 9.119-4.662-4.192-8.578-4.378-12.313.631-12.313 2.33c0 3.399 14.851 7.598 13.718 18.925-1.132 11.327-12.71 14.657-12.71 18.055s5.056 12.86 5.056 12.86-9.713-7.529-9.713-13.192z" fill-rule="evenodd" transform="matrix(.15474 0 0 .36325 173.98 69.56)" stroke="#000" stroke-width="1pt"/><path d="M549.85 473.94c0-5.664 13.512-9.462 13.512-18.524s-11.949-9.348-12.379-17.86c-.947-3.962 11.813-6.544 16.408-6.833s9.986 7.921 9.986 9.62-5.409-5.195-9.325-5.381-14.553.631-14.553 2.33c0 3.399 14.851 7.598 13.718 18.925-1.132 11.327-12.71 14.657-12.71 18.055s5.056 12.86 5.056 12.86-9.713-7.529-9.713-13.192z" fill-rule="evenodd" transform="matrix(-.15474 0 0 .36325 346.519 69.267)" stroke="#000" stroke-width="1pt"/><path d="M261.336 224.545c0 1.006-.492 1.821-1.098 1.821-.606 0-1.098-.815-1.098-1.821s.492-1.822 1.098-1.822c.606 0 1.098.816 1.098 1.822zM275.89 230.176h.353v14.726h-.353zM279.068 229.058h.353v14.727h-.353z" fill-rule="evenodd"/><path fill-rule="evenodd" d="M276.153 236.911l.003-.372 3.002.516-.003.372z"/><path d="M497.26 478.07s26.052 11.328 31.716 18.124c5.664 6.797 3.398 6.796 3.398 6.796l57.769 2.266c0-3.398 10.194-3.399 12.46-11.328 2.265-7.929 2.265-10.194 2.265-10.194l-18.123 5.664 1.132-10.194-15.858-.001-2.265 10.195-33.982-1.133 2.266-27.186-6.796 1.133-1.133 26.053c-1.133 0-31.717-7.929-32.849-10.195z" fill-rule="evenodd" transform="matrix(.44076 0 0 .46547 15.299 17.494)" stroke="#000" stroke-width="1pt" fill="#b74d00"/><path d="M440.53 316.28s37.645-11.214 92.11-10.413 92.11 12.815 91.309 12.815-10.413-18.422-10.413-18.422-38.446-10.412-81.697-11.213c-43.252-.801-80.897 8.01-80.096 8.811L440.53 316.28z" fill-rule="evenodd" stroke="#fede00" stroke-width="1pt" fill="#fede00" transform="matrix(.44076 0 0 .46547 17.296 16.967)"/><path fill-rule="evenodd" fill="#38a9f9" d="M241.038 152.849l10.236-.198.103 5.964-10.236.198zM217.416 156.095l-3.61 5.875 12.201-1.503-.98-5.874-7.61 1.502zM227.815 153.835l10.203-.897.468 5.944-10.202.897zM264.675 153.226l-10.217-.686-.359 5.953 10.217.686zM286.7 156.964l3.713 7.313-11.051-2.727 1.23-5.822 6.109 1.236zM277.843 154.838l-10.154-1.382-.722 5.916 10.154 1.382z"/><path fill="#ffdf00" fill-rule="evenodd" stroke="#000" stroke-width="1pt" d="M532.64 323.49l-2.58-13.47-7.54 11.46 2.77-13.43-11.34 7.7 7.7-11.35-13.43 2.78 11.45-7.54-13.47-2.58 13.47-2.58-11.45-7.53 13.43 2.77-7.7-11.35 11.34 7.7-2.77-13.43 7.54 11.46 2.58-13.47 2.57 13.47 7.54-11.46-2.77 13.43 11.35-7.7-7.71 11.35 13.44-2.77-11.46 7.53 13.47 2.58-13.47 2.58 11.46 7.54-13.44-2.78 7.71 11.35-11.35-7.7 2.77 13.43-7.54-11.46z" transform="matrix(.44076 0 0 .46547 17.296 16.967)"/><path d="M547.05 293.86c0 9.29-6.634 16.82-14.818 16.82s-14.818-7.53-14.818-16.82 6.634-16.82 14.818-16.82 14.818 7.53 14.818 16.82z" fill-rule="evenodd" transform="matrix(.42884 0 0 .3879 23.813 41.069)" stroke="#000" stroke-width="1pt" fill="#ffdf00"/><path d="M252.06 153.375c0 .412-.948.746-2.118.746s-2.118-.334-2.118-.746.948-.746 2.118-.746 2.118.334 2.118.746zM256.648 153.374c0 .412-.71.746-1.588.746s-1.589-.334-1.589-.746c0-.411.711-.745 1.589-.745s1.588.334 1.588.745z" fill-rule="evenodd"/><path d="M529.43 297.86l.801.801c-1.902-1.902-.996-1.126 1.602 3.203 2.393-.495 3.091-1.39 4.806-2.403" transform="matrix(.4226 -.13222 .1252 .4463 -10.137 93.053)" stroke="#000" stroke-width="1pt" fill="none"/><path d="M527.83 304.27l.801.801c-1.902-1.902-1.124-.995 3.204 1.602 4.027.544 8.092-1.196 10.412-4.005" transform="matrix(.44076 0 0 .46547 16.59 16.967)" stroke="#000" stroke-width="1pt" fill="none"/><path d="M223.819 170.898s.706 5.965-3.884 13.421c-4.59 7.457-3.883 4.847-3.883 4.847s2.118 4.101 1.765 4.101-3.53-3.728-3.53-3.728l-3.883 4.1s3.53-6.337 3.177-6.337-1.06-2.237-1.06-2.237l2.825-1.119s4.236-7.829 4.236-7.456-12.709 8.575-12.709 8.575l16.946-14.167zM226.644 173.137c-.353 0 1.765 5.965 3.53 8.948 1.765 2.982 1.765 6.71 1.765 6.71l6.002 2.983-7.767-11.557 4.943 1.864-8.473-8.948zM226.644 188.795s4.236 4.474 4.589 5.965.353 4.847.353 4.847l-1.765-3.728-2.471 3.355s1.765-5.22 1.412-5.592-2.824 1.864-2.824 1.864 1.059-2.983 1.059-3.356 0-2.237-.353-3.355zM205.46 199.231c1.413-1.118 4.237-1.864 4.237-1.864s-1.765 2.983-2.118 2.983-1.412 0-2.118-1.119zM254.178 182.828s9.178 5.593 9.178 5.965-6-2.61-6-2.61l-3.178-3.355zM237.588 171.27c.706.373 13.415 10.812 13.062 10.812S245 179.1 245 179.472v2.61l-2.824-5.965-.706 2.237-3.883-7.084zM240.761 188.046l3.53 7.083 3.53-.745s-6.707-6.338-7.06-6.338zM251.71 183.573c0 1.118.353 6.71.353 6.71s2.118 1.865 2.118 1.492-2.118-7.83-2.471-8.202z" fill-rule="evenodd" fill="#b7e1ff"/></g><g><path d="M147.855 92.216s15.836-8.761 33.865-15.286c18.03-6.525 38.253-10.812 40.925-10.812 5.343 0 14.5 13.422 16.027 13.422 1.526 0 7.631-3.728 15.263-3.728s12.21 5.965 13.737 5.965h13.737c1.526 0-4.58-14.914 0-14.168 2.29.373 21.75 3.356 39.876 9.228 18.124 5.872 43.854 16.239 43.854 16.239s-42.051 5.616-53.202 3.955c-1.526.745-.075 9.863-2.214 5.852-3.513-.802-16.411-2.813-18.7-2.813s-6.56 2.586-12.665 4.078c-6.105 1.491-13.737 3.728-13.737 3.728l9.921 15.66-12.21 5.965s-7.632-17.897-10.684-17.897-4.58 12.677-8.395 11.931c-3.816-.745-5.342-11.93-8.395-14.913-3.053-2.983-19.147-4.069-25.253-5.56-6.105-1.491-15.959-2.643-21.3-4.134-5.343-1.492-10.685 3.728-12.974 3.728-2.29 0 3.052-4.474.763-5.22s-3.816 2.238-5.342 2.238c-1.527 0-17.553-2.983-19.08-3.729-1.526-.746 3.817-3.728 2.29-3.728h-6.105z" fill-rule="evenodd" fill="#984000"/><path d="M462.91-64.94c0 21.151-20.501 38.298-45.791 38.298s-45.791-17.147-45.791-38.298 20.501-38.298 45.791-38.298S462.91-86.091 462.91-64.94z" fill-rule="evenodd" transform="matrix(.16518 0 0 .19902 184.85 97.497)" stroke="#772600" stroke-width="3.706" fill="gray"/><path d="M284.74-59.945c6.661-6.66 14.987-16.651 36.633-16.651 4.996-1.665 4.996-11.656 16.651-11.656 11.656 0 8.326 9.99 16.652 13.321 8.325 3.33 76.596-3.33 76.596-3.33s6.66 4.995 6.66 11.656c0 6.66-4.995 11.656-6.66 11.656s-68.271-4.996-73.266-3.33c-4.995 1.665-8.326 3.33-19.982 3.33-11.655 0-14.986-11.656-23.311-11.656-8.326 0-16.652-1.665-29.973 6.66z" fill-rule="evenodd" transform="matrix(.20647 0 0 .24092 165.048 100.617)" stroke="#772600" stroke-width="5.25" fill="#984000"/><path d="M487.88-76.597h26.642c9.572.114 12.873 3.005 21.647 3.33h23.312c8.475-.314 12.951-2.295 21.647-3.33 14.504-.175 9.555-1.306 6.66-9.99-2.625-6.565-2.949-9.61-6.66-13.322-1.396-7.945-4.655-10.772-4.996-19.982-1.527-7.026-4.342-11.752-1.665-19.982 3.84 5.647 5.387 7.97 14.986 8.326 10.045 0 13.937-.206 19.982 3.33 4.663 4.891 10.886 3.331 19.982 3.331 7.677 1.405 8.96 5.312 14.986 8.325 7.103 3.936 11.694 4.996 21.646 4.996 7.968 1.422 14.88 2.578 19.982 4.995 4.25 5.08 10.951 6.338 19.982 6.66 5.049 0 8.949-.524 13.321-1.665 7.677.37 15.473 0 24.977 0 6.162 7.21 7.586 9.862 18.316 9.991 7.338 5.154 13.527 6.036 19.982 8.326h24.977c8.928.687 11.789 4.35 19.981 6.66 8.114 3.768 15.721 6.35 21.647 8.326 5.891 1.28 13.574 1.665 21.646 1.665 6.183 3.175 13.609 3.46 18.317 6.66 6.89 1.477 16.302 3.215 21.647 4.996 8.816 1.169 12.187 3.942 19.981 4.996 6.703 1.915-2.224 3.56-6.66 4.995-9.827-.364-10.537-3.946-19.982-4.995-5.023-2.939-12.639-2.548-19.981-4.996h-1.666c6.6 3.904 12.948 6.423 9.991 13.321-8.492 0-15.367-1.097-23.312-1.665-8.384-1.616-12.226-3.33-21.646-3.33 9.395-2.264 11.855.27 18.316 3.33 2.396 8.059-2.725 4.996-11.656 4.996-7.608-2.731-12.173-5.984-21.647-6.66h-19.981c9.89.365 11.977 4.098 18.316 8.325.518 2.59-.132 2.472-4.995 3.33-5.16-4.478-11.889-6.013-19.982-8.326-7.879-.281-16.217-.965-23.311-3.33-4.867-.304-4.116-6.177 6.66 3.33 6.533 3.843 8.833 6.946 8.326 9.991-8.576-2.144-12.825-5.58-18.317-8.325-7.736-2.855-14.128-3.33-23.312-3.33-8.609-2.266.894-3.574 6.661 4.995 12.379 8.768-1.633 5.006-6.661 3.33-7.507-2.145-15.284-5.185-21.646-6.66-5.046-1.442-9.441-2.856-14.986-3.33 8.631.784 11.571 3.822 14.986 9.99 8.755 6.031-.384 3.1-8.326 1.665-5.071-4.402-11.487-6.658-14.986-11.656-8.351-4.176-8.563-8.982-3.33 1.665 1.363 3.407 1.111 10.795 1.665 11.656-6.136-6.626-4.825-8.326-11.656-8.326-4.634-3.244-11.496-5.765-14.986-9.99-6.436-.604-6.842-2.9-13.321-4.996 5.341 6.274 12.389 12.48 16.651 18.316 7.597 4.242 9.7 8.061 14.986 11.656 2.14 3.638 7.904 6.656 1.665 1.665-7.144-7.043-12.46-8.67-23.312-13.32-6.149-4.96-8.37-7.045-14.986-11.657-9.003-2.904-5.508-4.542 0 4.996 6.318 5.769 11.169 12.23 16.652 16.65 3.767 4.908 10.136 10.119 14.986 13.322 1.501 2.251 5.991 2.664 0 3.33-5.091-4.598-12.398-7.531-18.317-11.656-8.302-2.342-12.191-6.653-18.316-11.656-3.9-5.85-10.382-10.381-14.986-14.986-9.631-3.769 1.899 3.637 4.995 8.326 2.153 6.068 4.788 11.035 6.661 16.65 2.78 5.561-8.47-1.327-11.656-3.33-7.321-4.157-12.674-6.937-21.647-8.325-5.98-1.3-13.602-2.468-19.982-3.33-7.614-2.05 4.042 4.8 8.326 11.656 8.418 7.908-8.332 1.425-13.321 0-8.223-1.645-16.287-1.666-24.977-1.666-10.67.628-3.05 1.947 0 6.66 3.287 2.53 5.637 7.855 4.995 9.992-7.032-.95-13.025-3.023-21.646-3.33-6.962 2.32-15.345 1.665-23.312 1.665-.381 4.19 1.444.654 4.995 4.995 5.763 2.341 9.585 5.177 8.326 8.326h-48.289c-5.29 1.447 1.14.704 5 6.663-2.161 5.402-4.95 3.33-11.656 3.33-4.545-1.817-13.598-2.635-18.317-4.995-4.689 0-4.336-1.221-8.325-1.665 14.035 9.928 7.073 7.45 14.986 14.986 1.367.456 4.524 1.665 1.665 1.665M371.32 73.265c-.997 0-3.199-5.375-6.66-9.99-2.327-6.05-5.392-2.589-8.326-11.657.348-9.402.684-11.094 0-19.982-6.863-4.783-9.714-6.27-14.986-14.986-8.46-7.078 1.236-19.063 2.845-27.849-7.375-1.639-11.001 11.476-22.341 16.193-8.155 5.492-.911-11.354-4.891-21.188-2.775-13.872-10.826 6.956-13.911 12.862-5.467 3.718-7.128 8.542-14.986 1.665 0-5.144 4.937-19.489 2.845-22.279-7.814 3.814-18.087 15.49-26.157 17.283-8.131-1.767 1.769-14.828 1.769-24.518-2.937-.979-14.695 25.756-19.519 26.003-4.824.248-2.713-25.993-4.972-25.428-3.542 4.96-10.649 15.43-15.576 18.948-9.454-1.22 1.398-17.435 2.845-23.427 1.629-7.168-8.904 13.751-14.501 15.102-4.101 3.554-12.237 6.072-14.986 6.661 3.239-6.132 19.076-18.713 17.935-22.279-9.21.341-23.311 12.557-31.256 13.953-5.192 0-12.388 1.758-13.321 1.665.448-7.926 19.418-14.65 22.445-19.465-9.306 1.494-27.186 9.706-32.436 16.135-6.145 1.336-13.943 3.02-19.982 0 .897-7.475 14.856-21.998 17.936-26.758-8.396 3.698-12.642 6.59-21.647 8.326-1.652 1.652-6.524 5.231-4.995 1.665 2.655-6.945 6.675-10.11 9.99-14.986-7.45 1.364-10.28 5.634-18.316 9.99-5.094.222-19.646 14.855-24.596 15.103-11.449 8.382-16.009 9.807-28.307 13.32-7.587 1.356-11.259 2.934-14.986 6.661 3.796-6.688 9.597-13.093 14.986-16.65 3.677-5.568 7.121-10.196 14.986-13.322 1.897-2.318 7.188-2.905 1.665-3.33-4.746 4.237-12.696 8.966-16.65 11.656-5.102 3.207-11.01 6.481-13.322 4.995 2.618-7.197 7.437-8.902 11.656-14.986 8.81-5.605.042-1.915-6.66 0-4.338 3.867-12.122 6.726-18.316 9.991-7.114 1.856-11.704 6.132-19.982 8.326 0 2.375 2.365-4.249 3.33-6.66 6.831-7.41 8.657-9.476 16.651-11.657 1.912-2.867 4.419-1.665-1.665-1.665-4.514 4.024-10.811 6.212-16.651 9.991-5.891 1.28-13.574 1.665-21.647 1.665-10.355 1.243-9.46 2.025 0-3.33 5.357-5.042 9.769-3.775 9.99-9.99C10.394-40.428 2.78-37.1-4.998-33.304c-6.435.19-8.134 1.665-14.986 1.665 3.298-3.415 5.277-7.633 9.99-9.99 6.896-7.663-4.377-1.478-6.66 0h-24.977c-4.465 5.581-.23.05 3.33-3.33 4.306-2.24 8.756-5.155 8.326-6.661-4.972 4.315-10.726 6.298-14.986 9.99-4.64 1.392-9.991 2.085-9.991 3.331 3.627-5.346 9.525-8.576 13.321-13.321 5.612-1.22 10.396-2.935 11.656-4.995h-23.312 16.651c8.399 0 15.628-.75 23.312-1.665 13.263-2.211-1.159-3.33-8.326-3.33-1.39-2.549 4.112-3.988 9.991-4.996 5.024-2.38 11.233-4.493 16.651-6.66 5.256-1.434 12.706-5.81 13.321-6.661-5.015.264-4.975 1.401-9.99 1.665 7.446-.573 12.8-1.665 21.646-1.665 8.028-2.58 14.906-5.411 21.647-8.326 2.936-3.588 4.24-3.33-3.33-3.33 6.713-2.158 16.238-3.193 21.647-4.995 7.872-1.687 14.899-4.253 19.982-6.661 4.876-3.315 7.69-7.175 13.321-9.99 6.527 4.438 6.601 4.995 18.317 4.995 9.409-.112 15.171-2.373 19.981-6.661 7.207-1.965 8.482-5.43 16.651-6.66 7.444 1.329 15.029 1.665 23.312 1.665 8.096-2.12 15.677-6.011 21.647-9.991 5.093-2.502 11.139-6.121 16.651-8.326 6.07 3.133 10.843 5.65 18.317 6.66 7.727-1.148 11.746-4.868 18.316-6.66 3.577-4.33 8.777-6.632 14.986-8.325 9.671-4.748 8.913 1.574 13.321 6.66 4.895 5.133 11.373 2.68 18.317 4.996 3.83 5.893 6.646 9.914 11.656 13.32 3.889 4.709 8.508 6.035 16.651 6.66 2.967 3.958.601 6.812 6.661 8.327 2.388 2.529 6.518 3.606 9.99 4.995" transform="matrix(.20647 0 0 .24092 165.048 103.825)" stroke="#772600" stroke-width="3.5" fill="none"/><path d="M468.74 30.803v.833c0-2.327-.103-1.091 1.665 3.33.595 3.64-.809 3.219-2.498 5.828-.286 3.723-.832 6.4-.832 10.823-.537 3.612-2.571 7.04-4.163 9.99-1.604 3.133-8.555 4.87-8.326 9.159-3.99 1.14-4.084-1.445-4.162-5.828-2.386-2.727-3.212-6.467-4.996-9.991-1.108-3.476-3.469-6.032-4.995-9.99-2.459-3.787-4.546-4.876-6.661-9.159-.826-2.066-.682-4.618-2.497-5.828-2.72-3.438-4.489-3.99-9.159-4.163-3.592.845-4.971 2.416-8.325 3.33-2.57.857-7.57.581-10.824 1.666-.808 1.314 1.6 1.94 2.498 4.995-2.135 1.764-2.926 4.883-4.163 7.493-1.965 2.486-3.283 3.705-4.163 7.493 1.363 2.316.201 5.387-1.665 7.493-.574 3.864-2.434 5.874-3.33 9.159-2.686 1.826-3.652 3.538-5.828 6.66-1.914 2.68-3.636 2.498-8.326 2.498-3.667-1-4.181-2.988-7.493-4.163-.352-1.057-.608-1.313-1.665-1.665" transform="matrix(.20647 0 0 .24092 165.048 103.825)" stroke="#782600" stroke-width="3.125" fill="none"/><path d="M242.23 119.397s-.345 3.74-2.751 6.233-7.392 5.402-7.392 5.402 6.704-3.186 7.392-2.493c.687.692-4.298 6.233-4.298 6.233s6.533-5.818 7.392-5.818 2.75 5.679 3.438 5.54c.688-.138-1.547-7.202-1.203-8.31.343-1.108 0-7.064 0-7.064l-2.579.277zM257.698 118.89s-.344 3.998-2.75 6.663-7.392 5.774-7.392 5.774 6.704-3.405 7.392-2.665c.687.74-4.298 6.663-4.298 6.663s6.532-6.219 7.392-6.219 2.75 6.07 3.438 5.923c.687-.149-1.547-7.7-1.203-8.884.343-1.184 0-7.55 0-7.55l-2.579.295zM236.042 82.628c0 .745-.73 1.349-1.63 1.349s-1.63-.604-1.63-1.35.73-1.348 1.63-1.348 1.63.604 1.63 1.349z" fill-rule="evenodd" fill="#812e00"/></g></svg>