<svg xmlns="http://www.w3.org/2000/svg" height="512" width="512"><defs><clipPath id="a"><path fill-opacity=".67" d="M124.02 0h496.06v496.06H124.02z"/></clipPath></defs><g clip-path="url(#a)" transform="translate(-128) scale(1.0321)"><g fill-rule="evenodd"><path fill="#fff" d="M0 162.99h744.09v166.54H0z"/><path d="M0 329.53h744.09v166.54H0z"/><path fill="red" d="M0 0h744.09v162.99H0z"/><path d="M322.44-322.44h7.087l3.75 60.236-7.294 7.087-7.086-7.087 3.543-60.236z" transform="matrix(.60585 -.03204 .0572 .75873 187.262 504.427)" stroke="#fff" stroke-width="1pt" fill="#d7b900"/><path d="M322.44-322.44h7.087l3.75 60.236-7.294 7.087-7.086-7.087 3.543-60.236z" transform="matrix(.60642 .02312 -.04128 .75945 147.092 486.669)" stroke="#fff" stroke-width="1pt" fill="#d7b900"/><g stroke="#fff" stroke-width="4.824" fill="#d7b900"><path d="M177.16 255.12l-17.716 442.91 35.433-35.434 17.716-407.48H177.16z" transform="matrix(-.26668 0 0 .18983 468.828 157.092)"/><path d="M177.16 290.55l-17.717 407.48 35.433-35.434 17.717-372.05H177.16z" transform="matrix(-.26668 0 0 .18983 459.379 150.361)"/><path d="M177.17 325.98l-17.718 372.05 35.433-35.434 17.718-336.61H177.17z" transform="matrix(-.26668 0 0 .18983 449.929 143.641)"/><path d="M177.16 361.42l-17.717 336.62 35.433-35.434 17.717-301.18H177.16z" transform="matrix(-.26668 0 0 .18983 440.48 136.91)"/></g><g stroke="#fff" stroke-width="4.824" fill="#d7b900"><path d="M177.16 255.12l-17.716 442.91 35.433-35.434 17.716-407.48H177.16z" transform="matrix(.23733 0 0 .18983 264.438 157.034)"/><path d="M177.16 290.55l-17.717 407.48 35.433-35.434 17.717-372.05H177.16z" transform="matrix(.23733 0 0 .18983 272.848 150.303)"/><path d="M177.17 325.98l-17.717 372.05 35.433-35.434 17.717-336.61H177.17z" transform="matrix(.23733 0 0 .18983 281.246 143.583)"/><path d="M177.16 361.42l-17.716 336.62 35.433-35.434 17.716-301.18H177.16z" transform="matrix(.23733 0 0 .18983 290.017 137.74)"/></g><path d="M181.73 256.05c-1.004-1.312 19.847-18.646 55.28-18.646 53.15 0 61.307 18.646 96.741 18.646h152.02c35.433 0 45.723-18.646 98.872-18.646 35.433 0 52.168 18.293 53.149 18.646 0 0-17.716-.93-53.149-.93s-49.3 39.04-85.052 38.222c-26.788.818-144.23 0-179.66 0-35.433 0-47.486-37.292-82.92-37.292-35.433 0-56.284-1.312-55.28 0z" transform="matrix(.25639 0 0 .19003 259.222 156.86)" stroke="#d7b900" stroke-width="4.824" fill="#fff"/><path d="M400.39-109.84v3.543l3.543 3.543-3.543 3.543v3.544c-14.174 7.086-28.849 7.086-42.52 7.086-13.67 0-28.346 0-46.063-7.086v-3.544l-3.543-3.543 3.543-3.543v-3.543c14.173 3.543 28.347 7.086 46.063 7.086 17.717 0 28.347-3.543 42.52-7.086z" transform="matrix(1.3231 0 0 1.2037 -106.698 429.074)" stroke="#d7b900" stroke-width="1pt" fill="#fff"/><g transform="matrix(-1.0627 .28456 .30493 .99174 784.032 308.93)" stroke="#d7b900" fill="#fff"><rect transform="matrix(-.56396 -.8258 -.8884 .45907 0 0)" rx="2.395" ry="4.505" height="40.13" width="4.789" y="-406.53" x="-73.159" stroke-width=".623"/><g stroke-width="4.713"><path d="M318.9 574.02l17.716 17.716 17.717-17.716 17.716 17.716 17.717-17.716 17.716 17.716c5.257-9.426 7.092-22.888-.112-36.519-36.185-13.818-68.824-12.643-107.18 1.188-3.087 11.031-2.975 23.928 0 35.433l18.709-17.818z" transform="matrix(-.12173 .09164 .17487 .38142 323.454 -377.054)"/><path d="M318.9 574.02l17.716 17.716 17.717-17.716 17.716 17.716 17.717-17.716 17.716 17.716c5.257-9.426 7.092-22.888-.112-36.519-36.185-13.818-68.824-12.643-107.18 1.188-3.087 11.031-2.975 23.928 0 35.433l18.709-17.818z" transform="matrix(-.12173 .09164 .17487 .38142 320.18 -384.163)"/><path d="M318.9 574.02l17.716 17.716 17.717-17.716 17.716 17.716 17.717-17.716 17.716 17.716c5.257-9.426 7.092-22.888-.112-36.519-36.185-13.818-68.824-12.643-107.18 1.188-3.087 11.031-2.975 23.928 0 35.433l18.709-17.818z" transform="matrix(-.12173 .09164 .17487 .38142 316.907 -391.273)"/><path d="M318.9 574.02l17.716 17.716 17.717-17.716 17.716 17.716 17.717-17.716 17.716 17.716c5.257-9.426 7.092-22.888-.112-36.519-36.185-13.818-68.824-12.643-107.18 1.188-3.087 11.031-2.975 23.928 0 35.433l18.709-17.818z" transform="matrix(-.12173 .09164 .17487 .38142 312.79 -400.027)"/><path d="M318.9 574.02l17.716 17.716 17.717-17.716 17.716 17.716 17.717-17.716 17.716 17.716c5.257-9.426 7.092-22.888-.112-36.519-36.185-13.818-68.824-12.643-107.18 1.188-3.087 11.031-2.975 23.928 0 35.433l18.709-17.818z" transform="matrix(-.12173 .09164 .17487 .38142 309.517 -407.134)"/><path d="M318.9 574.02l17.716 17.716 17.717-17.716 17.716 17.716 17.717-17.716 17.716 17.716c5.257-9.426 7.092-22.888-.112-36.519-36.185-13.818-68.824-12.643-107.18 1.188-3.087 11.031-2.975 23.928 0 35.433l18.709-17.818z" transform="matrix(-.12173 .09164 .17487 .38142 306.244 -414.244)"/></g><path d="M345.63-96.125c0 3.28-1.12 5.938-2.5 5.938s-2.5-2.659-2.5-5.938 1.12-5.938 2.5-5.938 2.5 2.659 2.5 5.938z" transform="matrix(.498 -.38506 .29096 .65904 228.03 87.159)" stroke-width="1pt"/><path d="M345.63-96.125c0 3.28-1.12 5.938-2.5 5.938s-2.5-2.659-2.5-5.938 1.12-5.938 2.5-5.938 2.5 2.659 2.5 5.938z" transform="matrix(.498 -.42984 .29096 .73568 242.09 102.86)" stroke-width="1pt"/><path d="M345.63-96.125c0 3.28-1.12 5.938-2.5 5.938s-2.5-2.659-2.5-5.938 1.12-5.938 2.5-5.938 2.5 2.659 2.5 5.938z" transform="matrix(.53454 -.41491 .31232 .71013 245.2 88.253)" stroke-width="1pt"/></g><path d="M268.29 261.84s32.89-42.159 32.89-95.309h70.866c0 53.15 34.308 95.309 35.434 88.584-17.717 0-53.15-17.717-70.866-53.15-17.716 35.434-50.608 59.875-68.324 59.875z" transform="matrix(.30797 0 0 .19003 258.622 162.84)" stroke="#d7b900" stroke-width="4.824" fill="#fff"/><path d="M253.46 240.41s47.939-58.726 47.939-111.88V53.946c0-17.717 23.97-18.646 35.955-18.646 17.717 0 35.954.929 35.954 18.646v74.584c0 53.149 47.94 111.88 47.94 111.88-35.433 0-54.193-39.151-71.909-74.584 0 17.717 4.993 53.862-12.724 71.579-17.716-17.717-11.246-53.862-11.246-71.579-17.717 35.433-36.475 74.584-71.909 74.584z" transform="matrix(.29565 0 0 .19003 262.772 163.37)" stroke="#d7b900" stroke-width="4.824" fill="#fff"/><path d="M283.12 77.953h53.149c0 17.716 0 35.433-17.716 35.433-17.717 0-35.433-17.717-35.433-35.433z" transform="matrix(.24229 .07746 -.05394 .11836 281.322 137.68)" stroke="#d7b900" stroke-width="5.909" fill="#fff"/><path d="M183.96 42.52c11.811 0 11.811 17.716 11.811 35.433-17.716 0-29.528-17.717-47.244 0 0-19.559 0-35.433 17.716-35.433h17.717z" transform="matrix(.36344 .11619 -.05394 .11836 290.692 143.07)" stroke="#d7b900" stroke-width="4.824" fill="#fff"/><path d="M336.61 69.094a8.858 8.858 0 1 1-17.717 0 8.858 8.858 0 0 1 17.717 0z" transform="matrix(.24229 .07746 -.08091 .17754 287.152 135.46)" stroke="#d7b900" stroke-width="4.824" fill="#fff"/><path d="M322.44-322.44h7.087l3.75 60.236-7.294 7.087-7.086-7.087 3.543-60.236z" transform="matrix(.60705 0 0 .76024 164.342 494.459)" stroke="#fff" stroke-width="1pt" fill="#d7b900"/><g transform="matrix(1.159 .30317 -.35586 .98736 -103.528 300.58)" stroke="#d7b900" fill="#fff"><rect transform="matrix(-.56396 -.8258 -.8884 .45907 0 0)" rx="2.395" ry="4.505" height="40.13" width="4.789" y="-406.53" x="-73.159" stroke-width=".623"/><g stroke-width="4.713"><path d="M318.9 574.02l17.716 17.716 17.717-17.716 17.716 17.716 17.717-17.716 17.716 17.716c5.257-9.426 7.092-22.888-.112-36.519-36.185-13.818-68.824-12.643-107.18 1.188-3.087 11.031-2.975 23.928 0 35.433l18.709-17.818z" transform="matrix(-.12173 .09164 .17487 .38142 323.454 -377.054)"/><path d="M318.9 574.02l17.716 17.716 17.717-17.716 17.716 17.716 17.717-17.716 17.716 17.716c5.257-9.426 7.092-22.888-.112-36.519-36.185-13.818-68.824-12.643-107.18 1.188-3.087 11.031-2.975 23.928 0 35.433l18.709-17.818z" transform="matrix(-.12173 .09164 .17487 .38142 320.18 -384.163)"/><path d="M318.9 574.02l17.716 17.716 17.717-17.716 17.716 17.716 17.717-17.716 17.716 17.716c5.257-9.426 7.092-22.888-.112-36.519-36.185-13.818-68.824-12.643-107.18 1.188-3.087 11.031-2.975 23.928 0 35.433l18.709-17.818z" transform="matrix(-.12173 .09164 .17487 .38142 316.907 -391.273)"/><path d="M318.9 574.02l17.716 17.716 17.717-17.716 17.716 17.716 17.717-17.716 17.716 17.716c5.257-9.426 7.092-22.888-.112-36.519-36.185-13.818-68.824-12.643-107.18 1.188-3.087 11.031-2.975 23.928 0 35.433l18.709-17.818z" transform="matrix(-.12173 .09164 .17487 .38142 312.79 -400.027)"/><path d="M318.9 574.02l17.716 17.716 17.717-17.716 17.716 17.716 17.717-17.716 17.716 17.716c5.257-9.426 7.092-22.888-.112-36.519-36.185-13.818-68.824-12.643-107.18 1.188-3.087 11.031-2.975 23.928 0 35.433l18.709-17.818z" transform="matrix(-.12173 .09164 .17487 .38142 309.517 -407.134)"/><path d="M318.9 574.02l17.716 17.716 17.717-17.716 17.716 17.716 17.717-17.716 17.716 17.716c5.257-9.426 7.092-22.888-.112-36.519-36.185-13.818-68.824-12.643-107.18 1.188-3.087 11.031-2.975 23.928 0 35.433l18.709-17.818z" transform="matrix(-.12173 .09164 .17487 .38142 306.244 -414.244)"/></g><path d="M345.63-96.125c0 3.28-1.12 5.938-2.5 5.938s-2.5-2.659-2.5-5.938 1.12-5.938 2.5-5.938 2.5 2.659 2.5 5.938z" transform="matrix(.498 -.38506 .29096 .65904 228.03 87.159)" stroke-width="1pt"/><path d="M345.63-96.125c0 3.28-1.12 5.938-2.5 5.938s-2.5-2.659-2.5-5.938 1.12-5.938 2.5-5.938 2.5 2.659 2.5 5.938z" transform="matrix(.498 -.42984 .29096 .73568 242.09 102.86)" stroke-width="1pt"/><path d="M345.63-96.125c0 3.28-1.12 5.938-2.5 5.938s-2.5-2.659-2.5-5.938 1.12-5.938 2.5-5.938 2.5 2.659 2.5 5.938z" transform="matrix(.53454 -.41491 .31232 .71013 245.2 88.253)" stroke-width="1pt"/></g><path d="M301.18 290.55c0 194.88 35.433 177.17 106.3 248.03 70.866-70.866 106.3-53.15 106.3-248.03-35.434 0-70.867 0-106.3-17.716-35.432 17.716-70.866 17.716-106.3 17.716z" transform="matrix(.24638 0 0 .19004 261.897 157.255)" stroke="#d7b900" stroke-width="4.824" fill="#fff"/><path d="M337.932 213.802c0 33.962 8.12 30.875 24.361 43.224 16.241-12.35 24.362-9.262 24.362-43.224-8.12 0-16.241 0-24.362-3.088-8.12 3.088-16.24 3.088-24.361 3.088z" fill="#d7b900"/><path d="M353.693 214.244v35.387l8.73 5.142 8.73-5.142v-35.387a50.662 50.662 0 0 1-8.717-1.911c-2.887.866-5.829 1.548-8.743 1.911z" fill="#fff"/></g></g></svg>