<svg xmlns="http://www.w3.org/2000/svg" height="512" width="512" version="1"><defs><clipPath id="a"><path fill-opacity=".67" d="M229.34 6.346H718.6v489.26H229.34z"/></clipPath></defs><g fill-rule="evenodd" clip-path="url(#a)" transform="translate(-240 -6.641) scale(1.0465)" stroke-width="1pt"><path fill="#ffc621" d="M1.923 9.69h991.84v475.89H1.923z"/><path fill="#ef2118" d="M0 333.64h993.18v161.97H0z"/><path fill="#298c08" d="M1.923 6.346h991.93v172H1.923z"/><ellipse cx="534.22" rx="199.65" cy="352.97" transform="translate(204.68 77.013) scale(.51526)" ry="199.65" fill="#006bc6"/><path d="M434.079 186.191l-6.147 4.321 22.451 31.555 5.989-3.819-22.293-32.057zm28.104 74.481l-9.232-6.437 3.815-12.113-45.985.642-13.31-10.19 62.774-.677 11.642-35.27 6.253 14.26-15.957 49.785zm73.126-67.54l-5.977-4.553-23.295 30.936 5.45 4.554 23.822-30.937zm-62.506 49.296l3.347-10.745 12.7-.023-14.508-43.642 5.693-15.768 19.613 59.636 37.138.44-11.704 10.271-52.278-.168zm86.646 48.894l2.498-7.086-36.594-12.673-2.661 6.585 36.757 13.174zm-66.108-44.355l11.254-.113 3.922 12.079 37.08-27.205 16.754.577-50.734 36.974 10.983 35.48-13.368-7.986-15.891-49.806zm-18.872 97.55l7.512.11.347-38.726-7.09-.423-.77 39.038zm20.97-76.795l3.694 10.631-10.199 7.567 37.605 26.475 4.794 16.063-51.218-36.302-30.128 21.72 3.309-15.217 42.142-30.937zm-98.683 12.41l2.221 7.177 36.93-11.662-1.793-6.872-37.358 11.356zm79.514-3.842l-8.964 6.805-10.353-7.354-13.528 43.954-13.79 9.532 18.658-59.94-29.982-21.922 15.493-1.566 42.466 30.492z" fill="#ffc621"/></g></svg>