<svg xmlns="http://www.w3.org/2000/svg" height="512" width="512"><defs><clipPath id="a"><path fill-opacity=".67" d="M244.16 0h496.06v496.06H244.16z"/></clipPath></defs><g fill-rule="evenodd" clip-path="url(#a)" transform="translate(-252) scale(1.0321)" stroke-width="1pt"><path fill="#6797d6" d="M0 0h992.13v496.06H0z"/><path fill="#fff" d="M507.845 84.449l38.874-.026-31.47 21.477 12.041 34.786-31.431-21.528-31.432 21.523 12.047-34.781-31.464-21.487 38.874.036 11.98-34.803zM507.845 412.616l38.874.026-31.47-21.477 12.041-34.786-31.431 21.528-31.432-21.523 12.047 34.781-31.464 21.487 38.874-.036 11.98 34.803zM346.08 230.102l37.168-11.39-23.816 29.738 21.685 29.747-36.352-11.398L321 296.57l1.351-36.784-36.372-11.349 37.186-11.33 1.283-36.785zM645.549 230.102l-37.168-11.39 23.816 29.738-21.686 29.747 36.352-11.398 23.766 29.772-1.351-36.784 36.371-11.349-37.185-11.33-1.283-36.785z"/></g></svg>