<svg xmlns="http://www.w3.org/2000/svg" height="512" width="512"><g fill-rule="evenodd"><path fill="red" d="M0 0h512v512H0z"/><path fill="#009a00" d="M63.653 88.407h384.72v335.15H63.653z"/><path d="M63.653 423.56h384.72L256.013 256 63.653 423.56z" fill="#ffca00"/><path d="M63.653 88.485l192.36 167.56 192.36-167.56H63.653z" fill="#ffca00"/><path fill="#ffce00" d="M97.47 64.865L79.94 52.363l-17.553 12.47 6.474-20.532-17.277-12.839 21.524-.189L79.98 10.87l6.832 20.417 21.524.226L91.028 44.32zM273.233 65.386L255.7 52.885l-17.553 12.47 6.474-20.533-17.277-12.838 21.524-.189 6.872-20.405 6.832 20.417 21.524.227-17.307 12.808zM449.11 65.103L431.58 52.602l-17.553 12.47L420.5 44.54l-17.277-12.838 21.524-.189 6.872-20.405 6.832 20.417 21.524.227-17.307 12.808zM97.47 499.166L79.94 486.664l-17.553 12.47 6.474-20.532-17.277-12.839 21.524-.189 6.872-20.404 6.832 20.417 21.524.226-17.307 12.808zM273.233 499.686L255.7 487.184l-17.553 12.47 6.474-20.532-17.277-12.839 21.524-.189 6.872-20.404 6.832 20.417 21.524.226-17.307 12.808zM449.11 499.406l-17.531-12.502-17.553 12.47 6.474-20.532-17.277-12.839 21.524-.189 6.872-20.404 6.832 20.417 21.524.226-17.307 12.808z"/><path d="M302.158 258.59a46.654 46.654 0 1 1-93.308 0 46.654 46.654 0 1 1 93.308 0z" fill="red"/><path fill="#ffce00" d="M276.576 287.296l-20.823-14.848-20.848 14.812 7.689-24.388-20.52-15.249 25.565-.224 8.162-24.236 8.114 24.25 25.566.27-20.557 15.212z"/><path d="M89.211 290.95s2.367-19.607 1.015-32.791c-1.353-13.184-35.158-16.903-35.158-16.903l-.338 30.763s27.045 21.974 34.481 18.931z" fill="red"/><path d="M39.855 213.2s3.258 17.276-1.352 51.723c-2.463 18.703 17.917 31.439 42.933 37.186-5.07-8.79-18.592-22.988-15.212-49.018 18.255 2.366 35.495 37.862 35.495 37.862s13.658-50.331-13.86-58.145c-26.744-7.514-48.004-19.269-48.004-19.607z" fill="#ffce00"/></g></svg>