<svg xmlns="http://www.w3.org/2000/svg" height="512" width="512" version="1"><defs><clipPath id="a"><path fill-opacity=".67" d="M0 0h496.06v496.06H0z"/></clipPath></defs><g clip-path="url(#a)" transform="scale(1.0321)"><g stroke-width="1pt" fill-rule="evenodd"><path fill="#3e9a00" d="M0 0h744.09v166.54H0z"/><path fill="#fff" d="M0 166.54h744.09v162.99H0z"/><path fill="#e32118" d="M0 329.53h744.09v166.54H0z"/><path d="M0 0v496.06l248.032-248.03L0 0z" fill="#5567e4"/></g><path d="M283.46 148.82v442.91c0 35.433 17.716 70.866 53.149 70.866h70.866c17.717 0 35.433 35.433 35.433 35.433s16.938-35.433 35.433-35.433h70.867c35.433 0 53.149-35.433 53.149-70.866V148.82h-318.9z" fill-rule="evenodd" transform="matrix(.23095 0 0 .17976 261.126 174.17)" stroke="#000" stroke-width="3.791" fill="#ccc"/><path d="M215.38 731.79c-18.021 0-35.738-17.717-35.738-35.433v-88.583c15.502 15.502 88.583 70.866 70.867 88.583-17.717 17.716-35.737 0-35.433 0s.304 35.433.304 35.433z" fill-rule="evenodd" transform="matrix(.23214 0 0 .17976 259.48 155.365)" stroke="#000" stroke-width="1pt" fill="#ccc"/><path d="M309.409 280.541c4.113-3.185 4.113 3.185 8.225 0l-4.112 19.108c-3.99-.598-4.127 0-6.432-3.184 0-3.185 0-13.362 2.319-15.924z" fill-rule="evenodd" fill="#ccc"/><path d="M215.38 731.79c-18.021 0-35.738-17.717-35.738-35.433v-88.583c15.502 15.502 88.583 70.866 70.867 88.583-17.717 17.716-35.737 0-35.433 0s.304 35.433.304 35.433z" fill-rule="evenodd" transform="matrix(-.23214 0 0 .17976 466.906 155.365)" stroke="#000" stroke-width="1pt" fill="#ccc"/><path d="M416.34 280.541c-4.113-3.185-4.113 3.185-8.226 0l4.113 19.108c3.99-.598 4.127 0 6.432-3.184 0-3.185 0-13.362-2.32-15.924z" fill-rule="evenodd" fill="#ccc"/><path d="M513.78 1140.9c-.001-17.71-35.433-53.14-35.433-70.86s35.433 17.72 106.3 17.72c70.866 0 106.3-88.588 88.582-106.3 17.717 35.434 17.717 70.864 17.717 88.584 0 35.43-35.433 70.86-106.3 70.86H513.78z" fill-rule="evenodd" transform="matrix(.23214 0 0 .17976 260.056 104.109)" stroke="#000" stroke-width="1pt" fill="#ccc"/><path d="M513.78 1140.9c-.001-17.71-35.433-53.14-35.433-70.86s35.433 17.72 106.3 17.72c70.866 0 106.3-88.588 88.582-106.3 17.717 35.434 17.717 70.864 17.717 88.584 0 35.43-35.433 70.86-106.3 70.86H513.78z" fill-rule="evenodd" transform="matrix(-.23214 0 0 .17976 465.692 104.109)" stroke="#000" stroke-width="1pt" fill="#ccc"/><path d="M346.423 306.013c0-3.183 8.226-6.369 8.226-9.554v15.923h-8.226v-6.369zM379.324 306.013c0-3.183-8.226-6.369-8.226-9.554v15.923h8.226v-6.369z" fill-rule="evenodd" fill="#ccc"/><path d="M371.17 1034.6c0 17.71 141.73 17.71 141.73 0v70.87c0 17.71-141.73 17.71-141.73 0v-70.87z" fill-rule="evenodd" transform="matrix(.23214 0 0 .17976 260.259 120.03)" stroke="#000" stroke-width="1pt" fill="#ccc"/><path d="M249.63 696.36c-17.717 17.716-17.717-17.717-35.433 0-17.717 17.716 17.717 106.3 88.583 106.3s106.3-35.433 106.3-17.717c0 17.717-35.433 35.433-35.433 53.15s141.73 17.717 141.73 0-35.433-35.433-35.433-53.15c0-17.716 35.433 17.717 106.3 17.717 70.866 0 106.3-88.583 88.583-106.3-17.716-17.717-17.716 17.716-35.433 0" transform="matrix(.23214 0 0 .17976 259.684 155.365)" stroke="#000" stroke-width="1.25" fill="none"/><path d="M413.555 303.839l-4.232-7.058.738-.3 4.232 7.059-.738.299zM410.907 302.303l.884-.009c.229.846.238 1.547.027 2.103-.21.553-.616.93-1.217 1.129-.622.206-1.207.215-1.754.026-.546-.193-1.07-.559-1.574-1.097a7.718 7.718 0 0 1-1.265-1.855c-.374-.76-.585-1.46-.634-2.1-.048-.644.067-1.182.346-1.614.28-.436.674-.74 1.183-.908a2.397 2.397 0 0 1 1.73.073c.576.242 1.107.673 1.593 1.295l-.642.473c-.395-.486-.779-.808-1.152-.966a1.567 1.567 0 0 0-1.139-.043c-.443.147-.748.404-.915.772-.164.367-.195.798-.093 1.292.102.492.271.978.508 1.459.305.62.642 1.14 1.012 1.557.371.413.764.684 1.178.813.415.128.797.134 1.149.018.427-.143.712-.42.856-.83.143-.41.116-.939-.081-1.588zM405.74 307.168l-2.758-7.535.788-.195 2.758 7.535-.788.195zM400.528 308l-.725-6.915-2.043.145-.097-.925 4.913-.348.097.925-2.05.145.724 6.914-.82.058zM392.636 305.906l.777-.086c.036.393.122.718.254.971.136.251.346.455.628.612.283.154.602.231.955.231.314 0 .591-.059.832-.177.24-.118.418-.28.535-.483.119-.207.178-.433.178-.676 0-.247-.056-.462-.17-.644-.113-.186-.3-.342-.56-.468-.167-.082-.536-.208-1.107-.38-.573-.176-.972-.34-1.202-.494a1.91 1.91 0 0 1-.666-.73 2.194 2.194 0 0 1-.216-.982c0-.398.089-.768.267-1.111.178-.347.438-.61.781-.79a2.43 2.43 0 0 1 1.141-.267c.462 0 .867.094 1.219.284.353.186.625.461.814.827.19.364.292.777.306 1.239l-.79.075c-.042-.497-.186-.873-.433-1.127-.243-.254-.603-.38-1.081-.38-.499 0-.862.116-1.091.348a1.14 1.14 0 0 0-.34.832c0 .282.081.515.242.698.158.182.571.37 1.24.564.67.19 1.13.355 1.378.499.362.21.63.479.803.805.172.321.258.693.258 1.116 0 .418-.095.814-.284 1.186-.19.369-.463.656-.819.864a2.356 2.356 0 0 1-1.196.306c-.564 0-1.036-.104-1.418-.311a2.197 2.197 0 0 1-.896-.934 3.213 3.213 0 0 1-.34-1.417zM390.395 300.48l.822.031-.251 4.542c-.044.79-.15 1.414-.317 1.874-.167.46-.444.829-.83 1.108-.384.275-.875.403-1.474.38-.583-.022-1.052-.167-1.408-.434-.356-.268-.6-.644-.731-1.13-.132-.488-.175-1.149-.128-1.981l.251-4.542.822.031-.251 4.536c-.038.683-.016 1.189.065 1.518.083.325.242.58.475.764.237.185.531.283.885.297.604.022 1.045-.134 1.322-.472.276-.337.442-1 .496-1.986l.252-4.535zM380.235 305.751l.742-.129c.02.601.11 1.013.268 1.235a.763.763 0 0 0 .658.332.837.837 0 0 0 .534-.176.93.93 0 0 0 .31-.49c.057-.207.085-.536.085-.987v-5.42h.823v5.361c0 .659-.063 1.168-.19 1.53-.125.361-.325.637-.6.826-.27.19-.59.285-.958.285-.546 0-.965-.199-1.257-.596-.288-.397-.427-.988-.415-1.77zM366.241 318.893v-1.091l3.187-5.688c.226-.404.44-.756.645-1.054h-3.471v-1.049h4.456v1.049l-3.493 6.16-.378.625h3.973v1.048h-4.919zM320.932 307.982l1.961-8.734.81.122-1.962 8.734-.81-.122zM312.124 304.54l5.114-7.824.744.329-1.137 7.413 4.016-6.143.695.307-5.115 7.824-.744-.328 1.14-7.419-4.018 6.148-.695-.307zM316.52 295.81l.583.478-4.411 3.632c-.768.632-1.427 1.093-1.979 1.382-.552.29-1.1.444-1.648.463a2.11 2.11 0 0 1-1.449-.495c-.412-.338-.626-.717-.642-1.134-.016-.419.153-.865.506-1.34.356-.478.94-1.05 1.748-1.716l4.411-3.632.583.478-4.405 3.627c-.663.546-1.118.978-1.364 1.296-.24.316-.36.615-.357.897.003.283.13.526.381.732.429.351.902.463 1.421.336.519-.129 1.258-.587 2.216-1.376l4.406-3.628zM325.306 308.656l.299-8.878 2.143.049c.483.011.85.062 1.103.152.352.126.65.345.89.658.315.402.542.915.683 1.536.144.617.202 1.322.175 2.113a8.722 8.722 0 0 1-.226 1.79c-.128.518-.283.946-.468 1.286-.184.335-.382.599-.596.792-.21.189-.462.33-.756.425a3.05 3.05 0 0 1-1.003.128l-2.244-.05zm.859-1.028l1.327.03c.41.01.733-.038.969-.142.238-.103.43-.253.576-.447.204-.275.368-.644.492-1.11.125-.47.2-1.04.222-1.71.032-.93-.052-1.644-.25-2.146-.195-.505-.443-.846-.743-1.022-.216-.126-.569-.195-1.058-.206l-1.307-.03-.228 6.783zM331.05 308.715l2.389-8.881h.886l2.547 8.881h-.938l-.726-2.69h-2.601l-.683 2.69h-.875zm1.795-3.647h2.109l-.65-2.46a32.524 32.524 0 0 1-.441-1.84c-.08.568-.191 1.133-.335 1.695l-.683 2.605zM337.529 308.715v-8.881h2.143c.484 0 .853.042 1.108.127.356.118.66.33.912.637.328.395.573.902.734 1.52.165.614.246 1.317.246 2.108 0 .675-.054 1.273-.165 1.794-.11.52-.252.953-.425 1.296-.172.34-.362.608-.568.806a2.033 2.033 0 0 1-.743.442c-.289.1-.621.151-.997.151h-2.245zm.823-1.047h1.328c.41 0 .732-.055.964-.165.234-.108.421-.262.56-.46.195-.279.346-.652.454-1.12.11-.473.166-1.045.166-1.715 0-.93-.108-1.642-.323-2.14-.212-.5-.471-.834-.777-1.004-.22-.121-.576-.182-1.065-.182h-1.307v6.786zM355.144 318.893v-8.882h2.347c.413 0 .728.03.946.085.306.073.562.212.769.419.206.201.371.486.496.854.127.367.191.771.191 1.212 0 .754-.169 1.394-.505 1.92-.337.52-.945.781-1.825.781h-1.596v3.61h-.823zm.823-4.66h1.609c.532 0 .91-.14 1.133-.423.224-.282.335-.68.335-1.193 0-.372-.067-.689-.199-.951-.13-.267-.303-.443-.518-.528-.14-.053-.395-.078-.768-.078h-1.592v3.174zM360.258 318.893l2.39-8.882h.886l2.547 8.882h-.938l-.726-2.69h-2.602l-.682 2.69h-.875zm1.795-3.647h2.109l-.649-2.46a31.779 31.779 0 0 1-.441-1.841c-.08.568-.191 1.134-.335 1.696l-.684 2.605zM415.42 303.145l-4.154-7.594.656-.397 7.806 5.388-.694.42-2.33-1.652-1.925 1.163 1.288 2.281-.647.391zm-1.104-3.482l1.561-.943-2.12-1.517a39.485 39.485 0 0 1-1.555-1.156c.32.453.615.919.883 1.396l1.231 2.22z"/><path d="M419.16 331.78c.065 32.968 19.893 131.63-37.678 284.94-4.262 11.127 7.064 16.484 16.484 18.839 9.419 2.355 14.129-9.419 14.129-11.774s2.355 18.839 11.774 16.484c9.42-2.355 18.839-16.484 18.839-16.484s4.71 21.194 16.484 21.194 11.774-25.904 11.774-25.904c0 2.355 8.164 22.235 17.583 22.235 9.42 0 23.929-8.76 15.548-23.144-59.832-100.72-56.68-267.54-56.68-286.38 0-18.839 27.784-53.068 55.418-53.889l-10.675-16.756c-6.96 2.135-15.28 3.669-29.409 15.443s-22.398 24.589-22.398 24.589v-80.065h-23.548l2.355 73.001s-8.051-9.439-20.095-19.932c-11.401-9.934-31.972-9.199-44.637-7.118l-1.204 15.989c14.969 3.123 34.067-3.068 43.487 11.061 11.774 11.774 22.414 21.259 22.449 37.677z" fill-rule="evenodd" transform="matrix(.14276 0 0 .1438 302.417 195.738)" stroke="#000" stroke-width="5.029" fill="#682900"/><path d="M310.55 312.21v-.832c0 1.976-.067 1.101.833-2.498.777-2.848 2.407-5.523 4.163-7.493 3.04-1.014 7.441.053 10.823-.833 2.278-3.268 5.828 4.267 5.828-.833 4.343-.311 4.399-4.559 5.828-6.66 4.054-.5 4.963-5.44 8.326-2.497 2.756 1.305.406-.833 4.996-.833 2.713.663 4.131 2.32 6.66.832.62-2.851 1.399-6.268 1.665-9.99-1.177-2.356-.832-7.184-.832-10.824 2.274-3.032 6.262 2.476 9.99 1.665 1.018-3.562 4.146-3.466 2.498-6.66-.308-4.007-1.08-6.503 0-10.823 1.314-3.704 3.228-3.607 6.66-5.828 1.093-3.277-.122-6.03.833-9.991 3.901-.115 3.832-1.132 4.163-4.995 1.26-2.661 2.858-5.356 4.995-7.493 1.968-2.382 4.303-2.147 5.828-5.828 1.308-3.271 1.311-4.751 4.995-5.828 2.696-1.269 4.833-1.411 6.661-3.331 1.732-3.056 3.174-5.486 5.828-9.158 2.63-1.772 15.237 1.665 19.149 1.665 2.118-2.669 5.397-6.859 7.493-8.326 3.587-1.916 4.961-2.497 9.99-2.497 4.288 1.27 6.082 2.794 10.824 1.665 1.932-2.706 3.816-3.965 8.325-2.498 3.433 2.221 5.347 2.124 6.661 5.828 1.946 4.615 1.508 6.192 6.661 6.661 5.181.185 5.709 1.442 9.158 4.162 5.248 2.25 4.995.982 4.995 5.828 3.721 0 4.052-.44 4.163 3.331 2.294.713 4.907 2.718 6.661 4.162 2.093 2.416 2.629 3.929 7.493 4.163 3.591-1.508 4.75-1.496 4.995-5.828 2.75-.982 3.212-3.635 4.163-6.66 2.108-2.885 3.474-3.331 8.325-3.331 4.279 1.773 4.139 3.568 3.331 7.494 2.664.551 3.764.239 4.163 3.33 1.407 2.346 1.039 5.15-.833 6.66 2.132 1.568 3.369 4.256 4.163 7.493-1.411 2.352-.547 5.809 0 8.326 2.912 1.456 4.415 2.809 8.325 4.163 1.983 1.68 6.199 3.441 9.991 4.163 4.481-.606 5.961-.568 9.991 1.665 2.084 2.993 2.235 6.771 4.163 8.326 2.175 1.843 5.818 2.649 7.493 4.995 2.778 2.03 3.594 4.281 7.493 4.995 1.471 2.228 4.634 5.896 5.828 8.326.941 2.694 1.361 7.413 2.498 10.823v11.656c-.158 4.304-.833 6.916-.833 11.656-.74 2.384-1.665 3.3-1.665 6.661-1.582 3.526-2.931 6.489-4.995 9.158-.941 4.235-2.473 6.223-4.163 9.991.052 4.369.832 6.304.832 10.823-1.81 2.69-3.887 4.647-7.493 6.661-2.724 3.187-4.368 4.426-4.995 9.158-1.566 2.705-1.443 2.498-4.995 2.498-4.2 0-7.814.375-11.656.832-3.378 0-4.64.356-6.661-1.665-3.988-1.804-7.345-1.91-11.656-.833-2.325-1.594-3.258-2.497-7.493-2.497-3.161.427-5.965.832-9.991.832-2.495-2.789-3.897-3.33-8.325-3.33-2.356 1.178-7.184.833-10.824.833-3.821-1.043-4.313-2.63-5.828-5.828-2.605-1.235-3.635-3.039-7.493-3.331-3.639 0-8.468.345-10.823-.832-2.723-.327-5.586-1.027-7.493-2.498a22.068 22.068 0 0 0-5.828-5.828c-3.698 0-5.864.355-7.493-1.665-2.732-2.157-4.891-5.564-8.326-7.493-3.062-2.43-5.136-3.916-6.661-8.326 0-3.943.78-4.874-3.33-4.995-2.755 2.812-4.009 3.33-9.158 3.33-3.389 0-6.931-.018-9.158-.832-3.681-2.09-5.028-3.013-9.158-3.331-2.585 1.645-6.008 3.547-9.991 4.163-3.405 1.966-5.437 2.379-6.661 5.828-3.145 2.568-4.989 4.078-9.158 5.828-2.316 2.209-4.526 2.591-5.828 6.661-.792 3.366-1.665 5.369-1.665 9.99.59 4.368.361 6.237-1.665 9.991-1.741 2.486-4.757 3.7-7.493 5.828-4.116.494-4.548.186-7.493-1.665-2.933-.977-6.266-1.78-9.991-2.498-4.496-.866-6.017-1.961-8.326-4.162l8.326 4.162c-4.496-.866-6.017-1.961-8.326-4.162-5.064-3.583-6.063-5.398-11.656-5.828-5.198.061-7.429.318-8.325 4.995 2.961.789.609 2.554-.833 3.33-2.078 1.852-5.411 3.368-8.326 4.163-1.328 1.328-1.072-1.101-3.33-1.665-3.448-1.842-4.89-3.226-8.326-4.163-1.683-2.971-3.584-5.274-5.828-8.326-1.734-2.818-3.382-3.838-5.828-6.66-1.169-1.754-4.159-1.829-5.827-3.33-1.001-3.002-3.169-8.57-2.498-11.656 1.679-1.586 2.632-7.243 4.995-8.326 3.367-2.525 4.635-.223 9.159 0 4.259 0-5.866-6.71-1.665-6.66 3.92-.666 4.387-2.595 5.827-4.996h9.991z" fill-rule="evenodd" transform="matrix(.19743 0 0 .14799 276.755 184.125)" stroke="#000" stroke-width="4.464" fill="#009200"/><path d="M382.98 253.1c.878.713 4.684 2.498 8.326 2.498 3.976.728 4.843 2.216 5.828 5.828 2.174 1.304 3.55 1.665 7.493 1.665 4.359.871 4.322 2.212 7.493 4.995M358.84 299.72c1.812.266 8.154.832 12.488.832 3.333-1.924 4.912-3.24 7.493-4.995 3.943 0 5.32.361 7.494 1.665 2.105.702 7.052.963 9.158 1.665 0 1.11-.278.833.832.833M391.31 286.4c.065-.025 3.252-1.946 5.828-2.498 2.835-1.976 5.946-2.939 9.158-4.163 2.117-.46 7.102-.448 8.326-.832M432.1 273.91v.833c0-2.327-.104-1.091 1.665 3.33.874 4.078 1.949 7.526 3.33 10.823 2.455 3.83 4.058 5.547 7.493 7.493 2.939 2.316 5.164 4.724 8.326 5.828 2.202 1.963 5.106 3.584 8.325 4.996 4.271 0 7.558.686 11.656.832h2.498M477.06 227.29v.833c0-2.247.055-1.105-.832 3.33-1.257 2.654-2.705 5.124-4.163 7.493-3.915 1.419-5.374 4.277-6.661 7.493-1.372 2.231-3.505 5.17-4.995 7.493-2.589 3.211-3.622 4.242-8.326 5.828M510.36 244.77c0 .244-1.537 2.434-2.498 4.996-1.653 2.436-2.075 6.861-2.497 9.99 0 3.618.021 7.557.832 9.991 2.516 3.121 3.158 4.764 7.493 6.661l-7.49-6.66c2.516 3.121 3.158 4.764 7.493 6.661M571.14 273.91v.833c0-2.61.217-1.006-4.163 2.497-3.252 2.999-5.572 5.416-8.325 7.493-4.732 1.255-5.455 1.182-9.991.833h-7.493M582.8 337.19h-.832c2.327 0 1.089-.103-3.331 1.665-3.692.923-7.879.982-10.823 0-2.966-1.681-5.955-3.055-8.326-5.828-1.241-.93-1.42-1.306-2.497-1.665M553.66 363v-.833c0 2.61.217 1.006-4.163-2.498-1.872-2.753-3.748-3.794-7.493-6.66-3.236-3.913-3.659-5.481-4.995-9.991-.356-3.323-1.455-6.734 0-9.158M492.05 348.84c1.81 0 8.56-.159 11.656-.833 2.418-1.643 5.094-2.746 8.326-4.162 1.764-4.36 3.27-5.809 3.33-10.824M441.26 323.87c-.652-1.483-3.544-7.436-4.995-10.823-.065-3.638-.833-6.285-.833-9.991M328.86 350.51c.839.126 4.375.403 6.66 0 3.635-1.861 7.022-2.205 10.823-2.498 1.933-1.159 5.086-1.031 6.661-2.497 3.474-2.316 3.937-4.645 5.828-8.326.167-1.673.665-2.49.832-4.163M383.81 338.02c-1.828 0-8.658.125-12.489-.833-1.967-1.273-3.363-3.364-4.995-4.995 1.11 0 .833.277.833-.833M393.8 313.88c.353-.106 4.485-1.665 7.493-1.665 1.79-1.158 4.76-2.237 7.493-3.33 1.481-.797 2.504-1.787 4.163-2.498M293.06 347.18h.833c-2.249 0-1.1.053 3.33-.833 5.18-.32 8.666-2.111 12.489-3.33 2.496-2.318 5.939-4.635 8.325-5.828 0-1.423-.341-1.274.833-1.665M504.54 301.39h.833c-2.328 0-1.09-.103 3.33 1.665 3.517 1.346 6.695 1.781 9.991 2.498 2.993.731 4.127 1.665 8.325 1.665 4.19 1.826 5.104 2.397 8.326 4.995 2.465 1.168 4.221 1.665 8.326 1.665 2.178-1.206 6.161-2.609 8.325-3.33 1.211-.908 1.293-.55 1.665-1.665" transform="matrix(.19743 0 0 .17976 276.755 173.571)" stroke="#006800" stroke-width="4.05" fill="none"/><path d="M430.94 469.54v18.839c0 6.017-.557 11.277-2.355 16.484 0 5.875-.077 11.554-2.355 15.306-.401 5.618-1.177 10.479-1.177 16.484-1.705 5.116-1.504 12.044-2.355 17.662-.738 5.508-1.393 12.06-2.355 16.484-1.754 3.684-4.745 10.349-7.064 12.951-.288 5.085-1.532 7.588 0 11.775 1.641 4.922 1.177 10.85 1.177 16.484 1.537 4.611 1.178 10.004 1.178 15.306M436.82 493.08c.358 2.361 2.118 10.873 2.355 16.484v25.904c0 6.299.532 11.851 1.178 17.661-.084 6.943-1.346 9.54-4.71 15.307-.662 5.559-1.693 10.924-2.355 16.484-1.641 4.923-1.177 10.85-1.177 16.484 1.404 6.322 3.703 7.453 4.709 12.951 0 3.359.321 5.066 1.178 7.065M447.42 535.47c0 2.155-.14 12.532 1.178 16.484 0 6.023 1.106 10.544 1.177 16.484-.714 5.281-1.453 9.084-4.71 11.774-2.144 4.358-3.314 8.235-3.532 14.129 3.043 2.13 6.349 8.079 9.419 10.597 2.567 5.361 4.956 5.59 5.888 11.774 2.458 2.732-1.733 4.154 0 5.887 1.91 2.548.687 1.469 0 3.533" transform="matrix(.19743 0 0 .17976 279.385 172.973)" stroke="#000" stroke-width="1pt" fill="none"/><path fill-rule="evenodd" transform="matrix(.1563 0 0 .14252 358.079 192.35)" stroke="#000" stroke-width="3.125" fill="#ffd100" d="M47.102-26.644l14.175-26.642-14.175-26.642 30.16-1.046 15.986-25.596 15.982 25.596 30.16 1.046-14.17 26.642 14.17 26.642-30.16 1.045L93.248-.002 77.262-25.599z"/><path fill-rule="evenodd" transform="matrix(.1563 0 0 .14252 338.82 192.35)" stroke="#000" stroke-width="3.125" fill="#ffd100" d="M47.102-26.644l14.175-26.642-14.175-26.642 30.16-1.046 15.986-25.596 15.982 25.596 30.16 1.046-14.17 26.642 14.17 26.642-30.16 1.045L93.248-.002 77.262-25.599z"/><path fill-rule="evenodd" transform="matrix(.15499 -.01846 .02024 .14132 322.322 197.33)" stroke="#000" stroke-width="3.125" fill="#ffd100" d="M47.102-26.644l14.175-26.642-14.175-26.642 30.16-1.046 15.986-25.596 15.982 25.596 30.16 1.046-14.17 26.642 14.17 26.642-30.16 1.045L93.248-.002 77.262-25.599z"/><path fill-rule="evenodd" transform="matrix(-.15499 -.01846 -.02024 .14132 405.288 196.856)" stroke="#000" stroke-width="3.125" fill="#ffd100" d="M47.102-26.644l14.175-26.642-14.175-26.642 30.16-1.046 15.986-25.596 15.982 25.596 30.16 1.046-14.17 26.642 14.17 26.642-30.16 1.045L93.248-.002 77.262-25.599z"/><path fill-rule="evenodd" transform="matrix(-.14752 -.04712 -.05168 .1345 420.093 206.76)" stroke="#000" stroke-width="3.125" fill="#ffd100" d="M47.102-26.644l14.175-26.642-14.175-26.642 30.16-1.046 15.986-25.596 15.982 25.596 30.16 1.046-14.17 26.642 14.17 26.642-30.16 1.045L93.248-.002 77.262-25.599z"/><path fill-rule="evenodd" transform="matrix(.14752 -.04712 .05168 .1345 306.995 205.811)" stroke="#000" stroke-width="3.125" fill="#ffd100" d="M47.102-26.644l14.175-26.642-14.175-26.642 30.16-1.046 15.986-25.596 15.982 25.596 30.16 1.046-14.17 26.642 14.17 26.642-30.16 1.045L93.248-.002 77.262-25.599z"/></g></svg>