<svg xmlns="http://www.w3.org/2000/svg" height="512" width="512"><g fill-rule="evenodd" stroke-width="1pt"><path fill="#06f" d="M0 0h512.003v511.994H0z"/><path fill="#fff" d="M170.67 0h170.67v512.004H170.67z"/></g><path d="M401.82 305.02c-1.76-1.831-11.128-4.69-17.788-5.264-5.755-.454-9.467-4.238-12.877-4.612-9.856-9.91-22.741-13.697-31.167-32.99-1.602-5.79-2.741-12.841-2.912-19.585 3.18-22.53 5.238-21.922 9.985-36.818" transform="matrix(-1.0321 0 0 1.032 668.04 2.015)" stroke="#000" stroke-width=".5" fill="none"/><path d="M271.529 313.614c.177 1.716 5.418 8.043 14.47 6.93-.81-1.746-2.776-2.999-5.596-5.627-1.292-1.33-8.94-2.114-8.874-1.303zM282.304 311.816c-1.053.092-1.99.718-.19 2.298 3.034 2.55 13.919 4.896 15.559 1.659-4.818-.65-8.03-1.671-8.525-1.653-2.238-.732-5.123-2.466-6.844-2.304z" fill-rule="evenodd" fill="#0c5c1d"/><path d="M276.875 311.037c2.195-1.51 3.896-1.385 5.316-1.683 3.637-.252 6.125.248 7.647.877 2.253.97 5.535 3.399 5.951 5.162-3.345-.063-5.562-2.587-9.869-3.544-2.197-.19-6.258-.472-9.045-.812zM271.064 310.378c6.344-3.905 12.36-11.062 12.976-18.542-7.923 6.2-13.295 15.152-12.976 18.542z" fill-rule="evenodd" fill="#0c5c1d"/><path d="M274.646 310.304c5.364-2.327 12.632-7.54 13.515-18.38-7.361 4.632-9.715 11.483-13.515 18.38zM285.968 305.08c-.414-3.06 6.934-19.05 11.222-23.165.468 6.155-5.518 23.44-11.222 23.164zM285.74 305.693c1.116 4.742 13.246 5.973 17.161.414-4.875-.814-10.903-1.287-17.16-.414zM291.073 302.437c4.96 3.126 17.054.936 24.101-4.65-10.526-3.172-23.558 2.876-24.101 4.65zM300.634 295.601c.787-3.446 10.992-10.25 17.573-9.874-4.18 5.674-5.614 4.703-7.792 7.22-1.488 1.867-6.682 3.238-9.781 2.654zM303.991 287.772c-3.612-1.369-2.806-11.792-.39-16.044 2.446 5.74 3.1 14.686.39 16.044zM308.973 283.922c-4.807-2.674-3.074-15.75-.513-19.417 2.009 3.905 3.063 17.517.513 19.417zM310.815 283.806c2.783-4.383 12.479-4.572 16.734-2.878-4.626 4.527-11.748 4.754-16.734 2.878zM313.68 280.99c-4.006-6.262-1.519-9.581.926-17.335 1.183 6.584.23 13.532-.926 17.335zM318.757 267.102c.689-5.805 5.948-8.547 11.927-10.543-1.241 4.274-3.82 8.9-11.927 10.543z" fill-rule="evenodd" fill="#0c5c1d"/><path d="M317.328 270.27c-6.258-1.073-6.55-7.042-6.419-12.88 1.785 3.215 6.065 7.357 6.419 12.88zM315.738 260.15c1.48-3.627-1.12-13.437-7.51-17.05.101 6.006 4.19 13.47 7.51 17.05zM319.284 258.037c.916-2.164 1.51-3.264 2.891-6.02 2.398-5.033.85-3.347 4.09-9.438 1.75 6.799-1.753 14.914-6.981 15.458zM319.708 239.826c-4.332 2.376-8.724.836-14.737-3.98 4.961-.448 9.412 1.936 14.737 3.98zM318.513 237.41c2.591-8.602 4.114-10.067 6.24-19.405-5.316 4.304-8.05 13.63-6.24 19.405zM317.538 236.839c-5.834-4.236-7.206-9.045-13.92-10.799.141 2.405 9.795 12.444 13.92 10.799z" fill-rule="evenodd" fill="#0c5c1d"/><path d="M316.03 230.946c-3.724-4.635-5.78-8.418-11.297-11.768.883 5.654 7.059 13.87 11.298 11.768zM308.968 220.608c1.183-6.467-6.826-10.758-9.604-14.075-.314 5.714 4.687 12.438 9.604 14.075z" fill-rule="evenodd" fill="#0c5c1d"/><path d="M308.919 213.165c1.858-5.827-3.363-9.775-5.963-12.747.416 5.686 1.276 11.552 5.963 12.747zM316.483 224.737c2.299-3.755.99-12.369-.497-15.997-1.857 1.988-2.745 15.318.497 15.997z" fill-rule="evenodd" fill="#0c5c1d"/><path d="M312.922 217.1c2.606-4.604 1.145-9.523-.384-13.146-1.687 5.377-2.909 10.552.384 13.147zM318.234 253.582c3.865-.496 6.602-8.557 3.94-15.766-2.477 6.416-2.472 9.469-3.94 15.766z" fill-rule="evenodd" fill="#0c5c1d"/><path d="M317.245 239.308c4.81.246 7.842-3.911 10.392-11.18-3.96 2.543-5.91 9.264-10.392 11.18zM320.495 255.556c-4.4 1.053-9.36-10.47-5.955-16.963 3.734 7.442 4.577 10.563 5.955 16.963zM315.809 272.451c.604-4.4 10.044-5.518 14.784-4.552-3.792 3.047-11.506 4.932-14.784 4.552z" fill-rule="evenodd" fill="#0c5c1d"/><path d="M313.572 279.434c2.68-2.34 6.922.184 13.723-13.082-9.15 5.22-12.665 11.297-13.723 13.082z" fill-rule="evenodd" fill="#0c5c1d"/><path d="M399.56 306.24c-1.412-2.005-8.867-4.168-15.527-4.742-5.755.242-11.032-1.107-15.833-3.568-9.857-9.91-20.828-16.48-29.254-35.773-1.602-5.79-2.568-11.102-2.739-17.846 3.18-22.53 3.499-24.704 12.246-39.6" transform="matrix(1.0321 0 0 1.032 -152.51 .759)" stroke="#000" stroke-width=".5" fill="none"/><path d="M238.037 313.754c-.178 1.715-6.18 7.027-14.47 6.93.81-1.746 8.962-3.616 11.18-6.77.657-.95 3.355-.971 3.29-.16zM231.95 311.321c1.042-.175 1.608.338-.191 1.918-3.035 2.55-8.208 3.753-15.813 5.084 2.534-2.553 8.664-4.716 9.16-4.697 2.237-.733 4.868-1.96 6.844-2.305z" fill-rule="evenodd" fill="#0c5c1d"/><path d="M236.365 311.05c-.799-1.763-1.611-2.654-3.031-2.952-3.637-.252-6.506.374-7.647.877-1.238.716-5.154 3.271-5.57 5.035 2.964-.825 4.927-3.095 9.234-3.67 2.07-.698 4.989-.6 7.014.71zM244.465 309.122c-6.345-3.905-10.33-8.905-10.946-16.385 7.923 6.2 11.265 12.995 10.946 16.385z" fill-rule="evenodd" fill="#0c5c1d"/><path d="M240.504 310.194c-6-2.581-8.191-7.413-12.373-15.336 7.488 3.744 10.604 7.676 12.373 15.336zM227.024 307.5c1.302-5.345-.97-13.21-4.876-17.072-.342 6.028.821 16.08 4.876 17.072z" fill-rule="evenodd" fill="#0c5c1d"/><path d="M224.96 306.086c-1.115 4.742-13.499 4.831-17.16.414 3.733.837 11.918.998 17.16-.414zM221.667 302.323c-3.819 2.87-19.211-1.856-19.406-4.524 2.023-.253 18.863 2.75 19.406 4.524z" fill-rule="evenodd" fill="#0c5c1d"/><path d="M220.553 301.329c2.232-4.407-3.905-18.353-6.36-18.242 1.45 10.432 4.073 15.174 6.36 18.242zM216.538 297.645c-1.422-3.32-12.134-8.982-17.573-9.875 4.435 4.659 7.288 4.005 8.808 6.966 1.107 1.994 5.92 2.35 8.765 2.909z" fill-rule="evenodd" fill="#0c5c1d"/><path d="M214.526 295.137c1.115-4.184.557-5.858-2.177-8.87-.279 4.406.28 6.136 2.177 8.87zM210.51 290.464c3.013-1.974 1.172-12.072-1.506-14.894-.557 7.279-1.283 13.71 1.507 14.894zM205.154 282.918c5.189-1.785 1.17-11.436-.502-15.228-2.009 3.904 1.507 5.968.502 15.228zM204.205 283.558c-4.306-4.128-11.97-4.445-16.226-2.751 5.133 1.735 13.018 2.85 16.226 2.75zM199.687 274.352c-1.126-4.295-10.633-4.277-15.223-2.75 4.13 2.571 12.014 3.52 15.223 2.75z" fill-rule="evenodd" fill="#0c5c1d"/><path d="M202.682 281.096c-2.681-2.341-6.922.184-13.724-13.082 9.15 5.22 12.666 11.297 13.724 13.082z" fill-rule="evenodd" fill="#0c5c1d"/><path d="M201.594 281.256c4.005-6.262 1.518-9.58-.927-17.334-1.183 6.584-.23 13.531.927 17.334zM195.495 266.989c-1.198-5.678-6.583-8.547-12.054-9.274 1.495 2.878 5.598 3.95 12.054 9.274z" fill-rule="evenodd" fill="#0c5c1d"/><path d="M196.431 269.876c6.323-.575 7.086-6.503 7.415-12.334-2.033 3.065-6.627 6.856-7.415 12.334zM196.372 262.416c3.69.371 8.294-7.647 6.65-14.093-3.01 7.14-3.277 9.646-6.65 14.093zM194.803 255.598c3.89-.233 7.164-8.091 4.995-15.463-1.799 6.817-.978 9.806-4.995 15.463zM194.12 259.118c-.936-2.274-2.716-3.004-3.55-5.972-1.51-5.31-4.383-6.148-3.944-10.297 6.685 7.782 8.45 12.433 7.495 16.27zM194.453 253.296c-1.677-15.045 1.304-8.643-5.213-22.827 9.707 8.695 7.024 22.24 5.213 22.827z" fill-rule="evenodd" fill="#0c5c1d"/><path d="M194.899 246.931c-.324-4.805 3.784-7.904 11.012-10.57-2.48 4-9.169 6.059-11.012 10.57zM196.626 235.904c-2.591-8.603-4.114-10.068-6.24-19.406 5.316 4.304 8.05 13.63 6.24 19.406zM199.005 235.58c5.834-4.236 7.206-9.045 13.92-10.799-.142 2.405-9.796 12.444-13.92 10.799z" fill-rule="evenodd" fill="#0c5c1d"/><path d="M198.609 231.596c3.724-4.634 5.78-8.418 11.297-11.768-.882 5.654-7.058 13.87-11.297 11.768zM207.103 217.055c.19-6.572 8.917-9.102 12.324-11.767-.882 5.654-7.173 11.19-12.324 11.767z" fill-rule="evenodd" fill="#0c5c1d"/><path d="M206.394 212.539c-1.16-6.005 4.488-9.313 7.419-11.96-1.08 5.598-2.624 11.323-7.419 11.96zM198.667 222.211c-2.3-3.755-.991-12.37.496-15.998 1.857 1.988 2.745 15.319-.496 15.998zM202.68 216.898c-1.919-4.93.234-9.59 2.267-12.955.898 5.564 1.363 10.86-2.268 12.955z" fill-rule="evenodd" fill="#0c5c1d"/><path d="M233.599 298.336c17.486-17.102 32.69-31.925 57.017-47.205-39.38 30.672-38.163 33.067-54.736 48.46-.684-.57-1.597-.684-2.281-1.255z" fill-rule="evenodd" fill="#6f8593"/><path d="M202.481 302.371l6.515 7.158 19.744-29.972 8.31-8.828-2.012-2.927-12.76 12.473-1.468 2.924-18.329 19.172zM310.253 302.827l-8.34 7.386-18.603-30.2-10.818-11.793 2.924-2.014 14.356 14.525 1.468 2.924 19.013 19.172z" fill-rule="evenodd" fill="#6a0d06"/><path d="M283.295 284.55c.17-1.084 1.594-3.193-1.598-6.044.076-1.52 1.634-3.097 2.852-3.876 1.025 0 3.99 2.07 5.301 4.389.743 1.616 1.122 4.124.172 6.043-.704 1.064-1.52 2.3-2.395 2.794-.418.303-1.35.208-2.11-.115-1.197-.608-2.109-2.356-2.222-3.192z" fill-rule="evenodd" fill="#bbcdcd"/><path d="M243.394 231.2l-14.56-14.693-.871.035-.303.97-.467 1.349-1.725 1.621-22.74-21.324 21.385 23.324 1.01.012 3.12-3.247 1.313.305 10.723 12.557 3.115-.91zM262.395 318.767c26.642-43.264 49.851-73.08 7.336-111.311-1.59-1.6-7.083-6.67-10.523-7.762-.478-3.097 1.869-7.987-4.129-8.392-2.55.135-3.81 1.046-3.758 3.349.005 1.79.95 2.573.464 4.173-.18.8-2.167 2.625-2.045 4.952.772 4.958 2.687 6.171 3.268 6.877 1.04 1.034 1.662 1.763 4.717 3.024.339.406 1.24 1.165 1.704 1.675 5.614 1.201 10.731.588 14.358 2.396 1.581.487 4.117 3.17 4.942 4.514 10.243 11.23 14.676 29.252-.987 48.28 3.137.256 10.647-12.599 12.362-23.515-2.4 16.282-7.71 21.968-10.342 26.834 5.261-3.505 9.496-15.846 10.482-18.382-4.172 22.465-25.775 50.203-39.367 56.026 12.303-2.852 20.557-15.111 24.934-19.504-4.263 8.791-13.03 21.23-13.416 26.772z" fill-rule="evenodd"/><path d="M280.704 299.476c-17.03-17.216-44.207-43.213-57.702-46.064 21.021 13.569 39.532 31.812 55.421 47.32.684-.572 1.597-.685 2.281-1.256z" fill-rule="evenodd" fill="#6f8593"/><path d="M270.04 232.345l16.015-15.836.873.035.302.97.468 1.349 1.724 1.621 22.74-21.324-21.385 23.324-1.01.012-3.12-3.247-1.313.305L271.7 234.66l-1.66-2.314z" fill-rule="evenodd"/><path d="M227.675 226.498c.837-4.561 2.242-7.867 6.956-8.665 12.353-.533 23.795-.61 36.718-.343 3.687 2.927-.152 8.932-3.991 9.237 5.892 10.184 13.95 17.976 15.053 29.986.38 6.31-1.842 10.4-4.075 12.671-16.982.414-25.21 2.528-39.405 3.628-3.966.477-6.947-4.135-6.91-7.975.024-3.968 1.655-7.07 6.065-7.62 1.368-.148 3.273-.058 4.984-.02-3.307-9.88-16.079-21.587-15.395-30.899z" fill-rule="evenodd" fill="#e3cf6e"/><path d="M249.973 202.194c-1.465 4.705 2.217 8.747 2.798 9.453 1.04 1.034 1.72 1.877 4.775 3.138.338.407 4.71 2.899 5.336 3.49 4.65 1.218 7.12-.87 12.414.428-1.363-3.364-15.507-17.162-25.323-16.51z" fill-rule="evenodd" fill="#336446"/><path d="M250.092 204.331c-1.424 2.327 2.338 7.9 2.919 8.606 1.04 1.034 1.72 1.877 4.774 3.138.339.407 1.853 1.173 2.075 1.44l4.004.733c-1.362-3.365-9.1-15.004-13.772-13.917z" fill-rule="evenodd" fill="#402e08"/><path d="M251.602 196.376l-.952.693 1.385.692-.433-1.385z" fill-rule="evenodd"/><path d="M249.73 205.962c.773 4.957 2.62 6.306 3.241 6.974 1 1.072 1.76 1.756 4.815 3.138 1.226 1.012 1.692 1.294 2.64 1.803l3.235.481c-1.362-3.364-9.43-11.029-13.93-12.396z" fill-rule="evenodd" fill="#8c361d"/><path d="M228.81 284.146c-.171-1.084-1.595-3.192 1.598-6.043-.077-1.52-1.634-3.097-2.852-3.877-1.026 0-3.99 2.07-5.302 4.39-.742 1.616-1.122 4.123-.171 6.043.704 1.064 1.52 2.3 2.394 2.794.418.303 1.35.208 2.11-.115 1.197-.608 2.11-2.356 2.223-3.192z" fill-rule="evenodd" fill="#bbcdcd"/><path d="M231.091 299.936c-1.445 1.672-7.107 4.94-8.21 6.044-.913 1.216 1.254 2.889 2.622 3.078 2.433-1.824 4.865-4.333 7.069-5.814 3.075-2.84 2.871-3.073 7.87-1.597-.723-2.66-5.778-4.75-8.667-5.358-4.866.531-7.109 2.545-8.097 5.358 3.23-2.433 5.436-3.611 7.413-1.711z" fill-rule="evenodd" fill="#d4be72"/><path d="M284.13 284.478c.091-.52.383-.8.392-1.822 1.066 1.533 1.575 2.313 2.96 4.26-.499.667-1.22.353-1.898.03-.633-.406-1.541-1.712-1.453-2.468zM228.119 284.136c-.091-.52-.383-.801-.392-1.823-1.066 1.534-1.575 2.314-2.96 4.261.499.667 1.22.352 1.898.03.633-.406 1.541-1.713 1.454-2.468z" fill-rule="evenodd" fill="#fff"/><path d="M282.19 301.076c1.445 1.673 7.107 4.941 8.21 6.044.913 1.216-1.253 2.889-2.622 3.079-2.433-1.825-4.865-4.334-7.069-5.815-2.52-3.025-3.612-2.888-7.87-1.597.723-2.66 5.778-4.75 8.667-5.358 4.866.531 7.11 2.546 8.097 5.358-3.23-2.433-5.436-3.611-7.413-1.711z" fill-rule="evenodd" fill="#d4be72"/><path d="M242.991 257.438c1.21 1.734 2.217 5.562 2.38 8.022.214 4.756-4.611 7.175-6.251 6.974-3.117-.377-5.672-2.728-5.927-6.37.497-4.245 2.284-6.598 5.241-6.773 1.937.337 4.113 2.648 4.113 5.443-.053 2.312-.712 4.622-2.137 4.676-3.467-.268-3.266-2.27-3.83-3.346-.148-.792-.272-2.938.121-3.466.518-.642 2.903-1.491 4.071.16 1.263 1.29-1.867-.684-3.103.201-.632.901-.215 2.365-.04 2.943.215.578.188 2.486 2.58 2.38.874-.134 1.182-1.924 1.25-3.67.135-1.195-1.546-3.6-3.226-4.111-1.17-.188-4.031 2.203-3.91 5.563.229 3.817 3.359 5.133 5.04 4.878 1.705-.457 5.267-1.8 5.12-5.603-.377-4.193-1.158-5.927-2.501-7.942.524 0 .485 0 1.01.04zM267.989 227.81l-.727-1.17h-15.643c-4.434.403-11.189 1.075-13.513 2.082-5.953 2.93-7.574-2.243-7.897-3.533-.346-1.183.393-3.319 1.549-4.071.457-.874 3.012-1.831 4.557-1.253 1.748.739 2.507 2.944 2.229 4.436-.525 2.218-4.721 3.588-3.229 1.33.188-.991.944-3.749-.387-5.724l-1.218.242c1.693 3.524.14 5.272.06 6.28-.08 1.693 1.367 1.545 2.488 1.502.765-.04 2.058-1.01 2.582-1.534.63-.55.728-1.617.805-2.86.198-3.282-2.808-5.618-4.837-5.322-6.168 1.532-6.317 6.678-4.92 9.352.78 1.343 1.68 2.164 3.186 2.943 1.263.377 3.173.16 4.676-.404 2.976-1.068 7.798-2.015 13.805-2.163l16.434-.134z" fill-rule="evenodd"/><g stroke-width="1pt" fill="#8c361d"><path d="M257.056 235.713l.646.942-.097.01a3.23 3.23 0 0 0-.512-.446 1.533 1.533 0 0 0-.444-.198 1.15 1.15 0 0 0-.389-.008l-.272.029 1.84 2.683c.123.178.209.288.259.33a.644.644 0 0 0 .483.128l.12-.013.066.095-1.91.204-.065-.095.12-.013c.107-.012.18-.039.22-.081.03-.03.039-.074.026-.135-.009-.043-.073-.152-.193-.327l-1.84-2.683-.264.028c-.246.026-.39.095-.434.205-.06.156-.023.364.112.625l-.103.01-.646-.94 3.277-.35zM247.568 236.942l.971 1.416.073-.007c.231-.025.352-.112.36-.262.01-.15-.064-.36-.221-.634l.102-.01 1.25 1.82-.102.012a2.773 2.773 0 0 0-.472-.473 1.253 1.253 0 0 0-.414-.229 1.178 1.178 0 0 0-.444-.024l.673.98c.13.191.22.308.265.349a.502.502 0 0 0 .169.095c.065.022.15.028.254.017l.218-.024c.34-.036.562-.14.663-.313.102-.172.093-.417-.028-.734l.1-.01.594 1.123-3.153.335-.065-.095.121-.013c.106-.01.18-.038.219-.08.03-.03.038-.074.023-.135-.008-.043-.073-.152-.192-.327l-1.57-2.288a3.059 3.059 0 0 0-.212-.289.575.575 0 0 0-.195-.128.675.675 0 0 0-.328-.042l-.122.013-.064-.095 3.052-.325.705 1.029-.101.01c-.225-.245-.422-.417-.593-.517a1.576 1.576 0 0 0-.563-.199c-.121-.02-.32-.015-.596.014l-.377.04zM244.448 240.687l.066.095-1.907.204-.065-.096.12-.012c.106-.012.18-.039.219-.081.03-.03.038-.074.023-.135-.008-.043-.072-.152-.192-.326l-1.57-2.289a2.037 2.037 0 0 0-.258-.33.58.58 0 0 0-.2-.103.647.647 0 0 0-.277-.026l-.121.014-.065-.095 1.907-.203.065.094-.121.013c-.106.011-.179.039-.219.081-.03.03-.039.074-.025.136.008.042.072.152.191.326l1.57 2.288c.122.178.208.288.258.33a.65.65 0 0 0 .48.128l.121-.013zM241.461 239.797l.701 1.236-3.238.345-.065-.095.12-.013c.106-.01.18-.038.22-.08.029-.03.037-.074.022-.135-.008-.043-.072-.152-.192-.327l-1.57-2.288c-.122-.178-.208-.288-.258-.33s-.117-.077-.2-.103a.637.637 0 0 0-.277-.026l-.122.013-.064-.095 1.944-.207.065.095-.159.017c-.105.011-.178.038-.218.08-.03.03-.039.075-.026.136.008.043.073.152.193.327l1.52 2.216c.122.178.21.29.266.338a.46.46 0 0 0 .2.094c.056.01.17.007.342-.011l.304-.033c.193-.02.332-.07.417-.149.085-.079.125-.193.122-.343 0-.15-.053-.367-.156-.65l.11-.012zM263.69 238.74l-.065-.095.12-.013c.107-.011.177-.035.211-.072a.159.159 0 0 0 .037-.144c-.009-.038-.074-.146-.197-.326l-1.57-2.288c-.122-.178-.208-.288-.258-.33s-.117-.077-.2-.103a.636.636 0 0 0-.278-.026l-.12.013-.066-.095 1.633-.173a3.384 3.384 0 0 1 1.167.057c.42.104.81.287 1.169.55.36.262.662.57.906.925.167.244.281.474.34.69.058.214.068.396.03.545a.73.73 0 0 1-.233.371 1.479 1.479 0 0 1-.498.254 2.66 2.66 0 0 1-.495.086l-1.633.174zm-.86-3.43l1.862 2.715c.098.144.166.23.203.262.036.03.077.053.123.067.066.02.145.025.236.015.3-.031.461-.153.486-.365.034-.286-.139-.706-.519-1.26-.306-.447-.624-.795-.954-1.047-.26-.196-.506-.322-.741-.378-.166-.04-.398-.042-.696-.008zM261.252 237.938l-1.289.137.08.356a.833.833 0 0 0 .116.287.513.513 0 0 0 .271.202c.068.023.201.03.4.024l.066.095-1.214.129-.065-.095c.118-.033.19-.096.218-.188.025-.095.009-.281-.05-.56l-.598-2.914.05-.006 3.272 2.713c.311.257.53.416.66.477a.69.69 0 0 0 .322.065l.065.095-1.765.189-.065-.096.072-.008c.143-.015.229-.044.26-.088.021-.031.014-.072-.022-.124a.546.546 0 0 0-.08-.093 5.384 5.384 0 0 0-.213-.184l-.49-.413zm-.222-.18l-1.365-1.14.262 1.258 1.103-.118zM252.364 238.247l.668.974c.13.188.222.306.28.353a.606.606 0 0 0 .208.102c.08.023.204.025.372.007l.065.095-1.867.2-.065-.096c.168-.018.272-.045.311-.08a.137.137 0 0 0 .046-.132c-.008-.05-.076-.17-.205-.358l-1.549-2.257c-.129-.189-.222-.305-.28-.35-.057-.048-.127-.082-.208-.105s-.205-.025-.371-.007l-.065-.095 1.695-.18c.44-.047.783-.053 1.028-.016.244.036.485.126.722.27.235.142.426.318.57.528.176.257.224.479.146.667-.052.12-.17.217-.356.294l1.685 1.084c.219.14.366.226.44.259.11.045.214.065.315.06l.065.095-1.148.122-2.263-1.46-.24.026zm-1.17-1.707l1.045 1.524.153-.016c.249-.027.42-.068.515-.124.094-.057.136-.147.13-.267-.008-.122-.074-.274-.2-.458-.182-.265-.382-.453-.6-.566a1.303 1.303 0 0 0-.756-.124l-.288.031zM245.823 238.665c.4.04.706.108.92.202.308.134.547.325.717.574.18.26.218.489.114.684-.128.236-.45.38-.967.436l-1.854.197-.065-.094c.169-.019.272-.045.312-.08a.139.139 0 0 0 .046-.132c-.008-.05-.077-.17-.206-.358l-1.549-2.258c-.129-.188-.222-.304-.28-.35a.555.555 0 0 0-.207-.104 1.075 1.075 0 0 0-.372-.008l-.065-.094 1.749-.186c.418-.045.738-.04.961.012.222.052.432.144.63.274.197.13.349.274.459.434.114.167.154.324.116.47-.038.142-.19.27-.459.381zm-1.027.035c.255-.027.423-.075.506-.142a.306.306 0 0 0 .122-.26c-.004-.107-.059-.237-.164-.39a1.402 1.402 0 0 0-.356-.368 1.268 1.268 0 0 0-.426-.196c-.154-.039-.36-.043-.621-.014l.94 1.37zm.138.2l.765 1.116.086.129c.063.092.135.16.216.202a.478.478 0 0 0 .269.046.569.569 0 0 0 .333-.132.327.327 0 0 0 .099-.294.921.921 0 0 0-.17-.397 1.709 1.709 0 0 0-.417-.424 1.346 1.346 0 0 0-.512-.237 2.15 2.15 0 0 0-.67-.009z"/></g><g stroke-width="1pt" fill="#8c361d"><path d="M258.655 241.242l.917 1.416.074-.007c.232-.025.355-.112.37-.262.015-.15-.051-.36-.197-.634l.103-.01 1.18 1.82-.104.011a2.617 2.617 0 0 0-.453-.472 1.2 1.2 0 0 0-.405-.229 1.162 1.162 0 0 0-.443-.024l.635.98c.124.191.208.308.252.349a.485.485 0 0 0 .165.095.601.601 0 0 0 .253.016l.22-.023c.341-.036.567-.14.674-.312.11-.173.11-.418 0-.735l.1-.01.552 1.122-3.166.336-.061-.095.121-.013c.107-.01.18-.038.222-.081.032-.03.041-.074.029-.134-.007-.044-.067-.152-.18-.327l-1.482-2.288a2.897 2.897 0 0 0-.201-.289.541.541 0 0 0-.19-.128.665.665 0 0 0-.328-.042l-.121.013-.061-.095 3.065-.325.667 1.029-.104.01c-.214-.245-.405-.418-.572-.517a1.53 1.53 0 0 0-.556-.199c-.12-.02-.32-.015-.596.014l-.379.04zM249.72 241.978l1.714-.182.156.69-1.443.154.087.36c.636-.043 1.209.053 1.72.29.42.195.74.46.955.792.138.214.21.43.215.65a.645.645 0 0 1-.234.529c-.162.134-.381.216-.658.245-.3.032-.563.003-.792-.086-.16-.063-.272-.143-.334-.239-.048-.073-.06-.141-.04-.204.023-.063.073-.098.15-.107.071-.007.151-.001.24.019s.26.078.51.176c.157.06.283.1.38.12.07.014.139.017.209.01.148-.016.24-.08.276-.194.038-.114.01-.243-.082-.386-.196-.302-.512-.529-.951-.683-.439-.155-.9-.207-1.381-.155l-.218.025-.48-1.824zM247.867 242.097l1.843 2.845c.138.214.236.35.295.407.058.056.13.1.217.13s.2.04.34.025l.083-.009.061.095-1.928.205-.062-.095.098-.01c.157-.017.257-.046.301-.087a.15.15 0 0 0 .045-.155c-.016-.063-.095-.204-.237-.423l-1.167-1.803a1.855 1.855 0 0 0-.22-.298.453.453 0 0 0-.157-.093.38.38 0 0 0-.18-.027.602.602 0 0 0-.282.117l-.108-.087.97-.727.088-.01zM255.351 245.097l-.061-.094.121-.014c.107-.01.178-.035.213-.071a.166.166 0 0 0 .043-.145c-.007-.037-.069-.146-.186-.326L254 242.16c-.116-.178-.197-.288-.246-.33s-.114-.077-.196-.103a.626.626 0 0 0-.276-.026l-.122.013-.062-.094 1.64-.174a3.365 3.365 0 0 1 1.166.057c.415.104.797.287 1.146.55.351.262.642.57.87.925.159.244.264.475.315.69.05.214.053.396.01.545a.769.769 0 0 1-.248.372 1.54 1.54 0 0 1-.508.254 2.7 2.7 0 0 1-.498.085l-1.64.174zm-.728-3.43l1.757 2.715a1.6 1.6 0 0 0 .193.262c.036.031.076.053.121.067a.59.59 0 0 0 .236.016c.3-.032.467-.154.5-.366.044-.286-.112-.706-.47-1.26-.29-.447-.594-.795-.916-1.047-.251-.196-.494-.322-.726-.377-.164-.04-.396-.043-.695-.01z"/></g><g stroke-width="1pt" fill="#8c361d"><path d="M274.138 245.327l.987 1.416.072-.007c.231-.025.35-.112.358-.262.008-.15-.069-.36-.229-.634l.103-.01 1.268 1.82-.101.012a2.818 2.818 0 0 0-.477-.473 1.275 1.275 0 0 0-.416-.229 1.18 1.18 0 0 0-.445-.025l.684.981c.133.191.223.308.269.349a.509.509 0 0 0 .17.095c.065.022.15.028.254.017l.217-.024c.341-.036.56-.14.66-.313.101-.172.09-.417-.035-.734l.099-.01.606 1.122-3.148.336-.067-.095.121-.013c.106-.01.178-.038.218-.08.03-.03.037-.074.021-.135-.009-.043-.073-.152-.195-.327l-1.594-2.288a3.17 3.17 0 0 0-.216-.289.583.583 0 0 0-.196-.128.679.679 0 0 0-.33-.042l-.12.013-.066-.095 3.05-.325.715 1.029-.101.01c-.228-.245-.427-.418-.598-.517-.17-.1-.358-.166-.565-.199-.122-.02-.321-.015-.597.014l-.376.04zM263.88 248.667l-.61-2.399 1.484-.158.066.095-.118.012c-.108.012-.181.039-.22.081-.028.03-.036.074-.024.133.01.043.074.151.194.323l1.598 2.294c.124.178.211.288.262.33.051.043.118.078.203.106a.682.682 0 0 0 .279.022l.118-.012.066.095-1.902.203-.067-.095.119-.013c.107-.012.18-.039.22-.081.028-.03.036-.074.022-.135-.009-.043-.074-.152-.195-.326l-1.797-2.579.814 3.323-.065.007-3.614-3 1.708 2.45c.119.172.197.276.233.315a.885.885 0 0 0 .297.194.901.901 0 0 0 .423.04l.067.095-1.246.133-.067-.095.038-.004a.438.438 0 0 0 .2-.06c.051-.034.079-.076.084-.124s-.011-.114-.047-.196a4.79 4.79 0 0 0-.177-.263l-1.534-2.201a1.976 1.976 0 0 0-.259-.325.574.574 0 0 0-.2-.102.659.659 0 0 0-.281-.026l-.115.012-.066-.094 1.488-.159 2.621 2.184zM257.628 247.085l.987 1.416.073-.007c.23-.025.35-.112.357-.262.008-.15-.069-.36-.228-.634l.102-.01 1.269 1.82-.102.011a2.817 2.817 0 0 0-.476-.472 1.282 1.282 0 0 0-.417-.229 1.178 1.178 0 0 0-.444-.024l.683.98c.134.191.224.308.27.349a.511.511 0 0 0 .17.095c.065.022.15.027.254.016l.217-.023c.34-.036.56-.14.66-.312.1-.173.089-.418-.036-.735l.1-.01.606 1.122-3.149.336-.066-.095.12-.013c.106-.01.178-.038.218-.081.03-.03.038-.074.022-.134-.009-.044-.074-.152-.196-.327l-1.594-2.288a3.205 3.205 0 0 0-.215-.289.583.583 0 0 0-.197-.128.68.68 0 0 0-.33-.042l-.12.013-.066-.095 3.05-.325.716 1.029-.102.01c-.227-.245-.426-.418-.597-.517-.17-.1-.358-.166-.566-.199-.122-.02-.32-.015-.597.014l-.376.04zM258.22 250.442l.066.096-1.905.203-.066-.095.12-.013c.106-.012.179-.039.218-.081.03-.03.038-.074.022-.135-.009-.043-.075-.152-.196-.326l-1.594-2.289a2.07 2.07 0 0 0-.262-.33.578.578 0 0 0-.202-.103.643.643 0 0 0-.277-.026l-.121.013-.066-.094 1.905-.203.065.094-.12.013c-.106.011-.179.039-.218.081-.03.03-.038.074-.024.135.009.043.074.153.195.327l1.595 2.288c.124.178.211.288.262.33a.647.647 0 0 0 .481.128l.121-.013zM253.652 247.297l.656.94-.097.011a3.29 3.29 0 0 0-.516-.446 1.57 1.57 0 0 0-.447-.198 1.154 1.154 0 0 0-.39-.008l-.27.029 1.87 2.683c.123.178.211.289.261.33a.646.646 0 0 0 .484.128l.121-.013.066.095-1.907.204-.066-.095.12-.013c.107-.011.179-.039.218-.081.03-.03.039-.074.025-.135-.01-.043-.074-.152-.196-.326l-1.87-2.684-.263.028c-.245.027-.389.095-.431.206-.059.155-.02.363.118.624l-.103.01-.656-.94 3.273-.35zM244.784 248.455l.986 1.416.073-.007c.231-.025.35-.112.358-.262.007-.15-.069-.36-.228-.634l.101-.01 1.27 1.82-.103.012a2.817 2.817 0 0 0-.476-.473 1.275 1.275 0 0 0-.416-.229 1.18 1.18 0 0 0-.444-.024l.682.98c.134.191.224.308.27.349a.511.511 0 0 0 .17.095c.065.022.15.028.254.017l.218-.024c.34-.036.56-.14.66-.312.1-.173.088-.418-.036-.735l.099-.01.606 1.122-3.149.336-.066-.095.121-.013c.106-.01.178-.038.217-.08.03-.03.038-.074.023-.135-.01-.043-.074-.152-.196-.327l-1.595-2.288a3.205 3.205 0 0 0-.215-.289.583.583 0 0 0-.196-.128.677.677 0 0 0-.33-.042l-.12.013-.067-.095 3.05-.325.717 1.029-.103.01c-.227-.245-.426-.417-.597-.517-.17-.1-.358-.166-.566-.199-.121-.02-.32-.015-.596.014l-.376.04zM242.614 248.385l.837 1.156-.11.012a2.722 2.722 0 0 0-.872-.66c-.326-.155-.608-.221-.845-.196-.182.02-.294.082-.337.188-.04.104-.02.216.065.337.054.078.12.144.2.2.108.074.246.145.416.212.123.047.388.126.792.237.566.155.986.314 1.258.475.27.163.485.358.645.588.203.29.258.553.167.79-.091.233-.32.37-.685.408-.114.013-.23.013-.348.002a3.892 3.892 0 0 1-.472-.085.83.83 0 0 0-.248-.028.152.152 0 0 0-.112.067c-.028.04-.034.096-.017.17l-.1.01-.915-1.313.1-.01c.336.36.684.626 1.043.797.36.17.671.24.93.212.2-.021.324-.09.37-.207.048-.117.022-.245-.074-.383a.984.984 0 0 0-.236-.232 1.734 1.734 0 0 0-.359-.196 5.998 5.998 0 0 0-.683-.219c-.44-.12-.77-.227-.992-.32a2.964 2.964 0 0 1-.592-.332 1.887 1.887 0 0 1-.427-.435c-.193-.277-.25-.524-.173-.741.077-.218.278-.345.602-.379.118-.013.242-.011.372.004.1.012.228.04.387.083.16.042.265.06.313.055.046-.005.073-.023.081-.053.008-.03-.013-.099-.062-.205l.08-.009zM249.63 249.773l.672.964c.131.189.226.306.284.353a.61.61 0 0 0 .21.102c.082.022.206.025.37.007l.067.095-1.852.198-.066-.095c.169-.018.273-.045.311-.08a.137.137 0 0 0 .044-.132c-.008-.05-.078-.17-.209-.358l-1.573-2.257c-.13-.189-.225-.305-.284-.35-.058-.048-.128-.083-.209-.105s-.205-.025-.372-.008l-.066-.094 1.588-.17c.524-.055.96-.006 1.312.147.351.154.62.364.806.63.157.227.218.428.184.604-.035.176-.161.308-.379.393-.145.06-.424.112-.838.156zm-1.187-1.703l1.048 1.503c.061-.003.107-.006.138-.01.218-.023.344-.103.376-.238.031-.137-.044-.336-.225-.596-.18-.259-.37-.441-.572-.548a1.113 1.113 0 0 0-.655-.123l-.11.012zM268.439 247.473c.399.04.707.107.923.202.309.134.55.325.723.573.182.262.222.49.121.685-.126.236-.447.38-.962.436l-1.851.197-.067-.095c.168-.018.272-.045.311-.08a.136.136 0 0 0 .044-.131c-.008-.05-.078-.17-.21-.358l-1.572-2.258c-.132-.188-.226-.305-.285-.35a.557.557 0 0 0-.208-.104 1.077 1.077 0 0 0-.371-.008l-.066-.095 1.746-.186c.417-.044.738-.04.961.013.223.052.434.143.632.274.2.13.353.274.464.434.117.167.158.324.122.469-.037.143-.188.27-.455.382zm-1.026.035c.254-.027.422-.075.504-.142a.303.303 0 0 0 .118-.26c-.005-.107-.06-.237-.167-.39a1.426 1.426 0 0 0-.36-.368 1.286 1.286 0 0 0-.428-.196c-.154-.04-.361-.043-.622-.014l.955 1.37zm.14.2l.777 1.116.086.129c.065.092.138.16.22.202a.478.478 0 0 0 .268.046.564.564 0 0 0 .333-.132.325.325 0 0 0 .095-.294.924.924 0 0 0-.173-.398 1.745 1.745 0 0 0-.423-.423c-.17-.122-.34-.2-.514-.237a2.148 2.148 0 0 0-.67-.009zM271.302 247.447l.68.975c.13.188.225.305.283.352a.614.614 0 0 0 .21.102c.08.023.204.025.371.007l.067.095-1.865.2-.067-.096c.169-.018.272-.045.312-.08a.137.137 0 0 0 .044-.132c-.01-.05-.079-.17-.21-.358l-1.573-2.257c-.131-.188-.226-.305-.284-.35a.56.56 0 0 0-.208-.104 1.08 1.08 0 0 0-.372-.008l-.066-.095 1.692-.18c.442-.047.784-.053 1.029-.016s.486.126.724.27c.238.142.43.318.576.528.179.257.23.48.154.667-.05.12-.168.217-.353.294l1.697 1.085c.22.14.368.226.442.258.111.045.216.065.316.06l.066.095-1.146.122-2.28-1.46-.239.026zm-1.189-1.707l1.063 1.525.153-.017c.249-.026.42-.068.514-.124.092-.057.134-.146.125-.267-.007-.122-.075-.274-.203-.457-.185-.265-.387-.454-.606-.567a1.31 1.31 0 0 0-.758-.123l-.288.03z"/></g><g stroke-width="1pt" fill="#8c361d"><path d="M268.307 251.247l1.34 2.845c.1.214.176.35.224.407.047.056.112.1.194.13a.75.75 0 0 0 .335.025l.085-.01.045.096-1.964.205-.046-.095.1-.01c.16-.017.265-.046.317-.087a.175.175 0 0 0 .071-.156c-.004-.062-.058-.203-.161-.422l-.85-1.803a1.47 1.47 0 0 0-.166-.298.36.36 0 0 0-.142-.092.342.342 0 0 0-.175-.028.71.71 0 0 0-.303.117l-.093-.087 1.098-.728.09-.01zM267.659 255.036l-2.196.229-.026-.057c.32-.817.492-1.363.513-1.636a1.502 1.502 0 0 0-.139-.78.98.98 0 0 0-.39-.427.823.823 0 0 0-.521-.134c-.283.03-.44.184-.472.464l-.117-.023c-.056-.339-.02-.597.107-.776.129-.178.324-.28.588-.309.19-.019.381.003.576.07.194.065.37.166.525.3.155.133.262.262.32.386.108.228.149.466.123.714-.036.336-.232.82-.59 1.45l.807-.083c.198-.021.323-.042.374-.064a.21.21 0 0 0 .113-.092.73.73 0 0 0 .041-.25l.1-.01.264 1.028zM259.854 252.128l1.34 2.845c.102.214.176.35.224.407.048.057.113.1.195.13.082.032.193.04.335.025l.085-.009.045.095-1.965.205-.045-.095.1-.01c.159-.017.264-.046.317-.087a.175.175 0 0 0 .07-.156c-.003-.062-.058-.203-.16-.421l-.85-1.804a1.462 1.462 0 0 0-.167-.298.36.36 0 0 0-.141-.092.342.342 0 0 0-.175-.028.712.712 0 0 0-.303.117l-.092-.087 1.097-.727.09-.01zM254.512 252.97l.667 1.415.074-.008c.237-.024.376-.111.416-.26.042-.15.013-.362-.085-.635l.105-.011.859 1.822-.105.01a2.006 2.006 0 0 0-.37-.472.947.947 0 0 0-.365-.229 1.134 1.134 0 0 0-.439-.024l.462.98c.09.191.154.308.19.349a.39.39 0 0 0 .15.095.582.582 0 0 0 .25.017l.223-.024c.348-.036.592-.14.73-.313.14-.172.184-.417.13-.734l.102-.01.352 1.122-3.224.336-.045-.095.124-.013a.425.425 0 0 0 .236-.08c.036-.03.054-.074.052-.135.001-.044-.04-.152-.122-.327l-1.078-2.288a2.29 2.29 0 0 0-.15-.289.426.426 0 0 0-.167-.128.626.626 0 0 0-.32-.042l-.124.013-.045-.095 3.123-.325.485 1.029-.105.01c-.171-.245-.332-.418-.48-.517-.148-.1-.321-.166-.522-.199-.117-.02-.317-.015-.599.014l-.385.04zM250.527 256.824l-.044-.095.123-.013c.109-.01.184-.035.226-.071a.194.194 0 0 0 .068-.145c0-.037-.043-.146-.128-.325l-1.078-2.289c-.084-.178-.146-.288-.187-.33a.44.44 0 0 0-.178-.103.608.608 0 0 0-.272-.026l-.124.013-.045-.094 1.67-.174c.446-.047.832-.028 1.156.057.398.104.747.287 1.05.55.304.262.54.57.707.925.115.244.18.474.192.69.013.214-.016.396-.086.545a.994.994 0 0 1-.313.372c-.136.098-.32.183-.553.254a3 3 0 0 1-.513.085l-1.67.174zm-.123-3.429l1.278 2.714c.068.144.117.231.147.263.03.03.066.052.11.066.061.02.138.026.233.016.306-.032.494-.153.563-.366.096-.286.014-.706-.248-1.26-.21-.447-.453-.795-.73-1.047a1.566 1.566 0 0 0-.66-.378c-.157-.04-.387-.041-.693-.008zM263.5 253.41c.347.152.608.3.782.446.175.143.31.315.404.515.132.28.131.53-.005.749-.135.216-.396.345-.785.385-.37.04-.694-.016-.976-.164-.28-.149-.48-.345-.594-.59-.088-.186-.107-.355-.058-.507.051-.153.185-.301.402-.446-.395-.18-.665-.332-.813-.457a1.343 1.343 0 0 1-.342-.45c-.11-.234-.1-.449.027-.647.129-.2.378-.32.747-.358.356-.037.666.013.93.15.267.136.451.314.554.533a.601.601 0 0 1 .05.452c-.045.135-.152.265-.322.389zm-.27-.11a.685.685 0 0 0 .016-.302 1.312 1.312 0 0 0-.116-.354 1.186 1.186 0 0 0-.394-.495.557.557 0 0 0-.383-.103c-.123.013-.208.066-.255.159-.047.09-.042.198.016.32.059.126.167.25.327.376.16.123.423.257.788.4zm-.296.6a.35.35 0 0 0-.059.143.859.859 0 0 0 .024.272c.025.117.066.239.125.363.076.161.162.294.258.4a.793.793 0 0 0 .297.213c.105.039.2.054.286.046.134-.014.226-.072.275-.172.048-.102.034-.232-.04-.391-.157-.332-.545-.623-1.166-.875z"/></g></svg>