<svg xmlns="http://www.w3.org/2000/svg" height="512" width="512" version="1"><g stroke-width="1pt"><path fill="#006" d="M0 0h512v512H0z"/><path fill="#fff" d="M0 0v19.214l234.01 152.639h29.456v-19.214L29.456.001H0zm263.466 0v19.213L29.456 171.852H0v-19.213L234.01 0h29.456z"/><path fill="#fff" d="M109.777 0v171.852h43.911V0h-43.91zM0 57.284v57.284h263.466V57.284H0z"/><path fill="#c00" d="M0 68.74v34.371h263.466v-34.37H0zM118.56 0v171.852h26.346V0H118.56zM0 171.852l87.822-57.284h19.637l-87.822 57.284H0zM0 0l87.822 57.284H68.185L0 12.809V0zm156.007 57.284L243.829 0h19.637l-87.822 57.284h-19.637zm107.459 114.568l-87.822-57.284h19.637l68.185 44.475v12.809z"/><path fill-rule="evenodd" fill="#fff" d="M69.113 443.57l-16.34 17.194 3.256-23.495-23.629-2.054 20.394-12.106-13.122-19.754 22.177 8.398 7.264-22.578 7.264 22.578 22.177-8.398-13.122 19.754 20.394 12.106-23.629 2.054 3.256 23.495z"/><g fill-rule="evenodd" fill="#fff"><path d="M380.525 466.82l-11.507 12.101 2.295-16.536-16.635-1.448 14.359-8.525-9.243-13.907 15.621 5.914 5.11-15.9 5.11 15.9 15.621-5.914-9.243 13.907 14.36 8.525-16.636 1.448 2.295 16.536zM380.525 219.36l-11.507 12.101 2.295-16.536-16.635-1.448 14.359-8.524-9.243-13.909 15.621 5.914 5.11-15.896 5.11 15.896 15.621-5.914-9.243 13.91 14.36 8.523-16.636 1.448 2.295 16.536zM287.727 319.89l-11.506 12.102 2.295-16.537-16.636-1.447 14.36-8.525-9.243-13.908 15.62 5.915 5.11-15.9 5.11 15.9 15.621-5.915-9.242 13.908 14.359 8.525-16.636 1.447 2.295 16.537zM462.991 295.145l-11.507 12.1 2.29-16.536-16.612-1.447 14.384-8.525-9.261-13.908 15.633 5.915 5.073-15.9 5.135 15.9 15.59-5.915-9.218 13.908 14.353 8.525-16.642 1.447 2.289 16.537zM411.105 348.893l-8.172-6.898 10.671-.785 4.04-9.905 4.04 9.905 10.671.785-8.172 6.898 2.555 10.387-9.094-5.636-9.094 5.636z"/></g></g></svg>