<svg xmlns="http://www.w3.org/2000/svg" height="512" width="512" version="1"><defs><clipPath id="a"><path fill-opacity=".67" d="M148.24 0h744.09v744.09H148.24z"/></clipPath></defs><g clip-path="url(#a)" transform="translate(-102) scale(.68808)"><path fill-rule="evenodd" fill="#ba0000" d="M1063 744.09H0V0h1063z"/><path d="M556.648 546.465c.29-.88.877-9.946.584-9.946s-13.747-15.794-13.454-15.794 17.257 3.803 17.257 3.217c0-.584 6.727-16.671 6.727-16.964 0-.291 8.19 19.597 8.19 19.597l16.671 7.313-11.7 9.65s2.633 18.721 2.633 19.014c0 .291-11.7-11.116-11.7-11.116l-12.87 1.463s-1.754-5.85-2.338-6.434z" fill-rule="evenodd" fill-opacity=".988" stroke="#000" stroke-width="2.4025pt" fill="#ffef00"/><path d="M466.026 300.69c-11.114 5.722-53.768 54.478-59.618 62.082-4.901 11.04-14.487 25.006-24.362 33.996-10.54 7.974-16.397 18.867-14.945 29.18-.118 12.835 7.077 21.573 12.81 30.604 3.392 4.125 7.957 6.791 12.81 7.116 9.956 1.314 10.84 4.38 15.823 6.278 19.628 26.725 48.91 46.433 69.999 62.044 13.442 7.085 22.79 14.17 25.993 18.038 6.174 11.79 5.038 23.285 4.192 28.933l-15.657 59.073c-2.633 16.087 11.347 12.469 12.099 9.252 6.309-8.19 15.724-2.438 29.178-49.82 6.167-8.304 12.337-16.607 18.504-24.91 0 0 7.119-2.847 7.119-3.558 10.823-12.995 2.582-20.433-3.56-22.773-4.508-1.66-9.015-3.323-13.522-4.983 0 0-15.657-15.657-16.368-15.657-7.44-21.644-43.961-67.851-52.444-74.285-5.872-6.12-8.666-8.726-14.24-12.13-8.57-4.1-11.335-5.433-16.584-7.528-4.37-1.753-1.26-6.551 1.52-8.745 28.926-15.746 51.856-33.245 79.612-51.038 1.422-.95 2.847-1.898 4.27-2.847-3.321-18.978-6.644-37.957-9.964-56.935l-46.26-16.37c-2.427 1.66-4.27 3.322-6.405 4.982z" fill-rule="evenodd" stroke="#000" stroke-width="3.8319875" fill="#fff"/><path d="M504.73 600.45c.147-.584 28.955-5.85 28.955-5.85s-3.363 10.676-3.51 10.676l-28.662 8.627 3.217-13.454z" fill-rule="evenodd" fill="#ffec00"/><path d="M429.652 491.976c5.557-14.77 20.983-26.465 31.345-29.692" stroke="#000" stroke-width="2.4025pt" fill="none"/><path d="M503.697 600.69c1.86-.524 10.117-2.934 12.522-3.309 2.566-.6 5.12-1.273 7.587-2.068 2.847-.582 4.63-1.117 7.587-1.656 2.316-.884 4.606-1.49 7.083-2.068m-39.995 26.913c.24-.322 2.203-2.057 3.614-2.895 1.66-.524 7.337-2.934 9.485-3.309 2.292-.6 4.572-1.273 6.775-2.068 2.544-.582 4.134-1.117 6.777-1.655 2.069-.885 4.113-1.49 6.324-2.069" stroke="#000" stroke-width="3.541285" fill="none"/><path d="M510.184 496.157h-.413c1.295 0 .5-.108-1.243 2.068-.62 1.672-5.929 5.377-9.927 5.377-1.929.207-4.894.413-6.825.413-.55 0-1.31-.413-1.862-.413M509.775 581.35h2.067c2.145 0 4.298.381 6.205.413 2.069 0 4.137.586 6.206.586 2.088.295 4.603.2 6.763.507 2.422.082 4.365.56 6.885.56 2.033.076 3.128.415 5.38.415l-5.38-.415c2.033.076 3.128.415 5.38.415M495.697 631.826c.22-.322 2.018-2.057 3.308-2.895 1.52-.524 6.72-2.933 8.687-3.308 2.098-.6 4.186-1.274 6.204-2.069 2.33-.581 3.786-1.117 6.205-1.655 1.896-.884 3.767-1.49 5.79-2.069M534.45 559.92c-1.171 3.396.345 4.25.972 5.715 1.09 1.42 3.875 3.584 8.274 4.963 1.696.457 3.001.904 4.964 1.656 1.3.12 1.939.444 2.895.826M370.79 435.35h.414c-1.297 0-.519.084 1.655-1.656 1.343-1.501 2.465-2.181 3.722-3.721M397.555 464.804c.276 0 24.063-11.988 26.602-14.55 1.8-1.304 3.162-2.68 5.35-4.163 1.404-.733 2.41-1.672 3.725-2.482 1.093-1.583 2.52-2.54 3.308-3.988 1.46-1.266.834-2.638 2.018-4.163.56-1.562 1.607-4.193 1.948-5.622M470.807 447.626c.13.856-.38 3.491-.344 5.497-.081 2.326-3.073 9.51-6.688 11.655" stroke="#000" stroke-width="2.4025pt" fill="none"/><path d="M428.066 447.362c.14 0 3.76 1.177 9.812 3.04 7.285 2.618 22.435 12.165 23.939 13.48 1.535 1.208 4.28 2.287 5.333 3.721 1.646 1.422 2.852 3.063 4.137 4.55 1.511 1.843 2.8 3.402 3.722 4.964 4.6 3.731 16.976 29.565 17.372 31.023a63.46 63.46 0 0 1 2.069 4.55c.918 1.058 1.54 2.552 2.482 4.138.865 2.056 1.833 2.993 2.897 4.55 1.37.952 3.215 2.758 4.964 3.722 1.864 1.595 3.613 2.244 4.963 3.31 1.951.83 23.751 14.61 24.763 15.3 1.991 1.6 8.072 7.901 3.803 12.485-1.812 1.55-3.443 3.602-4.99 4.479-1.576 1.578-3.77 2.284-5.581 3.101-9.822 2.902-14.824 1.862-16.755 1.862h-2.069M379.92 398.64c2.792 1.092 1.665.285 4.178 1.429 1.69.74 2.802.759 4.462 1.364 1.76.565 6.681 1.452 9.045 3.825 1.735 1.567 3.058 2.89 4.964 4.034 2.253 1.554 3.88 2.246 6.674 3.412 2.357.881 4.992 1.86 7.375 1.943 2.477.144 3.07.022 5.447.022h5.792-5.792 5.792" stroke="#000" stroke-width="2.4025pt" fill="none"/><path d="M379.272 426.244c6.203-.413 16.543 1.449 16.75 1.449l13.65-.207c7.172-.692 8.756-3.447 9.928-5.38 2.688-4.134 4.55-5.582 6.619-8.684 3.308-2.482 7.86 3.308 8.067 3.308 11.58 10.963 2.273 24.405 1.653 24.818-5.79 5.31-7.032 5.653-10.547 2.275-3.517-4.137-4.55-5.996-7.445-7.445-5.583-2.689-17.166-.62-17.375-.62-.206 0-5.997 2.275-5.997 2.275-2.827 1.033-4.62 3.517-9.513 4.341-4.964.346-6.62-.137-9.101-4.134-3.308-5.17-1.655-11.376 3.31-11.996z" fill-rule="evenodd" stroke="#000" stroke-width="2.4025pt" fill="#ffe606"/><path d="M703.114 175.363c-.909.178-9.1 4.11-8.956 4.366s-7.03 19.723-7.174 19.467-5.142-16.906-5.653-16.619c-.509.286-17.828 2.306-18.084 2.45-.253.143 13.069-16.743 13.069-16.743l-1.795-18.116 14.146 5.47s15.028-11.47 15.283-11.614c.253-.142-3.956 15.647-3.956 15.647l7.583 10.501s-4.24 4.396-4.463 5.191z" fill-rule="evenodd" fill-opacity=".988" stroke="#000" stroke-width="2.40249pt" fill="#ffef00"/><path d="M533.289 374.804c10.435 6.884 73.838 20.17 83.333 21.543 12.025-1.138 28.897.373 41.572 4.575 12.116 5.28 24.482 5.046 32.76-1.273 11.246-6.187 15.336-16.741 20.399-26.164 1.933-4.979 2.02-10.264-.075-14.654-3.734-9.322-1.495-11.595-2.282-16.869 13.676-30.207 16.505-65.389 19.778-91.423-.412-15.189 1.183-26.81 2.985-31.497 7.25-11.16 17.828-15.803 23.166-17.834 19.721-5.1 39.444-10.2 59.165-15.302 15.313-5.588 5.308-16.001 2.135-15.08-10.23-1.486-9.831-12.512-57.727-1.018l-30.78-3.923s-5.97-4.81-6.59-4.461c-16.632-3.066-19.078 7.762-18.107 14.264.762 4.742 1.522 9.486 2.283 14.228 0 0-5.974 21.321-5.626 21.941-15.22 17.093-37.877 71.981-39.328 82.529-.687 9.911-4.43 8.121-3.427 17.755.038 7.528-.838 2.828 1.675 18.338.613 4.669-5.094 4.308-8.368 2.96-27.901-17.498-54.393-28.909-83.505-44.383l-4.574-2.326c-14.915 12.194-29.83 24.392-44.745 36.586l8.4 48.347c2.637 1.302 4.99 2.093 7.483 3.141z" fill-rule="evenodd" stroke="#000" stroke-width="3.8319715499999996" fill="#fff"/><path d="M775.614 194.163c-.58.158-19.289-22.373-19.289-22.373s10.955-2.3 11.027-2.172l21.566 20.755-13.304 3.79z" fill-rule="evenodd" fill="#ffec00"/><path d="M717.855 312.766c-15.598 2.395-33.353-5.32-41.244-12.772" stroke="#000" stroke-width="2.40249pt" fill="none"/><path d="M776.33 194.945c-1.368-1.364-7.515-7.38-9.02-9.293-1.781-1.943-3.62-3.84-5.522-5.6-1.902-2.197-3.242-3.488-5.16-5.802-1.906-1.586-3.556-3.285-5.275-5.16m43.06 21.673c-.399-.052-2.873-.913-4.295-1.731-1.27-1.19-6.152-4.958-7.532-6.647-1.647-1.703-3.35-3.361-5.123-4.892-1.754-1.933-3-3.056-4.764-5.096-1.785-1.37-3.315-2.856-4.902-4.499" stroke="#000" stroke-width="3.5412702599999997" fill="none"/><path d="M682.033 240.52l.202.36c-.635-1.129-.34-.383 2.412.069 1.761-.28 7.592 2.533 9.552 6.018 1.125 1.58 2.758 4.063 3.705 5.747.27.48.281 1.344.552 1.826M756.493 199.125l-.203-.36-.81-1.44c-1.051-1.871-1.773-3.935-2.68-5.613-1.014-1.803-1.517-3.893-2.53-5.696-.766-1.965-2.083-4.11-2.873-6.144-1.116-2.151-1.652-4.08-2.887-6.276-.929-1.81-1.17-2.93-2.274-4.893l2.274 4.893c-.929-1.81-1.17-2.93-2.274-4.893M807.392 186.66c-.39-.035-2.782-.751-4.145-1.465-1.202-1.069-5.85-4.42-7.141-5.951-1.552-1.534-3.161-3.024-4.843-4.394-1.65-1.746-2.83-2.753-4.485-4.598-1.7-1.219-3.144-2.554-4.64-4.033M725.72 188.12c3.535-.645 3.536-2.384 4.506-3.65.703-1.646 1.225-5.134.272-9.644-.434-1.702-.683-3.058-.99-5.138-.532-1.192-.563-1.908-.698-2.928M697.341 391.825l-.202-.36c.635 1.13.327.411-2.255-.632-1.967-.435-3.11-1.08-5.067-1.42M709.9 354.06c-.136-.24-22.243-15.1-25.72-16.058-2.02-.93-3.887-1.442-6.251-2.623-1.327-.864-2.639-1.281-3.989-2.03-1.916-.177-3.448-.952-5.097-.93-1.82-.652-2.708.567-4.619.282-1.635.277-4.442.654-5.855 1.057M659.027 298.627c.682-.532 3.23-1.38 4.96-2.394 2.067-1.069 9.795-1.982 13.437.118" stroke="#000" stroke-width="2.40249pt" fill="none"/><path d="M679.743 336.012c-.068-.121-.817-3.854-2.16-10.042-1.287-7.633-.389-25.518.02-27.473.3-1.93-.105-4.852.63-6.473.433-2.131 1.272-3.987 1.938-5.836.866-2.22 1.594-4.107 2.503-5.676.998-5.84 17.452-29.287 18.529-30.347a63.459 63.459 0 0 1 2.953-4.033c.471-1.318 1.469-2.593 2.39-4.191 1.368-1.762 1.71-3.065 2.546-4.756.158-1.66.829-4.153.811-6.15.477-2.407.186-4.25.454-5.95-.234-2.106 1.095-27.862 1.2-29.082.419-2.52 2.932-10.909 9.02-9.434 2.238.82 4.826 1.236 6.349 2.155 2.148.6 3.839 2.166 5.439 3.345 7.343 7.139 8.887 12.009 9.834 13.692l1.014 1.804M660.751 401.014l-.202-.36c.547.973.244.488-.451-1.646-.183-1.835-.749-4.317-1.035-6.06-.37-1.812-1.22-3.876-.99-5.139-.648-1.84-.24-3.359-.066-5.182.515-2.28.748-3.93.811-6.15.251-2.727.05-4.659.205-7.235-.718-2.12-.865-3.896-1.96-6.015-.973-2.026-1.718-3.9-2.883-5.972l-2.838-5.049 2.838 5.05-2.838-5.05" stroke="#000" stroke-width="2.40249pt" fill="none"/><path d="M685.248 388.895c-3.4-5.205-6.845-15.13-6.946-15.31l-6.87-11.799c-4.118-5.912-7.296-5.941-9.554-6.017-4.922-.317-7.097-1.23-10.815-1.513-3.784-1.667-.968-8.474-1.07-8.654 3.881-15.466 20.16-13.94 20.824-13.603 7.465 2.445 8.373 3.36 7.152 8.079-1.883 5.093-2.998 6.905-2.842 10.138.393 6.185 7.873 15.267 7.975 15.45.101.18 4.922 4.111 4.922 4.111 2.286 1.959 5.33 2.304 8.447 6.166 2.734 4.157 3.124 5.837.856 9.959-2.886 5.417-9.105 7.018-12.08 2.993z" fill-rule="evenodd" stroke="#000" stroke-width="2.40249pt" fill="#ffe606"/><path d="M301.203 245.146c.647.663 8.423 5.361 8.558 5.1s20.352-4.922 20.217-4.662-11.327 13.563-10.807 13.833c.518.27 11.696 13.652 11.956 13.787.258.134-21.166-1.761-21.166-1.761l-14.172 11.425-3.174-14.83s-17.827-6.289-18.088-6.424c-.258-.134 15.257-5.262 15.257-5.262l4.632-12.096s6 1.139 6.787.89z" fill-rule="evenodd" fill-opacity=".988" stroke="#000" stroke-width="2.40244pt" fill="#ffef00"/><path d="M561.083 277.965c.042-12.5-23.575-72.82-27.628-81.516-7.539-9.437-15.517-24.379-18.945-37.285-2.22-13.028-9.19-23.245-19.011-26.71-11.336-6.018-22.407-3.658-33.063-2.732-5.224 1.11-9.694 3.932-12.218 8.09-5.754 8.23-8.882 7.602-12.862 11.15-32.763 5.106-63.746 22.012-87.318 33.536-12.481 8.665-23.077 13.697-27.985 14.757-13.308.047-22.987-6.258-27.61-9.611l-45.212-41.115c-13.064-9.75-16.295 4.325-13.786 6.475 4.362 9.373-5.081 15.079 30.77 48.851l13.581 27.9s-.753 7.63-.122 7.957c6.546 15.593 16.945 11.707 21.852 7.333l10.652-9.704s21.11-6.68 21.438-7.312c22.637 3.37 80.967-7.744 90.586-12.308 8.668-4.855 9.221-.743 16.731-6.86 6.277-4.155 2.825-.847 14.424-11.446 3.57-3.07 6.394 1.901 7.06 5.38.646 32.926 5.612 61.34 8.614 94.17l.56 5.102 55.119 17.391 35.844-33.512c-.355-2.919-.982-5.32-1.47-7.98z" fill-rule="evenodd" stroke="#000" stroke-width="3.8318917999999997" fill="#fff"/><path d="M277.215 174.195c.45.399-8.15 28.392-8.15 28.392s-7.926-7.904-7.858-8.034l5.55-29.413 10.458 9.055z" fill-rule="evenodd" fill="#ffec00"/><path d="M408.077 157.544c10.549 11.738 13.82 30.818 11.91 41.5" stroke="#000" stroke-width="2.40244pt" fill="none"/><path d="M277.478 173.167c-.392 1.892-2.059 10.33-2.834 12.637-.65 2.554-1.229 5.13-1.66 7.687-.796 2.795-1.142 4.624-2.027 7.496-.282 2.463-.8 4.774-1.428 7.24m-5.456-47.896c.175.361.81 2.903.904 4.54-.3 1.715-.777 7.864-1.434 9.943-.523 2.31-.977 4.644-1.286 6.966-.656 2.526-.914 4.184-1.654 6.777-.168 2.244-.573 4.337-1.078 6.566" stroke="#000" stroke-width="3.54119656" fill="none"/><path d="M367.26 227.09l.191-.367c-.597 1.15-.134.493-1.263-2.056-1.199-1.32-2.04-7.74-.198-11.287.705-1.808 1.888-4.534 2.778-6.248.254-.489.97-.972 1.225-1.462M291.841 187.473l-.19.367-.762 1.467c-.988 1.904-2.32 3.638-3.226 5.317-.953 1.836-2.427 3.401-3.38 5.237-1.224 1.717-2.298 3.993-3.566 5.769-1.188 2.111-2.508 3.616-3.67 5.853-1.004 1.768-1.81 2.584-2.847 4.582l2.848-4.582c-1.005 1.768-1.81 2.584-2.848 4.582M253.53 151.72c.184.345.896 2.739 1.046 4.27-.236 1.591-.493 7.316-1.067 9.235-.434 2.138-.799 4.3-1.023 6.458-.558 2.336-.753 3.875-1.39 6.27-.089 2.09-.414 4.03-.832 6.092M299.491 219.245c-2.475-2.604-3.93-1.651-5.52-1.77-1.763.314-4.967 1.788-8.218 5.056-1.187 1.295-2.184 2.247-3.756 3.643-.706 1.098-1.288 1.516-2.068 2.188M485.455 131.398l-.19.366c.597-1.151.164-.499.706 2.232.714 1.884.8 3.193 1.588 5.018M446.982 141.578c-.127.246-.448 26.88.655 30.314.329 2.198.923 4.042 1.23 6.667.004 1.583.373 2.91.486 4.449.902 1.7 1.093 3.406 2.016 4.773.45 1.88 1.957 1.956 2.765 3.71 1.128 1.216 2.98 3.358 4.091 4.32M428.475 214.504c-.819-.279-2.923-1.945-4.72-2.837-2.027-1.145-7.024-7.109-7.262-11.307" stroke="#000" stroke-width="2.40244pt" fill="none"/><path d="M448.403 176.694c-.064.124-2.777 2.795-7.218 7.308-5.68 5.258-21.135 14.304-22.994 15.034-1.78.805-4.003 2.745-5.76 3.018-2.021.806-4.033 1.12-5.945 1.575-2.332.492-4.309.917-6.12 1.016-5.431 2.364-34.06 1.443-35.538 1.123a63.458 63.458 0 0 1-4.991-.26c-1.361.327-2.974.19-4.816.296-2.223-.18-3.5.247-5.373.475-1.475.777-3.929 1.582-5.59 2.69-2.275.92-3.656 2.173-5.225 2.88-1.635 1.349-23.91 14.347-24.988 14.927-2.337 1.03-10.732 3.523-12.833-2.378-.54-2.322-1.61-4.715-1.675-6.492-.675-2.126-.291-4.398-.181-6.382 1.95-10.054 5.177-14.014 6.067-15.728l.953-1.836M513.186 156.975l-.19.366c.514-.991.274-.472-1.13 1.279-1.435 1.158-3.202 2.991-4.504 4.185-1.312 1.303-2.574 3.144-3.756 3.643-1.184 1.55-2.679 2.042-4.3 2.895-2.189.817-3.696 1.526-5.589 2.69-2.418 1.284-3.924 2.51-6.164 3.792-1.381 1.762-2.786 2.857-3.959 4.934-1.162 1.925-2.321 3.575-3.416 5.684l-2.67 5.14 2.67-5.14-2.67 5.14M494.59 297.852l.381-.735c-.705 1.358-.458 1.002.205-1.291.006-2.75.659-6.076.686-8.5.413-2.57.832-5.343.859-7.944-.156-3.042-.15-5.768-.606-8.703-.035-2.7-.351-5.501-.431-8.147-.05-2.622-.245-4.867-.814-7.412-.052-1.906-.17-4.52-.633-6.855.248-1.84-.275-3.532-.667-5.005-.712-2.835-.988-4.489-1.736-7.427-.45-1.574-.894-3.586-1.573-5.944-.245-2.233-1.44-5.133-1.927-7.059-.664-1.417-1.334-3.334-1.59-5.019-.696-1.554-1.686-3.452-1.956-5.21-.733-1.342-1.513-3.428-2.323-5.402-.698-1.622-1.212-3.62-1.955-5.208-.75-2.008-1.664-3.723-2.132-5.768-.717-.695-.88-1.456-1.264-2.054" stroke="#000" stroke-width="2.40244pt" fill="none"/><path d="M489.628 143.12c-2.491 5.695-8.908 14.015-9.004 14.198l-6.106 12.21c-2.69 6.684-.974 9.359.2 11.29 2.43 4.29 2.858 6.61 4.658 9.875.678 4.08-6.558 5.452-6.654 5.636-15.064 5.226-22.706-9.228-22.787-9.969-2.044-7.585-1.777-8.845 2.84-10.408 5.293-1.216 7.42-1.276 10.04-3.177 4.958-3.717 8.459-14.95 8.555-15.135.095-.183.744-6.37.744-6.37.386-2.986-.993-5.721.53-10.444 1.98-4.565 3.172-5.811 7.864-6.172 6.112-.553 10.858 3.773 9.12 8.466z" fill-rule="evenodd" stroke="#000" stroke-width="2.40244pt" fill="#ffe606"/><path d="M469.84 290.15c-2.276-2.067 42.811 16.337 49.014 16.546 8.481-3.102 43.433-32.676 43.433-32.676.345 2.895 1.584 10.409 4.961 11.996-13.51 10.962-25.782 21.508-39.293 32.468.966 17.373-2.205 35.78 6.618 55.221 0 0-10.546.205-10.546 0-9.307-9.307-12.618-54.185-12.618-54.185-14.821-6.619-29.644-13.029-44.465-19.648 2.138-1.38 3.861-5.652 2.896-9.722z" fill-rule="evenodd" fill-opacity=".987" stroke="#000" stroke-width="3.203" fill="#ffef00"/><path d="M512.74 336.15c.721-.523-8.133 4.113-10.407 5.277-40.961 21.85-62.04 53.634-63.354 54.835-.708 1.354-2.011 3.16-3.204 4.929-.96 1.483-2.338 3.018-3.246 4.518-1.255 1.738-3.893 5.17-5.334 6.694-.18.982.683-.336.401.317M540.73 310.18c-.795-.402 7.378 5.351 9.453 6.84 38.166 26.431 76.072 30.638 77.741 31.257 1.528.01 3.73.343 5.848.595 1.759.175 3.753.698 5.503.82 2.119.32 6.378 1.096 8.393 1.681.954-.29-.611-.453.098-.502" stroke="#000" stroke-width="3.203" fill="none"/></g></svg>