<svg xmlns="http://www.w3.org/2000/svg" height="512" width="512" version="1"><defs><clipPath id="a"><path fill-opacity=".67" d="M177.17 0h708.66v708.66H177.17z"/></clipPath></defs><g fill-rule="evenodd" clip-path="url(#a)" transform="translate(-128) scale(.72249)" stroke-width="1pt"><path fill="#fff" d="M0 0h1063v708.66H0z"/><path fill="#329203" d="M0 472.44h1063v236.22H0z"/><path fill="#e77300" d="M0 0h1063v236.22H0z"/><g transform="translate(398.44 219.6) scale(.36664)"><ellipse cx="362.9" rx="305" cy="367.47" ry="305" fill="#08399c"/><path d="M627.202 299.034c1.67 6.092 2.02 9.344 3.234 15.172-11.958 3.7-18.182 11.67-16.74 19.646 1.194 7.184 6.509 17.406 21.476 15.23.386 5.94.562 9.354.577 15.67-45.205.11-92.85-2.497-137.314-6.439-32.8-2.84-40.606 6.266-57.66 7.711-19.787 1.62-35.372.442-76.244 2.051 40.064-8.26 55.805-13.261 74.354-16.258 17.853-2.77 24.73 3.693 57.955-9.227 41.964-16.681 86.76-31.607 130.363-43.556z" fill="#fff"/><path d="M297.476 104.974c6.103-1.63 9.357-1.96 15.193-3.135 3.623 11.982 11.551 18.258 19.537 16.866 7.192-1.146 17.447-6.395 15.37-21.376 5.942-.347 9.356-.5 15.673-.475-.183 45.204-3.1 92.832-7.33 137.27-3.052 32.78 6.002 40.644 7.337 57.707 1.491 19.797.212 35.374 1.556 76.257-7.999-40.117-12.899-55.89-15.775-74.459-2.655-17.87 3.853-24.704-8.851-58.013-16.409-42.071-31.044-86.964-42.71-130.643z" fill="#fff"/><path d="M366.94 96.534c6.315-.016 9.546.497 15.489.853.44 12.51 6.499 20.604 14.575 21.3 7.246.73 18.503-1.722 20.324-16.736 5.834 1.184 9.174 1.908 15.274 3.548-11.734 43.655-26.73 88.955-42.181 130.833-11.331 30.91-4.588 40.829-7.66 57.666-3.62 19.52-8.839 34.253-17.992 74.12 2.523-40.829 1.819-57.33 3.785-76.017 2.002-17.955 10.041-22.898 6.275-58.348-5.107-44.868-7.778-92.01-7.89-137.22z" fill="#fff"/><path d="M436.97 106.324c6.107 1.616 9.095 2.946 14.744 4.825-2.807 12.199.957 21.584 8.579 24.343 6.811 2.577 18.32 3.115 23.957-10.92 5.33 2.651 8.37 4.214 13.84 7.374-22.613 39.143-48.802 79.031-74.545 115.497-18.931 26.935-14.98 38.258-22.296 53.73-8.54 17.924-17.386 30.808-36.526 66.958 12.983-38.791 16.565-54.915 23.292-72.46 6.571-16.828 15.615-19.527 21.133-54.747 6.656-44.664 16.252-90.897 27.823-134.601z" fill="#fff"/><path d="M502.09 133.879c5.481 3.138 8.025 5.195 12.997 8.469-5.863 11.06-4.651 21.098 2 25.733 5.914 4.249 16.893 7.742 25.964-4.36 4.465 3.937 6.997 6.232 11.465 10.697-31.956 31.974-67.559 63.743-101.848 92.322-25.247 21.13-24.353 33.09-35.418 46.147-12.88 15.109-24.755 25.27-52.583 55.25 22.564-34.121 30.189-48.772 41.219-63.984 10.695-14.56 20.129-14.831 34.558-47.43 17.967-41.429 39.18-83.613 61.647-122.845z" fill="#fff"/><path d="M557.594 177.014c4.491 4.441 6.421 7.083 10.386 11.523-8.507 9.184-9.913 19.197-4.675 25.384 4.625 5.626 14.338 11.82 26.213 2.454 3.304 4.952 5.163 7.82 8.334 13.283-39.095 22.695-81.663 44.257-122.142 63.073-29.826 13.939-32.034 25.727-46.08 35.505-16.328 11.295-30.414 18.067-65.008 39.894 30.569-27.183 41.7-39.384 56.267-51.254 14.076-11.325 23.263-9.165 45.58-36.965 28.003-35.427 59.337-70.75 91.126-102.897z" fill="#fff"/><path d="M600.99 234.423c3.166 5.465 4.335 8.52 6.993 13.847-10.621 6.626-14.61 15.917-11.182 23.263 2.984 6.643 10.728 15.173 24.647 9.257 1.886 5.645 2.926 8.901 4.55 15.006-43.685 11.623-90.423 21.24-134.423 28.756-32.441 5.61-37.67 16.404-53.792 22.147-18.722 6.607-34.093 9.438-73.206 21.408 36.638-18.194 50.585-27.042 67.758-34.666 16.558-7.227 24.854-2.729 53.692-23.687 36.329-26.822 75.845-52.668 114.964-75.331zM101.735 435.23c-1.632-6.102-1.963-9.357-3.14-15.192 11.98-3.627 18.254-11.557 16.86-19.543-1.149-7.191-6.401-17.445-21.382-15.362-.349-5.943-.503-9.357-.48-15.674 45.205.169 92.834 3.07 137.272 7.286 32.782 3.04 40.643-6.016 57.705-7.357 19.797-1.497 35.375-.223 76.256-1.58-40.114 8.011-55.885 12.916-74.453 15.8-17.869 2.66-24.705-3.846-58.01 8.87-42.066 16.421-86.953 31.071-130.629 42.752z" fill="#fff"/><path d="M636.095 368.354c.06 6.316-.432 9.55-.747 15.495-12.507.524-20.56 6.64-21.201 14.72-.681 7.25 1.848 18.49 16.874 20.21-1.144 5.841-1.845 9.186-3.444 15.298-43.734-11.437-89.134-26.125-131.117-41.29-30.988-11.122-40.86-4.311-57.717-7.268-19.545-3.487-34.313-8.606-74.241-17.487 40.845 2.245 57.342 1.428 76.041 3.267 17.968 1.88 22.966 9.885 58.39 5.878 44.832-5.412 91.955-8.404 137.163-8.823z" fill="#fff"/><path d="M626.757 438.53c-1.577 6.117-2.887 9.114-4.729 14.775-12.217-2.728-21.577 1.097-24.287 8.737-2.533 6.828-2.996 18.34 11.075 23.886-2.616 5.347-4.159 8.396-7.283 13.887-39.29-22.358-79.347-48.287-115.98-73.792-27.058-18.756-38.355-14.73-53.874-21.946-17.978-8.423-30.92-17.186-67.194-36.09 38.875 12.73 55.022 16.208 72.61 22.82 16.87 6.462 19.628 15.487 54.883 20.777 44.707 6.365 91 15.66 134.78 26.947z" fill="#fff"/><path d="M599.554 503.951c-3.106 5.5-5.147 8.056-8.391 13.048-11.096-5.797-21.126-4.525-25.72 2.153-4.214 5.94-7.641 16.94 4.515 25.939-3.91 4.487-6.19 7.034-10.629 11.529-32.164-31.764-64.147-67.177-92.931-101.294-21.282-25.12-33.236-24.154-46.36-35.141-15.185-12.788-25.418-24.602-55.563-52.25 34.256 22.358 48.952 29.895 64.23 40.834 14.623 10.608 14.951 20.04 47.636 34.273 41.536 17.718 83.847 38.678 123.214 60.91z" fill="#fff"/><path d="M556.32 560.136c-4.424 4.508-7.058 6.448-11.484 10.429-9.216-8.472-19.233-9.842-25.4-4.581-5.609 4.646-11.768 14.382-2.357 26.223-4.94 3.322-7.8 5.19-13.252 8.383-22.84-39.01-44.56-81.497-63.527-121.906-14.05-29.773-25.846-31.937-35.676-45.947-11.356-16.285-18.18-30.347-40.136-64.858 27.296 30.467 39.54 41.553 51.463 56.075 11.377 14.034 9.251 23.229 37.135 45.44 35.53 27.872 70.97 59.074 103.235 90.743z" fill="#fff"/><path d="M499.532 603.484c-5.447 3.198-8.496 4.384-13.807 7.072-6.686-10.584-16-14.52-23.326-11.05-6.626 3.022-15.112 10.814-9.116 24.7-5.635 1.918-8.885 2.976-14.98 4.635-11.871-43.619-21.754-90.301-29.52-134.258-5.794-32.409-16.617-37.575-22.451-53.665-6.714-18.684-9.633-34.039-21.824-73.084 18.402 36.534 27.328 50.43 35.05 67.56 7.321 16.517 2.87 24.839 23.992 53.557 27.027 36.176 53.098 75.544 75.983 114.534z" fill="#fff"/><path d="M433.788 630.413c-6.09 1.674-9.342 2.028-15.17 3.246-3.71-11.956-11.683-18.174-19.659-16.725-7.183 1.199-17.4 6.522-15.213 21.488-5.94.39-9.353.568-15.67.589-.145-45.205 2.426-92.853 6.334-137.319 2.814-32.802-6.298-40.6-7.756-57.653-1.635-19.786-.47-35.371-2.11-76.243 8.29 40.058 13.304 55.795 16.316 74.342 2.784 17.85-3.674 24.732 9.272 57.947 16.713 41.95 31.673 86.736 43.656 130.329z" fill="#fff"/><path d="M362.995 639.354c-6.316.03-9.548-.476-15.49-.82-.467-12.509-6.544-20.59-14.622-21.27-7.247-.714-18.499 1.762-20.288 16.78-5.836-1.171-9.178-1.888-15.282-3.515 11.642-43.68 26.543-89.011 41.904-130.922 11.266-30.935 4.502-40.838 7.538-57.682 3.579-19.528 8.766-34.272 17.834-74.158-2.436 40.834-1.697 57.334-3.623 76.025-1.964 17.959-9.993 22.92-6.151 58.36 5.202 44.858 7.973 91.994 8.18 137.204z" fill="#fff"/><path d="M292.956 629.706c-6.11-1.603-9.1-2.926-14.754-4.792 2.78-12.206-1.004-21.582-8.632-24.325-6.817-2.562-18.327-3.075-23.933 10.972-5.336-2.639-8.38-4.195-13.856-7.343 22.527-39.192 48.628-79.138 74.292-115.66 18.872-26.977 14.895-38.291 22.178-53.78 8.5-17.941 17.319-30.845 36.38-67.037-12.9 38.82-16.446 54.951-23.134 72.51-6.535 16.843-15.572 19.562-21.013 54.794-6.558 44.679-16.053 90.932-27.528 134.662z" fill="#fff"/><path d="M227.558 602.174c-5.485-3.131-8.032-5.185-13.008-8.452 5.85-11.068 4.625-21.105-2.032-25.731-5.92-4.242-16.903-7.72-25.96 4.393-4.469-3.932-7.004-6.223-11.478-10.683 31.916-32.014 67.478-63.829 101.732-92.451 25.219-21.163 24.31-33.121 35.359-46.193 12.86-15.125 24.722-25.302 52.512-55.316-22.52 34.15-30.126 48.81-41.137 64.036-10.677 14.573-20.11 14.857-34.498 47.474-17.914 41.452-39.073 83.663-61.49 122.924z" fill="#fff"/><path d="M171.451 558.54c-4.484-4.448-6.41-7.093-10.367-11.54 8.522-9.17 9.945-19.18 4.718-25.376-4.616-5.633-14.32-11.844-26.21-2.497-3.295-4.957-5.149-7.828-8.311-13.297 39.132-22.63 81.736-44.12 122.245-62.869 29.85-13.89 32.076-25.673 46.14-35.428 16.345-11.268 30.443-18.016 65.073-39.786-30.614 27.132-41.766 39.315-56.352 51.16-14.095 11.301-23.278 9.126-45.64 36.89-28.062 35.379-59.455 70.65-91.297 102.744z" fill="#fff"/><path d="M128.318 501.363c-3.165-5.467-4.332-8.522-6.988-13.85 10.623-6.622 14.615-15.911 11.19-23.259-2.981-6.644-10.722-15.177-24.643-9.265-1.884-5.647-2.923-8.903-4.545-15.008 43.69-11.607 90.432-21.207 134.435-28.706 32.443-5.599 37.675-16.39 53.8-22.127 18.724-6.6 34.096-9.426 73.214-21.38-36.644 18.18-50.595 27.022-67.771 34.64-16.56 7.22-24.855 2.72-53.7 23.667-36.34 26.808-75.865 52.64-114.994 75.288z" fill="#fff"/><path d="M232.296 130.998c5.48-3.14 8.542-4.294 13.881-6.927 6.575 10.653 15.846 14.686 23.209 11.294 6.657-2.952 15.224-10.655 9.374-24.603 5.655-1.859 8.916-2.883 15.028-4.477 11.413 43.74 20.806 90.523 28.11 134.559 5.455 32.467 16.223 37.747 21.889 53.897 6.517 18.753 9.275 34.137 21.056 73.308-18.018-36.725-26.798-50.714-34.34-67.924-7.147-16.592-2.61-24.867-23.429-53.804-26.646-36.458-52.303-76.097-74.778-115.324z" fill="#fff"/><path d="M93.285 364.414c.013-6.317.541-9.545.925-15.485 12.512-.382 20.634-6.404 21.369-14.477.764-7.242-1.636-18.51-16.642-20.401 1.211-5.829 1.951-9.165 3.62-15.258 43.6 11.938 88.828 27.146 130.634 42.792 30.858 11.476 40.807 4.779 57.63 7.93 19.503 3.71 34.211 8.998 74.035 18.337-40.817-2.714-57.321-2.087-75.999-4.14-17.945-2.086-22.85-10.148-58.318-6.547-44.891 4.897-92.045 7.348-137.255 7.248z" fill="#fff"/><path d="M103.254 294.958c1.632-6.102 2.97-9.087 4.863-14.73 12.192 2.838 21.587-.9 24.366-8.516 2.595-6.804 3.164-18.311-10.856-23.986 2.665-5.323 4.235-8.358 7.41-13.82 39.083 22.716 78.902 49.01 115.3 74.849 26.886 19.002 38.22 15.08 53.673 22.437 17.9 8.586 30.761 17.467 66.86 36.702-38.756-13.085-54.87-16.71-72.398-23.482-16.81-6.616-19.486-15.667-54.691-21.278-44.647-6.773-90.854-16.491-134.528-28.177z" fill="#fff"/><path d="M131.104 229.69c3.158-5.47 5.224-8.006 8.515-12.967 11.04 5.903 21.082 4.727 25.74-1.908 4.27-5.899 7.802-16.865-4.267-25.98 3.953-4.45 6.257-6.975 10.738-11.427 31.86 32.07 63.502 67.786 91.959 102.177 21.04 25.321 33.003 24.47 46.021 35.582 15.063 12.933 25.182 24.844 55.062 52.779-34.04-22.685-48.664-30.362-63.837-41.446-14.521-10.748-14.76-20.182-47.306-34.727-41.365-18.114-83.474-39.477-122.626-62.084z" fill="#fff"/><path d="M175.912 172.92c4.491-4.442 7.153-6.343 11.638-10.258 9.089 8.608 19.085 10.126 25.33 4.958 5.677-4.563 11.98-14.207 2.745-26.185 4.988-3.249 7.877-5.075 13.375-8.186 22.26 39.345 43.347 82.15 61.711 122.835 13.607 29.98 25.37 32.318 34.99 46.473 11.114 16.451 17.728 30.612 39.17 65.446-26.841-30.869-38.918-42.136-50.625-56.833-11.168-14.2-8.906-23.363-36.457-45.987-35.112-28.395-70.085-60.12-101.877-92.264z" fill="#fff"/></g></g></svg>