<svg xmlns="http://www.w3.org/2000/svg" height="512" width="512"><g fill-rule="evenodd" stroke-width="1pt"><path fill="#d61517" d="M0 0h511.983v512H0z"/><path fill="#018edf" d="M170.666 0h170.666v512H170.666z"/></g><g fill-rule="evenodd" fill-opacity=".867" fill="gold"><path d="M83.133 189.458c7.41.215 8.55-2.356 8.55-4.926v-8.783c0-1.07 2.85-2.142 2.85-4.07 0-1.928-1.425-4.07-1.995-5.355-.855 3.213-2.28 6.426-4.845 7.498-1.14-2.57-1.425-3.428-.855-4.713.57-1.285 0-3.213-1.14-5.14-.855 4.069-3.42 5.14-3.705 6.425-.285 1.285-1.14 4.927-2.85 2.999-1.71-1.928-2.85-4.284-3.705-6.855-1.71 5.14-.855 6.212-.285 7.069.57.857 1.14 3.427 1.14 4.498 0 1.071-1.14 5.355-.57 6.64.57 1.286.855 5.141 7.41 4.713zM103.757 208c0 7.757-8.367 14.045-18.688 14.045S66.382 215.757 66.382 208s8.367-14.046 18.687-14.046 18.688 6.289 18.688 14.046z"/><path d="M111.137 213.55c-9.866 13.783-28.866 17.614-42.955 8.374-3.714-2.435-6.43-5.162-9.014-8.654 2.33 9.909 9.394 16.923 19.168 19.427 14.386 3.685 29.082-4.893 32.801-19.148zM56.475 322.148h55.6v11.567h-55.6zM59.193 240.401l24.796 15.046 25.08-15.046H59.193zM59.193 256.69h50.161v11.568h-50.16zM59.193 341.127l24.796 11.781 25.08-11.78H59.193zM21.67 240.57h24.204v111.84H21.671zM121.238 240.57h24.204v111.84h-24.204zM67.146 279.857c7.4-5.477 18.457-9.58 22.432-5.14 3.997 4.592 4.946 8.694 4.07 12.385-1.182 3.204-6.495 7.03-10.421 4.999-4.512-2.129-11.709 5.25-12.536 9.324-1.078 4.347-1.184 9.515.057 14.31-11.82-13.781-12.624-29.726-3.601-35.879zm20.098 6.81c-2.039 1.199-5.005-.02-6.62-2.72-1.616-2.7-.376-3.704 1.662-4.903 2.04-1.198 4.108-2.14 5.724.56 1.616 2.7 1.272 5.864-.766 7.062zm11.418 24.478c-7.308 5.612-19.347 7.779-23.363 3.388-4.038-4.545-.694-10.283.133-14 1.14-3.232 6.4-6.063 10.338-4.087 4.52 2.064 11.78-6.035 10.922-11.225 1.022-4.377-.38-5.122-2.51-11.545 11.945 13.641 13.396 31.154 4.48 37.47zm-16.285-8.64c2.016-1.234 4.443-.603 6.085 2.08 1.643 2.684 1.531 4.793-.485 6.028-2.018 1.234-5.18 1.13-6.822-1.553-1.643-2.684-.795-5.32 1.222-6.555z"/></g></svg>